<svg xmlns="http://www.w3.org/2000/svg">
<defs>
<font id="MoolBoran" horiz-adv-x="0" >
  <font-face 
    font-family="MoolBoran"
    font-weight="400"
    font-stretch="normal"
    units-per-em="2048"
    panose-1="2 11 1 0 1 1 1 1 1 1"
    ascent="1638"
    descent="-410"
    x-height="615.999"
    cap-height="922"
    bbox="-1228 -1343 2383 1789"
    underline-thickness="10"
    underline-position="-40"
    unicode-range="U+000D-U+FB02"
  />
<missing-glyph horiz-adv-x="890" 
d="M118 -4v902h647v-902h-647zM174 54h534v786h-534v-786zM415 293c1.33301 15.333 2.33301 29.4971 3 42.4971s3.33398 25.167 8.00098 36.5c3.33301 10.667 9 24.167 17 40.5s16.667 35.166 26 56.499c8.66699 21.333 16 40.333 22 57s10.333 31 13 43
c2 8.66699 3.33301 16.5 4 23.5s1 13.167 1 18.5c0 24.667 -5.66699 45.667 -17 63c-5.33301 8.66699 -11.333 16.5 -18 23.5s-14 12.167 -22 15.5c-16.667 8.66699 -33.667 13 -51 13c-22 0 -43.333 -5.33301 -64 -16c-20 -11.333 -30 -24.666 -30 -39.999
c0 -5.33301 1.66699 -10.666 5 -15.999c1.33301 -2 3 -4.16699 5 -6.5l8 -9.5c3.33301 -3.33301 6.16602 -6.33301 8.49902 -9s4.5 -5 6.5 -7c2.66699 -6 4 -12 4 -18c0 -13.333 -3 -21.333 -9 -24c-6.66699 -4.66699 -17 -9.33398 -31 -14.001
c-31.333 3.33301 -47 22.333 -47 57c0 26.667 7.66699 50.334 23 71.001c13.333 18.667 33.333 33.334 60 44.001c12.667 5.33301 25.5 9.33301 38.5 12s26.5 4.33398 40.5 5.00098c18.667 0 40.667 -4 66 -12c12 -3.33301 22.833 -7 32.5 -11s18.5 -8 26.5 -12
c38.667 -24.667 58 -63 58 -115v-5c0 -9.33301 -1.5 -18.833 -4.5 -28.5s-6.83301 -19.5 -11.5 -29.5l-17.5 -27c-5.66699 -8.66699 -11.834 -16.667 -18.501 -24c-6 -8 -13.333 -16.833 -22 -26.5l-29 -31.5c-9.33301 -10 -15.666 -22.833 -18.999 -38.5l-10 -46
c-3.33301 -15 -8 -28 -14 -39s-16 -16.5 -30 -16.5h-11zM466 220.997c10 -10 15 -21.667 15 -35s-5 -24 -15 -32c-11.333 -10 -24.666 -15 -39.999 -15c-14 0 -26.333 5 -37 15c-11.333 8 -17 18.667 -17 32c0 12.667 5.66699 24 17 34c2.66699 2 6.16699 3.83301 10.5 5.5
s8.5 3.16699 12.5 4.5l14 4c15.333 0 28.666 -4.33301 39.999 -13z" />
    <glyph glyph-name=".notdef" horiz-adv-x="890" 
d="M118 -4v902h647v-902h-647zM174 54h534v786h-534v-786zM415 293c1.33301 15.333 2.33301 29.4971 3 42.4971s3.33398 25.167 8.00098 36.5c3.33301 10.667 9 24.167 17 40.5s16.667 35.166 26 56.499c8.66699 21.333 16 40.333 22 57s10.333 31 13 43
c2 8.66699 3.33301 16.5 4 23.5s1 13.167 1 18.5c0 24.667 -5.66699 45.667 -17 63c-5.33301 8.66699 -11.333 16.5 -18 23.5s-14 12.167 -22 15.5c-16.667 8.66699 -33.667 13 -51 13c-22 0 -43.333 -5.33301 -64 -16c-20 -11.333 -30 -24.666 -30 -39.999
c0 -5.33301 1.66699 -10.666 5 -15.999c1.33301 -2 3 -4.16699 5 -6.5l8 -9.5c3.33301 -3.33301 6.16602 -6.33301 8.49902 -9s4.5 -5 6.5 -7c2.66699 -6 4 -12 4 -18c0 -13.333 -3 -21.333 -9 -24c-6.66699 -4.66699 -17 -9.33398 -31 -14.001
c-31.333 3.33301 -47 22.333 -47 57c0 26.667 7.66699 50.334 23 71.001c13.333 18.667 33.333 33.334 60 44.001c12.667 5.33301 25.5 9.33301 38.5 12s26.5 4.33398 40.5 5.00098c18.667 0 40.667 -4 66 -12c12 -3.33301 22.833 -7 32.5 -11s18.5 -8 26.5 -12
c38.667 -24.667 58 -63 58 -115v-5c0 -9.33301 -1.5 -18.833 -4.5 -28.5s-6.83301 -19.5 -11.5 -29.5l-17.5 -27c-5.66699 -8.66699 -11.834 -16.667 -18.501 -24c-6 -8 -13.333 -16.833 -22 -26.5l-29 -31.5c-9.33301 -10 -15.666 -22.833 -18.999 -38.5l-10 -46
c-3.33301 -15 -8 -28 -14 -39s-16 -16.5 -30 -16.5h-11zM466 220.997c10 -10 15 -21.667 15 -35s-5 -24 -15 -32c-11.333 -10 -24.666 -15 -39.999 -15c-14 0 -26.333 5 -37 15c-11.333 8 -17 18.667 -17 32c0 12.667 5.66699 24 17 34c2.66699 2 6.16699 3.83301 10.5 5.5
s8.5 3.16699 12.5 4.5l14 4c15.333 0 28.666 -4.33301 39.999 -13z" />
    <glyph glyph-name=".null" 
 />
    <glyph glyph-name=".null" 
 />
    <glyph glyph-name="nonmarkingreturn" unicode="&#xd;" horiz-adv-x="484" 
 />
    <glyph glyph-name="space" unicode=" " horiz-adv-x="265" 
 />
    <glyph glyph-name="exclam" unicode="!" horiz-adv-x="385" 
d="M133 284l-37 638h193l-37 -638h-119zM193 224l116 -126l-116 -126l-116 126z" />
    <glyph glyph-name="quotedbl" unicode="&#x22;" horiz-adv-x="539" 
d="M181 680h-89l-39 343h167zM447 680h-90l-39 343h167z" />
    <glyph glyph-name="numbersign" unicode="#" horiz-adv-x="785" 
d="M102 566l20 105h156l51 250h85l-50 -250h140l51 250h82l-50 -250h152l-21 -105h-151l-43 -215h163l-20 -103h-163l-50 -248h-85l49 248h-138l-48 -248h-85l49 248h-145l18 103h148l41 215h-156zM301 351h139l44 215h-140z" />
    <glyph glyph-name="dollar" unicode="$" horiz-adv-x="665" 
d="M622 270c0 -28.667 -5.83398 -57.332 -17.501 -85.999s-28.334 -55.334 -50.001 -80.001s-48.167 -46.5 -79.5 -65.5s-66.666 -32.833 -105.999 -41.5v-107h-76v98c-3.33301 0 -6 -0.166992 -8 -0.5s-4.33301 -0.5 -7 -0.5c-28 0 -54 1.66699 -78 5
s-46.5 7.83301 -67.5 13.5s-41.167 12.667 -60.5 21s-38.666 17.5 -57.999 27.5l44 137c12 -8 27.167 -16.833 45.5 -26.5s38.166 -18.667 59.499 -27s43.166 -15.5 65.499 -21.5s43.833 -9.66699 64.5 -11v286c-29.333 11.333 -58.666 24 -87.999 38
s-55.833 31.667 -79.5 53s-43 47.833 -58 79.5s-22.5 71.167 -22.5 118.5c0 23.333 5.66699 47.833 17 73.5s27.5 50 48.5 73s46.833 43.333 77.5 61s65.667 30.167 105 37.5v100h76v-93h1c40 0 76.667 -2 110 -6s67.333 -9.33301 102 -16l-27 -137
c-30 11.333 -61.167 21 -93.5 29s-63.166 12.667 -92.499 14v-252c28.667 -11.333 58 -24 88 -38s57.333 -31.833 82 -53.5s44.667 -48.667 60 -81s23 -72.833 23 -121.5zM462.999 245.002c0 28.667 -8.66602 51.502 -25.999 68.502s-40 32.167 -68 45.5v-249
c10 1.33301 18.833 3.16602 26.5 5.49902s15.167 5.16602 22.5 8.49902c13.333 6 24.166 19.167 32.499 39.5s12.5 47.5 12.5 81.5zM203 708.004c0 -28 8.33105 -50.3311 24.998 -66.998s38.334 -31.334 65.001 -44.001v218c-23.333 -2.66699 -42.333 -8.33398 -57 -17.001
c-11.333 -6.66699 -19.666 -17.667 -24.999 -33s-8 -34.333 -8 -57z" />
    <glyph glyph-name="percent" unicode="%" horiz-adv-x="1053" 
d="M816 922l-487 -932h-107l486 932h108zM248 442c-74.667 0 -131.667 20.334 -171 61.001s-59 100 -59 178c0 74.667 19.333 133.667 58 177s96 65 172 65c75.333 0 132.333 -20.833 171 -62.5s58 -100.834 58 -177.501c0 -74.667 -19.333 -133.5 -58 -176.5
s-95.667 -64.5 -171 -64.5zM246 513.001c22 0 41.3301 5.33496 57.9971 16.002c10 7.33301 17.5 25.166 22.5 53.499s7.5 61.166 7.5 98.499c0 32.667 -1.5 60 -4.5 82s-7.66699 39.5 -14 52.5s-15 22.167 -26 27.5s-24.5 8 -40.5 8c-11.333 0 -22.666 -1.5 -33.999 -4.5
s-20.666 -7.16699 -27.999 -12.5c-10 -7.33301 -16.833 -23.5 -20.5 -48.5s-5.5 -59.5 -5.5 -103.5c0 -33.333 1.33301 -61 4 -83s7.33398 -39.333 14.001 -52s15.167 -21.5 25.5 -26.5s23.5 -7.5 39.5 -7.5h2zM796.997 0.00292969c-74.667 0 -131.667 20.334 -171 61.001
s-59 100 -59 178c0 74.667 19.333 133.667 58 177s96 65 172 65c75.333 0 132.333 -20.833 171 -62.5s58 -100.834 58 -177.501c0 -74.667 -19.333 -133.5 -58 -176.5s-95.667 -64.5 -171 -64.5zM794.997 71.0039c22 0 41.3291 5.33496 57.9961 16.002
c10 7.33301 17.667 25.166 23 53.499s8 61.166 8 98.499c0 32.667 -1.5 60 -4.5 82s-7.83301 39.5 -14.5 52.5s-15.5 22.167 -26.5 27.5s-24.5 8 -40.5 8c-11.333 0 -22.666 -1.5 -33.999 -4.5s-20.666 -7.16699 -27.999 -12.5c-10 -7.33301 -16.833 -23.5 -20.5 -48.5
s-5.5 -59.5 -5.5 -103.5c0 -33.333 1.33301 -61 4 -83s7.33398 -39.333 14.001 -52s15.334 -21.5 26.001 -26.5s23.667 -7.5 39 -7.5h2z" />
    <glyph glyph-name="ampersand" unicode="&#x26;" horiz-adv-x="894" 
d="M28 248c0 60.667 15.833 111.338 47.5 152.005s77.167 77.667 136.5 111c-19.333 31.333 -34.333 63.666 -45 96.999s-16 68 -16 104c0 30.667 5.33301 59 16 85s26 48.5 46 67.5s44.167 34 72.5 45s60.166 16.5 95.499 16.5c39.333 0 72.833 -4.5 100.5 -13.5
s50.167 -21 67.5 -36s30 -32.667 38 -53s12 -41.5 12 -63.5c0 -27.333 -4.83301 -52.333 -14.5 -75s-23.167 -43.667 -40.5 -63s-38 -37.666 -62 -54.999s-50.333 -34.333 -79 -51c30 -38.667 63.167 -79 99.5 -121s73.5 -82.667 111.5 -122
c17.333 31.333 29.5 65.5 36.5 102.5s10.5 72.5 10.5 106.5c0 10 -1 21.167 -3 33.5s-3.66699 22.166 -5 29.499l137 22c4.66699 -8.66699 8.16699 -19.834 10.5 -33.501s3.5 -26.5 3.5 -38.5c0 -50 -10.5 -99.333 -31.5 -148s-50.833 -95.667 -89.5 -141
c42.667 -38.667 83.834 -70.334 123.501 -95.001s75.5 -37 107.5 -37h18v-60c-21.333 -6.66699 -44 -12.334 -68 -17.001s-53 -7 -87 -7c-32 0 -65.833 9.5 -101.5 28.5s-72.167 44.167 -109.5 75.5c-44 -32.667 -89.167 -57.834 -135.5 -75.501s-93.5 -26.5 -141.5 -26.5
c-42 0 -79.333 7 -112 21s-60 32.833 -82 56.5s-38.667 51 -50 82s-17 63.167 -17 96.5zM358 107.004c52.667 0 100.667 14.999 144 44.999c-42.667 42 -83.667 86.833 -123 134.5s-75 93.5 -107 137.5c-23.333 -24 -39.5 -48.667 -48.5 -74s-13.5 -53.333 -13.5 -84
c0 -25.333 3.83301 -47.833 11.5 -67.5s18.167 -36.167 31.5 -49.5s29 -23.666 47 -30.999s37.333 -11 58 -11zM301 726.003c0 -24 4.33203 -47.999 12.999 -71.999s21.334 -47.667 38.001 -71c21.333 12 39.333 23.667 54 35s26.5 23.166 35.5 35.499s15.5 25.333 19.5 39
s6 29.167 6 46.5c0 34 -7 59.833 -21 77.5s-32.667 26.5 -56 26.5c-10.667 0 -21.334 -2 -32.001 -6s-20.167 -10.667 -28.5 -20s-15.166 -21.333 -20.499 -36s-8 -33 -8 -55z" />
    <glyph glyph-name="quotesingle" unicode="'" horiz-adv-x="274" 
d="M181 680h-89l-39 343h167z" />
    <glyph glyph-name="parenleft" unicode="(" horiz-adv-x="501" 
d="M309 -235c-142.667 169.333 -214 378.998 -214 628.998c0 250.667 71.333 463.334 214 638.001h151c-142.667 -181.333 -214 -393.666 -214 -636.999c0 -241.333 71 -451.333 213 -630h-150z" />
    <glyph glyph-name="parenright" unicode=")" horiz-adv-x="501" 
d="M42 -235c142 178.667 213 388.669 213 630.002c0 243.333 -71.333 455.666 -214 636.999h152c142.667 -176 214 -388.667 214 -638c0 -248.667 -71.333 -458.334 -214 -629.001h-151z" />
    <glyph glyph-name="asterisk" unicode="*" horiz-adv-x="584" 
d="M90 531l-75 111l204 107l-203 80l69 114l168 -147l-24 227h128l-24 -227l169 147l68 -114l-203 -80l204 -107l-74 -111l-164 165l24 -229h-128l24 229z" />
    <glyph glyph-name="plus" unicode="+" horiz-adv-x="703" 
d="M660 382h-263v-290h-91v290h-263v96h263v291h91v-291h263v-96z" />
    <glyph glyph-name="comma" unicode="," horiz-adv-x="308" 
d="M261 123l-178 -304l-71 26l97 344z" />
    <glyph glyph-name="hyphen" unicode="-" horiz-adv-x="417" 
d="M366 264h-323l8 122h323z" />
    <glyph glyph-name="period" unicode="." horiz-adv-x="342" 
d="M170 226l118 -123l-118 -124l-117 124z" />
    <glyph glyph-name="slash" unicode="/" horiz-adv-x="543" 
d="M569 1032l-470 -1203h-124l469 1203h125z" />
    <glyph glyph-name="zero" unicode="0" horiz-adv-x="710" 
d="M354 -11c-55.333 0 -102.666 10.1641 -141.999 30.4971s-71.333 50.333 -96 90s-42.667 88.834 -54 147.501s-17 126.334 -17 203.001c0 72.667 5.5 138.167 16.5 196.5s28.667 107.833 53 148.5s56.166 72 95.499 94s87.333 33 144 33c56 0 103.667 -10.5 143 -31.5
s71.333 -51.5 96 -91.5s42.5 -89.167 53.5 -147.5s16.5 -124.833 16.5 -199.5c0 -73.333 -5.5 -139.166 -16.5 -197.499s-28.833 -107.833 -53.5 -148.5s-56.667 -72 -96 -94s-87 -33 -143 -33zM227 460.997c0 -131.333 9.16699 -227.666 27.5 -288.999
s51.166 -92 98.499 -92c17.333 0 34 2.16699 50 6.5s30.333 10.166 43 17.499c10.667 7.33301 19.334 39.666 26.001 96.999s10 143.666 10 258.999c0 129.333 -9.66699 225.333 -29 288s-52 94 -98 94c-17.333 0 -32.833 -1.66699 -46.5 -5s-26.167 -8 -37.5 -14
c-13.333 -7.33301 -24 -41.666 -32 -102.999s-12 -147.666 -12 -258.999z" />
    <glyph glyph-name="one" unicode="1" horiz-adv-x="710" 
d="M355 0v781l-231 -181l-51 80l325 242h132v-922h-175z" />
    <glyph glyph-name="two" unicode="2" horiz-adv-x="710" 
d="M235 138c14.667 0 32.1689 0.163086 52.502 0.496094l64 1l69.5 1c24 0.333008 47.333 0.833008 70 1.5l167 4l-29 -146h-573v63l263 320c35.333 42.667 63.166 84.834 83.499 126.501s30.5 86.5 30.5 134.5s-13.167 86 -39.5 114s-66.5 42 -120.5 42
c-32 0 -66 -4.5 -102 -13.5s-70 -19.5 -102 -31.5l19 147c12 4 27.167 7.83301 45.5 11.5s37.833 6.83398 58.5 9.50098s41.5 4.83398 62.5 6.50098s40.5 2.5 58.5 2.5c41.333 0 80.166 -4.66699 116.499 -14s68 -23.333 95 -42s48.333 -42.167 64 -70.5
s23.5 -61.833 23.5 -100.5c0 -32 -5 -62.833 -15 -92.5s-23.667 -58.667 -41 -87s-37.5 -56.666 -60.5 -84.999l-73.5 -87.5z" />
    <glyph glyph-name="three" unicode="3" horiz-adv-x="710" 
d="M245 537c64.667 4 112.663 18.834 143.996 44.501s47 60.5 47 104.5c0 39.333 -13 68 -39 86s-68.333 27 -127 27c-28 0 -58.333 -3.5 -91 -10.5s-64.334 -16.167 -95.001 -27.5l23 138c13.333 6 28.666 11.167 45.999 15.5s35.333 7.66602 54 9.99902
s37.167 4.16602 55.5 5.49902s35.5 2 51.5 2c93.333 0 164.833 -17.5 214.5 -52.5s74.5 -88.167 74.5 -159.5c0 -31.333 -6.16699 -58.666 -18.5 -81.999s-27.666 -43.5 -45.999 -60.5s-38.166 -30.833 -59.499 -41.5s-41 -19 -59 -25v-2
c23.333 -4 47.833 -11.167 73.5 -21.5s49.334 -24.333 71.001 -42s39.667 -39.334 54 -65.001s21.5 -55.5 21.5 -89.5c0 -37.333 -10.167 -74.166 -30.5 -110.499s-46.5 -68.833 -78.5 -97.5s-68 -51.834 -108 -69.501s-79.667 -26.5 -119 -26.5
c-115.333 0 -209.333 24 -282 72l52 131c11.333 -10 25.833 -21 43.5 -33s36.834 -23.333 57.501 -34s41.834 -19.5 63.501 -26.5s42.5 -10.5 62.5 -10.5c23.333 0 44 1.83301 62 5.5s33.333 8.83398 46 15.501c16.667 8.66699 30.334 26.167 41.001 52.5s16 64.5 16 114.5
c0 39.333 -7 70.666 -21 93.999s-31.833 41.333 -53.5 54s-45.5 20.834 -71.5 24.501s-51 5.5 -75 5.5v85z" />
    <glyph glyph-name="four" unicode="4" horiz-adv-x="710" 
d="M22 356l385 569.999h171v-565h112l-22 -129l-90 -4v-228h-175v223h-40.5c-16.333 0 -34.5 0.166992 -54.5 0.5l-62.5 1c-21.667 0.333008 -43.167 0.5 -64.5 0.5c-50 0.666992 -103 1.33398 -159 2.00098v129zM132 360.999h271v418z" />
    <glyph glyph-name="five" unicode="5" horiz-adv-x="710" 
d="M235 604c72 0 133.499 -8.66406 184.499 -25.9971s92.667 -39.833 125 -67.5s55.833 -58.667 70.5 -93s22 -68.5 22 -102.5c0 -37.333 -8 -75.333 -24 -114s-38.667 -73.834 -68 -105.501s-64.5 -57.667 -105.5 -78s-86.167 -30.5 -135.5 -30.5c-54 0 -102 5.5 -144 16.5
s-79.333 27.833 -112 50.5l53 134c11.333 -9.33301 25.5 -20 42.5 -32s35.333 -23.167 55 -33.5s39.834 -19 60.501 -26s40 -10.5 58 -10.5c20.667 0 38.667 1.66699 54 5s29.666 8.66602 42.999 15.999c14.667 7.33301 27 25.666 37 54.999s15 70 15 122
c0 30.667 -7.16699 57.834 -21.5 81.501s-35 43.5 -62 59.5s-59.833 28 -98.5 36s-82 12 -130 12h-51l21 448c16 0 35.167 0.166992 57.5 0.5s46 0.666016 71 0.999023l77.5 1c26.667 0.333008 52.667 0.833008 78 1.5l186 4l-22 -145h-362l-11 -181
c2.66699 0.666992 7.83398 1 15.501 1h20.5z" />
    <glyph glyph-name="six" unicode="6" horiz-adv-x="710" 
d="M487 301c0 64 -10.332 110 -30.999 138s-51.334 42 -92.001 42c-25.333 0 -49.5 -3.5 -72.5 -10.5s-43.167 -16.167 -60.5 -27.5c0 -46 1.66699 -90.667 5 -134s10 -82 20 -116s24 -61.333 42 -82s41.333 -31 70 -31c18.667 0 34.167 2.16699 46.5 6.5
s23.833 10.5 34.5 18.5c8.66699 7.33301 17.167 26.5 25.5 57.5s12.5 77.167 12.5 138.5zM297.001 806c-10 -7.33301 -19.0049 -19.499 -27.0049 -36.499s-14.833 -38.5 -20.5 -64.5s-10.167 -55.667 -13.5 -89s-5 -70 -5 -110c21.333 21.333 48.833 39.333 82.5 54
s70.5 22 110.5 22c74 0 132.833 -23 176.5 -69s65.5 -116.333 65.5 -211c0 -46 -6.83301 -88.167 -20.5 -126.5s-33.167 -71.333 -58.5 -99s-56.166 -49 -92.499 -64s-77.166 -22.5 -122.499 -22.5c-53.333 0 -100.166 10.333 -140.499 31s-74.166 50.667 -101.499 90
s-47.833 87.333 -61.5 144s-20.5 121 -20.5 193c0 88 10.833 162.833 32.5 224.5s50.834 111.667 87.501 150s79 66.166 127 83.499s98 26 150 26c35.333 0 68.5 -2.16699 99.5 -6.5s61.833 -9.83301 92.5 -16.5l-27 -136c-16 6 -33.333 12.167 -52 18.5s-37.667 12 -57 17
s-38.833 9.16699 -58.5 12.5s-38.5 5 -56.5 5s-35 -1.66699 -51 -5s-28.667 -8.33301 -38 -15z" />
    <glyph glyph-name="seven" unicode="7" horiz-adv-x="710" 
d="M284 0l-132.001 -0.000976562l378 767c-15.333 0 -33.666 -0.166992 -54.999 -0.5s-44.5 -0.666016 -69.5 -0.999023l-77.5 -1c-26.667 -0.333008 -53 -0.833008 -79 -1.5l-190 -4l22 163h580v-106z" />
    <glyph glyph-name="eight" unicode="8" horiz-adv-x="710" 
d="M355 -12c-100 0 -176.502 21.833 -229.502 65.5s-79.5 107.5 -79.5 191.5c0 26.667 4.16699 52.167 12.5 76.5s19.5 46.5 33.5 66.5s30.333 37.167 49 51.5s38.667 25.5 60 33.5c-18 7.33301 -35.333 17.666 -52 30.999s-31.167 29.166 -43.5 47.499
s-22.166 38.833 -29.499 61.5s-11 47 -11 73c0 76 23.833 135.833 71.5 179.5s118.167 65.5 211.5 65.5s163.833 -21.167 211.5 -63.5s71.5 -102.166 71.5 -179.499c0 -24.667 -3.66699 -48 -11 -70s-17 -42 -29 -60s-26 -33.833 -42 -47.5s-32.667 -24.5 -50 -32.5
c22.667 -7.33301 44 -18.166 64 -32.499s37.333 -31.5 52 -51.5s26.334 -42.5 35.001 -67.5s13 -51.5 13 -79.5c0 -80.667 -25.833 -144 -77.5 -190s-128.5 -69 -230.5 -69zM223.998 246c0 -33.333 2.33203 -60.999 6.99902 -82.999s12.334 -39.333 23.001 -52
s24 -21.5 40 -26.5s35.667 -7.5 59 -7.5c18.667 0 35.667 2 51 6s28.666 9.33301 39.999 16s21 22 29 46s12 57.333 12 100c0 66 -10.167 113.333 -30.5 142s-53.166 43 -98.499 43c-18 0 -34.333 -1.83301 -49 -5.5s-28.334 -9.83398 -41.001 -18.501
c-15.333 -10.667 -26.166 -31 -32.499 -61s-9.5 -63 -9.5 -99zM242.997 687.001c0 -62 8.00098 -106.165 24.001 -132.498s42.667 -39.5 80 -39.5c15.333 0 28.5 1.66699 39.5 5s21.833 9.66602 32.5 18.999c13.333 10.667 22.166 28.834 26.499 54.501s6.5 56.5 6.5 92.5
c0 30.667 -2 56 -6 76s-10.167 36 -18.5 48s-19 20.333 -32 25s-28.5 7 -46.5 7c-30.667 0 -55 -5.33301 -73 -16c-4.66699 -2.66699 -9 -8.33398 -13 -17.001s-7.5 -19.334 -10.5 -32.001s-5.33301 -26.667 -7 -42s-2.5 -31.333 -2.5 -48z" />
    <glyph glyph-name="nine" unicode="9" horiz-adv-x="710" 
d="M222 626c0 -64.667 10.5 -111.667 31.5 -141s52.167 -44 93.5 -44c25.333 0 49.666 3.33301 72.999 10s43.666 16 60.999 28c0 46 -1.33301 90.667 -4 134s-8.5 82 -17.5 116s-22 61.333 -39 82s-39.833 31 -68.5 31c-17.333 0 -33.166 -2 -47.499 -6
s-26.833 -10 -37.5 -18c-11.333 -8.66699 -21.666 -28.667 -30.999 -60s-14 -75.333 -14 -132zM407 117c21.333 14 38.668 45.3359 52.001 94.0029s20 117 20 205c-21.333 -21.333 -48.833 -39.5 -82.5 -54.5s-70.5 -22.5 -110.5 -22.5c-74 0 -132.833 23 -176.5 69
s-65.5 116.667 -65.5 212c0 46 7.16699 88.167 21.5 126.5s34.666 71.333 60.999 99s58.333 49 96 64s80.167 22.5 127.5 22.5c53.333 0 99.5 -10.333 138.5 -31s71.333 -50.834 97 -90.501s44.667 -87.834 57 -144.501s18.5 -121 18.5 -193
c0 -83.333 -9.5 -155.333 -28.5 -216s-45.5 -110.667 -79.5 -150s-74.5 -68.666 -121.5 -87.999s-98.5 -29 -154.5 -29c-38 0 -73.5 2.16699 -106.5 6.5s-65.5 11.166 -97.5 20.499l26 132c12.667 -5.33301 27.834 -11 45.501 -17s36.167 -11.667 55.5 -17
s38.833 -9.83301 58.5 -13.5s38.167 -5.5 55.5 -5.5c24 0 43.167 2.16699 57.5 6.5s26.166 9.16602 35.499 14.499z" />
    <glyph glyph-name="colon" unicode=":" horiz-adv-x="341" 
d="M170 226l118 -123l-118 -124l-117 124zM170 634l118 -124l-118 -123l-117 123z" />
    <glyph glyph-name="semicolon" unicode=";" horiz-adv-x="341" 
d="M170 634l118 -124l-118 -123l-117 123zM261 123l-178 -304l-71 26l97 344z" />
    <glyph glyph-name="less" unicode="&#x3c;" horiz-adv-x="601" 
d="M559 129l-516 263v73l516 295v-104l-412 -224v-3l412 -198v-102z" />
    <glyph glyph-name="equal" unicode="=" horiz-adv-x="703" 
d="M43 302h617v-96h-617v96zM43 644h617v-96h-617v96z" />
    <glyph glyph-name="greater" unicode="&#x3e;" horiz-adv-x="601" 
d="M44 231l411 198v3l-411 224v104l516 -295v-73l-516 -263v102z" />
    <glyph glyph-name="question" unicode="?" horiz-adv-x="524" 
d="M330 463c-17.333 -9.33301 -31.8311 -18.001 -43.498 -26.001s-21 -16 -28 -24s-12 -16.5 -15 -25.5s-4.5 -19.833 -4.5 -32.5c0 -14.667 1.5 -27.334 4.5 -38.001s6.83301 -20.667 11.5 -30l-68 -25c-12.667 14 -25 32.167 -37 54.5s-18 47.5 -18 75.5
c0 16.667 2 31.334 6 44.001s10.167 24.5 18.5 35.5s18.666 21.333 30.999 31s26.833 19.5 43.5 29.5c42.667 26 72.334 51.5 89.001 76.5s25 53.5 25 85.5c0 14.667 -2.16699 28.334 -6.5 41.001s-12 23.834 -23 33.501s-25.833 17.167 -44.5 22.5s-42 8 -70 8
c-25.333 0 -51 -2.33301 -77 -7s-53 -12.334 -81 -23.001l22 144c21.333 5.33301 46.5 9.83301 75.5 13.5s57.5 5.5 85.5 5.5c83.333 0 148.166 -18 194.499 -54s69.5 -92.667 69.5 -170c0 -33.333 -3.66699 -62.333 -11 -87s-18 -46.5 -32 -65.5
s-30.833 -35.833 -50.5 -50.5s-41.834 -28.667 -66.501 -42zM226.002 223.999l116 -126l-116 -126l-116 126z" />
    <glyph glyph-name="at" unicode="@" horiz-adv-x="1196" 
d="M928 -63c-20.667 -17.333 -43.666 -34.1641 -68.999 -50.4971s-53.333 -31 -84 -44s-64 -23.5 -100 -31.5s-75 -12 -117 -12c-78 0 -147.333 12.5 -208 37.5s-111.834 59.167 -153.501 102.5s-73.5 94.666 -95.5 153.999s-33 123.333 -33 192
c0 99.333 15.167 187.666 45.5 264.999s72.166 144.666 125.499 201.999c26.667 28.667 56.834 54.334 90.501 77.001s69.5 41.5 107.5 56.5s77.5 26.5 118.5 34.5s82.5 12 124.5 12c74 0 139 -9 195 -27s102.667 -43.833 140 -77.5s65.5 -74.334 84.5 -122.001
s28.5 -101.167 28.5 -160.5c0 -38 -3.66699 -73.333 -11 -106s-17.166 -62.667 -29.499 -90s-26.833 -52.5 -43.5 -75.5s-34 -43.833 -52 -62.5c-24.667 -26 -51.167 -48.167 -79.5 -66.5s-56.833 -33.333 -85.5 -45s-56.167 -20.167 -82.5 -25.5s-49.833 -8 -70.5 -8
c-10 0 -20 2.33301 -30 7s-15 13.667 -15 27c0 12 0.666992 25.667 2 41s2.66602 28.666 3.99902 39.999c-11.333 -11.333 -24.666 -23.666 -39.999 -36.999s-31.833 -25.666 -49.5 -36.999s-36.167 -20.833 -55.5 -28.5s-38.666 -11.5 -57.999 -11.5
c-30.667 0 -54.5 11.667 -71.5 35s-25.5 55 -25.5 95c0 35.333 3.33301 70.5 10 105.5s16.667 68.333 30 100s29.833 61 49.5 88s42.167 50.5 67.5 70.5c21.333 16.667 42 30.334 62 41.001s40.333 19 61 25s42.5 10.167 65.5 12.5s48.5 3.5 76.5 3.5
c16 0 29.333 -0.333008 40 -1s22.334 -2 35.001 -4l-71 -343c-5.33301 -24.667 -8.83301 -43.334 -10.5 -56.001s-2.5 -24.667 -2.5 -36s2.16699 -21.166 6.5 -29.499s16.166 -12.5 35.499 -12.5c21.333 0 45.166 6.16699 71.499 18.5s50.833 33.5 73.5 63.5
c20.667 28 39.334 65.667 56.001 113s25 107 25 179c0 54 -8 101.167 -24 141.5s-39 73.666 -69 99.999s-66.167 46 -108.5 59s-89.833 19.5 -142.5 19.5c-34 0 -67.833 -3 -101.5 -9s-65.834 -15.667 -96.501 -29s-59.834 -30.833 -87.501 -52.5s-52.5 -48.167 -74.5 -79.5
c-36 -50 -64.333 -109.833 -85 -179.5s-31 -145.5 -31 -227.5c0 -58 7.5 -111.667 22.5 -161s38 -91.833 69 -127.5s70.5 -63.667 118.5 -84s105 -30.5 171 -30.5c35.333 0 68.333 3 99 9s59.167 14.167 85.5 24.5s51 22.166 74 35.499s44.5 27.333 64.5 42z
M709.001 554.002c-4 0 -7.66602 0.330078 -10.999 0.99707c-3.33301 0 -6.66602 0.166992 -9.99902 0.5s-6 0.5 -8 0.5c-11.333 0 -24.166 -0.5 -38.499 -1.5s-28.5 -2.66699 -42.5 -5s-27.5 -5.66602 -40.5 -9.99902s-23.833 -9.5 -32.5 -15.5
c-10 -8 -19.833 -21 -29.5 -39s-18.334 -39.167 -26.001 -63.5s-13.834 -51.333 -18.501 -81s-7 -59.834 -7 -90.501c0 -15.333 1 -27.666 3 -36.999s4.83301 -16.666 8.5 -21.999s8.33398 -8.83301 14.001 -10.5s12.167 -2.5 19.5 -2.5c31.333 0 59.666 4.33301 84.999 13
s46.666 21.334 63.999 38.001z" />
    <glyph glyph-name="A" unicode="A" horiz-adv-x="846" 
d="M654 0l-103 311l-330 -5l-106 -306h-113l347 914l173 31l323 -945h-191zM523 398l-133 398l-137 -398h270z" />
    <glyph glyph-name="B" unicode="B" horiz-adv-x="761" 
d="M717 249c0 -40.667 -6.49902 -76.998 -19.499 -108.998s-33 -59.167 -60 -81.5s-61.167 -39.333 -102.5 -51s-90.666 -17.5 -147.999 -17.5c-18.667 0 -40.334 0.333008 -65.001 1s-50.167 1.5 -76.5 2.5s-52 2.5 -77 4.5s-46.833 4 -65.5 6v911
c35.333 4 75.666 7 120.999 9s88 3 128 3c48.667 0 93 -4.16699 133 -12.5s74.167 -21.333 102.5 -39s50.166 -40.334 65.499 -68.001s23 -60.834 23 -99.501c0 -31.333 -4.33301 -58.833 -13 -82.5s-20.167 -44.334 -34.5 -62.001s-31.166 -32 -50.499 -43
s-39.333 -19.167 -60 -24.5v-3c35.333 -7.33301 65.5 -18.666 90.5 -33.999s45.5 -33.5 61.5 -54.5s27.833 -44.667 35.5 -71s11.5 -54.5 11.5 -84.5zM495.001 687.002c0 54.667 -14.832 92.833 -44.499 114.5s-71.5 32.5 -125.5 32.5c-8 0 -15.833 -0.166992 -23.5 -0.5
s-14.5 -0.833008 -20.5 -1.5v-297h59c20.667 0 41.334 2 62.001 6s36.667 9 48 15c5.33301 3.33301 10.666 7.83301 15.999 13.5s10.166 13.5 14.499 23.5s7.83301 22.667 10.5 38s4 34 4 56zM535.002 260.001c0 60 -16.832 105.329 -50.499 135.996s-82.834 46 -147.501 46
h-56v-354c5.33301 -0.666992 9.83301 -1.16699 13.5 -1.5l11.5 -1c4 -0.333008 9 -0.5 15 -0.5h26c10.667 0 22.5 0.5 35.5 1.5s25.667 2.33301 38 4s23.666 3.83398 33.999 6.50098s18.5 5.66699 24.5 9c6 4 12.333 9.33301 19 16s12.834 15.834 18.501 27.501
s10.167 26.334 13.5 44.001s5 39.834 5 66.501z" />
    <glyph glyph-name="C" unicode="C" horiz-adv-x="826" 
d="M454 -13c-68.667 0 -127 11.666 -175 34.999s-87 56 -117 98s-51.833 92.5 -65.5 151.5s-20.5 124.5 -20.5 196.5c0 58 6.66699 109.833 20 155.5s31.5 85.667 54.5 120s49.667 63.5 80 87.5s62.333 43.5 96 58.5s68.167 25.833 103.5 32.5s69.666 10 102.999 10
c20.667 0 42.5 -0.666992 65.5 -2s45.333 -3.16602 67 -5.49902s41.834 -5 60.501 -8s34 -5.83301 46 -8.5l-33 -131c-12 4 -29 8.16699 -51 12.5s-45.5 8.5 -70.5 12.5s-49.667 7.33301 -74 10s-44.5 4 -60.5 4c-18 0 -34 -0.5 -48 -1.5s-26.833 -3 -38.5 -6
s-22.667 -7.16699 -33 -12.5s-20.833 -12 -31.5 -20c-27.333 -19.333 -45.833 -56 -55.5 -110s-14.5 -121.333 -14.5 -202c0 -124 18.333 -217.833 55 -281.5s95.667 -95.5 177 -95.5c46 0 94 3.83301 144 11.5s95.333 18.5 136 32.5v-77
c-22.667 -10.667 -47.167 -20.167 -73.5 -28.5s-53.333 -15.333 -81 -21s-55.667 -10 -84 -13s-55.5 -4.5 -81.5 -4.5z" />
    <glyph glyph-name="D" unicode="D" horiz-adv-x="965" 
d="M281 92c6 -1.33301 13.002 -2.49805 21.002 -3.49805s16.333 -1.83301 25 -2.5s17 -1.16699 25 -1.5s14.667 -0.5 20 -0.5c53.333 0 97.833 3.33301 133.5 10s66.5 19.667 92.5 39c14 10.667 26.833 24.167 38.5 40.5s22 37.666 31 63.999s16 59.333 21 99
s7.5 88.167 7.5 145.5c0 72 -8.5 131 -25.5 177s-40 82.167 -69 108.5s-63 44.666 -102 54.999s-80.833 15.5 -125.5 15.5c-6.66699 0 -14.334 -0.166992 -23.001 -0.5s-17.334 -0.833008 -26.001 -1.5s-17 -1.5 -25 -2.5s-14.333 -1.83301 -19 -2.5v-739zM103.002 914.002
c18.667 2 40.501 4.16602 65.501 6.49902s51.5 4.33301 79.5 6s56.167 3 84.5 4s54.833 1.5 79.5 1.5c71.333 0 136.166 -8 194.499 -24s108.333 -41.5 150 -76.5s74 -80 97 -135s34.5 -121.5 34.5 -199.5c0 -76 -9 -145.167 -27 -207.5s-46.667 -115.5 -86 -159.5
s-90 -78 -152 -102s-137 -36 -225 -36c-24.667 0 -50.5 0.333008 -77.5 1s-53.5 1.83398 -79.5 3.50098l-75 5c-24 1.66699 -45 3.5 -63 5.5v907z" />
    <glyph glyph-name="E" unicode="E" horiz-adv-x="680" 
d="M630 0h-527v922h509l-9 -94l-322 -4v-300l303 -4l-8 -85l-295 -7v-330l357 -7z" />
    <glyph glyph-name="F" unicode="F" horiz-adv-x="653" 
d="M281 0h-178v922h517l-8 -93l-331 -5v-327l320 -4l-8 -85l-312 -7v-401z" />
    <glyph glyph-name="G" unicode="G" horiz-adv-x="919" 
d="M652 356l-194.999 9.99805l9 75h368v-376c-20 -8.66699 -44.667 -17.667 -74 -27s-61 -17.666 -95 -24.999s-69.167 -13.5 -105.5 -18.5s-71.5 -7.5 -105.5 -7.5c-68 0 -126 11.667 -174 35s-87 56 -117 98s-51.833 92.5 -65.5 151.5s-20.5 124.5 -20.5 196.5
s11.667 136.667 35 194s56.333 106 99 146s93.667 70.667 153 92s124.666 32 195.999 32c18 0 37.833 -0.666992 59.5 -2s43.167 -3 64.5 -5s41.5 -4.5 60.5 -7.5s34.5 -6.16699 46.5 -9.5l-30 -134c-14.667 4.66699 -33.334 9.5 -56.001 14.5s-46.5 9.5 -71.5 13.5
s-49.833 7.33301 -74.5 10s-46.667 4 -66 4c-32 0 -62.167 -2.5 -90.5 -7.5s-54.166 -16.833 -77.499 -35.5c-12.667 -10 -23.167 -25.833 -31.5 -47.5s-14.833 -46.5 -19.5 -74.5s-7.83398 -58 -9.50098 -90s-2.5 -63.333 -2.5 -94c0 -123.333 15.333 -217.666 46 -282.999
s79 -98 145 -98c16.667 0 34.334 0.666992 53.001 2s37 3.16602 55 5.49902s34.833 4.83301 50.5 7.5s29.167 5.33398 40.5 8.00098v247z" />
    <glyph glyph-name="H" unicode="H" horiz-adv-x="959" 
d="M677 0v415h-396v-415h-178v922h178v-404h396v404h179v-922h-179z" />
    <glyph glyph-name="I" unicode="I" horiz-adv-x="384" 
d="M281 0h-178v922h178v-922z" />
    <glyph glyph-name="J" unicode="J" horiz-adv-x="384" 
d="M281 69c0 -95.333 -22.165 -171.834 -66.498 -229.501s-110.5 -101.5 -198.5 -131.5l-30 57c24 14.667 43.667 31 59 49s27.166 37.5 35.499 58.5s14.166 43.333 17.499 67s5 48.834 5 75.501v907h178v-853z" />
    <glyph glyph-name="K" unicode="K" horiz-adv-x="865" 
d="M813 860c-16 0 -31.333 -2.16895 -46 -6.50195s-29.667 -11.166 -45 -20.499s-31.5 -21.5 -48.5 -36.5s-35.5 -33.167 -55.5 -54.5l-69.5 -77.5l-78.5 -91.5c36.667 -74.667 71.834 -143 105.501 -205s66.667 -115.5 99 -160.5s64.5 -80 96.5 -105
s65.333 -37.5 100 -37.5h11v-59c-19.333 -5.33301 -39 -9.33301 -59 -12s-43.333 -4 -70 -4c-43.333 0 -81 7.33301 -113 22s-62.667 39.5 -92 74.5s-59.5 81.333 -90.5 139s-66.5 129.167 -106.5 214.5l-16.5 -19.5l-20 -23.5c-7 -8 -13.5 -15.833 -19.5 -23.5l-14 -17.5
v-356h-178v922h178v-432l62.5 77l75 94l74 91c23.667 28.667 43.5 51.667 59.5 69c20.667 22.667 39.334 40.834 56.001 54.501s33.167 24 49.5 31s33.166 11.5 50.499 13.5s37.333 3 60 3c9.33301 0 20.166 -0.5 32.499 -1.5s20.833 -2.5 25.5 -4.5v-57h-13z" />
    <glyph glyph-name="L" unicode="L" horiz-adv-x="643" 
d="M103 0v922h178v-825h333l-9 -97h-502z" />
    <glyph glyph-name="M" unicode="M" horiz-adv-x="1261" 
d="M1007 0l-71 703l-316 -703h-54l-330 703l-60 -703h-103l89 928h167l307 -653l292 653h163l97 -928h-181z" />
    <glyph glyph-name="N" unicode="N" horiz-adv-x="1003" 
d="M821 -5l-618.997 647h-2c1.33301 -54 2.66602 -103.667 3.99902 -149c0.666992 -19.333 1.16699 -38.666 1.5 -57.999s0.666016 -37.166 0.999023 -53.499s0.5 -30.833 0.5 -43.5v-27v-311h-104v928h78l619 -644c-0.666992 49.333 -1.33398 95.666 -2.00098 138.999
c0 18.667 -0.166992 37.5 -0.5 56.5l-1 54.5c-0.333008 17.333 -0.5 33.166 -0.5 47.499v34.5v305h105v-926h-80z" />
    <glyph glyph-name="O" unicode="O" horiz-adv-x="1023" 
d="M946 464c0 -72.667 -9.16895 -138.334 -27.502 -197.001s-46 -108.834 -83 -150.501s-83.167 -73.667 -138.5 -96s-119.666 -33.5 -192.999 -33.5c-75.333 0 -140 11.333 -194 34s-98.167 54.834 -132.5 96.501s-59.666 91.834 -75.999 150.501s-24.5 124 -24.5 196
s8.33301 136.833 25 194.5s42.5 106.834 77.5 147.501s79.5 71.834 133.5 93.501s118 32.5 192 32.5s138.5 -10.833 193.5 -32.5s100.833 -52.834 137.5 -93.501s64.167 -89.834 82.5 -147.501s27.5 -122.5 27.5 -194.5zM757.998 464c0 56 -4.83301 106.332 -14.5 150.999
s-24.834 82.5 -45.501 113.5s-47 54.667 -79 71s-70 24.5 -114 24.5c-38.667 0 -74.667 -4.16699 -108 -12.5s-59.666 -20.166 -78.999 -35.499s-33.5 -49 -42.5 -101s-13.5 -122.333 -13.5 -211c0 -55.333 4 -105.5 12 -150.5s21.333 -83.833 40 -116.5
s43.5 -57.834 74.5 -75.501s69.5 -26.5 115.5 -26.5c47.333 0 86.333 4.33301 117 13s56.667 20.334 78 35.001c10 6.66699 18.667 20 26 40s13.5 44.5 18.5 73.5s8.66699 61.333 11 97s3.5 72.5 3.5 110.5z" />
    <glyph glyph-name="P" unicode="P" horiz-adv-x="732" 
d="M312 427l24 5.00293c23.333 5.33301 45.333 12.166 66 20.499s38.5 20.666 53.5 36.999s26.833 37.833 35.5 64.5s13 60.667 13 102c0 62 -14 107.167 -42 135.5s-64.667 42.5 -110 42.5c-11.333 0 -22.833 -0.333008 -34.5 -1s-23.834 -2 -36.501 -4v-829h-178v917
c18.667 1.33301 39 2.66602 61 3.99902s44.833 2.5 68.5 3.5s47.334 1.66699 71.001 2s46.5 0.5 68.5 0.5c54 0 100.833 -6.16699 140.5 -18.5s72.5 -29.833 98.5 -52.5s45.333 -50.167 58 -82.5s19 -68.833 19 -109.5c0 -42.667 -7 -82.667 -21 -120s-35.5 -70 -64.5 -98
s-66 -50 -111 -66s-98.5 -24 -160.5 -24h-8z" />
    <glyph glyph-name="Q" unicode="Q" horiz-adv-x="1023" 
d="M946 464c0 -108.667 -20.1641 -200.835 -60.4971 -276.502s-101.5 -130.5 -183.5 -164.5c15.333 -24 37.666 -52.5 66.999 -85.5s62.166 -64.833 98.499 -95.5s74 -56.667 113 -78s75.833 -32 110.5 -32c12.667 0 24.667 1 36 3l28 5l8 -69
c-26.667 -9.33301 -59.667 -17.5 -99 -24.5s-79 -10.5 -119 -10.5c-32 0 -66 10 -102 30s-72 46.333 -108 79s-70.833 70.167 -104.5 112.5s-63.834 85.833 -90.501 130.5c-6.66699 0 -12.834 -0.166992 -18.501 -0.5s-11.5 -0.5 -17.5 -0.5c-75.333 0 -140 11.333 -194 34
s-98.167 54.834 -132.5 96.501s-59.666 91.834 -75.999 150.501s-24.5 124 -24.5 196s8.33301 136.833 25 194.5s42.5 106.834 77.5 147.501s79.5 71.834 133.5 93.501s118 32.5 192 32.5s138.5 -10.833 193.5 -32.5s100.833 -52.834 137.5 -93.501
s64.167 -89.834 82.5 -147.501s27.5 -122.5 27.5 -194.5zM758.003 463.999c0 56 -4.83301 106.332 -14.5 150.999s-24.834 82.5 -45.501 113.5s-47 54.667 -79 71s-70 24.5 -114 24.5c-38.667 0 -74.667 -4.16699 -108 -12.5s-59.666 -20.166 -78.999 -35.499
s-33.5 -49 -42.5 -101s-13.5 -122.333 -13.5 -211c0 -55.333 4 -105.5 12 -150.5s21.333 -83.833 40 -116.5s43.5 -57.834 74.5 -75.501s69.5 -26.5 115.5 -26.5c47.333 0 86.333 4.33301 117 13s56.667 20.334 78 35.001c10 6.66699 18.667 20 26 40s13.5 44.5 18.5 73.5
s8.66699 61.333 11 97s3.5 72.5 3.5 110.5z" />
    <glyph glyph-name="R" unicode="R" horiz-adv-x="801" 
d="M341 380l-60 0.000976562v-380h-178v920c36 2.66699 76.667 5 122 7s88.666 3 129.999 3c106 0 186.5 -20.333 241.5 -61s82.5 -104.334 82.5 -191.001c0 -38.667 -4.66699 -72.334 -14 -101.001s-21.666 -53.667 -36.999 -75s-33 -39.333 -53 -54s-41 -27 -63 -37
l74.5 -134c23.667 -42 47.334 -78.667 71.001 -110s47.667 -56.166 72 -74.499s50.5 -27.5 78.5 -27.5h6v-59c-14 -4.66699 -30.167 -8.5 -48.5 -11.5s-38.833 -4.5 -61.5 -4.5c-32.667 0 -61.167 3 -85.5 9s-48 19 -71 39s-46.833 49.333 -71.5 88s-53.334 91 -86.001 157z
M313 471.001c24.667 0 48.501 3.16797 71.501 9.50098s41.167 14.166 54.5 23.499c6.66699 4.66699 13.334 10.667 20.001 18s12.667 17 18 29s9.66602 27.333 12.999 46s5 42 5 70c0 31.333 -3.5 57.666 -10.5 78.999s-17.5 38.5 -31.5 51.5s-31.333 22.333 -52 28
s-44.334 8.5 -71.001 8.5c-7.33301 0 -15.5 -0.166992 -24.5 -0.5s-17.167 -1.16602 -24.5 -2.49902v-360h32z" />
    <glyph glyph-name="S" unicode="S" horiz-adv-x="672" 
d="M631 270c0 -33.333 -8.00098 -66.835 -24.001 -100.502s-39 -64 -69 -91s-66.167 -49 -108.5 -66s-89.833 -25.5 -142.5 -25.5c-28 0 -54 1.66699 -78 5s-46.5 7.83301 -67.5 13.5s-41.167 12.667 -60.5 21s-38.666 17.5 -57.999 27.5l44 137
c12.667 -8.66699 29.5 -18 50.5 -28s43.833 -19.333 68.5 -28s49.5 -15.834 74.5 -21.501s47.833 -8.5 68.5 -8.5c23.333 0 42.5 1.5 57.5 4.5s28.5 7.16699 40.5 12.5c13.333 5.33301 24 18.666 32 39.999s12 49 12 83c0 31.333 -10.333 56.333 -31 75
s-46.5 34.834 -77.5 48.501s-64.5 27.334 -100.5 41.001s-69.5 31.334 -100.5 53.001s-56.833 49.5 -77.5 83.5s-31 78.667 -31 134c0 26.667 7 54.834 21 84.501s34.333 57 61 82s59.667 45.5 99 61.5s84 24 134 24c40 0 78.5 -2 115.5 -6s72.833 -9.33301 107.5 -16
l-28 -137c-16 6 -34.167 11.667 -54.5 17s-41 10 -62 14s-41.5 7.16699 -61.5 9.5s-37.667 3.5 -53 3.5c-17.333 0 -33.333 -0.833008 -48 -2.5s-28 -6.16699 -40 -13.5c-11.333 -6.66699 -19.5 -18.167 -24.5 -34.5s-7.5 -35.833 -7.5 -58.5
c0 -23.333 6 -42.666 18 -57.999s27.833 -28.833 47.5 -40.5s42 -22.334 67 -32.001l77 -31c26.333 -11 52 -23.667 77 -38s47.333 -32 67 -53s35.5 -46.5 47.5 -76.5s18 -66.333 18 -109z" />
    <glyph glyph-name="T" unicode="T" horiz-adv-x="743" 
d="M282 0v824l-269 4l9 94h709l-9 -91l-261 -7v-824h-179z" />
    <glyph glyph-name="U" unicode="U" horiz-adv-x="950" 
d="M851 325c0 -46 -8.50195 -89.501 -25.502 -130.501s-42.167 -76.833 -75.5 -107.5s-74.833 -55 -124.5 -73s-107.167 -27 -172.5 -27c-54 0 -102.667 5.66699 -146 17s-80.5 29.833 -111.5 55.5s-54.833 59.167 -71.5 100.5s-25 92 -25 152v610h178v-628
c0 -46 4 -82.5 12 -109.5s20 -47.833 36 -62.5s35.833 -24.167 59.5 -28.5s50.834 -6.5 81.501 -6.5c38 0 70.5 4 97.5 12s49.5 18.667 67.5 32c18.667 13.333 30.334 34.333 35.001 63s7 63.334 7 104.001v624h178v-597z" />
    <glyph glyph-name="V" unicode="V" horiz-adv-x="829" 
d="M720 922l107.999 0.000976562l-324 -922h-174l-329 922h192l166 -497l36 -111.5l31 -98.5c10.667 -34 20.334 -66.667 29.001 -98c10.667 37.333 22 74.666 34 111.999l32.5 104c11.667 37.333 23.167 72 34.5 104z" />
    <glyph glyph-name="W" unicode="W" horiz-adv-x="1226" 
d="M638 482l-10 32.501c-3.33301 10.333 -6 19.166 -8 26.499c-2.66699 8.66699 -5 17 -7 25c-1.33301 -8 -3.33301 -16.667 -6 -26c-2 -8 -4.66699 -17.5 -8 -28.5l-10 -34.5l-151 -477h-176l-257 922h188l148 -549c6 -22.667 12 -47 18 -73l17 -73l18 -79l26 84l23.5 74
l21.5 68l137 432h103l142 -432l20.5 -67.5l22.5 -73.5l24 -85l22 84l19 74l18 68l142 548h107l-251 -922h-175z" />
    <glyph glyph-name="X" unicode="X" horiz-adv-x="791" 
d="M468 523l323 -523h-201l-228 382l-240 -382h-117l307 456l-284 466h200l188 -323l201 323h116z" />
    <glyph glyph-name="Y" unicode="Y" horiz-adv-x="732" 
d="M456 0h-179v354l-286 568h204l215 -452l224 452h108l-286 -568v-354z" />
    <glyph glyph-name="Z" unicode="Z" horiz-adv-x="815" 
d="M260 95l279 -0.00195312c38.667 0.666992 70.667 4 96 10s46 13.667 62 23s28.833 19.333 38.5 30l26.5 30l45 -37c-7.33301 -14 -16.5 -30.333 -27.5 -49s-25.167 -36.167 -42.5 -52.5s-38.333 -30.166 -63 -41.499s-54 -17 -88 -17
c-16.667 0 -40.834 0.166992 -72.501 0.5s-66.5 0.833008 -104.5 1.5s-77 1.5 -117 2.5s-77.167 1.83301 -111.5 2.5s-63.666 1.16699 -87.999 1.5s-39.5 0.5 -45.5 0.5v63l439 760h-30c-28 0 -60.5 0.166992 -97.5 0.5l-110 1c-36.333 0.333008 -70 0.833008 -101 1.5
s-54.167 1.33398 -69.5 2.00098l13 94h611v-58z" />
    <glyph glyph-name="bracketleft" unicode="[" horiz-adv-x="483" 
d="M443 -235h-301v1267h301v-85h-151v-1096h151v-86z" />
    <glyph glyph-name="backslash" unicode="\" horiz-adv-x="543" 
d="M102 1032l468 -1203h-123l-471 1203h126z" />
    <glyph glyph-name="bracketright" unicode="]" horiz-adv-x="483" 
d="M39 -149h152v1096h-152v85h302v-1267h-302v86z" />
    <glyph glyph-name="asciicircum" unicode="^" horiz-adv-x="680" 
d="M17 322l278 600h70l298 -600h-98l-232 490h-2l-216 -490h-98z" />
    <glyph glyph-name="underscore" unicode="_" horiz-adv-x="580" 
d="M584 -218h-589v67h589v-67z" />
    <glyph glyph-name="grave" unicode="`" horiz-adv-x="382" 
d="M331 775l-56 -57l-225 196l91 91z" />
    <glyph glyph-name="a" unicode="a" horiz-adv-x="671" 
d="M610 91c14.667 0 35 3.66699 61 11v-42c-9.33301 -8.66699 -20.333 -17.167 -33 -25.5s-26.167 -15.666 -40.5 -21.999s-29.166 -11.333 -44.499 -15s-30.333 -5.5 -45 -5.5c-16 0 -29.667 2.33301 -41 7s-21.166 10.5 -29.499 17.5s-15.333 15.167 -21 24.5
s-10.5 18.333 -14.5 27l-43.5 -29.5c-14.333 -9.66699 -29.333 -18.167 -45 -25.5s-32.167 -13.333 -49.5 -18s-36.666 -7 -57.999 -7c-48 0 -85.833 15 -113.5 45s-41.5 75.333 -41.5 136c0 32 4.16699 60 12.5 84s21.666 43.833 39.999 59.5s42 27.667 71 36
s64.5 13.166 106.5 14.499l106 3v89c0 24 -6.5 41.667 -19.5 53s-35.167 17 -66.5 17c-22 0 -47.5 -2.66699 -76.5 -8s-59.5 -14.333 -91.5 -27l-24 64c21.333 9.33301 43.5 18.5 66.5 27.5s46.333 17 70 24s47.667 12.667 72 17s48.5 6.5 72.5 6.5
c27.333 0 51.666 -2.5 72.999 -7.5s39.166 -13.5 53.499 -25.5s25.333 -28 33 -48s11.5 -44.667 11.5 -74v-284c0 -66 16.333 -99 49 -99zM394 120c-0.666992 2.66699 -1.33105 9.5 -1.99805 20.5s-1.33398 25 -2.00098 42s-1.16699 36.333 -1.5 58s-0.5 44.5 -0.5 68.5
c-43.333 0 -76 -2.5 -98 -7.5s-35.667 -11.167 -41 -18.5c-2.66699 -2.66699 -4.83398 -7.66699 -6.50098 -15s-3 -15.5 -4 -24.5s-1.66699 -18.333 -2 -28s-0.5 -18.5 -0.5 -26.5c0 -28 3.83301 -50.667 11.5 -68s20.5 -26 38.5 -26c19.333 0 37.833 2.33301 55.5 7
s35.167 10.667 52.5 18z" />
    <glyph glyph-name="b" unicode="b" horiz-adv-x="744" 
d="M99 1010l175.004 35.999v-384v-34c0 -12 -0.333008 -22.667 -1 -32c-0.666992 -11.333 -1 -22.333 -1 -33c24 18 50.333 33.5 79 46.5s60.667 19.5 96 19.5c31.333 0 61.666 -5.5 90.999 -16.5s55.166 -28.5 77.499 -52.5s40.166 -55.167 53.499 -93.5
s20 -85.166 20 -140.499c0 -53.333 -7.5 -100.833 -22.5 -142.5s-36.333 -77 -64 -106s-61.334 -51.167 -101.001 -66.5s-84.5 -23 -134.5 -23c-39.333 0 -82.5 2.5 -129.5 7.5s-93.167 14.167 -138.5 27.5v987zM506.004 315.999c0 70 -11.167 121.498 -33.5 154.498
s-52.5 49.5 -90.5 49.5c-18 0 -36.667 -2 -56 -6s-36.666 -9.66699 -51.999 -17v-405c11.333 -3.33301 24.333 -5.66602 39 -6.99902s28.667 -2 42 -2c26 0 48.167 2 66.5 6s32.166 10.667 41.499 20c10 10 19.667 32.833 29 68.5s14 81.834 14 138.501z" />
    <glyph glyph-name="c" unicode="c" horiz-adv-x="604" 
d="M537 483c-22 11.333 -48.167 22.3311 -78.5 32.998s-63.166 16 -98.499 16c-14.667 0 -29.334 -1.5 -44.001 -4.5s-27.334 -8.5 -38.001 -16.5c-12 -8.66699 -21.667 -29.167 -29 -61.5s-11 -82.833 -11 -151.5c0 -38 2.66699 -70.167 8 -96.5s13.333 -47.666 24 -63.999
s24 -28 40 -35s34.333 -10.5 55 -10.5c32.667 0 66.667 3.5 102 10.5s67.333 16.5 96 28.5l16 -45c-34 -28 -72.833 -51.333 -116.5 -70s-91.5 -28 -143.5 -28c-36.667 0 -71.167 5.5 -103.5 16.5s-60.166 28.5 -83.499 52.5s-41.833 55.333 -55.5 94
s-20.5 85.667 -20.5 141c0 52.667 7.16699 99.834 21.5 141.501s35.166 77 62.499 106s61.333 51.167 102 66.5s87.334 23 140.001 23c32 0 64.167 -2.33301 96.5 -7s61.833 -10 88.5 -16z" />
    <glyph glyph-name="d" unicode="d" horiz-adv-x="744" 
d="M473 617c0 9.33301 -0.331055 18.3311 -0.998047 26.998c-0.666992 7.33301 -1 14.833 -1 22.5v19.5v324l175 36v-1046h-119l-49 58h-3c-24 -17.333 -49.833 -33.333 -77.5 -48s-59.5 -22 -95.5 -22c-32 0 -62.833 5.5 -92.5 16.5s-55.834 28.5 -78.501 52.5
s-40.834 55.333 -54.501 94s-20.5 85.667 -20.5 141c0 52.667 6.66699 99.834 20 141.501s32.666 76.834 57.999 105.501s56 50.667 92 66s76.667 23 122 23c18.667 0 38.834 -1 60.501 -3s43.167 -4.66699 64.5 -8zM237.002 301.998
c0 -70.667 11.6709 -122.498 35.0039 -155.498s54.333 -49.5 93 -49.5c19.333 0 38.166 2.66699 56.499 8s34.5 11.666 48.5 18.999v402c-26.667 6 -53.334 9 -80.001 9c-24.667 0 -46.334 -2 -65.001 -6s-33.334 -10.667 -44.001 -20c-10 -10 -19.833 -32.333 -29.5 -67
s-14.5 -81.334 -14.5 -140.001z" />
    <glyph glyph-name="e" unicode="e" horiz-adv-x="675" 
d="M359 629c29.333 0 57.835 -4.16699 85.502 -12.5s53.167 -22.333 76.5 -42s43.5 -46 60.5 -79s29.833 -74.167 38.5 -123.5v-8c-5.33301 -7.33301 -12.5 -14 -21.5 -20s-20.833 -11.167 -35.5 -15.5s-32.667 -8.33301 -54 -12s-47 -6.5 -77 -8.5l-194 -15v-26
c0 -48 12.667 -87.667 38 -119s63.333 -47 114 -47c20.667 0 42.334 2.16699 65.001 6.5s44.167 9.5 64.5 15.5s39 12.167 56 18.5s29.833 11.833 38.5 16.5l15 -45c-18.667 -14 -39.667 -28.5 -63 -43.5s-48.333 -28.5 -75 -40.5s-54.834 -21.833 -84.501 -29.5
s-60.167 -11.5 -91.5 -11.5c-36.667 0 -70.834 5.5 -102.501 16.5s-59 28.5 -82 52.5s-41.167 55.333 -54.5 94s-20 85.667 -20 141c0 62 7.66699 114.5 23 157.5s36.666 77.667 63.999 104s59.5 45.5 96.5 57.5s76.833 18 119.5 18zM276.002 525
c-4.66699 -4 -9.16797 -11.5 -13.501 -22.5s-8.16602 -24 -11.499 -39s-6 -30.667 -8 -47s-3 -32.166 -3 -47.499l193 9c-2 18 -5 36.667 -9 56s-9.83301 37 -17.5 53s-17.167 29.333 -28.5 40s-25 16 -41 16c-11.333 0 -22 -1.33301 -32 -4s-19.667 -7.33398 -29 -14.001z
" />
    <glyph glyph-name="f" unicode="f" horiz-adv-x="449" 
d="M465 914c-15.333 3.33301 -32.4961 6.83008 -51.4961 10.4971s-36.167 5.5 -51.5 5.5c-10.667 0 -21.834 -0.833008 -33.501 -2.5s-20.834 -6.16699 -27.501 -13.5c-3.33301 -4 -6.33301 -12.667 -9 -26s-4.83398 -29.5 -6.50098 -48.5s-2.83398 -39.833 -3.50098 -62.5
s-1 -45.667 -1 -69v-92h155l-9 -72c-16.667 -1.33301 -33.667 -3 -51 -5c-14.667 -1.33301 -30.5 -2.66602 -47.5 -3.99902s-32.833 -2.66602 -47.5 -3.99902v-531h-175v531c-5.33301 0 -13.333 0.166992 -24 0.5s-21.667 0.5 -33 0.5h-40l8 50
c12.667 4.66699 24.667 8.66699 36 12c9.33301 3.33301 19 6.5 29 9.5s18 4.83301 24 5.5v112c0 38.667 8.5 76.334 25.5 113.001s39.167 69.5 66.5 98.5s58.333 52.333 93 70s69.667 26.5 105 26.5c14.667 0 31.167 -0.833008 49.5 -2.5s34.5 -3.5 48.5 -5.5z" />
    <glyph glyph-name="g" unicode="g" horiz-adv-x="701" 
d="M325 225c15.333 0 28.3291 1.33301 38.9961 4s20.334 6.66699 29.001 12s15.834 21 21.501 47s8.5 59 8.5 99c0 22.667 -2 43.667 -6 63s-10.333 36.166 -19 50.499s-19.167 25.5 -31.5 33.5s-27.166 12 -44.499 12c-14 0 -26 -1.16699 -36 -3.5s-19.667 -6.5 -29 -12.5
s-16.666 -21.667 -21.999 -47s-8 -58.666 -8 -99.999c0 -21.333 2.16699 -41.5 6.5 -60.5s10.5 -35.833 18.5 -50.5s18.167 -26.167 30.5 -34.5s26.5 -12.5 42.5 -12.5zM264.996 -429c-40.667 0 -75.1641 3.66504 -103.497 10.998s-51.333 17.166 -69 29.499
s-30.334 26.5 -38.001 42.5s-11.5 33 -11.5 51c0 32 10.667 58.833 32 80.5s49.333 41.834 84 60.501l41 -11c-3.33301 -13.333 -5.83301 -25.166 -7.5 -35.499s-2.5 -22.166 -2.5 -35.499c0 -28 9.5 -50.333 28.5 -67s47.167 -25 84.5 -25c17.333 0 34.5 1 51.5 3
s33.5 4.66699 49.5 8s30.833 7.16602 44.5 11.499s25.167 9.16602 34.5 14.499c13.333 8 21.833 20 25.5 36s5.5 35.333 5.5 58c0 45.333 -46 68 -138 68l-98 1c-69.333 0.666992 -119.833 10.834 -151.5 30.501s-47.5 53.167 -47.5 100.5
c0 15.333 3.33301 30.666 10 45.999s15.167 30 25.5 44s21.666 27 33.999 39l34.5 33c-17.333 8 -34 18.833 -50 32.5s-30 29.5 -42 47.5s-21.5 38.333 -28.5 61s-10.5 47.334 -10.5 74.001c0 39.333 6.83301 74.333 20.5 105s32.5 56.667 56.5 78s52.333 37.666 85 48.999
s68 17 106 17c32 0 60.333 -1.66699 85 -5s48.667 -8.66602 72 -15.999c31.333 1.33301 64.833 3.83301 100.5 7.5s66.834 8.16699 93.501 13.5l-14 -80c-12.667 -4.66699 -29.334 -8.33398 -50.001 -11.001s-39 -4 -55 -4c7.33301 -13.333 15.5 -32.166 24.5 -56.499
s13.5 -55.5 13.5 -93.5c0 -38.667 -6.66699 -73 -20 -103s-31.833 -55.167 -55.5 -75.5s-51.834 -35.833 -84.501 -46.5s-68.334 -16 -107.001 -16c-6 0 -13 0.166992 -21 0.5l-24 1c-8 0.333008 -15.5 1 -22.5 2s-12.833 2.16699 -17.5 3.5
c-4 -7.33301 -8.33301 -17.166 -13 -29.499s-7 -24.5 -7 -36.5c0 -14.667 6.83301 -24.5 20.5 -29.5s38.5 -7.5 74.5 -7.5h138c42 0 77.333 -3.33301 106 -10s51.834 -17.167 69.501 -31.5s30.167 -32.333 37.5 -54s11 -47.5 11 -77.5c0 -36 -10.167 -72.167 -30.5 -108.5
s-48.833 -68.833 -85.5 -97.5s-80 -52 -130 -70s-104.667 -27 -164 -27z" />
    <glyph glyph-name="h" unicode="h" horiz-adv-x="760" 
d="M273 544c12 8 26.501 16.832 43.501 26.499s35.5 18.834 55.5 27.501s40.667 16 62 22s42.333 9 63 9c23.333 0 45.166 -3.83301 65.499 -11.5s38.166 -19 53.499 -34s27.5 -33.833 36.5 -56.5s13.5 -49.334 13.5 -80.001v-447h-175v413
c0 36.667 -5.83301 63.667 -17.5 81s-31.5 26 -59.5 26c-10 0 -21.167 -1.33301 -33.5 -4s-24.666 -6.5 -36.999 -11.5s-24.5 -10.667 -36.5 -17s-23 -13.166 -33 -20.499v-467h-175v1010l175 35v-383v-36.5c0 -13.667 -0.333008 -26.5 -1 -38.5l-2 -43h2z" />
    <glyph glyph-name="i" unicode="i" horiz-adv-x="372" 
d="M274 0h-175v616h175v-616zM183 965l111 -115l-111 -116l-110 116z" />
    <glyph glyph-name="j" unicode="j" horiz-adv-x="372" 
d="M99 616l174.998 -0.00195312v-593c0 -54 -4 -103.167 -12 -147.5s-20.167 -84.666 -36.5 -120.999s-37.166 -69.666 -62.499 -99.999s-55.333 -58.5 -90 -84.5l-50 47c16 19.333 28.833 40 38.5 62s17.334 46.167 23.001 72.5s9.5 55.5 11.5 87.5s3 67.333 3 106v671z
M182.998 964.998l111 -115l-111 -116l-110 116z" />
    <glyph glyph-name="k" unicode="k" horiz-adv-x="726" 
d="M274 0l-175.005 0.000976562v1010l175 36v-597v-17c0 -7.33301 -0.166992 -15.166 -0.5 -23.499l-1 -24c-0.333008 -7.66699 -0.5 -13.167 -0.5 -16.5l45.5 53.5l49 58l46.5 53c14.667 16.333 27 29.5 37 39.5c10 9.33301 19.333 17.166 28 23.499s17.5 11.5 26.5 15.5
s18.833 7 29.5 9s22.667 3 36 3c15.333 0 32.333 -1.33301 51 -4s32.667 -5.66699 42 -9v-60h-3c-23.333 0 -43.833 -1.83301 -61.5 -5.5s-34.167 -10.167 -49.5 -19.5s-34.166 -23.833 -56.499 -43.5s-43.833 -40.5 -64.5 -62.5c9.33301 -16.667 20 -36.834 32 -60.501
l38.5 -74c13.667 -25.667 28.334 -51 44.001 -76s31.834 -47.5 48.501 -67.5s34 -36.167 52 -48.5s36.333 -18.5 55 -18.5c6.66699 0 13.334 0.666992 20.001 2v-58c-7.33301 -3.33301 -16.666 -6.66602 -27.999 -9.99902s-23.5 -6.33301 -36.5 -9
s-26.167 -4.83398 -39.5 -6.50098s-25.333 -2.5 -36 -2.5c-32.667 0 -61.334 8.5 -86.001 25.5s-47.167 39.667 -67.5 68s-39.166 60.5 -56.499 96.5l-55 111l-39 -42v-249z" />
    <glyph glyph-name="l" unicode="l" horiz-adv-x="372" 
d="M274 0h-175v1010l175 36v-1046z" />
    <glyph glyph-name="m" unicode="m" horiz-adv-x="1118" 
d="M474 0v412.997c0 36.667 -5.5 63.667 -16.5 81s-29.167 26 -54.5 26c-18.667 0 -40.334 -5.16699 -65.001 -15.5s-46 -22.833 -64 -37.5v-467h-175v616h156l15 -72h2c12 8 26.167 16.833 42.5 26.5s33.833 18.834 52.5 27.501s38.167 16 58.5 22s40.5 9 60.5 9
c32.667 0 62 -7.66699 88 -23s45.667 -38.666 59 -69.999c12.667 8.66699 28 18.334 46 29.001s37.333 20.834 58 30.501s41.667 17.667 63 24s42 9.5 62 9.5c22.667 0 43.834 -3.83301 63.501 -11.5s36.834 -19 51.501 -34s26.167 -33.833 34.5 -56.5
s12.5 -49.334 12.5 -80.001v-447h-175v413c0 36.667 -5.5 63.667 -16.5 81s-29.167 26 -54.5 26c-18.667 0 -40.334 -5.16699 -65.001 -15.5s-46 -22.833 -64 -37.5v-467h-175z" />
    <glyph glyph-name="n" unicode="n" horiz-adv-x="760" 
d="M491 0l0.000976562 412.999c0 36.667 -5.83301 63.667 -17.5 81s-31.5 26 -59.5 26c-10 0 -21.167 -1.33301 -33.5 -4s-24.666 -6.5 -36.999 -11.5s-24.5 -10.667 -36.5 -17s-23 -13.166 -33 -20.499v-467h-175v616h156l16 -72h2c12 8 26.5 16.833 43.5 26.5
s35.5 18.834 55.5 27.501s40.667 16 62 22s42.333 9 63 9c23.333 0 45.166 -3.83301 65.499 -11.5s38.166 -19 53.499 -34s27.5 -33.833 36.5 -56.5s13.5 -49.334 13.5 -80.001v-447h-175z" />
    <glyph glyph-name="o" unicode="o" horiz-adv-x="730" 
d="M365 -12c-100 0 -176.5 27.167 -229.5 81.5s-79.5 133.833 -79.5 238.5c0 49.333 6.5 93.833 19.5 133.5s32.5 73.334 58.5 101.001s58.333 49 97 64s83.334 22.5 134.001 22.5c102 0 179 -27.667 231 -83s78 -134 78 -236c0 -50 -6.5 -94.833 -19.5 -134.5
s-32.5 -73.334 -58.5 -101.001s-58.333 -49 -97 -64s-83.334 -22.5 -134.001 -22.5zM238 309c0 -80.667 9.66797 -140.002 29.001 -178.002s51.666 -57 96.999 -57c17.333 0 33.666 1.5 48.999 4.5s28 7.5 38 13.5c6.66699 3.33301 12.5 11.5 17.5 24.5
s9.33301 29.167 13 48.5s6.33398 41.333 8.00098 66s2.5 50.334 2.5 77.001c0 78.667 -9.83301 137.5 -29.5 176.5s-51.5 58.5 -95.5 58.5c-16.667 0 -33 -1.66699 -49 -5s-30 -8.66602 -42 -15.999c-6.66699 -4 -12.5 -12.333 -17.5 -25s-9 -28.667 -12 -48
s-5.16699 -41 -6.5 -65s-2 -49 -2 -75z" />
    <glyph glyph-name="p" unicode="p" horiz-adv-x="744" 
d="M272 563c24.667 18 50.168 33.5 76.501 46.5s57.5 19.5 93.5 19.5c32 0 62.833 -5.5 92.5 -16.5s56 -28.5 79 -52.5s41.333 -55.167 55 -93.5s20.5 -85.166 20.5 -140.499c0 -53.333 -7.5 -100.833 -22.5 -142.5s-36.333 -77 -64 -106s-61.334 -51.167 -101.001 -66.5
s-84.5 -23 -134.5 -23c-16.667 0 -33.667 1.16699 -51 3.5s-32 5.16602 -44 8.49902c0 -6 0.333008 -16.333 1 -31s1 -29.667 1 -45v-317l-175 -29v1020l155 27zM506.001 319c0 68.667 -11.166 119.332 -33.499 151.999s-52.5 49 -90.5 49c-19.333 0 -37.833 -2 -55.5 -6
s-35.167 -9.66699 -52.5 -17v-405c13.333 -3.33301 26.5 -5.66602 39.5 -6.99902s26.833 -2 41.5 -2c22 0 42.667 2 62 6s33.666 10.667 42.999 20c10.667 10.667 21 34.167 31 70.5s15 82.833 15 139.5z" />
    <glyph glyph-name="q" unicode="q" horiz-adv-x="744" 
d="M470 54c-24 -17.333 -49.1641 -32.6689 -75.4971 -46.002s-57.5 -20 -93.5 -20c-32 0 -62.667 5.5 -92 16.5s-55.333 28.5 -78 52.5s-40.834 55.333 -54.501 94s-20.5 85.667 -20.5 141c0 53.333 6.66699 100.833 20 142.5s32.666 76.834 57.999 105.501s56 50.667 92 66
s76.667 23 122 23c44.667 0 92.5 -2 143.5 -6s102.5 -9 154.5 -15v-1001l-176 -29v384c0 16.667 0.166992 33.834 0.5 51.501s1.16602 31.167 2.49902 40.5h-3zM237.003 301.997c0 -70.667 11.668 -122.5 35.001 -155.5s54.333 -49.5 93 -49.5c19.333 0 37.833 2.5 55.5 7.5
s34.167 11.5 49.5 19.5v402c-26.667 6 -53.334 9 -80.001 9c-22.667 0 -43.5 -2 -62.5 -6s-33.833 -10.667 -44.5 -20c-10.667 -10 -21 -33 -31 -69s-15 -82 -15 -138z" />
    <glyph glyph-name="r" unicode="r" horiz-adv-x="487" 
d="M455 477c-13.333 4.66699 -27.667 8.49902 -43 11.499s-30 4.5 -44 4.5c-10 0 -19 -0.833008 -27 -2.5s-15.5 -4.5 -22.5 -8.5s-14 -9.33301 -21 -16s-14.833 -14.667 -23.5 -24v-442h-175v616h157l15 -98h1l17 25.5c6.66699 9.66699 13.834 19.334 21.501 29.001
s15.667 18.5 24 26.5s16.833 13.667 25.5 17c15.333 5.33301 32.666 8.83301 51.999 10.5s40.333 2.5 63 2.5z" />
    <glyph glyph-name="s" unicode="s" horiz-adv-x="558" 
d="M515 203c0 -34.667 -7.16797 -63.1621 -21.501 -85.4951s-31.166 -41.833 -50.499 -58.5c-10 -8.66699 -20.667 -17.334 -32 -26.001s-24 -16.334 -38 -23.001s-30 -12 -48 -16s-39 -6 -63 -6c-43.333 0 -82.833 4.5 -118.5 13.5s-69.167 23.5 -100.5 43.5l43 115
c13.333 -8 27.5 -17 42.5 -27s31 -19.167 48 -27.5s34.833 -15.333 53.5 -21s37.667 -8.5 57 -8.5c13.333 0 25.5 1 36.5 3s20.167 5.66699 27.5 11c6 4.66699 10.5 13.167 13.5 25.5s4.5 27.166 4.5 44.499c0 20 -7.5 35.833 -22.5 47.5s-33.833 21.834 -56.5 30.501
s-47 17.334 -73 26.001s-50.333 20.167 -73 34.5s-41.5 32.666 -56.5 54.999s-22.5 51.833 -22.5 88.5c0 24 7.33301 47.833 22 71.5s30.667 43.167 48 58.5c21.333 19.333 45 33.666 71 42.999s56 14 90 14c28.667 0 59 -1.66699 91 -5s62 -7 90 -11l-19 -122
c-14 4.66699 -29.167 9.33398 -45.5 14.001s-32.5 9 -48.5 13s-31.5 7.16699 -46.5 9.5s-28.5 3.5 -40.5 3.5c-15.333 0 -27 -0.833008 -35 -2.5s-14.333 -3.83398 -19 -6.50098c-4 -2.66699 -7.16699 -8.33398 -9.5 -17.001s-3.5 -17.667 -3.5 -27
c0 -18.667 7.5 -33.334 22.5 -44.001s33.833 -20.167 56.5 -28.5l73.5 -26c26.333 -9 50.833 -20.5 73.5 -34.5s41.5 -32.167 56.5 -54.5s22.5 -51.5 22.5 -87.5z" />
    <glyph glyph-name="t" unicode="t" horiz-adv-x="491" 
d="M105 531l-65.998 22.001v37l189 134h48l2 -108h187l-8 -68c-14 -2.66699 -31.167 -5 -51.5 -7s-39.833 -3.66699 -58.5 -5l-68 -6v-346c0 -22 4 -40.5 12 -55.5s24.667 -22.5 50 -22.5c6.66699 0 15.667 0.333008 27 1s23.166 1.66699 35.499 3s24.333 2.83301 36 4.5
s21.5 3.16699 29.5 4.5v-51c-14.667 -9.33301 -31.667 -18.833 -51 -28.5s-39.833 -18.334 -61.5 -26.001s-43.5 -13.834 -65.5 -18.501s-43 -7 -63 -7c-15.333 0 -30.333 1.5 -45 4.5s-27.834 8.83301 -39.501 17.5s-21 20.834 -28 36.501s-10.5 36.167 -10.5 61.5v423z
" />
    <glyph glyph-name="u" unicode="u" horiz-adv-x="760" 
d="M270 616l-0.000976562 -412.998c0 -36.667 5.83301 -63.834 17.5 -81.501s31.5 -26.5 59.5 -26.5c10 0 21 1.5 33 4.5s24.333 7 37 12s24.834 10.667 36.501 17s22.5 13.166 32.5 20.499v467h176v-616h-157l-16 72h-2c-12 -8 -26.5 -16.833 -43.5 -26.5
s-35.333 -19 -55 -28s-40.334 -16.5 -62.001 -22.5s-42.834 -9 -63.501 -9c-23.333 0 -45.166 3.83301 -65.499 11.5s-38.166 19 -53.499 34s-27.5 34 -36.5 57s-13.5 49.5 -13.5 79.5v448h176z" />
    <glyph glyph-name="v" unicode="v" horiz-adv-x="667" 
d="M-5 608c6.66699 1.33301 15.502 2.83203 26.502 4.49902s22.833 3.33398 35.5 5.00098s25.167 3 37.5 4s23.166 1.5 32.499 1.5c21.333 0 39.5 -2.16699 54.5 -6.5s27.833 -13.166 38.5 -26.499s22.667 -35.833 36 -67.5s27.333 -68.334 42 -110.001
s29.167 -85.5 43.5 -131.5l39.5 -132h1c23.333 42.667 41.833 80.5 55.5 113.5s24 64 31 93s11.5 57 13.5 84s3 56.167 3 87.5c0 13.333 -0.833008 28.333 -2.5 45s-3.5 28.667 -5.5 36l132 19c3.33301 -8 6 -18.5 8 -31.5s3 -25.833 3 -38.5
c0 -49.333 -6.83301 -98.5 -20.5 -147.5s-31.334 -97 -53.001 -144s-45.667 -92.833 -72 -137.5l-77.5 -128h-144c-17.333 57.333 -35.5 114.5 -54.5 171.5s-37.667 109.5 -56 157.5s-35.333 89.5 -51 124.5s-28.834 59.167 -39.501 72.5c-13.333 16 -29.666 24 -48.999 24
h-8v58z" />
    <glyph glyph-name="w" unicode="w" horiz-adv-x="980" 
d="M804 526c0 14 -1.1709 28.8369 -3.50391 44.5039s-4.83301 27.167 -7.5 34.5l131 22c3.33301 -8.66699 5.83301 -19.5 7.5 -32.5s2.5 -25.5 2.5 -37.5c0 -48 -5.16699 -94.667 -15.5 -140s-24.666 -90.833 -42.999 -136.5s-40 -91.667 -65 -138
s-52.5 -93.833 -82.5 -142.5h-129c-7.33301 33.333 -14.833 65.5 -22.5 96.5l-23.5 91.5c-8 30 -16.667 60 -26 90l-30 92h-3c-7.33301 -28 -16.833 -58.833 -28.5 -92.5s-24 -67.334 -37 -101.001s-26.333 -65.834 -40 -96.501l-36.5 -80h-132l-44 171l-44.5 159.5
c-14.333 49 -27.5 91 -39.5 126s-22 58.5 -30 70.5c-7.33301 9.33301 -15 15.666 -23 18.999s-16.667 5 -26 5h-13v57c15.333 3.33301 35 6.66602 59 9.99902s47.667 5 71 5c18 0 33.333 -2 46 -6s23.334 -11.667 32.001 -23c10.667 -13.333 21.834 -36.333 33.501 -69
s23.334 -69.667 35.001 -111s23 -84 34 -128s20.5 -84 28.5 -120h3c14.667 36 28 70.5 40 103.5s23 65.833 33 98.5s19.167 65.5 27.5 98.5s16.166 67.167 23.499 102.5l121 19c20.667 -56 41.834 -118.667 63.501 -188s44.167 -147.333 67.5 -234h3
c17.333 33.333 31.5 66 42.5 98s19.5 63 25.5 93s10 59.167 12 87.5s3 55.5 3 81.5z" />
    <glyph glyph-name="x" unicode="x" horiz-adv-x="687" 
d="M414 363l64.001 -115.497c20.667 -35.667 40.5 -66.834 59.5 -93.501s37 -47.5 54 -62.5s32.833 -22.5 47.5 -22.5c6.66699 0 11.5 0.166992 14.5 0.5s6.83301 1.16602 11.5 2.49902v-63c-5.33301 -2 -12.666 -3.83301 -21.999 -5.5s-19.333 -3.16699 -30 -4.5
s-21.667 -2.33301 -33 -3s-21.333 -1 -30 -1c-24.667 0 -46.834 4.16699 -66.501 12.5s-38.667 21.666 -57 39.999s-36.833 42.166 -55.5 71.499s-39.334 65 -62.001 107l-53.5 -89.5c-16.333 -28.333 -33 -53 -50 -74s-35.333 -37.667 -55 -50s-42.167 -18.5 -67.5 -18.5
c-10.667 0 -24.167 1 -40.5 3s-28.833 5 -37.5 9v64h8c22.667 0 43.334 3.83301 62.001 11.5s37.5 20.5 56.5 38.5s39.167 42 60.5 72s45.666 67.333 72.999 112l-59 109c-17.333 30.667 -33.166 56 -47.499 76s-28.166 34.833 -41.499 44.5s-27.333 14.5 -42 14.5h-16v63
c6.66699 1.33301 15.334 2.83301 26.001 4.5s21.667 3 33 4s21.833 1.83301 31.5 2.5s17.167 1 22.5 1c22 0 41.167 -2.83301 57.5 -8.5s31.666 -15.5 45.999 -29.5s28.833 -32.667 43.5 -56s31.667 -52.666 51 -87.999c18.667 31.333 35.667 58.5 51 81.5
s29.666 42 42.999 57s26.666 26 39.999 33s28 10.5 44 10.5c10.667 0 23.667 -1.16699 39 -3.5s28 -5.5 38 -9.5v-65h-22c-15.333 0 -30 -3.16699 -44 -9.5s-28.5 -16.833 -43.5 -31.5s-30.667 -33.5 -47 -56.5s-34.5 -51.167 -54.5 -84.5z" />
    <glyph glyph-name="y" unicode="y" horiz-adv-x="649" 
d="M181 -299c-31.333 -38.667 -62.5029 -67.1689 -93.5029 -85.502s-62.5 -27.5 -94.5 -27.5c-16.667 0 -34.667 1.33301 -54 4s-34.666 6 -45.999 10v59h13c21.333 0 46 6 74 18s54.667 29.333 80 52c14 12 30.333 27.833 49 47.5s38 41.167 58 64.5s39.5 47.333 58.5 72
s36.167 48.334 51.5 71.001c-24 72.667 -47.667 140.167 -71 202.5s-45 117.333 -65 165s-37.833 86.667 -53.5 117s-28.167 50.166 -37.5 59.499c-8.66699 8.66699 -17.667 14.167 -27 16.5s-16.666 3.5 -21.999 3.5h-5v58c7.33301 2 16.833 3.83301 28.5 5.5
s23.834 3.16699 36.501 4.5s25 2.5 37 3.5s22 1.5 30 1.5c17.333 0 33 -2.16699 47 -6.5s25.667 -11.833 35 -22.5c12 -12 25 -31.667 39 -59s28.5 -60.166 43.5 -98.499s30.333 -81 46 -128s30.834 -96.5 45.501 -148.5h3c20 32 36.167 62.333 48.5 91s22.166 57 29.499 85
s12.333 56 15 84s4 57.667 4 89c0 8.66699 -0.5 17.834 -1.5 27.501s-2.16699 19 -3.5 28s-2.83301 17.167 -4.5 24.5s-3.16699 12.666 -4.5 15.999l136 24c3.33301 -9.33301 6.33301 -23.166 9 -41.499s4 -35.833 4 -52.5c0 -44 -7 -88.5 -21 -133.5
s-32.167 -89.833 -54.5 -134.5s-47 -89 -74 -133l-79.5 -129l-69.5 -108.5l-49.5 -75.5l-42.5 -59.5c-13.667 -18.333 -29.5 -38.5 -47.5 -60.5z" />
    <glyph glyph-name="z" unicode="z" horiz-adv-x="595" 
d="M78 606c20 1.33301 47.3311 2.66602 81.998 3.99902s72.167 2.5 112.5 3.5s81.333 1.66699 123 2s79.834 0.5 114.501 0.5v-33l-286 -501c6 -0.666992 14.833 -1.33398 26.5 -2.00098s24.334 -1.16699 38.001 -1.5l39.5 -1c12.667 -0.333008 22.667 -0.5 30 -0.5
c33.333 0 60.666 2.16699 81.999 6.5s38.833 10 52.5 17s24.834 15.167 33.501 24.5s17 19 25 29l29 -17c-6.66699 -14.667 -14.334 -30.667 -23.001 -48s-20.334 -33.666 -35.001 -48.999s-33.5 -28.166 -56.5 -38.499s-52.167 -15.5 -87.5 -15.5
c-25.333 0 -56.5 0.666992 -93.5 2s-73.667 3 -110 5s-69 3.66699 -98 5s-48.167 2 -57.5 2v38l286 494h-10c-47.333 0 -91.666 -1 -132.999 -3s-73.666 -3.66699 -96.999 -5z" />
    <glyph glyph-name="braceleft" unicode="{" horiz-adv-x="468" 
d="M166 205c0 48.667 -11.5 85.6641 -34.5 110.997s-52.5 39 -88.5 41v84c36 2.66699 65.5 16.834 88.5 42.501s34.5 63.167 34.5 112.5v210c0 74.667 23.833 131 71.5 169s116.167 57 205.5 57v-85c-40 0 -71.167 -8.5 -93.5 -25.5s-33.5 -46.5 -33.5 -88.5v-246
c0 -25.333 -4.66699 -48.666 -14 -69.999s-21.333 -40 -36 -56s-31 -29.167 -49 -39.5s-35.333 -17.166 -52 -20.499v-3c16.667 -3.33301 34 -10 52 -20s34.333 -23 49 -39s26.667 -34.5 36 -55.5s14 -44.167 14 -69.5v-250c0 -42 11.167 -71.333 33.5 -88
s53.5 -25 93.5 -25v-86c-89.333 0 -157.833 19 -205.5 57s-71.5 94.333 -71.5 169v214z" />
    <glyph glyph-name="bar" unicode="|" horiz-adv-x="311" 
d="M109 1092h92v-1431h-92v1431z" />
    <glyph glyph-name="braceright" unicode="}" horiz-adv-x="468" 
d="M303 -9c0 -74.667 -24 -130.997 -72 -168.997s-116.333 -57 -205 -57v86c40 0 71 8.33301 93 25s33 46 33 88v250c0 25.333 4.66699 48.5 14 69.5s21.5 39.5 36.5 55.5s31.333 29 49 39s35.167 16.667 52.5 20v3c-17.333 3.33301 -34.833 10.166 -52.5 20.499
s-34 23.5 -49 39.5s-27.167 34.667 -36.5 56s-14 44.666 -14 69.999v246c0 42 -11 71.5 -33 88.5s-53 25.5 -93 25.5v85c88.667 0 157 -19 205 -57s72 -94.333 72 -169v-210c0 -49.333 11.5 -86.833 34.5 -112.5s52.5 -39.834 88.5 -42.501v-84
c-36 -2 -65.5 -15.667 -88.5 -41s-34.5 -62.333 -34.5 -111v-214z" />
    <glyph glyph-name="asciitilde" unicode="~" horiz-adv-x="766" 
d="M531 308c-30 0 -58.6689 6.66699 -86.002 20s-53.5 27.833 -78.5 43.5l-72.5 43.5c-23.333 13.333 -46 20 -68 20c-30 0 -53.833 -9.16699 -71.5 -27.5s-27.167 -48.5 -28.5 -90.5h-83c0.666992 31.333 5.33398 60.166 14.001 86.499s21 49 37 68s35.667 33.667 59 44
s50.666 15.5 81.999 15.5c32.667 0 62.834 -6.66699 90.501 -20s53.5 -27.833 77.5 -43.5l69.5 -43.5c22.333 -13.333 44.833 -20 67.5 -20c29.333 0 52.833 9.16699 70.5 27.5s26.834 48.5 27.501 90.5h85c-1.33301 -31.333 -6.16602 -60.166 -14.499 -86.499
s-20.5 -49 -36.5 -68s-35.833 -33.667 -59.5 -44s-50.834 -15.5 -81.501 -15.5z" />
    <glyph glyph-name="uni00A0" unicode="&#xa0;" horiz-adv-x="500" 
 />
    <glyph glyph-name="exclamdown" unicode="&#xa1;" horiz-adv-x="388" 
d="M253 318l38 -638h-193l37 638h118zM194 378l-116 126l116 126l116 -126z" />
    <glyph glyph-name="cent" unicode="&#xa2;" horiz-adv-x="604" 
d="M537 623c-17.333 9.33301 -37.666 18.501 -60.999 27.501s-48.333 15.167 -75 18.5v-437c28 2.66699 56.167 7.33398 84.5 14.001s54.166 15 77.499 25l16 -45c-24.667 -20.667 -52 -38.834 -82 -54.501s-62 -27.167 -96 -34.5v-108h-76v99h-6
c-37.333 0 -72 5.5 -104 16.5s-59.667 28.5 -83 52.5s-41.833 55.167 -55.5 93.5s-20.5 85.166 -20.5 140.499c0 96 22.833 173 68.5 231s112.5 92.333 200.5 103v82h76v-78c28.667 -1.33301 57.5 -4.33301 86.5 -9s55.5 -9.66699 79.5 -15zM238 437.001
c0 -63.333 7.33301 -110.497 22 -141.497s36.334 -50.833 65.001 -59.5v433c-9.33301 -2 -17.833 -4.33301 -25.5 -7s-14.834 -6.33398 -21.501 -11.001c-12 -8.66699 -21.667 -29.334 -29 -62.001s-11 -83.334 -11 -152.001z" />
    <glyph glyph-name="sterling" unicode="&#xa3;" horiz-adv-x="757" 
d="M544 122c16.667 0 31.6689 3.00098 45.002 9.00098s25.5 13.5 36.5 22.5s20.833 19.167 29.5 30.5l25 32l60 -49c-16 -25.333 -32.167 -48.833 -48.5 -70.5s-34 -40.334 -53 -56.001s-40 -28 -63 -37s-48.833 -13.5 -77.5 -13.5c-22 0 -45 2.66699 -69 8l-73.5 17
c-25 6 -50.167 11.667 -75.5 17s-50 8 -74 8c-21.333 0 -46.166 -2.66699 -74.499 -8s-61.5 -16 -99.5 -32l-22 81c45.333 16 79.833 42.5 103.5 79.5s35.5 85.5 35.5 145.5v91h-101l9 91h92v130c0 32 7.66699 66.5 23 103.5s37.166 71 65.499 102s62.333 56.833 102 77.5
s83.834 31 132.501 31c38 0 72.5 -1.5 103.5 -4.5s63.167 -8.83301 96.5 -17.5l-27 -136c-32.667 12 -66.667 22.333 -102 31s-68 13 -98 13c-46 0 -80.667 -8.66699 -104 -26c-5.33301 -3.33301 -9.83301 -10 -13.5 -20s-6.83398 -22.333 -9.50098 -37s-4.66699 -31 -6 -49
s-2 -37 -2 -57v-141h205l-8 -91h-197v-46c0 -51.333 -13.167 -94.666 -39.5 -129.999s-60.5 -66.666 -102.5 -93.999c35.333 15.333 64.666 24.333 87.999 27s41.666 4 54.999 4c14.667 0 31.5 -1.83301 50.5 -5.5s39 -7.83398 60 -12.501s42 -8.83398 63 -12.501
s40.833 -5.5 59.5 -5.5z" />
    <glyph glyph-name="currency" unicode="&#xa4;" horiz-adv-x="703" 
d="M72 429c0 34.667 5.16797 67.5 15.501 98.5s25.166 58.833 44.499 83.5l-68 73l45 49l69 -73c24 19.333 50.667 34.666 80 45.999s60.333 17 93 17c32 0 62.667 -5.66699 92 -17s56 -26.666 80 -45.999l70 73l45 -49l-69 -73c19.333 -25.333 34.166 -53.333 44.499 -84
s15.5 -63.334 15.5 -98.001c0 -34 -5.16699 -66.333 -15.5 -97s-25.166 -58.667 -44.499 -84l68 -71l-45 -48l-69 70c-23.333 -20 -49.833 -35.5 -79.5 -46.5s-60.5 -16.5 -92.5 -16.5c-32.667 0 -63.834 5.5 -93.501 16.5s-56.167 26.5 -79.5 46.5l-69 -71l-45 48l68 71
c-19.333 25.333 -34.166 53.333 -44.499 84s-15.5 63.334 -15.5 98.001zM158.001 429c0 -28 5 -54.333 15 -79s23.833 -46.167 41.5 -64.5s38.167 -32.833 61.5 -43.5s48.333 -16 75 -16s51.667 5.33301 75 16s43.666 25.167 60.999 43.5s31 39.833 41 64.5s15 51 15 79
s-5 54.5 -15 79.5s-23.667 46.667 -41 65s-37.666 32.833 -60.999 43.5s-48.333 16 -75 16s-51.667 -5.33301 -75 -16s-43.833 -25.167 -61.5 -43.5s-31.5 -40 -41.5 -65s-15 -51.5 -15 -79.5z" />
    <glyph glyph-name="yen" unicode="&#xa5;" horiz-adv-x="732" 
d="M456 142v-142h-179v142h-212l8 88h204v113h-212l8 87h165l-247 492h204l215 -452l198 452h108l-225 -492h178l-9 -87h-204v-113h213l-9 -88h-204z" />
    <glyph glyph-name="brokenbar" unicode="&#xa6;" horiz-adv-x="311" 
d="M109 1092h92v-538h-92v538zM109 197h92v-538h-92v538z" />
    <glyph glyph-name="section" unicode="&#xa7;" horiz-adv-x="560" 
d="M510 225c0 -33.333 -6.49902 -63.0107 -19.499 -89.0107s-29.167 -48.333 -48.5 -67c-10 -10 -21.167 -19.667 -33.5 -29s-26 -17.666 -41 -24.999s-31.5 -13.166 -49.5 -17.499s-38.333 -6.5 -61 -6.5c-46 0 -85.667 3.66699 -119 11s-66 20.333 -98 39l31 119l41 -30
c14 -10 28.5 -18.833 43.5 -26.5s30.5 -14 46.5 -19s32.667 -7.5 50 -7.5c18.667 0 36 1.5 52 4.5s29.333 7.83301 40 14.5c19.333 13.333 29 45 29 95c0 22 -7.83301 40.5 -23.5 55.5s-35 28.667 -58 41s-48 24.333 -75 36s-52 25.334 -75 41.001
s-42.167 34.167 -57.5 55.5s-23 48 -23 80c0 22 2.5 41.167 7.5 57.5s12.333 30.5 22 42.5s21.167 22.5 34.5 31.5s28.666 17.5 45.999 25.5c-15.333 9.33301 -29.666 19.333 -42.999 30s-25 22.834 -35 36.501s-17.833 29.334 -23.5 47.001s-8.5 37.834 -8.5 60.501
c0 28 5 51.833 15 71.5s24 37.834 42 54.501c23.333 20 52.166 36 86.499 48s69.5 18 105.5 18c28 0 54.833 -1.66699 80.5 -5l82.5 -11l-17 -122l-41.5 16.5c-16.333 6.33301 -33 12 -50 17s-33.5 9.33301 -49.5 13s-29 5.5 -39 5.5c-12 0 -23.167 -1.16699 -33.5 -3.5
s-18.833 -6.16602 -25.5 -11.499s-11.167 -13.666 -13.5 -24.999s-3.5 -24.666 -3.5 -39.999c0 -22.667 7.66699 -42.167 23 -58.5s34.5 -31.5 57.5 -45.5s47.833 -27.667 74.5 -41s51.5 -28.833 74.5 -46.5s42.167 -38.167 57.5 -61.5s23 -51.666 23 -84.999
c0 -22.667 -2.66699 -41.667 -8 -57s-12.333 -28.5 -21 -39.5s-18.5 -20.5 -29.5 -28.5l-32.5 -23c26.667 -16.667 48.5 -36.667 65.5 -60s25.5 -52 25.5 -86zM364.001 499.989c0 19.333 -8.16797 38.6689 -24.501 58.002s-43.166 37 -80.499 53
c-19.333 -10.667 -33 -22.834 -41 -36.501s-12 -29.5 -12 -47.5c0 -14 4 -25.833 12 -35.5s18.167 -18.334 30.5 -26.001s26 -15 41 -22s29.5 -14.5 43.5 -22.5c9.33301 8 16.833 17.333 22.5 28s8.5 27.667 8.5 51z" />
    <glyph glyph-name="dieresis" unicode="&#xa8;" horiz-adv-x="557" 
d="M141 927l90 -94l-90 -95l-89 95zM416 927l90 -94l-90 -95l-88 95z" />
    <glyph glyph-name="copyright" unicode="&#xa9;" horiz-adv-x="1001" 
d="M500 163c-42 0 -78.501 7.16797 -109.501 21.501s-56.667 34.666 -77 60.999s-35.666 58 -45.999 95s-15.5 78.167 -15.5 123.5c0 56 8.33301 102.833 25 140.5s38.334 68.167 65.001 91.5s56.167 40 88.5 50s64.5 15 96.5 15c12 0 25.167 -0.333008 39.5 -1
s28.166 -1.5 41.499 -2.5s25.833 -2.16699 37.5 -3.5s21.167 -2.66602 28.5 -3.99902l-21 -88c-7.33301 2 -17.5 4.5 -30.5 7.5s-26.667 5.83301 -41 8.5s-28.5 5 -42.5 7s-26 3 -36 3c-22.667 0 -41.334 -1.83301 -56.001 -5.5s-28.667 -11.167 -42 -22.5
c-17.333 -13.333 -28.666 -35.5 -33.999 -66.5s-8 -74.167 -8 -129.5c0 -78.667 10.333 -137.834 31 -177.501s58 -59.5 112 -59.5c30.667 0 61.167 2.16699 91.5 6.5s58.833 11.166 85.5 20.499v-49c-27.333 -13.333 -57 -23.666 -89 -30.999s-63.333 -11 -94 -11z
M55.999 461.001c0 64.667 11.667 125.5 35 182.5s55 106.667 95 149s87 75.833 141 100.5s112 37 174 37c61.333 0 119 -12.333 173 -37s101 -58.167 141 -100.5s71.667 -92 95 -149s35 -117.833 35 -182.5s-11.667 -125.5 -35 -182.5s-55 -106.667 -95 -149
s-87 -75.666 -141 -99.999s-111.667 -36.5 -173 -36.5c-62 0 -120 12.167 -174 36.5s-101 57.666 -141 99.999s-71.667 92 -95 149s-35 117.833 -35 182.5zM123.999 461.001c0 -55.333 9.83301 -107 29.5 -155s46.5 -90 80.5 -126s74 -64.333 120 -85s95 -31 147 -31
s100.833 10.333 146.5 31s85.667 49 120 85s61.333 78 81 126s29.5 99.667 29.5 155c0 54.667 -9.83301 106.167 -29.5 154.5s-46.667 90.5 -81 126.5s-74.333 64.5 -120 85.5s-94.5 31.5 -146.5 31.5s-101 -10.5 -147 -31.5s-86 -49.5 -120 -85.5
s-60.833 -78.167 -80.5 -126.5s-29.5 -99.833 -29.5 -154.5z" />
    <glyph glyph-name="ordfeminine" unicode="&#xaa;" horiz-adv-x="472" 
d="M428 547c12.667 0 26.9961 2.33398 42.9961 7.00098v-42c-7.33301 -3.33301 -15.833 -6.66602 -25.5 -9.99902s-19.667 -6.5 -30 -9.5s-21 -5.5 -32 -7.5s-20.833 -3 -29.5 -3c-21.333 0 -36.666 5.5 -45.999 16.5s-16 23.167 -20 36.5
c-21.333 -14 -42.166 -26.833 -62.499 -38.5s-45.5 -17.5 -75.5 -17.5c-34.667 0 -63 10 -85 30s-33 50.667 -33 92c0 44 13.333 78 40 102s70.334 36.667 131.001 38l77 2v54c0 21.333 -4.83301 36.833 -14.5 46.5s-25.5 14.5 -47.5 14.5
c-8.66699 0 -18.667 -0.833008 -30 -2.5s-23.166 -4 -35.499 -7s-24.666 -6.5 -36.999 -10.5s-23.833 -8.33301 -34.5 -13l-15 55c28 12 59.833 22.833 95.5 32.5s69.5 14.5 101.5 14.5c18 0 35 -1.83301 51 -5.5s30 -9.83398 42 -18.501s21.5 -20.334 28.5 -35.001
s10.5 -32.667 10.5 -54v-202c0 -24 2.66699 -40.833 8 -50.5s13.666 -14.5 24.999 -14.5zM281.996 586.001c0 2 -0.333008 10.8311 -1 26.498s-1 42.5 -1 80.5c-40.667 0 -69.5 -2.66699 -86.5 -8s-27.833 -10.666 -32.5 -15.999
c-5.33301 -5.33301 -8.83301 -12.666 -10.5 -21.999s-2.5 -20.333 -2.5 -33c0 -22.667 2.16699 -37.667 6.5 -45s13.833 -11 28.5 -11c17.333 0 33.833 2.16699 49.5 6.5s32.167 11.5 49.5 21.5z" />
    <glyph glyph-name="guillemotleft" unicode="&#xab;" horiz-adv-x="651" 
d="M330 165l-86 -92l-193 234l208 274l70 -58l-152 -185zM599 165l-85 -92l-193 234l207 274l70 -58l-151 -185z" />
    <glyph glyph-name="logicalnot" unicode="&#xac;" horiz-adv-x="703" 
d="M660 478v-386h-91v290h-526v96h617z" />
    <glyph glyph-name="uni00AD" unicode="&#xad;" horiz-adv-x="417" 
d="M366 264h-323l8 122h323z" />
    <glyph glyph-name="registered" unicode="&#xae;" horiz-adv-x="1001" 
d="M56 461c0 64.667 11.667 125.5 35 182.5s55 106.667 95 149s87 75.833 141 100.5s112 37 174 37c61.333 0 119 -12.333 173 -37s101 -58.167 141 -100.5s71.667 -92 95 -149s35 -117.833 35 -182.5s-11.667 -125.5 -35 -182.5s-55 -106.667 -95 -149
s-87 -75.666 -141 -99.999s-111.667 -36.5 -173 -36.5c-62 0 -120 12.167 -174 36.5s-101 57.666 -141 99.999s-71.667 92 -95 149s-35 117.833 -35 182.5zM461 415l-53.999 -0.000976562v-247h-97v584c22.667 1.33301 49.834 2.5 81.501 3.5s61.5 1.5 89.5 1.5
c67.333 0 120 -13.833 158 -41.5s57 -66.5 57 -116.5c0 -24.667 -3.83301 -46.667 -11.5 -66s-17.834 -36.166 -30.501 -50.499s-27.334 -26.333 -44.001 -36s-33.667 -17.167 -51 -22.5l49 -82.5c15.333 -25 30.666 -46.833 45.999 -65.5s30.833 -33.167 46.5 -43.5
s32.167 -15.5 49.5 -15.5h6v-44c-18.667 -6.66699 -40 -10 -64 -10c-18.667 0 -35.5 2.5 -50.5 7.5s-29.833 14.5 -44.5 28.5s-30.167 33.5 -46.5 58.5s-35.166 57.5 -56.499 97.5zM421.001 473.999c35.333 0 64.002 1.16602 86.002 3.49902s39 7.16602 51 14.499
c5.33301 4 10.166 8.33301 14.499 13s8.16602 10.667 11.499 18s5.83301 16.5 7.5 27.5s2.5 25.167 2.5 42.5c0 22.667 -3.16699 40.834 -9.5 54.501s-15.5 24.334 -27.5 32.001s-26.667 12.667 -44 15s-37 3.5 -59 3.5h-13.5h-10c-3 0 -6.33301 -0.166992 -10 -0.5
s-8.16699 -0.833008 -13.5 -1.5v-222h14zM124.003 460.998c0 -55.333 9.83301 -107 29.5 -155s46.5 -90 80.5 -126s74 -64.333 120 -85s95 -31 147 -31s100.833 10.333 146.5 31s85.667 49 120 85s61.333 78 81 126s29.5 99.667 29.5 155
c0 54.667 -9.83301 106.167 -29.5 154.5s-46.667 90.5 -81 126.5s-74.333 64.5 -120 85.5s-94.5 31.5 -146.5 31.5s-101 -10.5 -147 -31.5s-86 -49.5 -120 -85.5s-60.833 -78.167 -80.5 -126.5s-29.5 -99.833 -29.5 -154.5z" />
    <glyph glyph-name="macron" unicode="&#xaf;" horiz-adv-x="415" 
d="M377 721h-347l9 94h347z" />
    <glyph glyph-name="degree" unicode="&#xb0;" horiz-adv-x="455" 
d="M43 728c0 26.667 4.83301 52 14.5 76s22.667 44.667 39 62s35.666 31.166 57.999 41.499s46.5 15.5 72.5 15.5s50.167 -5.16699 72.5 -15.5s41.833 -24.166 58.5 -41.499s29.834 -38 39.501 -62s14.5 -49.333 14.5 -76c0 -27.333 -4.83301 -52.666 -14.5 -75.999
s-22.834 -43.833 -39.501 -61.5s-36.167 -31.5 -58.5 -41.5s-46.5 -15 -72.5 -15s-50.167 5 -72.5 15s-41.666 23.833 -57.999 41.5s-29.333 38.167 -39 61.5s-14.5 48.666 -14.5 75.999zM128 728c0 -14 2.66699 -27.333 8 -40s12.5 -23.834 21.5 -33.501
s19.5 -17.167 31.5 -22.5s24.667 -8 38 -8c14 0 27 2.66699 39 8s22.5 12.833 31.5 22.5s16.167 20.834 21.5 33.501s8 26 8 40c0 14.667 -2.66699 28.334 -8 41.001s-12.5 23.667 -21.5 33s-19.5 16.833 -31.5 22.5s-25 8.5 -39 8.5c-13.333 0 -26 -2.83301 -38 -8.5
s-22.5 -13.167 -31.5 -22.5s-16.167 -20.333 -21.5 -33s-8 -26.334 -8 -41.001z" />
    <glyph glyph-name="plusminus" unicode="&#xb1;" horiz-adv-x="703" 
d="M43 96h617v-96h-617v96zM660 436h-263v-290h-91v290h-263v96h263v291h91v-291h263v-96z" />
    <glyph glyph-name="twosuperior" unicode="&#xb2;" horiz-adv-x="427" 
d="M148 462c18 0 40.834 0.166016 68.501 0.499023s54.834 0.833008 81.501 1.5c31.333 0.666992 63.666 1.66699 96.999 3l-15 -101h-344v52l148 172c12 14 22.5 27.333 31.5 40s16.5 25.5 22.5 38.5s10.5 26.5 13.5 40.5s4.5 29.333 4.5 46c0 58 -29.667 87 -89 87
c-19.333 0 -39.833 -2 -61.5 -6s-41.834 -9.33301 -60.501 -16l14 91c7.33301 2.66699 16.5 5 27.5 7s22.5 3.83301 34.5 5.5s24 2.83398 36 3.50098s22.333 1 31 1c62.667 0 108.5 -12.833 137.5 -38.5s43.5 -59.167 43.5 -100.5c0 -20 -4 -40 -12 -60
s-18.333 -39.667 -31 -59s-27 -38.333 -43 -57l-47 -54z" />
    <glyph glyph-name="threesuperior" unicode="&#xb3;" horiz-adv-x="443" 
d="M143 691c43.333 3.33301 74.6641 12.502 93.9971 27.502s29 35.167 29 60.5c0 22.667 -8 38.834 -24 48.501s-39 14.5 -69 14.5c-18.667 0 -40 -2 -64 -6s-45.333 -9.66699 -64 -17l15 91c8 2.66699 17.5 5.16699 28.5 7.5s22.667 4.16602 35 5.49902s24.5 2.5 36.5 3.5
s22.667 1.5 32 1.5c58.667 0 104.834 -10.667 138.501 -32s50.5 -53 50.5 -95c0 -17.333 -3.66699 -33.166 -11 -47.499s-16.333 -26.833 -27 -37.5s-22 -19.5 -34 -26.5s-22.333 -11.833 -31 -14.5v-2c14.667 -2.66699 29.5 -6.83398 44.5 -12.501s28.333 -13.167 40 -22.5
s21.167 -21 28.5 -35s11 -30.667 11 -50c0 -23.333 -6.16699 -46.5 -18.5 -69.5s-28.666 -43.5 -48.999 -61.5s-43.666 -32.667 -69.999 -44s-53.5 -17 -81.5 -17c-30 0 -60 3.16699 -90 9.5s-55.667 15.166 -77 26.499l25 92c6.66699 -6 15.5 -12.167 26.5 -18.5
s23 -12 36 -17s26.167 -9.16699 39.5 -12.5s26 -5 38 -5c20 0 36.167 1.66699 48.5 5s22.5 7.66602 30.5 12.999c9.33301 6 17.333 14.833 24 26.5s10 31.167 10 58.5c0 22.667 -4.33301 40.667 -13 54s-20 23.5 -34 30.5s-30 11.5 -48 13.5s-36.667 3 -56 3v51z" />
    <glyph glyph-name="acute" unicode="&#xb4;" horiz-adv-x="395" 
d="M259 1005l90 -91l-225 -196l-56 57z" />
    <glyph glyph-name="mu" unicode="&#xb5;" horiz-adv-x="756" 
d="M270 616v-410.005c0 -38 7.83301 -66 23.5 -84s35.167 -27 58.5 -27c26 0 50.333 5 73 15s43 21.333 61 34v472h176v-440c0 -37.333 2.16699 -70.666 6.5 -99.999s10.5 -54.666 18.5 -75.999h-169c-7.33301 7.33301 -14.166 17.833 -20.499 31.5
s-10.166 24.834 -11.499 33.501c-9.33301 -10 -19 -19.667 -29 -29s-21 -17.666 -33 -24.999s-25 -13.333 -39 -18s-29.667 -7 -47 -7c-16.667 0 -31.834 3 -45.501 9s-24.167 12.333 -31.5 19c-2.66699 -27.333 -6 -56.333 -10 -87s-9 -61.667 -15 -93
s-12.833 -62.666 -20.5 -93.999s-16.167 -61 -25.5 -89l-132 -20c11.333 64.667 20.166 135.667 26.499 213s9.5 162.333 9.5 255v517h176z" />
    <glyph glyph-name="paragraph" unicode="&#xb6;" horiz-adv-x="634" 
d="M591 839l-68.999 -0.00390625v-931l-82 -18v949h-108v-931l-83 -18v579c-24.667 2.66699 -49.5 9 -74.5 19s-47.5 24.333 -67.5 43s-36.167 42.334 -48.5 71.001s-18.5 63.334 -18.5 104.001c0 32.667 5.5 62.334 16.5 89.001s26.167 49.334 45.5 68.001
s42.666 33.167 69.999 43.5s57 15.5 89 15.5h338z" />
    <glyph glyph-name="periodcentered" unicode="&#xb7;" horiz-adv-x="287" 
d="M142 547l118 -123l-118 -123l-117 123z" />
    <glyph glyph-name="cedilla" unicode="&#xb8;" horiz-adv-x="287" 
d="M276 -178c0 -44 -14 -78.667 -42 -104s-73.667 -38 -137 -38c-12 0 -24.667 0.833008 -38 2.5s-24.666 4.16699 -33.999 7.5l10 73c8 -2 18.333 -3.66699 31 -5s23.667 -2 33 -2c23.333 0 39.666 5.33301 48.999 16s14 22.667 14 36s-3.83301 24.5 -11.5 33.5
s-17 16.5 -28 22.5s-23.167 10.5 -36.5 13.5s-25.333 5.16699 -36 6.5l61 116h82l-38 -70c35.333 -6 64.333 -18 87 -36s34 -42 34 -72z" />
    <glyph glyph-name="onesuperior" unicode="&#xb9;" horiz-adv-x="428" 
d="M188 366v462l-134 -105l-35 54l196 145h87v-556h-114z" />
    <glyph glyph-name="ordmasculine" unicode="&#xba;" horiz-adv-x="496" 
d="M248 479c-66.667 0 -119.334 19.001 -158.001 57.001s-58 93.333 -58 166c0 70 18.833 125 56.5 165s90.834 60 159.501 60c68 0 121 -19.333 159 -58s57 -93.667 57 -165c0 -70.667 -19 -125.834 -57 -165.501s-91 -59.5 -159 -59.5zM152 703.001
c0 -31.333 1.83301 -57.335 5.5 -78.002s9.16699 -37.334 16.5 -50.001s17 -21.5 29 -26.5s26.667 -7.5 44 -7.5c14 0 26 1.33301 36 4s20 6.66699 30 12c11.333 6 19.333 21.833 24 47.5s7 58.167 7 97.5c0 30.667 -1.83301 56.334 -5.5 77.001s-9.5 37.334 -17.5 50.001
s-18 21.667 -30 27s-26 8 -42 8c-12.667 0 -24.5 -1.16699 -35.5 -3.5s-21.167 -6.5 -30.5 -12.5c-12.667 -7.33301 -21 -23.666 -25 -48.999s-6 -57.333 -6 -96z" />
    <glyph glyph-name="guillemotright" unicode="&#xbb;" horiz-adv-x="651" 
d="M321 489l86 92l192 -234l-208 -274l-69 58l152 184zM51 489l86 92l193 -234l-207 -274l-70 58l151 184z" />
    <glyph glyph-name="onequarter" unicode="&#xbc;" horiz-adv-x="971" 
d="M188 366v462l-134 -105l-35 54l196 145h87v-556h-114zM805 922l-561 -922h-98l561 922h98zM490 206l248 351h112v-348h82l-12 -88l-70 -3v-117h-115v115h-141c-32 0 -66.667 0.333008 -104 1v89zM569 209h166v241z" />
    <glyph glyph-name="onehalf" unicode="&#xbd;" horiz-adv-x="1000" 
d="M188 366v462l-134 -105l-35 54l196 145h87v-556h-114zM805 922l-561 -922h-98l561 922h98zM718 97c18 0 40.834 0.166016 68.501 0.499023s54.834 0.833008 81.501 1.5c31.333 0.666992 63.666 1.66699 96.999 3l-15 -101h-344v52l148 172c12 14 22.5 27.333 31.5 40
s16.5 25.5 22.5 38.5s10.5 26.5 13.5 40.5s4.5 29.333 4.5 46c0 58 -29.667 87 -89 87c-19.333 0 -39.833 -2 -61.5 -6s-41.834 -9.33301 -60.501 -16l14 91c7.33301 2.66699 16.5 5 27.5 7s22.5 3.83301 34.5 5.5s24 2.83398 36 3.50098s22.333 1 31 1
c62.667 0 108.5 -12.833 137.5 -38.5s43.5 -59.167 43.5 -100.5c0 -20 -4 -40 -12 -60s-18.333 -39.667 -31 -59s-27 -38.333 -43 -57l-47 -54z" />
    <glyph glyph-name="threequarters" unicode="&#xbe;" horiz-adv-x="1018" 
d="M167 691c43.333 3.33301 74.6641 12.502 93.9971 27.502s29 35.167 29 60.5c0 22.667 -8 38.834 -24 48.501s-39 14.5 -69 14.5c-18.667 0 -40 -2 -64 -6s-45.333 -9.66699 -64 -17l15 91c8 2.66699 17.5 5.16699 28.5 7.5s22.667 4.16602 35 5.49902s24.5 2.5 36.5 3.5
s22.667 1.5 32 1.5c58.667 0 104.834 -10.667 138.501 -32s50.5 -53 50.5 -95c0 -17.333 -3.66699 -33.166 -11 -47.499s-16.333 -26.833 -27 -37.5s-22 -19.5 -34 -26.5s-22.333 -11.833 -31 -14.5v-2c14.667 -2.66699 29.5 -6.83398 44.5 -12.501s28.333 -13.167 40 -22.5
s21.167 -21 28.5 -35s11 -30.667 11 -50c0 -23.333 -6.16699 -46.5 -18.5 -69.5s-28.666 -43.5 -48.999 -61.5s-43.666 -32.667 -69.999 -44s-53.5 -17 -81.5 -17c-30 0 -60 3.16699 -90 9.5s-55.667 15.166 -77 26.499l25 92c6.66699 -6 15.5 -12.167 26.5 -18.5
s23 -12 36 -17s26.167 -9.16699 39.5 -12.5s26 -5 38 -5c20 0 36.167 1.66699 48.5 5s22.5 7.66602 30.5 12.999c9.33301 6 17.333 14.833 24 26.5s10 31.167 10 58.5c0 22.667 -4.33301 40.667 -13 54s-20 23.5 -34 30.5s-30 11.5 -48 13.5s-36.667 3 -56 3v51z
M851.998 922.002l-561 -922h-98l561 922h98zM536.998 206.002l248 351h112v-348h82l-12 -88l-70 -3v-117h-115v115h-141c-32 0 -66.667 0.333008 -104 1v89zM615.998 209.002h166v241z" />
    <glyph glyph-name="questiondown" unicode="&#xbf;" horiz-adv-x="524" 
d="M203 139c17.333 9.33301 31.9961 17.835 43.9961 25.502s21.5 15.5 28.5 23.5s12 16.667 15 26s4.5 20.333 4.5 33c0 14 -1.66699 26.333 -5 37s-7.33301 20.667 -12 30l69 25c12.667 -14 25 -32 37 -54s18 -47.333 18 -76c0 -16.667 -2 -31.334 -6 -44.001
s-10.167 -24.5 -18.5 -35.5s-18.666 -21.333 -30.999 -31s-26.833 -19.5 -43.5 -29.5c-21.333 -13.333 -39.333 -26.166 -54 -38.499s-26.5 -25 -35.5 -38s-15.333 -26.5 -19 -40.5s-5.5 -29 -5.5 -45c0 -14.667 2.16699 -28.334 6.5 -41.001s12 -23.834 23 -33.501
s25.667 -17.167 44 -22.5s41.833 -8 70.5 -8c25.333 0 51 2.33301 77 7s53 12.667 81 24l-22 -144c-22 -6 -47.333 -10.833 -76 -14.5s-57 -5.5 -85 -5.5c-83.333 0 -148.166 18 -194.499 54s-69.5 92.667 -69.5 170c0 33.333 3.66699 62.333 11 87s17.833 46.5 31.5 65.5
s30.334 36 50.001 51s41.834 29.167 66.501 42.5zM307.996 377.002l-116 126l116 126l116 -126z" />
    <glyph glyph-name="Agrave" unicode="&#xc0;" horiz-adv-x="846" 
d="M654 0l-103 311l-330 -5l-106 -306h-113l347 914l173 31l323 -945h-191zM523 398l-133 398l-137 -398h270zM551 1066l-56 -57l-224 195l89 92z" />
    <glyph glyph-name="Aacute" unicode="&#xc1;" horiz-adv-x="846" 
d="M654 0l-103 311l-330 -5l-106 -306h-113l347 914l173 31l323 -945h-191zM523 398l-133 398l-137 -398h270zM518 1297l90 -92l-224 -195l-56 57z" />
    <glyph glyph-name="Acircumflex" unicode="&#xc2;" horiz-adv-x="846" 
d="M654 0l-103 311l-330 -5l-106 -306h-113l347 914l173 31l323 -945h-191zM523 398l-133 398l-137 -398h270zM473 1273l167 -209l-46 -48l-170 139l-170 -139l-48 48l167 209h100z" />
    <glyph glyph-name="Atilde" unicode="&#xc3;" horiz-adv-x="846" 
d="M654 0l-103 311l-330 -5l-106 -306h-113l347 914l173 31l323 -945h-191zM523 398l-133 398l-137 -398h270zM333 1079c-12.667 0 -23.001 -1.83496 -31.001 -5.50195s-14.5 -8.66699 -19.5 -15s-8.83301 -13.5 -11.5 -21.5s-5 -16 -7 -24l-51 12
c4 23.333 9.5 44.833 16.5 64.5s15.833 36.5 26.5 50.5s23 25 37 33s29.667 12 47 12c16.667 0 33.834 -3.66699 51.501 -11s34.834 -15.166 51.501 -23.499l47.5 -23.5c15 -7.33301 28.5 -11 40.5 -11s22.167 2.16699 30.5 6.5s15 9.83301 20 16.5
s8.83301 13.834 11.5 21.501s5 14.834 7 21.501l52 -11c-7.33301 -47.333 -22 -86 -44 -116s-50.667 -45 -86 -45c-18.667 0 -36.5 3.66699 -53.5 11s-33.333 15.166 -49 23.499l-45.5 23.5c-14.667 7.33301 -28.334 11 -41.001 11z" />
    <glyph glyph-name="Adieresis" unicode="&#xc4;" horiz-adv-x="846" 
d="M654 0l-103 311l-330 -5l-106 -306h-113l347 914l173 31l323 -945h-191zM523 398l-133 398l-137 -398h270zM291 1193l90 -94l-90 -95l-89 95zM566 1193l90 -94l-90 -95l-88 95z" />
    <glyph glyph-name="Aring" unicode="&#xc5;" horiz-adv-x="846" 
d="M268 1013c0 26 4.33203 48.666 12.999 67.999s20.334 35.333 35.001 48s31.667 22 51 28s39.666 9 60.999 9s41.666 -3 60.999 -9s36.333 -15.333 51 -28s26.334 -28.667 35.001 -48s13 -42 13 -68c0 -27.333 -4.33301 -50.5 -13 -69.5s-20.667 -34.833 -36 -47.5
l306 -896h-191l-103 311l-330 -5l-106 -306h-113l335 882c-21.333 11.333 -38.166 27.833 -50.499 49.5s-18.5 48.834 -18.5 81.501zM522.999 397.999l-133 398l-137 -398h270zM337.999 1013c0 -15.333 2.5 -28.166 7.5 -38.499s11.833 -18.666 20.5 -24.999
s18.334 -10.833 29.001 -13.5s21.667 -4 33 -4s22.5 1.33301 33.5 4s20.667 7.16699 29 13.5s15 14.666 20 24.999s7.5 23.166 7.5 38.499c0 14.667 -2.5 27.167 -7.5 37.5s-11.667 18.833 -20 25.5s-18 11.334 -29 14.001s-22.167 4 -33.5 4s-22.333 -1.33301 -33 -4
s-20.334 -7.33398 -29.001 -14.001s-15.5 -15.167 -20.5 -25.5s-7.5 -22.833 -7.5 -37.5z" />
    <glyph glyph-name="AE" unicode="&#xc6;" horiz-adv-x="1111" 
d="M1061 0h-527v327h-282l-164 -327h-114l476 922h592l-8 -94l-321 -4v-300l302 -4l-9 -85l-293 -7v-330l357 -7zM296 416h238v408h-31z" />
    <glyph glyph-name="Ccedilla" unicode="&#xc7;" horiz-adv-x="826" 
d="M583 -183c0 -42 -14.334 -75.3359 -43.001 -100.003s-74 -37 -136 -37c-11.333 0 -23.833 0.833008 -37.5 2.5s-25.167 3.83398 -34.5 6.50098l10 74c8 -2 18.333 -3.66699 31 -5s24 -2 34 -2c22.667 0 38.667 5 48 15s14 22.333 14 37
c0 13.333 -3.83301 24.5 -11.5 33.5s-17 16.5 -28 22.5s-23.167 10.5 -36.5 13.5s-25.333 5.16699 -36 6.5l55 105c-61.333 4.66699 -113.166 19.5 -155.499 44.5s-77 58.333 -104 100s-46.5 90.834 -58.5 147.501s-18 119 -18 187c0 58 6.66699 109.833 20 155.5
s31.5 85.667 54.5 120s49.667 63.5 80 87.5s62.333 43.5 96 58.5s68.167 25.833 103.5 32.5s69.666 10 102.999 10c20.667 0 42.5 -0.666992 65.5 -2s45.333 -3.16602 67 -5.49902s41.834 -5 60.501 -8s34 -5.83301 46 -8.5l-33 -131c-12 4 -29 8.16699 -51 12.5
s-45.5 8.5 -70.5 12.5s-49.667 7.33301 -74 10s-44.5 4 -60.5 4c-18 0 -34 -0.5 -48 -1.5s-26.833 -3 -38.5 -6s-22.667 -7.16699 -33 -12.5s-20.833 -12 -31.5 -20c-27.333 -19.333 -45.833 -56 -55.5 -110s-14.5 -121.333 -14.5 -202c0 -124 18.333 -217.833 55 -281.5
s95.667 -95.5 177 -95.5c46 0 94 3.83301 144 11.5s95.333 18.5 136 32.5v-77c-40 -18.667 -84.833 -33.5 -134.5 -44.5s-98.5 -17.833 -146.5 -20.5l-31 -59c35.333 -6 64.333 -18.333 87 -37s34 -44 34 -76z" />
    <glyph glyph-name="Egrave" unicode="&#xc8;" horiz-adv-x="680" 
d="M630 0h-527v922h509l-9 -94l-322 -4v-300l303 -4l-8 -85l-295 -7v-330l357 -7zM450 1066l-56 -57l-224 195l89 92z" />
    <glyph glyph-name="Eacute" unicode="&#xc9;" horiz-adv-x="680" 
d="M630 0h-527v922h509l-9 -94l-322 -4v-300l303 -4l-8 -85l-295 -7v-330l357 -7zM436 1297l90 -92l-224 -195l-56 57z" />
    <glyph glyph-name="Ecircumflex" unicode="&#xca;" horiz-adv-x="680" 
d="M630 0h-527v922h509l-9 -94l-322 -4v-300l303 -4l-8 -85l-295 -7v-330l357 -7zM415 1273l167 -209l-46 -48l-170 139l-170 -139l-48 48l167 209h100z" />
    <glyph glyph-name="Edieresis" unicode="&#xcb;" horiz-adv-x="680" 
d="M630 0h-527v922h509l-9 -94l-322 -4v-300l303 -4l-8 -85l-295 -7v-330l357 -7zM226 1193l90 -94l-90 -95l-89 95zM501 1193l90 -94l-90 -95l-88 95z" />
    <glyph glyph-name="Igrave" unicode="&#xcc;" horiz-adv-x="384" 
d="M281 0h-178v922h178v-922zM291 1066l-56 -57l-224 195l89 92z" />
    <glyph glyph-name="Iacute" unicode="&#xcd;" horiz-adv-x="384" 
d="M281 0h-178v922h178v-922zM279 1297l90 -92l-224 -195l-56 57z" />
    <glyph glyph-name="Icircumflex" unicode="&#xce;" horiz-adv-x="384" 
d="M281 0h-178v922h178v-922zM244 1273l167 -209l-46 -48l-170 139l-170 -139l-48 48l167 209h100z" />
    <glyph glyph-name="Idieresis" unicode="&#xcf;" horiz-adv-x="384" 
d="M281 0h-178v922h178v-922zM52 1193l90 -94l-90 -95l-89 95zM327 1193l90 -94l-90 -95l-88 95z" />
    <glyph glyph-name="Eth" unicode="&#xd0;" horiz-adv-x="965" 
d="M103 914c18.667 2 40.501 4.16602 65.501 6.49902s51.5 4.33301 79.5 6s56.167 3 84.5 4s54.833 1.5 79.5 1.5c71.333 0 136.166 -8 194.499 -24s108.333 -41.5 150 -76.5s74 -80 97 -135s34.5 -121.5 34.5 -199.5c0 -76 -9 -145.167 -27 -207.5
s-46.667 -115.5 -86 -159.5s-90 -78 -152 -102s-137 -36 -225 -36c-24.667 0 -50.5 0.333008 -77.5 1s-53.5 1.83398 -79.5 3.50098l-75 5c-24 1.66699 -45 3.5 -63 5.5v418l-98 3l8 82l90 2v402zM281.001 91.999c6 -1.33301 13.002 -2.49805 21.002 -3.49805
s16.333 -1.83301 25 -2.5s17 -1.16699 25 -1.5s14.667 -0.5 20 -0.5c53.333 0 97.833 3.33301 133.5 10s66.5 19.667 92.5 39c14 10.667 26.833 24.167 38.5 40.5s22 37.666 31 63.999s16 59.333 21 99s7.5 88.167 7.5 145.5c0 72 -8.5 131 -25.5 177s-40 82.167 -69 108.5
s-63 44.666 -102 54.999s-80.833 15.5 -125.5 15.5c-6.66699 0 -14.334 -0.166992 -23.001 -0.5s-17.334 -0.833008 -26.001 -1.5s-17 -1.5 -25 -2.5s-14.333 -1.83301 -19 -2.5v-317l187 1l-8 -85l-179 -2v-336z" />
    <glyph glyph-name="Ntilde" unicode="&#xd1;" horiz-adv-x="1003" 
d="M821 -5l-618.997 647h-2c1.33301 -54 2.66602 -103.667 3.99902 -149c0.666992 -19.333 1.16699 -38.666 1.5 -57.999s0.666016 -37.166 0.999023 -53.499s0.5 -30.833 0.5 -43.5v-27v-311h-104v928h78l619 -644c-0.666992 49.333 -1.33398 95.666 -2.00098 138.999
c0 18.667 -0.166992 37.5 -0.5 56.5l-1 54.5c-0.333008 17.333 -0.5 33.166 -0.5 47.499v34.5v305h105v-926h-80zM403.003 1079c-12.667 0 -23.001 -1.83496 -31.001 -5.50195s-14.5 -8.66699 -19.5 -15s-8.83301 -13.5 -11.5 -21.5s-5 -16 -7 -24l-51 12
c4 23.333 9.5 44.833 16.5 64.5s15.833 36.5 26.5 50.5s23 25 37 33s29.667 12 47 12c16.667 0 33.834 -3.66699 51.501 -11s34.834 -15.166 51.501 -23.499l47.5 -23.5c15 -7.33301 28.5 -11 40.5 -11s22.167 2.16699 30.5 6.5s15 9.83301 20 16.5
s8.83301 13.834 11.5 21.501s5 14.834 7 21.501l52 -11c-7.33301 -47.333 -22 -86 -44 -116s-50.667 -45 -86 -45c-18.667 0 -36.5 3.66699 -53.5 11s-33.333 15.166 -49 23.499l-45.5 23.5c-14.667 7.33301 -28.334 11 -41.001 11z" />
    <glyph glyph-name="Ograve" unicode="&#xd2;" horiz-adv-x="1023" 
d="M946 464c0 -72.667 -9.16895 -138.334 -27.502 -197.001s-46 -108.834 -83 -150.501s-83.167 -73.667 -138.5 -96s-119.666 -33.5 -192.999 -33.5c-75.333 0 -140 11.333 -194 34s-98.167 54.834 -132.5 96.501s-59.666 91.834 -75.999 150.501s-24.5 124 -24.5 196
s8.33301 136.833 25 194.5s42.5 106.834 77.5 147.501s79.5 71.834 133.5 93.501s118 32.5 192 32.5s138.5 -10.833 193.5 -32.5s100.833 -52.834 137.5 -93.501s64.167 -89.834 82.5 -147.501s27.5 -122.5 27.5 -194.5zM757.998 464c0 56 -4.83301 106.332 -14.5 150.999
s-24.834 82.5 -45.501 113.5s-47 54.667 -79 71s-70 24.5 -114 24.5c-38.667 0 -74.667 -4.16699 -108 -12.5s-59.666 -20.166 -78.999 -35.499s-33.5 -49 -42.5 -101s-13.5 -122.333 -13.5 -211c0 -55.333 4 -105.5 12 -150.5s21.333 -83.833 40 -116.5
s43.5 -57.834 74.5 -75.501s69.5 -26.5 115.5 -26.5c47.333 0 86.333 4.33301 117 13s56.667 20.334 78 35.001c10 6.66699 18.667 20 26 40s13.5 44.5 18.5 73.5s8.66699 61.333 11 97s3.5 72.5 3.5 110.5zM627.998 1066l-56 -57l-224 195l89 92z" />
    <glyph glyph-name="Oacute" unicode="&#xd3;" horiz-adv-x="1023" 
d="M946 464c0 -72.667 -9.16895 -138.334 -27.502 -197.001s-46 -108.834 -83 -150.501s-83.167 -73.667 -138.5 -96s-119.666 -33.5 -192.999 -33.5c-75.333 0 -140 11.333 -194 34s-98.167 54.834 -132.5 96.501s-59.666 91.834 -75.999 150.501s-24.5 124 -24.5 196
s8.33301 136.833 25 194.5s42.5 106.834 77.5 147.501s79.5 71.834 133.5 93.501s118 32.5 192 32.5s138.5 -10.833 193.5 -32.5s100.833 -52.834 137.5 -93.501s64.167 -89.834 82.5 -147.501s27.5 -122.5 27.5 -194.5zM757.998 464c0 56 -4.83301 106.332 -14.5 150.999
s-24.834 82.5 -45.501 113.5s-47 54.667 -79 71s-70 24.5 -114 24.5c-38.667 0 -74.667 -4.16699 -108 -12.5s-59.666 -20.166 -78.999 -35.499s-33.5 -49 -42.5 -101s-13.5 -122.333 -13.5 -211c0 -55.333 4 -105.5 12 -150.5s21.333 -83.833 40 -116.5
s43.5 -57.834 74.5 -75.501s69.5 -26.5 115.5 -26.5c47.333 0 86.333 4.33301 117 13s56.667 20.334 78 35.001c10 6.66699 18.667 20 26 40s13.5 44.5 18.5 73.5s8.66699 61.333 11 97s3.5 72.5 3.5 110.5zM557.998 1297l90 -92l-224 -195l-56 57z" />
    <glyph glyph-name="Ocircumflex" unicode="&#xd4;" horiz-adv-x="1023" 
d="M946 464c0 -72.667 -9.16895 -138.334 -27.502 -197.001s-46 -108.834 -83 -150.501s-83.167 -73.667 -138.5 -96s-119.666 -33.5 -192.999 -33.5c-75.333 0 -140 11.333 -194 34s-98.167 54.834 -132.5 96.501s-59.666 91.834 -75.999 150.501s-24.5 124 -24.5 196
s8.33301 136.833 25 194.5s42.5 106.834 77.5 147.501s79.5 71.834 133.5 93.501s118 32.5 192 32.5s138.5 -10.833 193.5 -32.5s100.833 -52.834 137.5 -93.501s64.167 -89.834 82.5 -147.501s27.5 -122.5 27.5 -194.5zM757.998 464c0 56 -4.83301 106.332 -14.5 150.999
s-24.834 82.5 -45.501 113.5s-47 54.667 -79 71s-70 24.5 -114 24.5c-38.667 0 -74.667 -4.16699 -108 -12.5s-59.666 -20.166 -78.999 -35.499s-33.5 -49 -42.5 -101s-13.5 -122.333 -13.5 -211c0 -55.333 4 -105.5 12 -150.5s21.333 -83.833 40 -116.5
s43.5 -57.834 74.5 -75.501s69.5 -26.5 115.5 -26.5c47.333 0 86.333 4.33301 117 13s56.667 20.334 78 35.001c10 6.66699 18.667 20 26 40s13.5 44.5 18.5 73.5s8.66699 61.333 11 97s3.5 72.5 3.5 110.5zM546.998 1273l167 -209l-46 -48l-170 139l-170 -139l-48 48
l167 209h100z" />
    <glyph glyph-name="Otilde" unicode="&#xd5;" horiz-adv-x="1023" 
d="M946 464c0 -72.667 -9.16895 -138.334 -27.502 -197.001s-46 -108.834 -83 -150.501s-83.167 -73.667 -138.5 -96s-119.666 -33.5 -192.999 -33.5c-75.333 0 -140 11.333 -194 34s-98.167 54.834 -132.5 96.501s-59.666 91.834 -75.999 150.501s-24.5 124 -24.5 196
s8.33301 136.833 25 194.5s42.5 106.834 77.5 147.501s79.5 71.834 133.5 93.501s118 32.5 192 32.5s138.5 -10.833 193.5 -32.5s100.833 -52.834 137.5 -93.501s64.167 -89.834 82.5 -147.501s27.5 -122.5 27.5 -194.5zM757.998 464c0 56 -4.83301 106.332 -14.5 150.999
s-24.834 82.5 -45.501 113.5s-47 54.667 -79 71s-70 24.5 -114 24.5c-38.667 0 -74.667 -4.16699 -108 -12.5s-59.666 -20.166 -78.999 -35.499s-33.5 -49 -42.5 -101s-13.5 -122.333 -13.5 -211c0 -55.333 4 -105.5 12 -150.5s21.333 -83.833 40 -116.5
s43.5 -57.834 74.5 -75.501s69.5 -26.5 115.5 -26.5c47.333 0 86.333 4.33301 117 13s56.667 20.334 78 35.001c10 6.66699 18.667 20 26 40s13.5 44.5 18.5 73.5s8.66699 61.333 11 97s3.5 72.5 3.5 110.5zM401.998 1079c-12.667 0 -23.001 -1.83496 -31.001 -5.50195
s-14.5 -8.66699 -19.5 -15s-8.83301 -13.5 -11.5 -21.5s-5 -16 -7 -24l-51 12c4 23.333 9.5 44.833 16.5 64.5s15.833 36.5 26.5 50.5s23 25 37 33s29.667 12 47 12c16.667 0 33.834 -3.66699 51.501 -11s34.834 -15.166 51.501 -23.499l47.5 -23.5
c15 -7.33301 28.5 -11 40.5 -11s22.167 2.16699 30.5 6.5s15 9.83301 20 16.5s8.83301 13.834 11.5 21.501s5 14.834 7 21.501l52 -11c-7.33301 -47.333 -22 -86 -44 -116s-50.667 -45 -86 -45c-18.667 0 -36.5 3.66699 -53.5 11s-33.333 15.166 -49 23.499l-45.5 23.5
c-14.667 7.33301 -28.334 11 -41.001 11z" />
    <glyph glyph-name="Odieresis" unicode="&#xd6;" horiz-adv-x="1023" 
d="M946 464c0 -72.667 -9.16895 -138.334 -27.502 -197.001s-46 -108.834 -83 -150.501s-83.167 -73.667 -138.5 -96s-119.666 -33.5 -192.999 -33.5c-75.333 0 -140 11.333 -194 34s-98.167 54.834 -132.5 96.501s-59.666 91.834 -75.999 150.501s-24.5 124 -24.5 196
s8.33301 136.833 25 194.5s42.5 106.834 77.5 147.501s79.5 71.834 133.5 93.501s118 32.5 192 32.5s138.5 -10.833 193.5 -32.5s100.833 -52.834 137.5 -93.501s64.167 -89.834 82.5 -147.501s27.5 -122.5 27.5 -194.5zM757.998 464c0 56 -4.83301 106.332 -14.5 150.999
s-24.834 82.5 -45.501 113.5s-47 54.667 -79 71s-70 24.5 -114 24.5c-38.667 0 -74.667 -4.16699 -108 -12.5s-59.666 -20.166 -78.999 -35.499s-33.5 -49 -42.5 -101s-13.5 -122.333 -13.5 -211c0 -55.333 4 -105.5 12 -150.5s21.333 -83.833 40 -116.5
s43.5 -57.834 74.5 -75.501s69.5 -26.5 115.5 -26.5c47.333 0 86.333 4.33301 117 13s56.667 20.334 78 35.001c10 6.66699 18.667 20 26 40s13.5 44.5 18.5 73.5s8.66699 61.333 11 97s3.5 72.5 3.5 110.5zM357.998 1193l90 -94l-90 -95l-89 95zM632.998 1193l90 -94
l-90 -95l-88 95z" />
    <glyph glyph-name="multiply" unicode="&#xd7;" horiz-adv-x="703" 
d="M555 147l-204 215l-213 -224l-65 67l214 224l-205 215l65 69l205 -215l213 225l64 -68l-214 -225l205 -215z" />
    <glyph glyph-name="Oslash" unicode="&#xd8;" horiz-adv-x="998" 
d="M946 464c0 -72.667 -9.16797 -138.333 -27.501 -197s-46 -108.834 -83 -150.501s-83.167 -73.667 -138.5 -96s-119.666 -33.5 -192.999 -33.5c-44.667 0 -85 4 -121 12s-69 19.333 -99 34l-78 -117l-76 53l78 117c-45.333 42 -78.5 95.167 -99.5 159.5
s-31.5 137.166 -31.5 218.499c0 72 8.33301 136.833 25 194.5s42.5 106.834 77.5 147.501s79.5 71.834 133.5 93.501s118 32.5 192 32.5c46 0 88 -4.33301 126 -13s73 -21 105 -37l72 109l77 -53l-73 -109c46 -40.667 79.833 -91.667 101.5 -153s32.5 -132 32.5 -212z
M261.999 464.001c0 -48 2.99902 -92.001 8.99902 -132.001s15.667 -75.667 29 -107l362 545c-40 36 -92.333 54 -157 54c-38.667 0 -74.667 -4.16699 -108 -12.5s-59.666 -20.166 -78.999 -35.499s-33.5 -49 -42.5 -101s-13.5 -122.333 -13.5 -211zM757.998 464
c0 45.333 -3.16797 86.666 -9.50098 123.999s-16.166 71 -29.499 101l-362 -545c18 -15.333 39 -27.333 63 -36s52 -13 84 -13c47.333 0 86.333 4.33301 117 13s56.667 20.334 78 35.001c10 6.66699 18.667 20 26 40s13.5 44.5 18.5 73.5s8.66699 61.333 11 97
s3.5 72.5 3.5 110.5z" />
    <glyph glyph-name="Ugrave" unicode="&#xd9;" horiz-adv-x="950" 
d="M851 325c0 -46 -8.50195 -89.501 -25.502 -130.501s-42.167 -76.833 -75.5 -107.5s-74.833 -55 -124.5 -73s-107.167 -27 -172.5 -27c-54 0 -102.667 5.66699 -146 17s-80.5 29.833 -111.5 55.5s-54.833 59.167 -71.5 100.5s-25 92 -25 152v610h178v-628
c0 -46 4 -82.5 12 -109.5s20 -47.833 36 -62.5s35.833 -24.167 59.5 -28.5s50.834 -6.5 81.501 -6.5c38 0 70.5 4 97.5 12s49.5 18.667 67.5 32c18.667 13.333 30.334 34.333 35.001 63s7 63.334 7 104.001v624h178v-597zM584.998 1066l-56 -57l-224 195l89 92z" />
    <glyph glyph-name="Uacute" unicode="&#xda;" horiz-adv-x="950" 
d="M851 325c0 -46 -8.50195 -89.501 -25.502 -130.501s-42.167 -76.833 -75.5 -107.5s-74.833 -55 -124.5 -73s-107.167 -27 -172.5 -27c-54 0 -102.667 5.66699 -146 17s-80.5 29.833 -111.5 55.5s-54.833 59.167 -71.5 100.5s-25 92 -25 152v610h178v-628
c0 -46 4 -82.5 12 -109.5s20 -47.833 36 -62.5s35.833 -24.167 59.5 -28.5s50.834 -6.5 81.501 -6.5c38 0 70.5 4 97.5 12s49.5 18.667 67.5 32c18.667 13.333 30.334 34.333 35.001 63s7 63.334 7 104.001v624h178v-597zM529.998 1297l90 -92l-224 -195l-56 57z" />
    <glyph glyph-name="Ucircumflex" unicode="&#xdb;" horiz-adv-x="950" 
d="M851 325c0 -46 -8.50195 -89.501 -25.502 -130.501s-42.167 -76.833 -75.5 -107.5s-74.833 -55 -124.5 -73s-107.167 -27 -172.5 -27c-54 0 -102.667 5.66699 -146 17s-80.5 29.833 -111.5 55.5s-54.833 59.167 -71.5 100.5s-25 92 -25 152v610h178v-628
c0 -46 4 -82.5 12 -109.5s20 -47.833 36 -62.5s35.833 -24.167 59.5 -28.5s50.834 -6.5 81.501 -6.5c38 0 70.5 4 97.5 12s49.5 18.667 67.5 32c18.667 13.333 30.334 34.333 35.001 63s7 63.334 7 104.001v624h178v-597zM516.998 1273l167 -209l-46 -48l-170 139l-170 -139
l-48 48l167 209h100z" />
    <glyph glyph-name="Udieresis" unicode="&#xdc;" horiz-adv-x="950" 
d="M851 325c0 -46 -8.50195 -89.501 -25.502 -130.501s-42.167 -76.833 -75.5 -107.5s-74.833 -55 -124.5 -73s-107.167 -27 -172.5 -27c-54 0 -102.667 5.66699 -146 17s-80.5 29.833 -111.5 55.5s-54.833 59.167 -71.5 100.5s-25 92 -25 152v610h178v-628
c0 -46 4 -82.5 12 -109.5s20 -47.833 36 -62.5s35.833 -24.167 59.5 -28.5s50.834 -6.5 81.501 -6.5c38 0 70.5 4 97.5 12s49.5 18.667 67.5 32c18.667 13.333 30.334 34.333 35.001 63s7 63.334 7 104.001v624h178v-597zM333.998 1241l90 -94l-90 -95l-89 95zM608.998 1241
l90 -94l-90 -95l-88 95z" />
    <glyph glyph-name="Yacute" unicode="&#xdd;" horiz-adv-x="732" 
d="M456 0h-179v354l-286 568h204l215 -452l224 452h108l-286 -568v-354zM453 1297l90 -92l-224 -195l-56 57z" />
    <glyph glyph-name="Thorn" unicode="&#xde;" horiz-adv-x="732" 
d="M312 254l24.002 5.00195c23.333 5.33301 45.333 12.166 66 20.499s38.5 20.666 53.5 36.999s26.833 37.833 35.5 64.5s13 60.667 13 102c0 62.667 -13.833 108.167 -41.5 136.5s-64.5 42.5 -110.5 42.5c-22.667 0 -46.334 -2 -71.001 -6v-656h-178v921l178 1v-170
c10 0 20.333 0.333008 31 1c9.33301 0 19.166 0.166992 29.499 0.5s20.5 0.5 30.5 0.5c54 0 100.833 -6.16699 140.5 -18.5s72.5 -29.833 98.5 -52.5s45.333 -50.167 58 -82.5s19 -68.833 19 -109.5c0 -42.667 -7 -82.667 -21 -120s-35.5 -70 -64.5 -98s-66 -50 -111 -66
s-98.5 -24 -160.5 -24h-8z" />
    <glyph glyph-name="germandbls" unicode="&#xdf;" horiz-adv-x="752" 
d="M356 923c-4.66699 0 -10.499 -0.336914 -17.499 -1.00391s-14.167 -1.66699 -21.5 -3s-14 -3.16602 -20 -5.49902s-10.333 -5.16602 -13 -8.49902c-3.33301 -4 -6.33301 -11.667 -9 -23s-4.66699 -25.666 -6 -42.999s-2.33301 -37.166 -3 -59.499s-1 -46.166 -1 -71.499
v-708h-175v730c0 40.667 8 79.167 24 115.5s37.167 68 63.5 95s56.833 48.5 91.5 64.5s70.667 24 108 24c38 0 72.833 -3.5 104.5 -10.5s59 -17.833 82 -32.5s40.833 -33.334 53.5 -56.001s19 -49.334 19 -80.001c0 -20.667 -2.16699 -39.334 -6.5 -56.001
s-10.666 -32.334 -18.999 -47.001s-18.333 -28.667 -30 -42s-24.5 -27 -38.5 -41c-12.667 -12 -22.667 -22.833 -30 -32.5s-12.833 -18.667 -16.5 -27s-6 -16.166 -7 -23.499s-1.5 -15 -1.5 -23c0 -14 3 -26.667 9 -38s13.667 -22 23 -32s20.166 -19.833 32.499 -29.5
s24.5 -19.834 36.5 -30.501c16.667 -14 32.334 -28 47.001 -42s27.5 -29.167 38.5 -45.5s19.833 -34.833 26.5 -55.5s10 -45 10 -73c0 -39.333 -6.66699 -71.5 -20 -96.5s-30.666 -47.167 -51.999 -66.5c-17.333 -16.667 -39.666 -31 -66.999 -43s-60 -18 -98 -18
c-36 0 -69.667 4 -101 12s-58.333 18.667 -81 32l38 117c8.66699 -7.33301 19.334 -15.166 32.001 -23.499s26.167 -16.166 40.5 -23.499s28.666 -13.5 42.999 -18.5s28.166 -7.5 41.499 -7.5c11.333 0 21.166 0.833008 29.499 2.5s16.166 4.83398 23.499 9.50098
c7.33301 5.33301 13 16.666 17 33.999s6 37.666 6 60.999c0 20 -3.16699 37.333 -9.5 52s-14.666 27.834 -24.999 39.501s-22 22.667 -35 33l-40.5 32.5l-40.5 33.5c-13.667 11.667 -26 24.5 -37 38.5s-20 29.5 -27 46.5s-10.5 36.833 -10.5 59.5c0 16 1.33301 30 4 42
s6.5 23 11.5 33s10.833 19 17.5 27s14 15.667 22 23c20 18 36 33.667 48 47s21.333 26.333 28 39s11.167 26.334 13.5 41.001s3.5 32.667 3.5 54c0 18 -3.33301 33.167 -10 45.5s-15.834 22.5 -27.501 30.5s-25.334 13.833 -41.001 17.5s-32.5 5.5 -50.5 5.5z" />
    <glyph glyph-name="agrave" unicode="&#xe0;" horiz-adv-x="671" 
d="M610 91c14.667 0 35 3.66699 61 11v-42c-9.33301 -8.66699 -20.333 -17.167 -33 -25.5s-26.167 -15.666 -40.5 -21.999s-29.166 -11.333 -44.499 -15s-30.333 -5.5 -45 -5.5c-16 0 -29.667 2.33301 -41 7s-21.166 10.5 -29.499 17.5s-15.333 15.167 -21 24.5
s-10.5 18.333 -14.5 27l-43.5 -29.5c-14.333 -9.66699 -29.333 -18.167 -45 -25.5s-32.167 -13.333 -49.5 -18s-36.666 -7 -57.999 -7c-48 0 -85.833 15 -113.5 45s-41.5 75.333 -41.5 136c0 32 4.16699 60 12.5 84s21.666 43.833 39.999 59.5s42 27.667 71 36
s64.5 13.166 106.5 14.499l106 3v89c0 24 -6.5 41.667 -19.5 53s-35.167 17 -66.5 17c-22 0 -47.5 -2.66699 -76.5 -8s-59.5 -14.333 -91.5 -27l-24 64c21.333 9.33301 43.5 18.5 66.5 27.5s46.333 17 70 24s47.667 12.667 72 17s48.5 6.5 72.5 6.5
c27.333 0 51.666 -2.5 72.999 -7.5s39.166 -13.5 53.499 -25.5s25.333 -28 33 -48s11.5 -44.667 11.5 -74v-284c0 -66 16.333 -99 49 -99zM394 120c-0.666992 2.66699 -1.33105 9.5 -1.99805 20.5s-1.33398 25 -2.00098 42s-1.16699 36.333 -1.5 58s-0.5 44.5 -0.5 68.5
c-43.333 0 -76 -2.5 -98 -7.5s-35.667 -11.167 -41 -18.5c-2.66699 -2.66699 -4.83398 -7.66699 -6.50098 -15s-3 -15.5 -4 -24.5s-1.66699 -18.333 -2 -28s-0.5 -18.5 -0.5 -26.5c0 -28 3.83301 -50.667 11.5 -68s20.5 -26 38.5 -26c19.333 0 37.833 2.33301 55.5 7
s35.167 10.667 52.5 18zM455.003 775l-56 -57l-225 196l91 91z" />
    <glyph glyph-name="aacute" unicode="&#xe1;" horiz-adv-x="671" 
d="M610 91c14.667 0 35 3.66699 61 11v-42c-9.33301 -8.66699 -20.333 -17.167 -33 -25.5s-26.167 -15.666 -40.5 -21.999s-29.166 -11.333 -44.499 -15s-30.333 -5.5 -45 -5.5c-16 0 -29.667 2.33301 -41 7s-21.166 10.5 -29.499 17.5s-15.333 15.167 -21 24.5
s-10.5 18.333 -14.5 27l-43.5 -29.5c-14.333 -9.66699 -29.333 -18.167 -45 -25.5s-32.167 -13.333 -49.5 -18s-36.666 -7 -57.999 -7c-48 0 -85.833 15 -113.5 45s-41.5 75.333 -41.5 136c0 32 4.16699 60 12.5 84s21.666 43.833 39.999 59.5s42 27.667 71 36
s64.5 13.166 106.5 14.499l106 3v89c0 24 -6.5 41.667 -19.5 53s-35.167 17 -66.5 17c-22 0 -47.5 -2.66699 -76.5 -8s-59.5 -14.333 -91.5 -27l-24 64c21.333 9.33301 43.5 18.5 66.5 27.5s46.333 17 70 24s47.667 12.667 72 17s48.5 6.5 72.5 6.5
c27.333 0 51.666 -2.5 72.999 -7.5s39.166 -13.5 53.499 -25.5s25.333 -28 33 -48s11.5 -44.667 11.5 -74v-284c0 -66 16.333 -99 49 -99zM394 120c-0.666992 2.66699 -1.33105 9.5 -1.99805 20.5s-1.33398 25 -2.00098 42s-1.16699 36.333 -1.5 58s-0.5 44.5 -0.5 68.5
c-43.333 0 -76 -2.5 -98 -7.5s-35.667 -11.167 -41 -18.5c-2.66699 -2.66699 -4.83398 -7.66699 -6.50098 -15s-3 -15.5 -4 -24.5s-1.66699 -18.333 -2 -28s-0.5 -18.5 -0.5 -26.5c0 -28 3.83301 -50.667 11.5 -68s20.5 -26 38.5 -26c19.333 0 37.833 2.33301 55.5 7
s35.167 10.667 52.5 18zM435.003 1005l90 -91l-225 -196l-56 57z" />
    <glyph glyph-name="acircumflex" unicode="&#xe2;" horiz-adv-x="671" 
d="M610 91c14.667 0 35 3.66699 61 11v-42c-9.33301 -8.66699 -20.333 -17.167 -33 -25.5s-26.167 -15.666 -40.5 -21.999s-29.166 -11.333 -44.499 -15s-30.333 -5.5 -45 -5.5c-16 0 -29.667 2.33301 -41 7s-21.166 10.5 -29.499 17.5s-15.333 15.167 -21 24.5
s-10.5 18.333 -14.5 27l-43.5 -29.5c-14.333 -9.66699 -29.333 -18.167 -45 -25.5s-32.167 -13.333 -49.5 -18s-36.666 -7 -57.999 -7c-48 0 -85.833 15 -113.5 45s-41.5 75.333 -41.5 136c0 32 4.16699 60 12.5 84s21.666 43.833 39.999 59.5s42 27.667 71 36
s64.5 13.166 106.5 14.499l106 3v89c0 24 -6.5 41.667 -19.5 53s-35.167 17 -66.5 17c-22 0 -47.5 -2.66699 -76.5 -8s-59.5 -14.333 -91.5 -27l-24 64c21.333 9.33301 43.5 18.5 66.5 27.5s46.333 17 70 24s47.667 12.667 72 17s48.5 6.5 72.5 6.5
c27.333 0 51.666 -2.5 72.999 -7.5s39.166 -13.5 53.499 -25.5s25.333 -28 33 -48s11.5 -44.667 11.5 -74v-284c0 -66 16.333 -99 49 -99zM394 120c-0.666992 2.66699 -1.33105 9.5 -1.99805 20.5s-1.33398 25 -2.00098 42s-1.16699 36.333 -1.5 58s-0.5 44.5 -0.5 68.5
c-43.333 0 -76 -2.5 -98 -7.5s-35.667 -11.167 -41 -18.5c-2.66699 -2.66699 -4.83398 -7.66699 -6.50098 -15s-3 -15.5 -4 -24.5s-1.66699 -18.333 -2 -28s-0.5 -18.5 -0.5 -26.5c0 -28 3.83301 -50.667 11.5 -68s20.5 -26 38.5 -26c19.333 0 37.833 2.33301 55.5 7
s35.167 10.667 52.5 18zM397.003 976l167 -209l-46 -48l-170 139l-170 -139l-48 48l167 209h100z" />
    <glyph glyph-name="atilde" unicode="&#xe3;" horiz-adv-x="671" 
d="M610 91c14.667 0 35 3.66699 61 11v-42c-9.33301 -8.66699 -20.333 -17.167 -33 -25.5s-26.167 -15.666 -40.5 -21.999s-29.166 -11.333 -44.499 -15s-30.333 -5.5 -45 -5.5c-16 0 -29.667 2.33301 -41 7s-21.166 10.5 -29.499 17.5s-15.333 15.167 -21 24.5
s-10.5 18.333 -14.5 27l-43.5 -29.5c-14.333 -9.66699 -29.333 -18.167 -45 -25.5s-32.167 -13.333 -49.5 -18s-36.666 -7 -57.999 -7c-48 0 -85.833 15 -113.5 45s-41.5 75.333 -41.5 136c0 32 4.16699 60 12.5 84s21.666 43.833 39.999 59.5s42 27.667 71 36
s64.5 13.166 106.5 14.499l106 3v89c0 24 -6.5 41.667 -19.5 53s-35.167 17 -66.5 17c-22 0 -47.5 -2.66699 -76.5 -8s-59.5 -14.333 -91.5 -27l-24 64c21.333 9.33301 43.5 18.5 66.5 27.5s46.333 17 70 24s47.667 12.667 72 17s48.5 6.5 72.5 6.5
c27.333 0 51.666 -2.5 72.999 -7.5s39.166 -13.5 53.499 -25.5s25.333 -28 33 -48s11.5 -44.667 11.5 -74v-284c0 -66 16.333 -99 49 -99zM394 120c-0.666992 2.66699 -1.33105 9.5 -1.99805 20.5s-1.33398 25 -2.00098 42s-1.16699 36.333 -1.5 58s-0.5 44.5 -0.5 68.5
c-43.333 0 -76 -2.5 -98 -7.5s-35.667 -11.167 -41 -18.5c-2.66699 -2.66699 -4.83398 -7.66699 -6.50098 -15s-3 -15.5 -4 -24.5s-1.66699 -18.333 -2 -28s-0.5 -18.5 -0.5 -26.5c0 -28 3.83301 -50.667 11.5 -68s20.5 -26 38.5 -26c19.333 0 37.833 2.33301 55.5 7
s35.167 10.667 52.5 18zM253.003 791c-12.667 0 -23.001 -1.83496 -31.001 -5.50195s-14.5 -8.66699 -19.5 -15s-8.83301 -13.5 -11.5 -21.5s-5 -16 -7 -24l-51 12c4 23.333 9.5 44.833 16.5 64.5s15.833 36.5 26.5 50.5s23 25 37 33s29.667 12 47 12
c16.667 0 33.834 -3.66699 51.501 -11s34.834 -15.166 51.501 -23.499l47.5 -23.5c15 -7.33301 28.5 -11 40.5 -11s22.167 2.16699 30.5 6.5s15 9.83301 20 16.5s8.83301 13.834 11.5 21.501s5 14.834 7 21.501l52 -11c-7.33301 -47.333 -22 -86 -44 -116
s-50.667 -45 -86 -45c-18.667 0 -36.5 3.66699 -53.5 11s-33.333 15.166 -49 23.499l-45.5 23.5c-14.667 7.33301 -28.334 11 -41.001 11z" />
    <glyph glyph-name="adieresis" unicode="&#xe4;" horiz-adv-x="671" 
d="M610 91c14.667 0 35 3.66699 61 11v-42c-9.33301 -8.66699 -20.333 -17.167 -33 -25.5s-26.167 -15.666 -40.5 -21.999s-29.166 -11.333 -44.499 -15s-30.333 -5.5 -45 -5.5c-16 0 -29.667 2.33301 -41 7s-21.166 10.5 -29.499 17.5s-15.333 15.167 -21 24.5
s-10.5 18.333 -14.5 27l-43.5 -29.5c-14.333 -9.66699 -29.333 -18.167 -45 -25.5s-32.167 -13.333 -49.5 -18s-36.666 -7 -57.999 -7c-48 0 -85.833 15 -113.5 45s-41.5 75.333 -41.5 136c0 32 4.16699 60 12.5 84s21.666 43.833 39.999 59.5s42 27.667 71 36
s64.5 13.166 106.5 14.499l106 3v89c0 24 -6.5 41.667 -19.5 53s-35.167 17 -66.5 17c-22 0 -47.5 -2.66699 -76.5 -8s-59.5 -14.333 -91.5 -27l-24 64c21.333 9.33301 43.5 18.5 66.5 27.5s46.333 17 70 24s47.667 12.667 72 17s48.5 6.5 72.5 6.5
c27.333 0 51.666 -2.5 72.999 -7.5s39.166 -13.5 53.499 -25.5s25.333 -28 33 -48s11.5 -44.667 11.5 -74v-284c0 -66 16.333 -99 49 -99zM394 120c-0.666992 2.66699 -1.33105 9.5 -1.99805 20.5s-1.33398 25 -2.00098 42s-1.16699 36.333 -1.5 58s-0.5 44.5 -0.5 68.5
c-43.333 0 -76 -2.5 -98 -7.5s-35.667 -11.167 -41 -18.5c-2.66699 -2.66699 -4.83398 -7.66699 -6.50098 -15s-3 -15.5 -4 -24.5s-1.66699 -18.333 -2 -28s-0.5 -18.5 -0.5 -26.5c0 -28 3.83301 -50.667 11.5 -68s20.5 -26 38.5 -26c19.333 0 37.833 2.33301 55.5 7
s35.167 10.667 52.5 18zM206.003 927l90 -94l-90 -95l-89 95zM481.003 927l90 -94l-90 -95l-88 95z" />
    <glyph glyph-name="aring" unicode="&#xe5;" horiz-adv-x="671" 
d="M610 91c14.667 0 35 3.66699 61 11v-42c-9.33301 -8.66699 -20.333 -17.167 -33 -25.5s-26.167 -15.666 -40.5 -21.999s-29.166 -11.333 -44.499 -15s-30.333 -5.5 -45 -5.5c-16 0 -29.667 2.33301 -41 7s-21.166 10.5 -29.499 17.5s-15.333 15.167 -21 24.5
s-10.5 18.333 -14.5 27l-43.5 -29.5c-14.333 -9.66699 -29.333 -18.167 -45 -25.5s-32.167 -13.333 -49.5 -18s-36.666 -7 -57.999 -7c-48 0 -85.833 15 -113.5 45s-41.5 75.333 -41.5 136c0 32 4.16699 60 12.5 84s21.666 43.833 39.999 59.5s42 27.667 71 36
s64.5 13.166 106.5 14.499l106 3v89c0 24 -6.5 41.667 -19.5 53s-35.167 17 -66.5 17c-22 0 -47.5 -2.66699 -76.5 -8s-59.5 -14.333 -91.5 -27l-24 64c21.333 9.33301 43.5 18.5 66.5 27.5s46.333 17 70 24s47.667 12.667 72 17s48.5 6.5 72.5 6.5
c27.333 0 51.666 -2.5 72.999 -7.5s39.166 -13.5 53.499 -25.5s25.333 -28 33 -48s11.5 -44.667 11.5 -74v-284c0 -66 16.333 -99 49 -99zM394 120c-0.666992 2.66699 -1.33105 9.5 -1.99805 20.5s-1.33398 25 -2.00098 42s-1.16699 36.333 -1.5 58s-0.5 44.5 -0.5 68.5
c-43.333 0 -76 -2.5 -98 -7.5s-35.667 -11.167 -41 -18.5c-2.66699 -2.66699 -4.83398 -7.66699 -6.50098 -15s-3 -15.5 -4 -24.5s-1.66699 -18.333 -2 -28s-0.5 -18.5 -0.5 -26.5c0 -28 3.83301 -50.667 11.5 -68s20.5 -26 38.5 -26c19.333 0 37.833 2.33301 55.5 7
s35.167 10.667 52.5 18zM185.003 852c0 26.667 4.33301 49.667 13 69s20.334 35.333 35.001 48s31.667 22 51 28s39.666 9 60.999 9s41.666 -3 60.999 -9s36.333 -15.333 51 -28s26.334 -28.667 35.001 -48s13 -42.333 13 -69c0 -26 -4.33301 -48.667 -13 -68
s-20.334 -35.333 -35.001 -48s-31.667 -22 -51 -28s-39.666 -9 -60.999 -9s-41.666 3 -60.999 9s-36.333 15.333 -51 28s-26.334 28.667 -35.001 48s-13 42 -13 68zM255.003 852c0 -15.333 2.5 -28 7.5 -38s11.833 -18.333 20.5 -25s18.334 -11.334 29.001 -14.001
s21.667 -4 33 -4s22.5 1.33301 33.5 4s20.667 7.33398 29 14.001s15 15 20 25s7.5 22.667 7.5 38s-2.5 28.166 -7.5 38.499s-11.667 18.833 -20 25.5s-18 11.334 -29 14.001s-22.167 4 -33.5 4s-22.333 -1.33301 -33 -4s-20.334 -7.33398 -29.001 -14.001
s-15.5 -15.167 -20.5 -25.5s-7.5 -23.166 -7.5 -38.499z" />
    <glyph glyph-name="ae" unicode="&#xe6;" horiz-adv-x="1007" 
d="M691 629c29.333 0 57.835 -4.16699 85.502 -12.5s53 -22.333 76 -42s43.167 -46 60.5 -79s30.333 -74.167 39 -123.5v-8c-6 -7.33301 -13.5 -14 -22.5 -20s-20.667 -11.167 -35 -15.5s-32 -8.33301 -53 -12s-46.5 -6.5 -76.5 -8.5l-195 -15v-26
c0 -24 3.16699 -46.167 9.5 -66.5s15.833 -37.833 28.5 -52.5s28.5 -26.167 47.5 -34.5s41.167 -12.5 66.5 -12.5c20.667 0 42.167 2.16699 64.5 6.5s43.833 9.5 64.5 15.5s39.167 12.167 55.5 18.5s29.166 11.833 38.499 16.5l15 -45c-18.667 -14 -39.667 -28.5 -63 -43.5
s-48.166 -28.5 -74.499 -40.5s-54.333 -21.833 -84 -29.5s-60.167 -11.5 -91.5 -11.5c-44.667 0 -85.334 8 -122.001 24s-67 42.667 -91 80c-17.333 -13.333 -35.166 -26.166 -53.499 -38.499s-37 -23.333 -56 -33s-38.5 -17.5 -58.5 -23.5s-40 -9 -60 -9
c-48 0 -85.833 15 -113.5 45s-41.5 75.333 -41.5 136c0 32 4.16699 60 12.5 84s21.666 43.833 39.999 59.5s42 27.667 71 36s64.5 13.166 106.5 14.499l106 3v89c0 24 -6.5 41.667 -19.5 53s-35.167 17 -66.5 17c-22 0 -47.5 -2.66699 -76.5 -8s-59.5 -14.333 -91.5 -27
l-24 64c42.667 18.667 88.167 35.834 136.5 51.501s96.5 23.5 144.5 23.5c60.667 0 105 -17 133 -51c21.333 17.333 46.666 30.166 75.999 38.499s60 12.5 92 12.5zM286.002 95c8.66699 0 18.668 1.00098 30.001 3.00098s22.833 4.66699 34.5 8s23 7.16602 34 11.499
s21.167 8.83301 30.5 13.5c-18 42 -27 95.667 -27 161v17c-43.333 0 -76 -2.5 -98 -7.5s-35.667 -11.167 -41 -18.5c-2.66699 -3.33301 -4.83398 -8.5 -6.50098 -15.5s-3 -15 -4 -24s-1.66699 -18.333 -2 -28s-0.5 -18.5 -0.5 -26.5c0 -28 3.83301 -50.667 11.5 -68
s20.5 -26 38.5 -26zM608.003 525.001c-5.33301 -4 -10.002 -11.498 -14.002 -22.498s-7.66699 -24 -11 -39s-6 -30.833 -8 -47.5s-3 -32.334 -3 -47.001l194 9c-2 18 -5.33301 36.667 -10 56s-10.667 37 -18 53s-16.666 29.333 -27.999 40s-25 16 -41 16
c-11.333 0 -22.166 -1.33301 -32.499 -4s-19.833 -7.33398 -28.5 -14.001z" />
    <glyph glyph-name="ccedilla" unicode="&#xe7;" horiz-adv-x="604" 
d="M462 -182c0 -41.333 -14.167 -74.668 -42.5 -100.001s-74.166 -38 -137.499 -38c-11.333 0 -23.833 0.833008 -37.5 2.5s-25.167 4.16699 -34.5 7.5l10 73c8.66699 -2 19.167 -3.66699 31.5 -5s23.5 -2 33.5 -2c23.333 0 39.666 5.33301 48.999 16s14 22.667 14 36
s-3.83301 24.5 -11.5 33.5s-17.167 16.5 -28.5 22.5s-23.5 10.5 -36.5 13.5s-24.833 5.16699 -35.5 6.5l55 105c-33.333 2.66699 -64.333 10.167 -93 22.5s-53.5 30.666 -74.5 54.999s-37.5 55 -49.5 92s-18 81.5 -18 133.5c0 52.667 7.16699 99.834 21.5 141.501
s35.166 77 62.499 106s61.333 51.167 102 66.5s87.334 23 140.001 23c32 0 64.167 -2.33301 96.5 -7s61.833 -10 88.5 -16l-30 -123c-22 11.333 -48.167 22.333 -78.5 33s-63.166 16 -98.499 16c-14.667 0 -29.334 -1.5 -44.001 -4.5s-27.334 -8.5 -38.001 -16.5
c-12 -8.66699 -21.667 -29.167 -29 -61.5s-11 -82.833 -11 -151.5c0 -38 2.66699 -70.167 8 -96.5s13.333 -47.666 24 -63.999s23.834 -28 39.501 -35s34.167 -10.5 55.5 -10.5c32.667 0 66.667 3.5 102 10.5s67.333 16.5 96 28.5l16 -45
c-28 -22.667 -59.333 -42.5 -94 -59.5s-72 -28.167 -112 -33.5l-33 -63c35.333 -6 64.5 -18.667 87.5 -38s34.5 -44 34.5 -74z" />
    <glyph glyph-name="egrave" unicode="&#xe8;" horiz-adv-x="675" 
d="M359 629c29.333 0 57.835 -4.16699 85.502 -12.5s53.167 -22.333 76.5 -42s43.5 -46 60.5 -79s29.833 -74.167 38.5 -123.5v-8c-5.33301 -7.33301 -12.5 -14 -21.5 -20s-20.833 -11.167 -35.5 -15.5s-32.667 -8.33301 -54 -12s-47 -6.5 -77 -8.5l-194 -15v-26
c0 -48 12.667 -87.667 38 -119s63.333 -47 114 -47c20.667 0 42.334 2.16699 65.001 6.5s44.167 9.5 64.5 15.5s39 12.167 56 18.5s29.833 11.833 38.5 16.5l15 -45c-18.667 -14 -39.667 -28.5 -63 -43.5s-48.333 -28.5 -75 -40.5s-54.834 -21.833 -84.501 -29.5
s-60.167 -11.5 -91.5 -11.5c-36.667 0 -70.834 5.5 -102.501 16.5s-59 28.5 -82 52.5s-41.167 55.333 -54.5 94s-20 85.667 -20 141c0 62 7.66699 114.5 23 157.5s36.666 77.667 63.999 104s59.5 45.5 96.5 57.5s76.833 18 119.5 18zM276.002 525
c-4.66699 -4 -9.16797 -11.5 -13.501 -22.5s-8.16602 -24 -11.499 -39s-6 -30.667 -8 -47s-3 -32.166 -3 -47.499l193 9c-2 18 -5 36.667 -9 56s-9.83301 37 -17.5 53s-17.167 29.333 -28.5 40s-25 16 -41 16c-11.333 0 -22 -1.33301 -32 -4s-19.667 -7.33398 -29 -14.001z
M447.001 775l-56 -57l-225 196l91 91z" />
    <glyph glyph-name="eacute" unicode="&#xe9;" horiz-adv-x="675" 
d="M359 629c29.333 0 57.835 -4.16699 85.502 -12.5s53.167 -22.333 76.5 -42s43.5 -46 60.5 -79s29.833 -74.167 38.5 -123.5v-8c-5.33301 -7.33301 -12.5 -14 -21.5 -20s-20.833 -11.167 -35.5 -15.5s-32.667 -8.33301 -54 -12s-47 -6.5 -77 -8.5l-194 -15v-26
c0 -48 12.667 -87.667 38 -119s63.333 -47 114 -47c20.667 0 42.334 2.16699 65.001 6.5s44.167 9.5 64.5 15.5s39 12.167 56 18.5s29.833 11.833 38.5 16.5l15 -45c-18.667 -14 -39.667 -28.5 -63 -43.5s-48.333 -28.5 -75 -40.5s-54.834 -21.833 -84.501 -29.5
s-60.167 -11.5 -91.5 -11.5c-36.667 0 -70.834 5.5 -102.501 16.5s-59 28.5 -82 52.5s-41.167 55.333 -54.5 94s-20 85.667 -20 141c0 62 7.66699 114.5 23 157.5s36.666 77.667 63.999 104s59.5 45.5 96.5 57.5s76.833 18 119.5 18zM276.002 525
c-4.66699 -4 -9.16797 -11.5 -13.501 -22.5s-8.16602 -24 -11.499 -39s-6 -30.667 -8 -47s-3 -32.166 -3 -47.499l193 9c-2 18 -5 36.667 -9 56s-9.83301 37 -17.5 53s-17.167 29.333 -28.5 40s-25 16 -41 16c-11.333 0 -22 -1.33301 -32 -4s-19.667 -7.33398 -29 -14.001z
M418.001 1005l90 -91l-225 -196l-56 57z" />
    <glyph glyph-name="ecircumflex" unicode="&#xea;" horiz-adv-x="675" 
d="M359 629c29.333 0 57.835 -4.16699 85.502 -12.5s53.167 -22.333 76.5 -42s43.5 -46 60.5 -79s29.833 -74.167 38.5 -123.5v-8c-5.33301 -7.33301 -12.5 -14 -21.5 -20s-20.833 -11.167 -35.5 -15.5s-32.667 -8.33301 -54 -12s-47 -6.5 -77 -8.5l-194 -15v-26
c0 -48 12.667 -87.667 38 -119s63.333 -47 114 -47c20.667 0 42.334 2.16699 65.001 6.5s44.167 9.5 64.5 15.5s39 12.167 56 18.5s29.833 11.833 38.5 16.5l15 -45c-18.667 -14 -39.667 -28.5 -63 -43.5s-48.333 -28.5 -75 -40.5s-54.834 -21.833 -84.501 -29.5
s-60.167 -11.5 -91.5 -11.5c-36.667 0 -70.834 5.5 -102.501 16.5s-59 28.5 -82 52.5s-41.167 55.333 -54.5 94s-20 85.667 -20 141c0 62 7.66699 114.5 23 157.5s36.666 77.667 63.999 104s59.5 45.5 96.5 57.5s76.833 18 119.5 18zM276.002 525
c-4.66699 -4 -9.16797 -11.5 -13.501 -22.5s-8.16602 -24 -11.499 -39s-6 -30.667 -8 -47s-3 -32.166 -3 -47.499l193 9c-2 18 -5 36.667 -9 56s-9.83301 37 -17.5 53s-17.167 29.333 -28.5 40s-25 16 -41 16c-11.333 0 -22 -1.33301 -32 -4s-19.667 -7.33398 -29 -14.001z
M391.001 976l167 -209l-46 -48l-170 139l-170 -139l-48 48l167 209h100z" />
    <glyph glyph-name="edieresis" unicode="&#xeb;" horiz-adv-x="675" 
d="M359 629c29.333 0 57.835 -4.16699 85.502 -12.5s53.167 -22.333 76.5 -42s43.5 -46 60.5 -79s29.833 -74.167 38.5 -123.5v-8c-5.33301 -7.33301 -12.5 -14 -21.5 -20s-20.833 -11.167 -35.5 -15.5s-32.667 -8.33301 -54 -12s-47 -6.5 -77 -8.5l-194 -15v-26
c0 -48 12.667 -87.667 38 -119s63.333 -47 114 -47c20.667 0 42.334 2.16699 65.001 6.5s44.167 9.5 64.5 15.5s39 12.167 56 18.5s29.833 11.833 38.5 16.5l15 -45c-18.667 -14 -39.667 -28.5 -63 -43.5s-48.333 -28.5 -75 -40.5s-54.834 -21.833 -84.501 -29.5
s-60.167 -11.5 -91.5 -11.5c-36.667 0 -70.834 5.5 -102.501 16.5s-59 28.5 -82 52.5s-41.167 55.333 -54.5 94s-20 85.667 -20 141c0 62 7.66699 114.5 23 157.5s36.666 77.667 63.999 104s59.5 45.5 96.5 57.5s76.833 18 119.5 18zM276.002 525
c-4.66699 -4 -9.16797 -11.5 -13.501 -22.5s-8.16602 -24 -11.499 -39s-6 -30.667 -8 -47s-3 -32.166 -3 -47.499l193 9c-2 18 -5 36.667 -9 56s-9.83301 37 -17.5 53s-17.167 29.333 -28.5 40s-25 16 -41 16c-11.333 0 -22 -1.33301 -32 -4s-19.667 -7.33398 -29 -14.001z
M208.001 927l90 -94l-90 -95l-89 95zM483.001 927l90 -94l-90 -95l-88 95z" />
    <glyph glyph-name="igrave" unicode="&#xec;" horiz-adv-x="372" 
d="M274 0h-175v616h175v-616zM293 775l-56 -57l-225 196l91 91z" />
    <glyph glyph-name="iacute" unicode="&#xed;" horiz-adv-x="372" 
d="M274 0h-175v616h175v-616zM269 1005l90 -91l-225 -196l-56 57z" />
    <glyph glyph-name="icircumflex" unicode="&#xee;" horiz-adv-x="372" 
d="M274 0h-175v616h175v-616zM237 976l167 -209l-46 -48l-170 139l-170 -139l-48 48l167 209h100z" />
    <glyph glyph-name="idieresis" unicode="&#xef;" horiz-adv-x="372" 
d="M274 0h-175v616h175v-616zM47 927l90 -94l-90 -95l-89 95zM322 927l90 -94l-90 -95l-88 95z" />
    <glyph glyph-name="eth" unicode="&#xf0;" horiz-adv-x="702" 
d="M352 -12c-100.667 0 -177.5 25.667 -230.5 77s-79.5 126.333 -79.5 225c0 46.667 6 88.667 18 126s30 69.166 54 95.499s53.667 46.5 89 60.5s76 21 122 21c46.667 0 89.334 -7.33301 128.001 -22c-8 40 -18.833 77.5 -32.5 112.5s-35.167 72.833 -64.5 113.5l-166 -89
l-37 75l154 81l-22.5 24.5c-7 7.66699 -14.333 15.167 -22 22.5l-25 23l-30.5 26l56 58l69 -51c20.667 -16 41.667 -33.667 63 -53l170 88l37 -72l-148 -79c30 -33.333 57.667 -69.333 83 -108s47.166 -80.334 65.499 -125.001s32.5 -92.667 42.5 -144s15 -106.333 15 -165
v-17c0 -47.333 -6.5 -89.666 -19.5 -126.999s-32.5 -69.166 -58.5 -95.499s-58.167 -46.5 -96.5 -60.5s-82.833 -21 -133.5 -21zM224 291c0 -77.333 9.66895 -132.833 29.002 -166.5s52 -50.5 98 -50.5c18 0 34.333 1.5 49 4.5s27.667 8.16699 39 15.5
c7.33301 4.66699 13.666 13.5 18.999 26.5s9.5 28.333 12.5 46s5.16699 37.167 6.5 58.5s2 43 2 65c0 74.667 -10 129.5 -30 164.5s-52 52.5 -96 52.5c-36.667 0 -66.334 -7 -89.001 -21c-15.333 -10.667 -25.833 -33.167 -31.5 -67.5s-8.5 -76.833 -8.5 -127.5z" />
    <glyph glyph-name="ntilde" unicode="&#xf1;" horiz-adv-x="760" 
d="M491 0l0.000976562 412.999c0 36.667 -5.83301 63.667 -17.5 81s-31.5 26 -59.5 26c-10 0 -21.167 -1.33301 -33.5 -4s-24.666 -6.5 -36.999 -11.5s-24.5 -10.667 -36.5 -17s-23 -13.166 -33 -20.499v-467h-175v616h156l16 -72h2c12 8 26.5 16.833 43.5 26.5
s35.5 18.834 55.5 27.501s40.667 16 62 22s42.333 9 63 9c23.333 0 45.166 -3.83301 65.499 -11.5s38.166 -19 53.499 -34s27.5 -33.833 36.5 -56.5s13.5 -49.334 13.5 -80.001v-447h-175zM289.001 790.999c-12.667 0 -23.001 -1.83496 -31.001 -5.50195
s-14.5 -8.66699 -19.5 -15s-8.83301 -13.5 -11.5 -21.5s-5 -16 -7 -24l-51 12c4 23.333 9.5 44.833 16.5 64.5s15.833 36.5 26.5 50.5s23 25 37 33s29.667 12 47 12c16.667 0 33.834 -3.66699 51.501 -11s34.834 -15.166 51.501 -23.499l47.5 -23.5
c15 -7.33301 28.5 -11 40.5 -11s22.167 2.16699 30.5 6.5s15 9.83301 20 16.5s8.83301 13.834 11.5 21.501s5 14.834 7 21.501l52 -11c-7.33301 -47.333 -22 -86 -44 -116s-50.667 -45 -86 -45c-18.667 0 -36.5 3.66699 -53.5 11s-33.333 15.166 -49 23.499l-45.5 23.5
c-14.667 7.33301 -28.334 11 -41.001 11z" />
    <glyph glyph-name="ograve" unicode="&#xf2;" horiz-adv-x="730" 
d="M365 -12c-100 0 -176.5 27.167 -229.5 81.5s-79.5 133.833 -79.5 238.5c0 49.333 6.5 93.833 19.5 133.5s32.5 73.334 58.5 101.001s58.333 49 97 64s83.334 22.5 134.001 22.5c102 0 179 -27.667 231 -83s78 -134 78 -236c0 -50 -6.5 -94.833 -19.5 -134.5
s-32.5 -73.334 -58.5 -101.001s-58.333 -49 -97 -64s-83.334 -22.5 -134.001 -22.5zM238 309c0 -80.667 9.66797 -140.002 29.001 -178.002s51.666 -57 96.999 -57c17.333 0 33.666 1.5 48.999 4.5s28 7.5 38 13.5c6.66699 3.33301 12.5 11.5 17.5 24.5
s9.33301 29.167 13 48.5s6.33398 41.333 8.00098 66s2.5 50.334 2.5 77.001c0 78.667 -9.83301 137.5 -29.5 176.5s-51.5 58.5 -95.5 58.5c-16.667 0 -33 -1.66699 -49 -5s-30 -8.66602 -42 -15.999c-6.66699 -4 -12.5 -12.333 -17.5 -25s-9 -28.667 -12 -48
s-5.16699 -41 -6.5 -65s-2 -49 -2 -75zM482.001 774.998l-56 -57l-225 196l91 91z" />
    <glyph glyph-name="oacute" unicode="&#xf3;" horiz-adv-x="730" 
d="M365 -12c-100 0 -176.5 27.167 -229.5 81.5s-79.5 133.833 -79.5 238.5c0 49.333 6.5 93.833 19.5 133.5s32.5 73.334 58.5 101.001s58.333 49 97 64s83.334 22.5 134.001 22.5c102 0 179 -27.667 231 -83s78 -134 78 -236c0 -50 -6.5 -94.833 -19.5 -134.5
s-32.5 -73.334 -58.5 -101.001s-58.333 -49 -97 -64s-83.334 -22.5 -134.001 -22.5zM238 309c0 -80.667 9.66797 -140.002 29.001 -178.002s51.666 -57 96.999 -57c17.333 0 33.666 1.5 48.999 4.5s28 7.5 38 13.5c6.66699 3.33301 12.5 11.5 17.5 24.5
s9.33301 29.167 13 48.5s6.33398 41.333 8.00098 66s2.5 50.334 2.5 77.001c0 78.667 -9.83301 137.5 -29.5 176.5s-51.5 58.5 -95.5 58.5c-16.667 0 -33 -1.66699 -49 -5s-30 -8.66602 -42 -15.999c-6.66699 -4 -12.5 -12.333 -17.5 -25s-9 -28.667 -12 -48
s-5.16699 -41 -6.5 -65s-2 -49 -2 -75zM437.001 1005l90 -91l-225 -196l-56 57z" />
    <glyph glyph-name="ocircumflex" unicode="&#xf4;" horiz-adv-x="730" 
d="M365 -12c-100 0 -176.5 27.167 -229.5 81.5s-79.5 133.833 -79.5 238.5c0 49.333 6.5 93.833 19.5 133.5s32.5 73.334 58.5 101.001s58.333 49 97 64s83.334 22.5 134.001 22.5c102 0 179 -27.667 231 -83s78 -134 78 -236c0 -50 -6.5 -94.833 -19.5 -134.5
s-32.5 -73.334 -58.5 -101.001s-58.333 -49 -97 -64s-83.334 -22.5 -134.001 -22.5zM238 309c0 -80.667 9.66797 -140.002 29.001 -178.002s51.666 -57 96.999 -57c17.333 0 33.666 1.5 48.999 4.5s28 7.5 38 13.5c6.66699 3.33301 12.5 11.5 17.5 24.5
s9.33301 29.167 13 48.5s6.33398 41.333 8.00098 66s2.5 50.334 2.5 77.001c0 78.667 -9.83301 137.5 -29.5 176.5s-51.5 58.5 -95.5 58.5c-16.667 0 -33 -1.66699 -49 -5s-30 -8.66602 -42 -15.999c-6.66699 -4 -12.5 -12.333 -17.5 -25s-9 -28.667 -12 -48
s-5.16699 -41 -6.5 -65s-2 -49 -2 -75zM413.001 975.998l167 -209l-46 -48l-170 139l-170 -139l-48 48l167 209h100z" />
    <glyph glyph-name="otilde" unicode="&#xf5;" horiz-adv-x="730" 
d="M365 -12c-100 0 -176.5 27.167 -229.5 81.5s-79.5 133.833 -79.5 238.5c0 49.333 6.5 93.833 19.5 133.5s32.5 73.334 58.5 101.001s58.333 49 97 64s83.334 22.5 134.001 22.5c102 0 179 -27.667 231 -83s78 -134 78 -236c0 -50 -6.5 -94.833 -19.5 -134.5
s-32.5 -73.334 -58.5 -101.001s-58.333 -49 -97 -64s-83.334 -22.5 -134.001 -22.5zM238 309c0 -80.667 9.66797 -140.002 29.001 -178.002s51.666 -57 96.999 -57c17.333 0 33.666 1.5 48.999 4.5s28 7.5 38 13.5c6.66699 3.33301 12.5 11.5 17.5 24.5
s9.33301 29.167 13 48.5s6.33398 41.333 8.00098 66s2.5 50.334 2.5 77.001c0 78.667 -9.83301 137.5 -29.5 176.5s-51.5 58.5 -95.5 58.5c-16.667 0 -33 -1.66699 -49 -5s-30 -8.66602 -42 -15.999c-6.66699 -4 -12.5 -12.333 -17.5 -25s-9 -28.667 -12 -48
s-5.16699 -41 -6.5 -65s-2 -49 -2 -75zM267.001 790.998c-12.667 0 -23.001 -1.83496 -31.001 -5.50195s-14.5 -8.66699 -19.5 -15s-8.83301 -13.5 -11.5 -21.5s-5 -16 -7 -24l-51 12c4 23.333 9.5 44.833 16.5 64.5s15.833 36.5 26.5 50.5s23 25 37 33s29.667 12 47 12
c16.667 0 33.834 -3.66699 51.501 -11s34.834 -15.166 51.501 -23.499l47.5 -23.5c15 -7.33301 28.5 -11 40.5 -11s22.167 2.16699 30.5 6.5s15 9.83301 20 16.5s8.83301 13.834 11.5 21.501s5 14.834 7 21.501l52 -11c-7.33301 -47.333 -22 -86 -44 -116
s-50.667 -45 -86 -45c-18.667 0 -36.5 3.66699 -53.5 11s-33.333 15.166 -49 23.499l-45.5 23.5c-14.667 7.33301 -28.334 11 -41.001 11z" />
    <glyph glyph-name="odieresis" unicode="&#xf6;" horiz-adv-x="730" 
d="M365 -12c-100 0 -176.5 27.167 -229.5 81.5s-79.5 133.833 -79.5 238.5c0 49.333 6.5 93.833 19.5 133.5s32.5 73.334 58.5 101.001s58.333 49 97 64s83.334 22.5 134.001 22.5c102 0 179 -27.667 231 -83s78 -134 78 -236c0 -50 -6.5 -94.833 -19.5 -134.5
s-32.5 -73.334 -58.5 -101.001s-58.333 -49 -97 -64s-83.334 -22.5 -134.001 -22.5zM238 309c0 -80.667 9.66797 -140.002 29.001 -178.002s51.666 -57 96.999 -57c17.333 0 33.666 1.5 48.999 4.5s28 7.5 38 13.5c6.66699 3.33301 12.5 11.5 17.5 24.5
s9.33301 29.167 13 48.5s6.33398 41.333 8.00098 66s2.5 50.334 2.5 77.001c0 78.667 -9.83301 137.5 -29.5 176.5s-51.5 58.5 -95.5 58.5c-16.667 0 -33 -1.66699 -49 -5s-30 -8.66602 -42 -15.999c-6.66699 -4 -12.5 -12.333 -17.5 -25s-9 -28.667 -12 -48
s-5.16699 -41 -6.5 -65s-2 -49 -2 -75zM226.001 926.998l90 -94l-90 -95l-89 95zM501.001 926.998l90 -94l-90 -95l-88 95z" />
    <glyph glyph-name="divide" unicode="&#xf7;" horiz-adv-x="703" 
d="M352 277l91 -94l-91 -95l-89 95zM352 772l91 -94l-91 -95l-89 95zM43 382v96h617v-96h-617z" />
    <glyph glyph-name="oslash" unicode="&#xf8;" horiz-adv-x="730" 
d="M365 -12c-70.667 0 -129.667 13.668 -177 41.001l-70 -88l-58 51l68 86c-48 55.333 -72 132 -72 230c0 49.333 6.5 93.833 19.5 133.5s32.5 73.334 58.5 101.001s58.333 49 97 64s83.334 22.5 134.001 22.5c68.667 0 126 -13 172 -39l68 86l58 -50l-66 -83
c51.333 -54.667 77 -132.334 77 -233.001c0 -50 -6.5 -94.833 -19.5 -134.5s-32.5 -73.334 -58.5 -101.001s-58.333 -49 -97 -64s-83.334 -22.5 -134.001 -22.5zM492 308.001c0 18 -0.666016 34.835 -1.99902 50.502s-3 30.5 -5 44.5l-217 -273
c19.333 -37.333 51.333 -56 96 -56c17.333 0 33.666 1.5 48.999 4.5s28 7.5 38 13.5c6.66699 3.33301 12.5 11.5 17.5 24.5s9.16699 29.167 12.5 48.5s6 41.166 8 65.499s3 50.166 3 77.499zM238.001 309.003c0 -16.667 0.332031 -32.1689 0.999023 -46.502
s1.66699 -28.166 3 -41.499l216 270c-21.333 34.667 -51.666 52 -90.999 52c-16.667 0 -33 -1.66699 -49 -5s-30 -8.66602 -42 -15.999c-6.66699 -4 -12.5 -12.333 -17.5 -25s-9 -28.667 -12 -48s-5.16699 -41 -6.5 -65s-2 -49 -2 -75z" />
    <glyph glyph-name="ugrave" unicode="&#xf9;" horiz-adv-x="760" 
d="M270 616l-0.000976562 -412.998c0 -36.667 5.83301 -63.834 17.5 -81.501s31.5 -26.5 59.5 -26.5c10 0 21 1.5 33 4.5s24.333 7 37 12s24.834 10.667 36.501 17s22.5 13.166 32.5 20.499v467h176v-616h-157l-16 72h-2c-12 -8 -26.5 -16.833 -43.5 -26.5
s-35.333 -19 -55 -28s-40.334 -16.5 -62.001 -22.5s-42.834 -9 -63.501 -9c-23.333 0 -45.166 3.83301 -65.499 11.5s-38.166 19 -53.499 34s-27.5 34 -36.5 57s-13.5 49.5 -13.5 79.5v448h176zM486.999 775.002l-56 -57l-225 196l91 91z" />
    <glyph glyph-name="uacute" unicode="&#xfa;" horiz-adv-x="760" 
d="M270 616l-0.000976562 -412.998c0 -36.667 5.83301 -63.834 17.5 -81.501s31.5 -26.5 59.5 -26.5c10 0 21 1.5 33 4.5s24.333 7 37 12s24.834 10.667 36.501 17s22.5 13.166 32.5 20.499v467h176v-616h-157l-16 72h-2c-12 -8 -26.5 -16.833 -43.5 -26.5
s-35.333 -19 -55 -28s-40.334 -16.5 -62.001 -22.5s-42.834 -9 -63.501 -9c-23.333 0 -45.166 3.83301 -65.499 11.5s-38.166 19 -53.499 34s-27.5 34 -36.5 57s-13.5 49.5 -13.5 79.5v448h176zM420.999 1005l90 -91l-225 -196l-56 57z" />
    <glyph glyph-name="ucircumflex" unicode="&#xfb;" horiz-adv-x="760" 
d="M270 616l-0.000976562 -412.998c0 -36.667 5.83301 -63.834 17.5 -81.501s31.5 -26.5 59.5 -26.5c10 0 21 1.5 33 4.5s24.333 7 37 12s24.834 10.667 36.501 17s22.5 13.166 32.5 20.499v467h176v-616h-157l-16 72h-2c-12 -8 -26.5 -16.833 -43.5 -26.5
s-35.333 -19 -55 -28s-40.334 -16.5 -62.001 -22.5s-42.834 -9 -63.501 -9c-23.333 0 -45.166 3.83301 -65.499 11.5s-38.166 19 -53.499 34s-27.5 34 -36.5 57s-13.5 49.5 -13.5 79.5v448h176zM426.999 976.002l167 -209l-46 -48l-170 139l-170 -139l-48 48l167 209h100z
" />
    <glyph glyph-name="udieresis" unicode="&#xfc;" horiz-adv-x="760" 
d="M270 616l-0.000976562 -412.998c0 -36.667 5.83301 -63.834 17.5 -81.501s31.5 -26.5 59.5 -26.5c10 0 21 1.5 33 4.5s24.333 7 37 12s24.834 10.667 36.501 17s22.5 13.166 32.5 20.499v467h176v-616h-157l-16 72h-2c-12 -8 -26.5 -16.833 -43.5 -26.5
s-35.333 -19 -55 -28s-40.334 -16.5 -62.001 -22.5s-42.834 -9 -63.501 -9c-23.333 0 -45.166 3.83301 -65.499 11.5s-38.166 19 -53.499 34s-27.5 34 -36.5 57s-13.5 49.5 -13.5 79.5v448h176zM242.999 927.002l90 -94l-90 -95l-89 95zM517.999 927.002l90 -94l-90 -95
l-88 95z" />
    <glyph glyph-name="yacute" unicode="&#xfd;" horiz-adv-x="649" 
d="M181 -299c-31.333 -38.667 -62.5029 -67.1689 -93.5029 -85.502s-62.5 -27.5 -94.5 -27.5c-16.667 0 -34.667 1.33301 -54 4s-34.666 6 -45.999 10v59h13c21.333 0 46 6 74 18s54.667 29.333 80 52c14 12 30.333 27.833 49 47.5s38 41.167 58 64.5s39.5 47.333 58.5 72
s36.167 48.334 51.5 71.001c-24 72.667 -47.667 140.167 -71 202.5s-45 117.333 -65 165s-37.833 86.667 -53.5 117s-28.167 50.166 -37.5 59.499c-8.66699 8.66699 -17.667 14.167 -27 16.5s-16.666 3.5 -21.999 3.5h-5v58c7.33301 2 16.833 3.83301 28.5 5.5
s23.834 3.16699 36.501 4.5s25 2.5 37 3.5s22 1.5 30 1.5c17.333 0 33 -2.16699 47 -6.5s25.667 -11.833 35 -22.5c12 -12 25 -31.667 39 -59s28.5 -60.166 43.5 -98.499s30.333 -81 46 -128s30.834 -96.5 45.501 -148.5h3c20 32 36.167 62.333 48.5 91s22.166 57 29.499 85
s12.333 56 15 84s4 57.667 4 89c0 8.66699 -0.5 17.834 -1.5 27.501s-2.16699 19 -3.5 28s-2.83301 17.167 -4.5 24.5s-3.16699 12.666 -4.5 15.999l136 24c3.33301 -9.33301 6.33301 -23.166 9 -41.499s4 -35.833 4 -52.5c0 -44 -7 -88.5 -21 -133.5
s-32.167 -89.833 -54.5 -134.5s-47 -89 -74 -133l-79.5 -129l-69.5 -108.5l-49.5 -75.5l-42.5 -59.5c-13.667 -18.333 -29.5 -38.5 -47.5 -60.5zM406.997 1005l90 -91l-225 -196l-56 57z" />
    <glyph glyph-name="thorn" unicode="&#xfe;" horiz-adv-x="744" 
d="M506 319c0 68.667 -11.166 119.332 -33.499 151.999s-52.5 49 -90.5 49c-19.333 0 -37.833 -2 -55.5 -6s-35.167 -9.66699 -52.5 -17v-405c13.333 -3.33301 26.5 -5.66602 39.5 -6.99902s26.833 -2 41.5 -2c22 0 42.667 2 62 6s33.666 10.667 42.999 20
c10.667 10.667 21 34.167 31 70.5s15 82.833 15 139.5zM99.001 1010l175.001 36v-384v-34c0 -12 -0.333008 -22.667 -1 -32c-0.666992 -11.333 -1 -22.333 -1 -33c24.667 18 50.167 33.5 76.5 46.5s57.5 19.5 93.5 19.5c32 0 62.833 -5.5 92.5 -16.5s56 -28.5 79 -52.5
s41.333 -55.167 55 -93.5s20.5 -85.166 20.5 -140.499c0 -53.333 -7.5 -100.833 -22.5 -142.5s-36.333 -77 -64 -106s-61.334 -51.167 -101.001 -66.5s-84.5 -23 -134.5 -23c-16.667 0 -33.667 1.16699 -51 3.5s-32 5.16602 -44 8.49902c0 -6 0.333008 -16.333 1 -31
s1 -29.667 1 -45v-317l-175 -29v1432z" />
    <glyph glyph-name="ydieresis" unicode="&#xff;" horiz-adv-x="649" 
d="M181 -299c-31.333 -38.667 -62.5029 -67.1689 -93.5029 -85.502s-62.5 -27.5 -94.5 -27.5c-16.667 0 -34.667 1.33301 -54 4s-34.666 6 -45.999 10v59h13c21.333 0 46 6 74 18s54.667 29.333 80 52c14 12 30.333 27.833 49 47.5s38 41.167 58 64.5s39.5 47.333 58.5 72
s36.167 48.334 51.5 71.001c-24 72.667 -47.667 140.167 -71 202.5s-45 117.333 -65 165s-37.833 86.667 -53.5 117s-28.167 50.166 -37.5 59.499c-8.66699 8.66699 -17.667 14.167 -27 16.5s-16.666 3.5 -21.999 3.5h-5v58c7.33301 2 16.833 3.83301 28.5 5.5
s23.834 3.16699 36.501 4.5s25 2.5 37 3.5s22 1.5 30 1.5c17.333 0 33 -2.16699 47 -6.5s25.667 -11.833 35 -22.5c12 -12 25 -31.667 39 -59s28.5 -60.166 43.5 -98.499s30.333 -81 46 -128s30.834 -96.5 45.501 -148.5h3c20 32 36.167 62.333 48.5 91s22.166 57 29.499 85
s12.333 56 15 84s4 57.667 4 89c0 8.66699 -0.5 17.834 -1.5 27.501s-2.16699 19 -3.5 28s-2.83301 17.167 -4.5 24.5s-3.16699 12.666 -4.5 15.999l136 24c3.33301 -9.33301 6.33301 -23.166 9 -41.499s4 -35.833 4 -52.5c0 -44 -7 -88.5 -21 -133.5
s-32.167 -89.833 -54.5 -134.5s-47 -89 -74 -133l-79.5 -129l-69.5 -108.5l-49.5 -75.5l-42.5 -59.5c-13.667 -18.333 -29.5 -38.5 -47.5 -60.5zM174.997 926.998l90 -94l-90 -95l-89 95zM449.997 926.998l90 -94l-90 -95l-88 95z" />
    <glyph glyph-name="dotlessi" unicode="&#x131;" horiz-adv-x="372" 
d="M274 0h-175v616h175v-616z" />
    <glyph glyph-name="Lslash" unicode="&#x141;" horiz-adv-x="660" 
d="M103 0v330l-63 -37l-41 72l104 63v494h178v-385l141 87l40 -70l-181 -114v-343h333l-9 -97h-502z" />
    <glyph glyph-name="lslash" unicode="&#x142;" horiz-adv-x="387" 
d="M274 0h-175v397l-68 -41l-39 69l107 65v520l175 36v-447l84 52l36 -70l-120 -75v-506z" />
    <glyph glyph-name="OE" unicode="&#x152;" horiz-adv-x="1201" 
d="M1150 0l-525.001 -0.00390625c-16.667 -4 -35 -7.16699 -55 -9.5s-42 -3.5 -66 -3.5c-75.333 0 -140 11.333 -194 34s-98.167 54.834 -132.5 96.501s-59.666 91.834 -75.999 150.501s-24.5 124 -24.5 196s8.33301 136.833 25 194.5s42.5 106.834 77.5 147.501
s79.5 71.834 133.5 93.501s118 32.5 192 32.5c24 0 46 -0.833008 66 -2.5s38.333 -4.16699 55 -7.5h506l-8 -94l-322 -4v-300l303 -4l-9 -85l-294 -7v-330l357 -7zM503.999 94.9961c24 0 45.8311 1.16699 65.498 3.5s37.5 5.83301 53.5 10.5v688
c-33.333 18 -72.666 27 -117.999 27c-38.667 0 -74.667 -4.16699 -108 -12.5s-59.666 -20.166 -78.999 -35.499s-33.5 -49 -42.5 -101s-13.5 -122.333 -13.5 -211c0 -55.333 4 -105.5 12 -150.5s21.333 -83.833 40 -116.5s43.5 -57.834 74.5 -75.501s69.5 -26.5 115.5 -26.5
z" />
    <glyph glyph-name="oe" unicode="&#x153;" horiz-adv-x="1112" 
d="M796 629c29.333 0 57.832 -4.16699 85.499 -12.5s53 -22.333 76 -42s43 -46 60 -79s29.833 -74.167 38.5 -123.5v-8c-5.33301 -7.33301 -12.5 -14 -21.5 -20s-20.833 -11.167 -35.5 -15.5s-32.5 -8.33301 -53.5 -12s-46.5 -6.5 -76.5 -8.5l-194 -15v-26
c0 -48 12.667 -87.667 38 -119s63.333 -47 114 -47c20.667 0 42.167 2.16699 64.5 6.5s43.833 9.5 64.5 15.5s39.334 12.167 56.001 18.5s29.667 11.833 39 16.5l14 -45c-18.667 -14 -39.5 -28.5 -62.5 -43.5s-47.833 -28.5 -74.5 -40.5s-54.834 -21.833 -84.501 -29.5
s-60.167 -11.5 -91.5 -11.5c-36 0 -69.167 6.16699 -99.5 18.5s-57.166 30.166 -80.499 53.499c-25.333 -22 -55.166 -39.5 -89.499 -52.5s-73.5 -19.5 -117.5 -19.5c-100 0 -176.5 27.167 -229.5 81.5s-79.5 133.833 -79.5 238.5c0 49.333 6.5 93.833 19.5 133.5
s32.5 73.334 58.5 101.001s58.333 49 97 64s83.334 22.5 134.001 22.5c47.333 0 89.166 -6.83301 125.499 -20.5s67.166 -33.167 92.499 -58.5c54.667 52.667 125.667 79 213 79zM237.999 309c0 -80.667 9.66895 -139.999 29.002 -177.999s51.666 -57 96.999 -57
c17.333 0 33.666 1.5 48.999 4.5s28 7.5 38 13.5c6.66699 3.33301 12.5 11.5 17.5 24.5s9.16699 29.167 12.5 48.5s6 41.166 8 65.499s3 50.166 3 77.499c0 78.667 -9.83301 137.5 -29.5 176.5s-51.5 58.5 -95.5 58.5c-16.667 0 -33 -1.66699 -49 -5
s-30 -8.66602 -42 -15.999c-6.66699 -4 -12.5 -12.333 -17.5 -25s-9 -28.667 -12 -48s-5.16699 -41 -6.5 -65s-2 -49 -2 -75zM713.001 525.001c-4.66699 -4 -9.16797 -11.498 -13.501 -22.498s-8.16602 -24 -11.499 -39s-6 -30.833 -8 -47.5s-3 -32.334 -3 -47.001l193 9
c-2 18 -5 36.667 -9 56s-9.83301 37 -17.5 53s-17.167 29.333 -28.5 40s-25 16 -41 16c-11.333 0 -22 -1.33301 -32 -4s-19.667 -7.33398 -29 -14.001z" />
    <glyph glyph-name="Scaron" unicode="&#x160;" horiz-adv-x="672" 
d="M623 270c0 -33.333 -8.00098 -66.835 -24.001 -100.502s-39 -64 -69 -91s-66.167 -49 -108.5 -66s-89.833 -25.5 -142.5 -25.5c-28 0 -54 1.66699 -78 5s-46.5 7.83301 -67.5 13.5s-41.167 12.667 -60.5 21s-38.666 17.5 -57.999 27.5l44 137
c12.667 -8.66699 29.5 -18 50.5 -28s43.833 -19.333 68.5 -28s49.5 -15.834 74.5 -21.501s47.833 -8.5 68.5 -8.5c23.333 0 42.5 1.5 57.5 4.5s28.5 7.16699 40.5 12.5c13.333 5.33301 24 18.666 32 39.999s12 49 12 83c0 31.333 -10.333 56.333 -31 75
s-46.5 34.834 -77.5 48.501s-64.5 27.334 -100.5 41.001s-69.5 31.334 -100.5 53.001s-56.833 49.5 -77.5 83.5s-31 78.667 -31 134c0 26.667 7 54.834 21 84.501s34.333 57 61 82s59.667 45.5 99 61.5s84 24 134 24c40 0 78.5 -2 115.5 -6s72.833 -9.33301 107.5 -16
l-28 -137c-16 6 -34.167 11.667 -54.5 17s-41 10 -62 14s-41.5 7.16699 -61.5 9.5s-37.667 3.5 -53 3.5c-17.333 0 -33.333 -0.833008 -48 -2.5s-28 -6.16699 -40 -13.5c-11.333 -6.66699 -19.5 -18.167 -24.5 -34.5s-7.5 -35.833 -7.5 -58.5
c0 -23.333 6 -42.666 18 -57.999s27.833 -28.833 47.5 -40.5s42 -22.334 67 -32.001l77 -31c26.333 -11 52 -23.667 77 -38s47.333 -32 67 -53s35.5 -46.5 47.5 -76.5s18 -66.333 18 -109zM293.999 1017l-167 209l48 48l170 -139l170 139l46 -48l-167 -209h-100z" />
    <glyph glyph-name="scaron" unicode="&#x161;" horiz-adv-x="558" 
d="M493 203c0 -34.667 -7.16797 -63.1621 -21.501 -85.4951s-31.166 -41.833 -50.499 -58.5c-10 -8.66699 -20.667 -17.334 -32 -26.001s-24 -16.334 -38 -23.001s-30 -12 -48 -16s-39 -6 -63 -6c-43.333 0 -82.833 4.5 -118.5 13.5s-69.167 23.5 -100.5 43.5l43 115
c13.333 -8 27.5 -17 42.5 -27s31 -19.167 48 -27.5s34.833 -15.333 53.5 -21s37.667 -8.5 57 -8.5c13.333 0 25.5 1 36.5 3s20.167 5.66699 27.5 11c6 4.66699 10.5 13.167 13.5 25.5s4.5 27.166 4.5 44.499c0 20 -7.5 35.833 -22.5 47.5s-33.833 21.834 -56.5 30.501
s-47 17.334 -73 26.001s-50.333 20.167 -73 34.5s-41.5 32.666 -56.5 54.999s-22.5 51.833 -22.5 88.5c0 24 7.33301 47.833 22 71.5s30.667 43.167 48 58.5c21.333 19.333 45 33.666 71 42.999s56 14 90 14c28.667 0 59 -1.66699 91 -5s62 -7 90 -11l-19 -122
c-14 4.66699 -29.167 9.33398 -45.5 14.001s-32.5 9 -48.5 13s-31.5 7.16699 -46.5 9.5s-28.5 3.5 -40.5 3.5c-15.333 0 -27 -0.833008 -35 -2.5s-14.333 -3.83398 -19 -6.50098c-4 -2.66699 -7.16699 -8.33398 -9.5 -17.001s-3.5 -17.667 -3.5 -27
c0 -18.667 7.5 -33.334 22.5 -44.001s33.833 -20.167 56.5 -28.5l73.5 -26c26.333 -9 50.833 -20.5 73.5 -34.5s41.5 -32.167 56.5 -54.5s22.5 -51.5 22.5 -87.5zM221.999 720.005l-167 209l48 48l170 -139l170 139l46 -48l-167 -209h-100z" />
    <glyph glyph-name="Ydieresis" unicode="&#x178;" horiz-adv-x="732" 
d="M456 0h-179v354l-286 568h204l215 -452l224 452h108l-286 -568v-354zM247 1239l90 -94l-90 -95l-89 95zM522 1239l90 -94l-90 -95l-88 95z" />
    <glyph glyph-name="Zcaron" unicode="&#x17d;" horiz-adv-x="815" 
d="M260 95l279 -0.00195312c38.667 0.666992 70.667 4 96 10s46 13.667 62 23s28.833 19.333 38.5 30l26.5 30l45 -37c-7.33301 -14 -16.5 -30.333 -27.5 -49s-25.167 -36.167 -42.5 -52.5s-38.333 -30.166 -63 -41.499s-54 -17 -88 -17
c-16.667 0 -40.834 0.166992 -72.501 0.5s-66.5 0.833008 -104.5 1.5s-77 1.5 -117 2.5s-77.167 1.83301 -111.5 2.5s-63.666 1.16699 -87.999 1.5s-39.5 0.5 -45.5 0.5v63l439 760h-30c-28 0 -60.5 0.166992 -97.5 0.5l-110 1c-36.333 0.333008 -70 0.833008 -101 1.5
s-54.167 1.33398 -69.5 2.00098l13 94h611v-58zM361 1017l-167 209l48 48l170 -139l170 139l46 -48l-167 -209h-100z" />
    <glyph glyph-name="zcaron" unicode="&#x17e;" horiz-adv-x="595" 
d="M98 606c20 1.33301 47.3311 2.66602 81.998 3.99902s72.167 2.5 112.5 3.5s81.333 1.66699 123 2s79.834 0.5 114.501 0.5v-33l-286 -501c6 -0.666992 14.833 -1.33398 26.5 -2.00098s24.334 -1.16699 38.001 -1.5l39.5 -1c12.667 -0.333008 22.667 -0.5 30 -0.5
c33.333 0 60.666 2.16699 81.999 6.5s38.833 10 52.5 17s24.834 15.167 33.501 24.5s17 19 25 29l29 -17c-6.66699 -14.667 -14.334 -30.667 -23.001 -48s-20.334 -33.666 -35.001 -48.999s-33.5 -28.166 -56.5 -38.499s-52.167 -15.5 -87.5 -15.5
c-25.333 0 -56.5 0.666992 -93.5 2s-73.667 3 -110 5s-69 3.66699 -98 5s-48.167 2 -57.5 2v38l286 494h-10c-47.333 0 -91.666 -1 -132.999 -3s-73.666 -3.66699 -96.999 -5zM268.998 720l-167 209l48 48l170 -139l170 139l46 -48l-167 -209h-100z" />
    <glyph glyph-name="florin" unicode="&#x192;" horiz-adv-x="575" 
d="M569 797c-13.333 3.33301 -27.333 5.49902 -42 6.49902s-28.334 1.5 -41.001 1.5s-26.5 -1 -41.5 -3s-27.5 -6.66699 -37.5 -14c-11.333 -7.33301 -22.666 -27 -33.999 -59s-22 -71 -32 -117l-3 -16h163l-25 -77c-19.333 -0.666992 -38.333 -1.66699 -57 -3
c-16 -1.33301 -33.167 -2.5 -51.5 -3.5l-47.499 -2.5l-235 -851h-75l135 855h-56c-12.667 0 -26.334 0.333008 -41.001 1l19 56l39 13c10.667 3.33301 21.167 6.33301 31.5 9s18.833 4.66699 25.5 6l4 16c8 38.667 24.667 76.5 50 113.5s54.833 69.833 88.5 98.5
s69.667 51.834 108 69.501s74.833 26.5 109.5 26.5c14.667 0 30.167 -0.333008 46.5 -1s30.5 -2 42.5 -4z" />
    <glyph glyph-name="circumflex" unicode="&#x2c6;" horiz-adv-x="481" 
d="M289 976l167 -209l-46 -48l-170 139l-170 -139l-48 48l167 209h100z" />
    <glyph glyph-name="caron" unicode="&#x2c7;" horiz-adv-x="481" 
d="M189 720l-167 209l48 48l170 -139l170 139l46 -48l-167 -209h-100z" />
    <glyph glyph-name="breve" unicode="&#x2d8;" horiz-adv-x="452" 
d="M227 718c-60.667 0 -107.164 18 -139.497 54s-48.833 86.333 -49.5 151l62 11c1.33301 -17.333 4.16602 -32.833 8.49902 -46.5s11.166 -25.167 20.499 -34.5s22 -16.5 38 -21.5s36 -7.5 60 -7.5s43.833 2.5 59.5 7.5s28.167 12.167 37.5 21.5s16 20.833 20 34.5
s6.66699 29.167 8 46.5l63 -11c-1.33301 -64.667 -17.833 -115 -49.5 -151s-77.834 -54 -138.501 -54z" />
    <glyph glyph-name="dotaccent" unicode="&#x2d9;" horiz-adv-x="282" 
d="M141 932l97 -105l-97 -104l-99 104z" />
    <glyph glyph-name="ring" unicode="&#x2da;" horiz-adv-x="391" 
d="M37 852c0 26.667 4.33301 49.667 13 69s20.334 35.333 35.001 48s31.667 22 51 28s39.666 9 60.999 9s41.666 -3 60.999 -9s36.333 -15.333 51 -28s26.334 -28.667 35.001 -48s13 -42.333 13 -69c0 -26 -4.33301 -48.667 -13 -68s-20.334 -35.333 -35.001 -48
s-31.667 -22 -51 -28s-39.666 -9 -60.999 -9s-41.666 3 -60.999 9s-36.333 15.333 -51 28s-26.334 28.667 -35.001 48s-13 42 -13 68zM107 852c0 -15.333 2.5 -28 7.5 -38s11.833 -18.333 20.5 -25s18.334 -11.334 29.001 -14.001s21.667 -4 33 -4s22.5 1.33301 33.5 4
s20.667 7.33398 29 14.001s15 15 20 25s7.5 22.667 7.5 38s-2.5 28.166 -7.5 38.499s-11.667 18.833 -20 25.5s-18 11.334 -29 14.001s-22.167 4 -33.5 4s-22.333 -1.33301 -33 -4s-20.334 -7.33398 -29.001 -14.001s-15.5 -15.167 -20.5 -25.5s-7.5 -23.166 -7.5 -38.499z
" />
    <glyph glyph-name="ogonek" unicode="&#x2db;" horiz-adv-x="259" 
d="M202 0c-11.333 -9.33301 -21.998 -20.5029 -31.998 -33.5029s-18.667 -27.167 -26 -42.5s-13 -31.166 -17 -47.499s-6 -32.5 -6 -48.5c0 -12.667 1.66699 -23 5 -31s7.66602 -14.5 12.999 -19.5s11.333 -8.5 18 -10.5s13.667 -3 21 -3
c12.667 0 26.334 2.83301 41.001 8.5s28.667 11.834 42 18.501l22 -54c-6.66699 -4 -15.5 -8.83301 -26.5 -14.5s-23.167 -11.167 -36.5 -16.5s-27.333 -9.83301 -42 -13.5s-29 -5.5 -43 -5.5c-17.333 0 -33.833 3.16699 -49.5 9.5s-29.334 15 -41.001 26
s-20.834 24.333 -27.501 40s-10 33.167 -10 52.5c0 14.667 2.5 30.334 7.5 47.001s12.167 33.167 21.5 49.5s21 32 35 47s29.667 28.833 47 41.5h84z" />
    <glyph glyph-name="tilde" unicode="&#x2dc;" horiz-adv-x="497" 
d="M149 791c-12.667 0 -23.001 -1.83496 -31.001 -5.50195s-14.5 -8.66699 -19.5 -15s-8.83301 -13.5 -11.5 -21.5s-5 -16 -7 -24l-51 12c4 23.333 9.5 44.833 16.5 64.5s15.833 36.5 26.5 50.5s23 25 37 33s29.667 12 47 12c16.667 0 33.834 -3.66699 51.501 -11
s34.834 -15.166 51.501 -23.499l47.5 -23.5c15 -7.33301 28.5 -11 40.5 -11s22.167 2.16699 30.5 6.5s15 9.83301 20 16.5s8.83301 13.834 11.5 21.501s5 14.834 7 21.501l52 -11c-7.33301 -47.333 -22 -86 -44 -116s-50.667 -45 -86 -45c-18.667 0 -36.5 3.66699 -53.5 11
s-33.333 15.166 -49 23.499l-45.5 23.5c-14.667 7.33301 -28.334 11 -41.001 11z" />
    <glyph glyph-name="hungarumlaut" unicode="&#x2dd;" horiz-adv-x="509" 
d="M191 1004l89 -91l-224 -196l-56 57zM416 1004l90 -91l-224 -196l-56 57z" />
    <glyph glyph-name="uni1780" unicode="&#x1780;" horiz-adv-x="774" 
d="M631 528c-16 0 -31.6592 3.83691 -46.9922 11.5039s-29.833 16 -43.5 25s-26.667 17.167 -39 24.5s-23.5 11 -33.5 11h-4c-14.667 -5.33301 -31.167 -15 -49.5 -29s-32.5 -29.667 -42.5 -47h-25c-6.66699 8.66699 -15.834 17.667 -27.501 27s-24.834 18 -39.501 26
s-30.167 14.667 -46.5 20s-32.5 8 -48.5 8c-6.66699 0 -13.334 -1.16699 -20.001 -3.5s-13 -5.16602 -19 -8.49902c6 0 13.333 -0.333008 22 -1s17.5 -2.5 26.5 -5.5s18 -7.66699 27 -14s16.833 -15.166 23.5 -26.499c0 -0.666992 -1.66699 -2.33398 -5 -5.00098
s-7.66602 -5.66699 -12.999 -9l-17.5 -11c-6.33301 -4 -12.5 -7.66699 -18.5 -11c28.667 0 51.5 -6.16699 68.5 -18.5s29.833 -27.5 38.5 -45.5c13.333 13.333 26.5 25.333 39.5 36s26.5 19.5 40.5 26.5s29.167 12.333 45.5 16s34.5 5.5 54.5 5.5
c19.333 0 39.166 -2.83301 59.499 -8.5s40.333 -11.834 60 -18.501s38.834 -12.834 57.501 -18.501s36.334 -8.5 53.001 -8.5h8v-414c-6 -12 -13 -21.833 -21 -29.5s-15.833 -14 -23.5 -19s-15 -8.5 -22 -10.5s-12.833 -3 -17.5 -3h-16
c-10.667 23.333 -25.334 43.333 -44.001 60s-37.167 32.167 -55.5 46.5s-34.333 28.666 -48 42.999s-20.5 30.5 -20.5 48.5c0 14.667 4.66699 26.5 14 35.5s20.5 16.5 33.5 22.5s26.5 11.167 40.5 15.5s26 8.5 36 12.5l39 18c14 6.66699 29.667 18.667 47 36
c-13.333 6 -29.333 12.167 -48 18.5s-37.834 12 -57.501 17s-38.667 9 -57 12s-34.166 4.5 -47.499 4.5c-25.333 0 -47.5 -4 -66.5 -12s-36.5 -23.333 -52.5 -46v-231c0 -10 -2.5 -20.833 -7.5 -32.5s-12.667 -22.5 -23 -32.5s-23.166 -18.5 -38.499 -25.5
s-33 -10.5 -53 -10.5s-38.5 2.66699 -55.5 8s-31.5 12.5 -43.5 21.5s-21.333 19.667 -28 32s-10 25.5 -10 39.5v123h30c1.33301 -4.66699 5.33301 -8.66699 12 -12s14 -6.16602 22 -8.49902s16 -4 24 -5s14 -1.5 18 -1.5c32.667 0 56.667 8.66699 72 26s23 38.666 23 63.999
c0 11.333 -2 21.666 -6 30.999s-12.667 14 -26 14c-8.66699 0 -14.834 -1.83301 -18.501 -5.5l-11.5 -12c-4 -4.33301 -8.83301 -8.83301 -14.5 -13.5s-14.834 -8 -27.501 -10c-2.66699 -0.666992 -5.33398 -1 -8.00098 -1h-8c-24.667 0 -45.334 9.33301 -62.001 28
s-25 41.667 -25 69c0 28.667 6.16699 51 18.5 67s29.166 28.667 50.499 38c-4 3.33301 -10.667 6.5 -20 9.5s-18.666 4.5 -27.999 4.5c-6 0 -11 -1 -15 -3v133c16 2.66699 32.167 7.5 48.5 14.5s32.5 15.5 48.5 25.5s31.833 20.833 47.5 32.5l44.5 34.5h21
c7.33301 -4.66699 17.166 -11.334 29.499 -20.001l38.5 -26c13.333 -8.66699 26.166 -16 38.499 -22s22.166 -9 29.499 -9c1.33301 0 2.33301 0.166992 3 0.5s1.33398 0.5 2.00098 0.5c20 9.33301 39.167 19.5 57.5 30.5s37.833 26.167 58.5 45.5h19l29.5 -28.5
c10.333 -9.66699 21.166 -18.334 32.499 -26.001s23.333 -13.834 36 -18.501s26 -7 40 -7h9c6.66699 0.666992 14.5 4.33398 23.5 11.001s14.5 13.667 16.5 21h11c0.666992 -4 1.16699 -7.83301 1.5 -11.5s0.5 -7.5 0.5 -11.5c0 -17.333 -2.66699 -34.666 -8 -51.999
s-13.166 -32.833 -23.499 -46.5s-23.333 -24.667 -39 -33s-33.834 -12.5 -54.501 -12.5zM657.008 269.004c-8 -2.66699 -14.999 -7.16602 -20.999 -13.499s-9 -14.166 -9 -23.499c0 -10.667 2.66699 -18.834 8 -24.501s12.666 -10.834 21.999 -15.501v77z" />
    <glyph glyph-name="uni1781" unicode="&#x1781;" horiz-adv-x="799" 
d="M665 393c-23.333 -37.333 -54.5029 -67.6689 -93.5029 -91.002s-83.667 -40.166 -134 -50.499s-102.5 -14.166 -156.5 -11.499c12 -21.333 32.167 -40 60.5 -56s62.5 -23.667 102.5 -23c32 0 60.333 6.5 85 19.5s46 29.333 64 49s32.667 41.167 44 64.5
s19 45.666 23 66.999l22 11c3.33301 -0.666992 6.33301 -3.16699 9 -7.5s5.66699 -6.83301 9 -7.5c0 -40.667 -4.83301 -82 -14.5 -124s-25.667 -80.167 -48 -114.5s-51.666 -62.5 -87.999 -84.5s-80.833 -33 -133.5 -33c-57.333 0 -105.666 9.83301 -144.999 29.5
s-71.333 43.5 -96 71.5s-42.667 57.333 -54 88s-18 56.667 -20 78c-0.666992 7.33301 -1 12.666 -1 15.999v19c8.66699 0 26 -0.5 52 -1.5s55.833 -0.5 89.5 1.5s69 6 106 12s71 15.667 102 29s56.5 31.166 76.5 53.499s30 50.833 30 85.5
c0 18.667 -5.33301 35.834 -16 51.501s-25.167 29.334 -43.5 41.001s-39.833 20.667 -64.5 27s-51 9.5 -79 9.5c-11.333 0 -27.166 -1.33301 -47.499 -4s-40.5 -7.16699 -60.5 -13.5s-37.5 -15.333 -52.5 -27s-22.5 -26.5 -22.5 -44.5c0 -13.333 6 -25 18 -35
s26.333 -15 43 -15c8 0 15.833 1.5 23.5 4.5s14 7.33301 19 13s8.16699 12.334 9.5 20.001s-0.333984 16.5 -5.00098 26.5c14.667 20 32.167 32.167 52.5 36.5s39 2.83301 56 -4.5s30.833 -20.333 41.5 -39s14 -41 10 -67c-5.33301 -36 -22.833 -65.833 -52.5 -89.5
s-67.5 -36.167 -113.5 -37.5c-21.333 0.666992 -42.166 5.33398 -62.499 14.001s-38.5 20.667 -54.5 36s-29 33.666 -39 54.999s-15 45.666 -15 72.999c0 31.333 9.33301 61 28 89s41.5 52.333 68.5 73s55.5 37 85.5 49s56.333 18 79 18h45c22.667 0 47 -5.5 73 -16.5
s52 -23.333 78 -37s51.333 -26 76 -37s46.667 -16.5 66 -16.5v-110c0 -51.333 -11.667 -95.666 -35 -132.999z" />
    <glyph glyph-name="uni1782" unicode="&#x1782;" horiz-adv-x="825" 
d="M621 -1c-4.66699 0 -8.16504 1.33008 -10.498 3.99707s-4.16602 5.33398 -5.49902 8.00098c-4 16 -13.667 31.5 -29 46.5l-47.5 46.5c-16.333 16 -31.166 32.667 -44.499 50s-20 36 -20 56c0 6.66699 3.83301 13.167 11.5 19.5s17.667 12.5 30 18.5s25.833 12 40.5 18
l43.5 17.5c14.333 5.66699 27.5 11.167 39.5 16.5s21.333 10.666 28 15.999c-30.667 2.66699 -58.167 7.5 -82.5 14.5s-47.5 14.333 -69.5 22s-44 14.334 -66 20.001s-46 8.5 -72 8.5h-8c-24.667 -1.33301 -48 -4.5 -70 -9.5s-41.333 -12.667 -58 -23
s-29.834 -23.833 -39.501 -40.5s-14.5 -37.334 -14.5 -62.001c0 -6.66699 1.16699 -14 3.5 -22s5.5 -15.667 9.5 -23s8.66699 -14 14 -20s11 -10.333 17 -13c-6 15.333 -9 30.666 -9 45.999c0 17.333 3.16699 34.166 9.5 50.499s15.5 30.833 27.5 43.5s26.333 23 43 31
s35 12.333 55 13c17.333 0 32.5 -3 45.5 -9s23.833 -13.667 32.5 -23s15.334 -19.666 20.001 -30.999s7 -22 7 -32c0 -11.333 -2 -22.166 -6 -32.499s-9.5 -19.5 -16.5 -27.5s-15.167 -14.333 -24.5 -19s-19.666 -7 -30.999 -7c-6.66699 0 -13.667 1 -21 3
c0 19.333 -4.16699 33.333 -12.5 42s-17.5 13 -27.5 13c-9.33301 0 -18.333 -3.33301 -27 -10s-13 -14.334 -13 -23.001c0 -2 0.666992 -5 2 -9c6 -18.667 16.833 -30.667 32.5 -36s31.834 -8 48.501 -8c9.33301 0 19.166 1 29.499 3s21.166 4.66699 32.499 8
c-0.666992 -28.667 -6.66699 -54.667 -18 -78c-4.66699 -10 -10.334 -19.667 -17.001 -29s-14.834 -17.666 -24.501 -24.999s-21 -13.166 -34 -17.499s-28.167 -6.5 -45.5 -6.5c-22.667 0 -44.667 5.5 -66 16.5s-40.333 27.5 -57 49.5s-30.167 50 -40.5 84
s-15.833 74 -16.5 120c0 21.333 2.66699 42.166 8 62.499s12.333 39 21 56s18 31.333 28 43s19.667 19.5 29 23.5c-12 14.667 -26.333 22 -43 22c-6 0 -12.333 -0.666992 -19 -2s-14 -3.33301 -22 -6v168c15.333 2.66699 31.166 7.5 47.499 14.5s32.833 15.333 49.5 25
s33 20.167 49 31.5l46 34h18c29.333 -22.667 53.833 -40 73.5 -52s39.167 -19 58.5 -21c19.333 7.33301 38.833 16.833 58.5 28.5s38.5 26.5 56.5 44.5h18l30 -28c10 -9.33301 20.667 -17.666 32 -24.999s23 -13.333 35 -18s25 -7 39 -7c7.33301 0 16.5 4 27.5 12
s18.167 15.667 21.5 23h13c0.666992 -3.33301 1 -6.5 1 -9.5v-9.5c0 -18 -2.5 -36 -7.5 -54s-12.833 -34.167 -23.5 -48.5s-24 -26 -40 -35s-34.667 -13.5 -56 -13.5c-15.333 0 -30.5 3.83301 -45.5 11.5s-29.333 16.334 -43 26.001s-26.667 18.334 -39 26.001
s-23.5 11.5 -33.5 11.5h-4c-8 -2.66699 -16 -7 -24 -13s-16 -12.833 -24 -20.5l-23.5 -22.5c-7.66699 -7.33301 -14.834 -13.666 -21.501 -18.999c-0.666992 -0.666992 -2.66699 -1 -6 -1c-2 0 -4 0.166992 -6 0.5s-3.66699 0.5 -5 0.5l-31 24.5
c-11.333 9 -23.666 17.333 -36.999 25s-27.5 14.167 -42.5 19.5s-30.5 8 -46.5 8c-6.66699 0 -13.334 -0.666992 -20.001 -2s-13 -4.33301 -19 -9h6c8 0 18 -1.5 30 -4.5s24 -7.83301 36 -14.5s23.167 -15.667 33.5 -27s17.833 -25 22.5 -41c33.333 8 68.333 12 105 12
c28 0 54.833 -3.16699 80.5 -9.5s51 -13.333 76 -21s50 -14.667 75 -21s50.5 -9.5 76.5 -9.5h7v-385c-4.66699 -6.66699 -11 -14.334 -19 -23.001s-16.833 -16.667 -26.5 -24s-19.667 -13.5 -30 -18.5s-19.833 -7.5 -28.5 -7.5zM659.002 259.997
c-7.33301 -2.66699 -14 -6.50195 -20 -11.502s-9 -12.167 -9 -21.5s3 -17.666 9 -24.999s12.667 -12.666 20 -15.999v74z" />
    <glyph glyph-name="uni1783" unicode="&#x1783;" horiz-adv-x="1204" 
d="M1010 540c-9.33301 1.33301 -18.3398 3.68457 -27.0068 7.01758s-17 6.83301 -25 10.5l-22.5 10c-7 3 -13.833 4.5 -20.5 4.5c-10.667 0 -19.5 -2 -26.5 -6s-12.5 -9.33301 -16.5 -16s-6.83301 -14 -8.5 -22s-2.5 -16 -2.5 -24c13.333 10.667 27.166 17.167 41.499 19.5
s29.166 3.5 44.499 3.5c30.667 0 57 -4.83301 79 -14.5s40 -23 54 -40s24.167 -37 30.5 -60s9.5 -47.5 9.5 -73.5v-12c0 -4 -0.333008 -8 -1 -12c-2 -39.333 -9.66699 -78 -23 -116s-32.666 -71.833 -57.999 -101.5s-56.666 -53.5 -93.999 -71.5s-81.333 -27 -132 -27
c-18.667 0 -36 2.16699 -52 6.5s-31.167 9.83301 -45.5 16.5s-28.166 13.667 -41.499 21s-26.666 14 -39.999 20l-45.5 -25.5c-14.333 -7.66699 -29.333 -14.334 -45 -20.001s-32.167 -10.167 -49.5 -13.5s-36.666 -5 -57.999 -5c-42 0 -81 6.5 -117 19.5
s-68.333 30.5 -97 52.5s-53.334 47.167 -74.001 75.5s-36.667 57.5 -48 87.5v6v11c27.333 4 54.333 12.167 81 24.5s51 28 73 47s40.333 40.5 55 64.5s23.667 49 27 75c0.666992 3.33301 1 8.33301 1 15c0 16 -2.66699 31.5 -8 46.5s-12.833 28.333 -22.5 40
s-21 21.167 -34 28.5s-27.5 11 -43.5 11c-20 0 -37 -5.66699 -51 -17s-21 -26.666 -21 -45.999c2.66699 -13.333 9.33398 -20 20.001 -20c7.33301 0 14.666 3.33301 21.999 10s12.333 14.667 15 24c4 0.666992 8 1.16699 12 1.5s7.66699 0.5 11 0.5
c28 0 48 -9.16699 60 -27.5s18 -41.833 18 -70.5c0 -13.333 -2.5 -26.5 -7.5 -39.5s-11.833 -24.5 -20.5 -34.5s-18.834 -18.167 -30.501 -24.5s-24.167 -9.5 -37.5 -9.5c-24.667 0 -44.5 6.16699 -59.5 18.5s-26.667 27.833 -35 46.5s-14 39.167 -17 61.5
s-4.5 43.5 -4.5 63.5c0 26 4.33301 51.167 13 75.5s20.167 45.666 34.5 63.999s31 33.166 50 44.499s38.5 17 58.5 17c28 0 52.833 -6.33301 74.5 -19s39.667 -29.334 54 -50.001s25.333 -43.834 33 -69.501s11.5 -51.5 11.5 -77.5c0 -27.333 -3.5 -53.333 -10.5 -78
s-16.5 -47.834 -28.5 -69.501s-26 -41.834 -42 -60.501s-33 -35.667 -51 -51c6 -9.33301 14.333 -19.5 25 -30.5s23.334 -21.333 38.001 -31s31.167 -17.667 49.5 -24s37.833 -9.5 58.5 -9.5c24 0 48 2.83301 72 8.5s45.667 14 65 25s35 24.667 47 41s18 35.166 18 56.499
c0 11.333 -2.83301 21 -8.5 29s-13 14.667 -22 20s-19 9.16602 -30 11.499s-22.167 3.5 -33.5 3.5c-24 0 -45.167 -3.33301 -63.5 -10s-28.166 -14.334 -29.499 -23.001h-29v314c15.333 1.33301 34.833 9.16602 58.5 23.499s44.834 37.5 63.501 69.5h18
c14 -22.667 29.5 -39.334 46.5 -50.001s39.833 -16 68.5 -16c4 0 8.5 1.16699 13.5 3.5s9.83301 5.16602 14.5 8.49902s8.83398 6.66602 12.501 9.99902s6.16699 6.33301 7.5 9c0 0.666992 1 1 3 1c2.66699 0 5.16699 -0.166992 7.5 -0.5s3.5 -0.833008 3.5 -1.5
c0 -18.667 -2.83301 -37.667 -8.5 -57s-13.5 -37 -23.5 -53s-22.167 -29 -36.5 -39s-30.5 -15 -48.5 -15h-9c-9.33301 1.33301 -18.333 3.66602 -27 6.99902s-16.834 6.83301 -24.501 10.5s-15.167 7 -22.5 10s-14.333 4.5 -21 4.5c-10.667 0 -19.667 -2 -27 -6
s-13 -9.33301 -17 -16s-6.83301 -14 -8.5 -22s-2.5 -16 -2.5 -24c14 9.33301 29.667 15.5 47 18.5s34.666 4.5 51.999 4.5c28 0 52.333 -4.16699 73 -12.5s38 -19.833 52 -34.5s24.5 -31.667 31.5 -51s10.5 -40 10.5 -62c0 -14 -1.33301 -27.333 -4 -40
c-0.666992 -12.667 -4.66699 -28.834 -12 -48.501s-15.333 -35.834 -24 -48.501c8.66699 -11.333 19 -20.833 31 -28.5s24.667 -13.667 38 -18s27.166 -7.5 41.499 -9.5s28.166 -3 41.499 -3c18 0 37.333 2.5 58 7.5s39.834 12.333 57.501 22s32.167 22 43.5 37
s17 32.5 17 52.5c0 5.33301 -0.333008 9.33301 -1 12c-0.666992 6 -3.5 12.833 -8.5 20.5s-12.167 14.667 -21.5 21s-20.666 11.666 -33.999 15.999s-29 6.5 -47 6.5s-32.667 -0.833008 -44 -2.5s-20.166 -4 -26.499 -7s-11 -6.5 -14 -10.5s-5.16699 -8.33301 -6.5 -13h-30
v314c16 0 35.5 7.5 58.5 22.5s43.833 38.5 62.5 70.5h21c14.667 -22.667 30.5 -39.334 47.5 -50.001s39.833 -16 68.5 -16c3.33301 0 7.33301 1.16699 12 3.5s9.33398 5.16602 14.001 8.49902s8.83398 6.66602 12.501 9.99902s6.16699 6.33301 7.5 9l15 -1
c0 -18 -2.66699 -36.667 -8 -56s-13 -37.166 -23 -53.499s-22.167 -29.666 -36.5 -39.999s-30.166 -15.5 -47.499 -15.5c-2 0 -4 0.166992 -6 0.5s-4 0.5 -6 0.5z" />
    <glyph glyph-name="uni1784" unicode="&#x1784;" horiz-adv-x="798" 
d="M696.5 211c-15 -40 -36.168 -75.666 -63.501 -106.999s-60 -56.5 -98 -75.5s-80 -28.5 -126 -28.5c-38 0 -74.167 5.66699 -108.5 17s-65.166 28 -92.499 50s-50.833 48.833 -70.5 80.5s-34.167 68.167 -43.5 109.5c18 0 36.333 1.5 55 4.5s36.667 7.66699 54 14
s33.333 14.5 48 24.5s27.334 22 38.001 36c-7.33301 12 -18.166 20.333 -32.499 25s-29.166 7 -44.499 7c-14 0 -28.333 -3 -43 -9s-27.334 -14.667 -38.001 -26h-31v291c17.333 0 37.666 6.16699 60.999 18.5l73.5 40c25.667 14.333 51.667 27.666 78 39.999
s51.5 18.5 75.5 18.5c34 0 67.5 -4 100.5 -12s63.5 -19 91.5 -33s52.333 -30.833 73 -50.5s35.334 -41.167 44.001 -64.5c8.66699 -26 12.167 -53.5 10.5 -82.5s-8.5 -55.833 -20.5 -80.5s-29 -45 -51 -61s-48.333 -24 -79 -24c-33.333 0 -62.5 8.66699 -87.5 26
s-39.167 43.333 -42.5 78c-2 18 0.833008 35.333 8.5 52s18.5 29.667 32.5 39s30.333 13.666 49 12.999s38 -9 58 -25c-6 -18.667 -7.33301 -33.334 -4 -44.001s8.66602 -18 15.999 -22s15.333 -5 24 -3s15.334 6 20.001 12c12 16.667 12 33.334 0 50.001
c-9.33301 10.667 -21.666 21.667 -36.999 33s-33 21.5 -53 30.5s-42 16.333 -66 22s-49 8.5 -75 8.5c-17.333 0 -37.833 -1.33301 -61.5 -4s-47.834 -7 -72.501 -13s-48.334 -13.667 -71.001 -23s-41.334 -20.333 -56.001 -33v-21
c7.33301 4.66699 16.666 8.83398 27.999 12.501s29.333 5.5 54 5.5c44.667 0 81.334 -11 110.001 -33s43 -56.667 43 -104c0 -13.333 -2.33301 -26.666 -7 -39.999s-10.667 -25.833 -18 -37.5s-16 -22.5 -26 -32.5s-20 -18.333 -30 -25
c17.333 -31.333 42.5 -53.833 75.5 -67.5s67.5 -20.5 103.5 -20.5c26.667 0 52 3.83301 76 11.5s45.667 18.667 65 33s35.833 31.666 49.5 51.999s23.5 43.5 29.5 69.5h27c0 -41.333 -7.5 -82 -22.5 -122z" />
    <glyph glyph-name="uni1785" unicode="&#x1785;" horiz-adv-x="823" 
d="M624 528c-15.333 0 -30.001 3.33105 -44.001 9.99805s-27.333 13.834 -40 21.501l-36.5 21.5c-11.667 6.66699 -22.5 10 -32.5 10h-5c-15.333 -3.33301 -29.333 -12.166 -42 -26.499l-36 -41.5l-23 -1c-17.333 20.667 -37.333 36.667 -60 48s-50 17 -82 17
c-10 0 -20.167 -2.5 -30.5 -7.5s-19.5 -11.333 -27.5 -19s-14.5 -16.167 -19.5 -25.5s-7.5 -18.666 -7.5 -27.999c8.66699 4.66699 19.5 8.83398 32.5 12.501s30.833 5.5 53.5 5.5c46.667 0 84.5 -11 113.5 -33s43.5 -56.667 43.5 -104c0 -14 -2.33301 -27.5 -7 -40.5
s-10.667 -25.5 -18 -37.5s-16 -22.833 -26 -32.5s-20.333 -17.834 -31 -24.501c18 -28.667 40.833 -49.834 68.5 -63.501s61.834 -20.5 102.501 -20.5c25.333 0 49.333 3.5 72 10.5s42.834 16.833 60.501 29.5s31.667 28.334 42 47.001s15.5 39.334 15.5 62.001
c0 24.667 -9.33301 37 -28 37c-4.66699 0 -10 -1 -16 -3c-12.667 -4.66699 -21 -11 -25 -19s-7.5 -15.667 -10.5 -23s-7.5 -13.833 -13.5 -19.5s-17 -8.5 -33 -8.5c-29.333 0 -52.833 9.5 -70.5 28.5s-26.5 41.167 -26.5 66.5c0 6.66699 0.333008 11.334 1 14.001
c2 16 6.66699 30.5 14 43.5s16.666 24.333 27.999 34s24.166 17 38.499 22s29.5 7.5 45.5 7.5c26 0 49.167 -5.5 69.5 -16.5s37.5 -25 51.5 -42s24.5 -35.833 31.5 -56.5s10.5 -41 10.5 -61c0 -41.333 -8 -81.333 -24 -120s-37.667 -73 -65 -103s-59.666 -54 -96.999 -72
s-77 -27 -119 -27c-38.667 0 -76.667 6.66699 -114 20s-71 31.666 -101 54.999s-54.667 50.5 -74 81.5s-30 63.833 -32 98.5c17.333 0 35.166 1.16699 53.499 3.5s36 6.16602 53 11.499s33 12.666 48 21.999s27.833 21 38.5 35c-6.66699 11.333 -17 18.333 -31 21
s-28.667 4 -44 4c-14 0 -28.667 -4 -44 -12s-27.666 -18.333 -36.999 -31h-37v315c16 3.33301 31.167 9 45.5 17s28.166 17.5 41.499 28.5s26.5 22.667 39.5 35s26.167 24.166 39.5 35.499h20c10 -6.66699 20.833 -14.334 32.5 -23.001s23.5 -16.667 35.5 -24
s23.5 -13.666 34.5 -18.999s21.167 -8.33301 30.5 -9c18 8 37 17.833 57 29.5s40 26.834 60 45.501h18c8.66699 -9.33301 18 -18.5 28 -27.5s20.833 -17.167 32.5 -24.5s24.5 -13.333 38.5 -18s29 -7 45 -7c7.33301 0 15.333 3.5 24 10.5s14.334 14.167 17.001 21.5h10
c0.666992 -3.33301 1 -6.5 1 -9.5v-9.5c0 -18 -2.5 -35.833 -7.5 -53.5s-12.833 -33.5 -23.5 -47.5s-24 -25.333 -40 -34s-34.667 -13 -56 -13z" />
    <glyph glyph-name="uni1786" unicode="&#x1786;" horiz-adv-x="823" 
d="M101 633c16 3.33301 32.3262 8.82812 48.9932 16.4951s32.667 16.5 48 26.5s29.5 20.5 42.5 31.5s23.833 21.833 32.5 32.5h20c21.333 -19.333 44 -36.333 68 -51s45.667 -23 65 -25c18 8 35.833 18 53.5 30s36.5 27.333 56.5 46h18c4.66699 -6.66699 11 -14.667 19 -24
s17.833 -18.333 29.5 -27s24.667 -16.167 39 -22.5s29.833 -9.5 46.5 -9.5c7.33301 0 15.333 2.83301 24 8.5s14.334 12.167 17.001 19.5h20c0.666992 -3.33301 1 -6.5 1 -9.5v-9.5c0 -18 -2.5 -35.833 -7.5 -53.5s-12.833 -33.5 -23.5 -47.5s-24 -25.333 -40 -34
s-34.667 -13 -56 -13c-15.333 0 -29.833 3 -43.5 9s-26.667 12.833 -39 20.5s-24.166 14.5 -35.499 20.5s-22.333 9 -33 9h-5c-18 -2.66699 -33 -10.667 -45 -24s-21.333 -27.333 -28 -42h-20c-11.333 18.667 -29.166 34.334 -53.499 47.001s-53.166 19 -86.499 19h-10
c-10 -0.666992 -20.5 -3.16699 -31.5 -7.5s-20.833 -9.83301 -29.5 -16.5s-15.834 -14.167 -21.501 -22.5s-8.5 -16.5 -8.5 -24.5c15.333 8 30.666 13.333 45.999 16s31 4 47 4c28 0 54.167 -5 78.5 -15s43.166 -28.667 56.499 -56v-155h83
c0 -8.66699 1.16699 -20.5 3.5 -35.5s7 -29.667 14 -44s17 -26.666 30 -36.999s30.167 -15.5 51.5 -15.5c32 0 58.667 12 80 36s32 58 32 102c0 14 -4.83301 25.333 -14.5 34s-20.834 13 -33.501 13c-3.33301 0 -7.66602 -0.666992 -12.999 -2
c-12 -4.66699 -20.167 -9.66699 -24.5 -15s-8.16602 -10.666 -11.499 -15.999s-8 -10.166 -14 -14.499s-16.667 -7.5 -32 -9.5c-2 0 -3.83301 -0.166992 -5.5 -0.5s-3.5 -0.5 -5.5 -0.5c-13.333 0 -25.166 3 -35.499 9s-19.166 13.5 -26.499 22.5s-13 18.833 -17 29.5
s-6 21 -6 31v5c0 17.333 3.66699 32.5 11 45.5s17 23.833 29 32.5s25.667 15.334 41 20.001s31 7 47 7c26 0 49.333 -5.5 70 -16.5s38.167 -25 52.5 -42s25.166 -36 32.499 -57s11 -41.5 11 -61.5c0 -4 0.166992 -8 0.5 -12s0.5 -8.33301 0.5 -13c0 -38 -3 -74.667 -9 -110
s-16.333 -66.666 -31 -93.999s-33.667 -49.333 -57 -66s-52.666 -25 -87.999 -25c-14 0 -28.333 2.5 -43 7.5s-28.167 12.167 -40.5 21.5s-22.5 20.666 -30.5 33.999s-12 28.333 -12 45v108h-38v-117c0 -16 -3.33301 -30.333 -10 -43s-15 -23.167 -25 -31.5
s-21.167 -14.666 -33.5 -18.999s-24.166 -6.5 -35.499 -6.5c-19.333 0 -38.333 4.16699 -57 12.5s-35.5 19 -50.5 32s-27 27.667 -36 44s-13.5 32.833 -13.5 49.5v81c0 16 3.33301 29.167 10 39.5s14.834 18.666 24.501 24.999s20.334 10.833 32.001 13.5s22.5 4 32.5 4h89
c0 4.66699 -1.66699 9.83398 -5 15.501s-8.16602 11.167 -14.499 16.5s-14.333 9.83301 -24 13.5s-20.834 5.5 -33.501 5.5c-21.333 0 -38.833 -2.83301 -52.5 -8.5s-21.167 -12.834 -22.5 -21.501h-36v312zM285.993 215.995c-1.33301 0.666992 -3.66602 1 -6.99902 1
c-13.333 0 -23.5 -5.16699 -30.5 -15.5s-10.5 -22.833 -10.5 -37.5c0 -16 3.66699 -30.667 11 -44s19.666 -20 36.999 -20v116z" />
    <glyph glyph-name="uni1787" unicode="&#x1787;" horiz-adv-x="800" 
d="M680.5 231c-13 -44.667 -32.1641 -84.1621 -57.4971 -118.495s-56.333 -62 -93 -83s-78.667 -31.5 -126 -31.5c-36.667 0 -71.334 6.66699 -104.001 20s-62.167 31.333 -88.5 54s-49 49.167 -68 79.5s-33.167 62.166 -42.5 95.499c5.33301 0 14 1.16699 26 3.5
s25.667 5.66602 41 9.99902s31 9.16602 47 14.499s30.5 11.166 43.5 17.499s23.333 12.833 31 19.5s10.834 13.334 9.50098 20.001c-2.66699 7.33301 -11.334 14 -26.001 20s-31 9 -49 9c-16 1.33301 -31.167 -0.333984 -45.5 -5.00098s-26.166 -13.667 -35.499 -27h-42v305
c12.667 0 28 3.83301 46 11.5s36.5 17 55.5 28s37 22.5 54 34.5s31.167 22.667 42.5 32h27c9.33301 -7.33301 23 -17.333 41 -30s38.5 -25.167 61.5 -37.5s47.167 -23 72.5 -32s50 -13.5 74 -13.5c5.33301 0 11.166 0.666992 17.499 2s12.333 3.5 18 6.5
s10.5 6.66699 14.5 11s6.33301 9.5 7 15.5c0.666992 8.66699 -0.333008 17.167 -3 25.5s-10.334 13.166 -23.001 14.499c-9.33301 -8 -18.666 -13 -27.999 -15s-20 -2.33301 -32 -1c-8 0.666992 -15.667 3.33398 -23 8.00098s-13.833 10.5 -19.5 17.5
s-10.167 14.667 -13.5 23s-5 17.166 -5 26.499c0 24.667 8 45.834 24 63.501s36.333 26.5 61 26.5c19.333 0 37 -3.33301 53 -10s29.833 -15.5 41.5 -26.5s20.667 -24 27 -39s9.5 -30.5 9.5 -46.5c0 -38 -7 -71.5 -21 -100.5s-32.667 -53.333 -56 -73
s-50 -34.334 -80 -44.001s-60.667 -13.5 -92 -11.5c-12.667 0.666992 -27.167 4.66699 -43.5 12l-53 24.5c-19 9 -38.833 17.167 -59.5 24.5s-41.667 11 -63 11c-19.333 0 -35.333 -2 -48 -6s-22.5 -9.16699 -29.5 -15.5s-11.833 -13.333 -14.5 -21
s-3.66699 -14.834 -3 -21.501c16 6.66699 30.667 11.334 44 14.001s29.666 4 48.999 4s38.333 -3.16699 57 -9.5s35.167 -15.5 49.5 -27.5s26 -26.667 35 -44s13.5 -37 13.5 -59c0 -31.333 -8 -57.833 -24 -79.5s-37 -42.5 -63 -62.5c12 -25.333 32.667 -45.166 62 -59.499
s63 -21.5 101 -21.5c45.333 0 85.666 16.167 120.999 48.5s62.333 85.166 81 158.499h36c0 -48 -6.5 -94.333 -19.5 -139z" />
    <glyph glyph-name="uni1788" unicode="&#x1788;" horiz-adv-x="1523" 
d="M1301 544c-9.33301 1.33301 -18.3252 3.66992 -26.9922 7.00293s-17 6.83301 -25 10.5l-22.5 10c-7 3 -13.833 4.5 -20.5 4.5c-10.667 0 -19.667 -2.33301 -27 -7s-13.166 -10.334 -17.499 -17.001s-7.5 -14 -9.5 -22s-3 -15.333 -3 -22
c11.333 7.33301 25.666 13 42.999 17s36 6 56 6c26.667 0 50.834 -5.33301 72.501 -16s40.167 -25.334 55.5 -44.001s27.166 -40.167 35.499 -64.5s12.5 -50.5 12.5 -78.5c0 -46 -8 -88.833 -24 -128.5s-38 -74.334 -66 -104.001s-61 -52.834 -99 -69.501s-79 -25 -123 -25
c-14 0 -29.5 1.66699 -46.5 5s-34.167 8.16602 -51.5 14.499s-34.333 14.333 -51 24s-31.667 20.834 -45 33.501c-28.667 -25.333 -62.167 -44.833 -100.5 -58.5s-80.833 -20.5 -127.5 -20.5c-23.333 0 -50.333 6.66699 -81 20s-60.5 29.333 -89.5 48s-55.167 38 -78.5 58
s-39.333 36.667 -48 50c36 44 68.167 88.333 96.5 133s47.166 87.334 56.499 128.001c0.666992 2 1 5 1 9c0 15.333 -7.66699 31.166 -23 47.499s-36 31.333 -62 45s-55.833 25 -89.5 34s-68.834 13.5 -105.501 13.5c-24.667 0 -47.834 -4.83301 -69.501 -14.5
s-40.5 -24.167 -56.5 -43.5c7.33301 1.33301 15.5 3 24.5 5s16.833 3 23.5 3c20 0 40 -2 60 -6s38 -9.66699 54 -17s29 -16.666 39 -27.999s15 -24.333 15 -39v-114c-4 -2 -14.333 -5.33301 -31 -10s-34.167 -11.834 -52.5 -21.501s-34.666 -22.167 -48.999 -37.5
s-21.5 -34.333 -21.5 -57c0 -14.667 6.33301 -22 19 -22c8 0 16 3.83301 24 11.5s12 18.834 12 33.501v6c8 4.66699 15.667 7.83398 23 9.50098s14.666 2.5 21.999 2.5c12.667 0 24.334 -2.83301 35.001 -8.5s19.667 -13 27 -22s13.166 -19.333 17.499 -31
s6.5 -23.5 6.5 -35.5v-5c-3.33301 -48 -18.166 -84.167 -44.499 -108.5s-62.5 -36.5 -108.5 -36.5c-24 0 -44.833 5.16699 -62.5 15.5s-32.167 24 -43.5 41s-19.833 36.167 -25.5 57.5s-8.5 43 -8.5 65v14c2 20.667 8.33301 40.334 19 59.001s23.167 35.5 37.5 50.5
s29.5 27.833 45.5 38.5s30 18.334 42 23.001c-9.33301 13.333 -19 21.333 -29 24s-19.667 4 -29 4c-2 0 -5.33301 -0.666992 -10 -2s-9.33398 -3 -14.001 -5s-8.66699 -4.5 -12 -7.5s-5 -6.5 -5 -10.5h-40v267c25.333 8 49 16.833 71 26.5l64.5 29.5
c21 10 42.167 19.5 63.5 28.5s44.333 16.833 69 23.5c36 -2 69 -8.83301 99 -20.5s58.167 -25.5 84.5 -41.5s51.333 -33.333 75 -52s47.167 -36 70.5 -52l-156 -284c13.333 -15.333 28.333 -30 45 -44s35 -26.333 55 -37s41.833 -19.167 65.5 -25.5s48.834 -9.5 75.501 -9.5
c17.333 0 35.666 3 54.999 9s37.5 14.667 54.5 26s31 24.833 42 40.5s16.5 33.5 16.5 53.5c0 12.667 -4 23.167 -12 31.5s-17.833 15 -29.5 20s-24.167 8.5 -37.5 10.5s-25 3 -35 3c-8 0 -16.667 -0.666992 -26 -2s-18.5 -3.16602 -27.5 -5.49902s-17.167 -5.33301 -24.5 -9
s-12.666 -7.83398 -15.999 -12.501h-30v294c7.33301 0.666992 16.333 3.66699 27 9s21.834 12.5 33.501 21.5s23.167 19.833 34.5 32.5s21.666 27 30.999 43h22c14.667 -20 30.334 -35.833 47.001 -47.5s39.667 -17.5 69 -17.5c10.667 0 20.167 3.83301 28.5 11.5
s14.166 14.167 17.499 19.5h8c1.33301 0 2.33301 -0.166992 3 -0.5s1.66699 -0.5 3 -0.5h3c0 -18.667 -3 -37.5 -9 -56.5s-14.167 -36.333 -24.5 -52s-23 -28.334 -38 -38.001s-31.5 -14.5 -49.5 -14.5h-10c-10 1.33301 -19.167 3.66602 -27.5 6.99902
s-16.333 6.83301 -24 10.5s-15 7 -22 10s-13.833 4.5 -20.5 4.5c-22 0 -37 -7.33301 -45 -22s-12 -30 -12 -46l15.5 8c5 2.66699 10.5 5.16699 16.5 7.5s13.167 4.16602 21.5 5.49902s18.5 2 30.5 2c59.333 0 104.333 -16.167 135 -48.5s46 -81.166 46 -146.499
c0 -3.33301 -0.166992 -6.83301 -0.5 -10.5s-0.5 -7.16699 -0.5 -10.5c-0.666992 -14.667 -2.5 -28.667 -5.5 -42s-6.83301 -26.333 -11.5 -39c25.333 -25.333 53.666 -41.5 84.999 -48.5s64 -10.5 98 -10.5c15.333 0 32.5 2.33301 51.5 7s37 11.834 54 21.501
s31.333 22.167 43 37.5s17.5 34 17.5 56c-0.666992 11.333 -4.33398 21.166 -11.001 29.499s-15 15.5 -25 21.5s-21.5 10.833 -34.5 14.5s-26.167 5.83398 -39.5 6.50098c-9.33301 0 -19.333 -0.666992 -30 -2s-21 -3.16602 -31 -5.49902s-19.167 -5.33301 -27.5 -9
s-14.833 -7.83398 -19.5 -12.501h-29v294c7.33301 0 16.166 2.5 26.499 7.5s21.166 12.167 32.499 21.5s22.5 20.5 33.5 33.5s21.167 27.5 30.5 43.5h23c15.333 -22.667 31 -39.167 47 -49.5s38.667 -15.5 68 -15.5c11.333 0 21.166 3.66699 29.499 11
s14.166 13.666 17.499 18.999h16c0 -18.667 -3 -37.5 -9 -56.5s-14.167 -36.333 -24.5 -52s-22.833 -28.334 -37.5 -38.001s-31 -14.5 -49 -14.5h-10z" />
    <glyph glyph-name="uni1789" unicode="&#x1789;" horiz-adv-x="1199" 
d="M692 277c-8.66699 -1.33301 -15.833 -4.66797 -21.5 -10.001s-8.5 -11.666 -8.5 -18.999c0 -22.667 10 -38.667 30 -48v77zM1038 -0.00195312l-14 0.00195312c-11.333 23.333 -26.666 44 -45.999 62l-56.5 51c-18.333 16 -34.333 31.667 -48 47s-20.5 32 -20.5 50
c0 14 4.66699 25.5 14 34.5s20.666 16.5 33.999 22.5s27 11.167 41 15.5s26 8.5 36 12.5c23.333 9.33301 43.666 22.166 60.999 38.499s26 38.166 26 65.499c0 17.333 -4.16699 36.666 -12.5 57.999s-20.833 41.666 -37.5 60.999s-37.667 35.666 -63 48.999
s-55.333 20.666 -90 21.999c-6.66699 0 -16.334 -1.66699 -29.001 -5s-25.334 -8.5 -38.001 -15.5s-23.667 -15.5 -33 -25.5s-14 -21.667 -14 -35v-438c-6 -11.333 -13.167 -21.166 -21.5 -29.499s-16.5 -15.5 -24.5 -21.5s-15.5 -10.5 -22.5 -13.5
s-12.5 -4.83301 -16.5 -5.5h-14c-10.667 23.333 -25.667 44 -45 62l-57 51c-18.667 16 -34.834 31.667 -48.501 47s-20.5 32 -20.5 50c0 14 4.66699 25.5 14 34.5s20.666 16.5 33.999 22.5s27 11.167 41 15.5s25.333 8.5 34 12.5c24 9.33301 45 22.333 63 39
s27 38.667 27 66c0 16.667 -3.16699 34.5 -9.5 53.5s-15.833 36.5 -28.5 52.5s-28.334 29.333 -47.001 40s-40.334 16 -65.001 16c-8.66699 0 -18.667 -2.16699 -30 -6.5s-22.666 -9.5 -33.999 -15.5s-21.833 -12.5 -31.5 -19.5s-16.834 -13.167 -21.501 -18.5
c-2 -2.66699 -5.66699 -4 -11 -4c-6.66699 0 -11 1.33301 -13 4c-4 5.33301 -9.66699 11.166 -17 17.499s-15.5 12.166 -24.5 17.499s-18.5 10 -28.5 14s-20 6 -30 6c-26 0 -47.667 -6.33301 -65 -19s-31.166 -28.5 -41.499 -47.5s-17.666 -39.833 -21.999 -62.5
s-6.5 -44 -6.5 -64s2.66699 -39.833 8 -59.5s12.833 -37.667 22.5 -54s21.167 -30.166 34.5 -41.499s27.666 -18.333 42.999 -21c2.66699 -0.666992 5.33398 -1 8.00098 -1h8c19.333 0 36.5 4.83301 51.5 14.5s22.5 23.167 22.5 40.5c0 6 -1.66699 13.333 -5 22
c-3.33301 4 -7.66602 7 -12.999 9s-11 3 -17 3c-8 0 -16 -2.16699 -24 -6.5s-14 -12.166 -18 -23.499c-3.33301 -0.666992 -6.33301 -1.16699 -9 -1.5s-5.66699 -0.5 -9 -0.5c-12.667 0 -24 3 -34 9s-18.333 14 -25 24s-11.667 21.333 -15 34s-5 26 -5 40
c0 28.667 9.66699 51.667 29 69s42 26 68 26c2 0 3.83301 -0.166992 5.5 -0.5s3.16699 -0.5 4.5 -0.5c22.667 -1.33301 40.834 -8.66602 54.501 -21.999s24.334 -29.166 32.001 -47.499s13.167 -37.666 16.5 -57.999s5.66602 -38.166 6.99902 -53.499v-15
c0 -28.667 -3.16699 -57.667 -9.5 -87s-15.5 -56 -27.5 -80s-26.833 -43.5 -44.5 -58.5s-37.834 -22.5 -60.501 -22.5c-24 0 -44.667 6.83301 -62 20.5s-32.166 31.5 -44.499 53.5s-22.166 46.667 -29.499 74s-13.166 55 -17.499 83s-7.16602 54.667 -8.49902 80
s-2 47 -2 65c0 76 16 145.833 48 209.5s81 115.834 147 156.501h27l60 -41c19.333 -13.333 43 -24.666 71 -33.999c19.333 5.33301 37.666 14.166 54.999 26.499l66 48.5h26c8 -8 18.167 -16.833 30.5 -26.5s25 -19 38 -28s25.5 -17 37.5 -24s22 -12.167 30 -15.5
c32 12 63.333 26.5 94 43.5s57.334 33.833 80.001 50.5h24c8 -6 21.167 -15 39.5 -27l57 -36c19.667 -12 38.167 -22.667 55.5 -32s29.333 -14.333 36 -15v-563c-6.66699 -10.667 -14 -20.334 -22 -29.001s-16 -15.834 -24 -21.501s-15.333 -10.167 -22 -13.5
s-12 -5.33301 -16 -6zM1119 -197c-2 -27.333 -9.66699 -56.8311 -23 -88.498s-32.5 -61.167 -57.5 -88.5s-55.833 -50.166 -92.5 -68.499s-79.667 -27.5 -129 -27.5c-54.667 0 -102 7.66699 -142 23s-75.167 34.666 -105.5 57.999s-57.166 48.5 -80.499 75.5l-67.5 75.5
c-21.667 23.333 -43.834 42.666 -66.501 57.999s-48.667 23 -78 23c-15.333 0 -32 -1.33301 -50 -4s-37.667 -7.66699 -59 -15c-4.66699 0 -9.33398 5 -14.001 15c10 10 22.333 20.333 37 31s31.167 20.667 49.5 30s38.166 17 59.499 23s43.666 9 66.999 9
c31.333 0 60.833 -6.5 88.5 -19.5s54.5 -29.333 80.5 -49s51.833 -40.834 77.5 -63.501s52 -44 79 -64s55 -37 84 -51s60.5 -21.667 94.5 -23h9c24.667 0 47.5 3 68.5 9s39.333 14.333 55 25s27.834 23.5 36.501 38.5s13 31.833 13 50.5c0 12 -2 25 -6 39
c-7.33301 -16 -18 -28 -32 -36s-29 -12 -45 -12c-12 0 -23.333 2 -34 6s-20.167 10 -28.5 18s-15 17.667 -20 29s-7.5 24 -7.5 38v6c0 14.667 3.5 27.5 10.5 38.5s15.833 20.167 26.5 27.5s22.834 12.833 36.501 16.5s26.834 5.5 39.501 5.5
c38.667 -1.33301 69.5 -14 92.5 -38s34.5 -57 34.5 -99v-10.5c0 -3.66699 -0.333008 -7.16699 -1 -10.5zM1067 279.002c-8.66699 -1.33301 -15.833 -4.66797 -21.5 -10.001s-8.5 -11.666 -8.5 -18.999c0 -22.667 10 -38.667 30 -48v77z" />
    <glyph glyph-name="uni178A" unicode="&#x178a;" horiz-adv-x="800" 
d="M688.5 119.5c-7 -21.667 -17 -41.3311 -30 -58.998s-28.667 -32.167 -47 -43.5s-38.5 -17 -60.5 -17c-12.667 0 -24.834 2.5 -36.501 7.5s-22.834 11.333 -33.501 19s-20.834 16 -30.501 25l-26.5 25.5l-38 -31c-12 -9.33301 -24.333 -17.333 -37 -24
s-25.834 -12 -39.501 -16s-29.167 -6 -46.5 -6c-19.333 0 -38.666 5 -57.999 15s-36.833 22.5 -52.5 37.5s-28.167 31.667 -37.5 50s-14 35.833 -14 52.5v90c18 0 36.667 1.83301 56 5.5s37.833 8.66699 55.5 15s33.334 14.166 47.001 23.499s23.834 19.666 30.501 30.999
c-6 14.667 -16.167 24.834 -30.5 30.501s-29.5 8.16699 -45.5 7.5s-31.333 -3.66699 -46 -9s-25 -12 -31 -20h-36v307c12 0 27.333 3.83301 46 11.5s37.5 17.167 56.5 28.5s36.833 23 53.5 35s29.667 22.667 39 32h30l41.5 -32.5c17.667 -13.667 37.5 -27 59.5 -40
s45.333 -24.333 70 -34s49 -14.5 73 -14.5c10.667 0 20.667 3.16699 30 9.5s14.333 15.166 15 26.499c1.33301 10 0.166016 18.167 -3.50098 24.5s-9 10.666 -16 12.999s-15.333 3.33301 -25 3s-20.167 -1.83301 -31.5 -4.5c-7.33301 -2 -14.333 -1.33301 -21 2
s-12.667 8.33301 -18 15s-9.5 14.5 -12.5 23.5s-4.5 18.167 -4.5 27.5c0 12 2.5 23.5 7.5 34.5s11.667 20.667 20 29s18 14.833 29 19.5s22.833 7 35.5 7c17.333 0 33.5 -3 48.5 -9s27.833 -14.333 38.5 -25s19 -23.5 25 -38.5s9 -31.5 9 -49.5
c0 -36 -6.33301 -69.333 -19 -100s-32.667 -56.667 -60 -78c-22.667 -18 -48.5 -31.833 -77.5 -41.5s-58.167 -14.5 -87.5 -14.5c-13.333 0 -28.166 4 -44.499 12l-53 26.5c-19 9.66699 -38.833 18.5 -59.5 26.5s-42 12 -64 12c-19.333 0 -35 -2.5 -47 -7.5
s-21.5 -11 -28.5 -18s-11.833 -14.333 -14.5 -22s-4 -14.167 -4 -19.5c16.667 6 31.834 11.167 45.501 15.5s28.5 6.5 44.5 6.5c22.667 0 42.834 -4 60.501 -12s32.667 -18.667 45 -32s21.833 -29.166 28.5 -47.499s10 -37.833 10 -58.5c0 -22 -3.16699 -41.5 -9.5 -58.5
s-14.666 -32 -24.999 -45s-22.333 -24.667 -36 -35s-27.834 -19.5 -42.501 -27.5l16 -16.5c4.66699 -5 9.83398 -9.33301 15.501 -13s12.167 -6.5 19.5 -8.5s16.333 -3 27 -3c18 0 35.167 7.16699 51.5 21.5s29.833 36.166 40.5 65.499h33
c7.33301 -28 19.666 -48.167 36.999 -60.5s35.666 -18.166 54.999 -17.499c14 0 27.167 4.83301 39.5 14.5s23 22 32 37s16.167 32 21.5 51s8 38.167 8 57.5v60h45v-216c0 -21.333 -3.5 -42.833 -10.5 -64.5z" />
    <glyph glyph-name="uni178B" unicode="&#x178b;" horiz-adv-x="880" 
d="M794 783c2 -16.667 2.99805 -33.3291 2.99805 -49.9961c0 -28.667 -2.83301 -54.834 -8.5 -78.501s-13.834 -44 -24.501 -61s-23.5 -30.333 -38.5 -40s-31.833 -14.5 -50.5 -14.5c-2 0 -4 0.166992 -6 0.5s-4.33301 0.5 -7 0.5c-10 1.33301 -19.833 3.83301 -29.5 7.5
s-19.167 7.5 -28.5 11.5l-26.5 11c-8.33301 3.33301 -16.166 5 -23.499 5c-10.667 0 -19.667 -2.16699 -27 -6.5s-13.333 -9.83301 -18 -16.5s-7.83398 -14 -9.50098 -22s-2.5 -15.667 -2.5 -23c13.333 6.66699 29.166 11.834 47.499 15.501s35.166 5.5 50.499 5.5
c6.66699 0 11.334 -0.333008 14.001 -1c28 -1.33301 53.5 -6.5 76.5 -15.5s43 -22 60 -39s30.333 -37.667 40 -62s14.834 -52.5 15.501 -84.5c0 -58.667 -10.833 -108.667 -32.5 -150s-49.167 -75 -82.5 -101s-70.5 -45 -111.5 -57s-81.167 -18 -120.5 -18
c-43.333 0 -84.833 7 -124.5 21s-75.334 32.167 -107.001 54.5s-58.334 47.833 -80.001 76.5s-36.167 57.667 -43.5 87l61 28.5c26 12.333 51.833 27.166 77.5 44.499s47.834 37.5 66.501 60.5s28 48.833 28 77.5c0 16 -1.83301 32 -5.5 48s-9.66699 30.5 -18 43.5
s-19.5 23.5 -33.5 31.5s-31 12 -51 12s-37 -6.66699 -51 -20s-21 -30.333 -21 -51c4 -10.667 10.667 -16 20 -16c7.33301 0 14.833 3.5 22.5 10.5s12.167 15.5 13.5 25.5c4.66699 1.33301 9.16699 2 13.5 2h11.5c27.333 0 47.166 -8.16699 59.499 -24.5
s18.5 -38.833 18.5 -67.5c0 -14 -2.66699 -27.5 -8 -40.5s-12.666 -24.5 -21.999 -34.5s-20.333 -18 -33 -24s-26 -9 -40 -9c-26 0 -46.333 6.5 -61 19.5s-25.667 29.167 -33 48.5s-11.833 40 -13.5 62s-2.5 42.333 -2.5 61c0 26 4.33301 51.667 13 77s20.167 48 34.5 68
s30.833 36.333 49.5 49s38 19 58 19c28.667 0 53.334 -6.5 74.001 -19.5s37.834 -30 51.501 -51s23.667 -44.333 30 -70s9.5 -51.5 9.5 -77.5c0 -14 -1 -28 -3 -42c-4 -38 -17 -76.5 -39 -115.5s-49.667 -71.833 -83 -98.5c20.667 -25.333 47.667 -46.333 81 -63
s71 -27.334 113 -32.001c5.33301 -0.666992 10.5 -1 15.5 -1h15.5c25.333 0 50.5 3 75.5 9s47.167 14.667 66.5 26s35 25.166 47 41.499s18 34.833 18 55.5c0 8.66699 -3 17.167 -9 25.5s-14.833 16 -26.5 23s-25.5 12.667 -41.5 17s-34 6.5 -54 6.5
c-10.667 0 -22.167 -1.33301 -34.5 -4s-23.833 -6 -34.5 -10s-19.5 -8.5 -26.5 -13.5s-10.5 -9.5 -10.5 -13.5h-32v303c8 0.666992 16.833 4.5 26.5 11.5s19.5 15.667 29.5 26s19.667 21.666 29 33.999s17.333 24.166 24 35.499h16h14h3
c4 -5.33301 8.33301 -11.833 13 -19.5s10.334 -15.167 17.001 -22.5s15 -13.666 25 -18.999s22 -8 36 -8c17.333 0 30.333 4.33301 39 13s13.667 19.334 15 32.001v6c0 12.667 -4.33301 24 -13 34s-21.667 15 -39 15c-15.333 0 -32 -4.33301 -50 -13
c-2 -0.666992 -4.66699 -1 -8 -1c-6.66699 0 -13.5 1.83301 -20.5 5.5s-13 8.5 -18 14.5s-9.16699 12.833 -12.5 20.5s-5 15.5 -5 23.5c0 26 7.33301 46.333 22 61s34.667 23.667 60 27h8c16.667 0 32.334 -3.5 47.001 -10.5s27.5 -16.333 38.5 -28
s20.167 -25.334 27.5 -41.001s12 -32.167 14 -49.5z" />
    <glyph glyph-name="uni178C" unicode="&#x178c;" horiz-adv-x="800" 
d="M705 181c0 -30.667 -3.99805 -59.002 -11.998 -85.002s-19.5 -48.667 -34.5 -68s-33.167 -34.666 -54.5 -45.999s-45 -17.666 -71 -18.999h-8c-25.333 0 -51.333 4.33301 -78 13v27c16 1.33301 29.833 5.83301 41.5 13.5s21.334 16.834 29.001 27.501
s13.167 22.5 16.5 35.5s5 25.5 5 37.5c0 4.66699 -0.833008 10.167 -2.5 16.5s-4 12.666 -7 18.999s-6.66699 11.833 -11 16.5s-9.5 7.66699 -15.5 9h-5c-10 0 -19.5 -4.33301 -28.5 -13s-18.5 -19.667 -28.5 -33l-32 -43c-11.333 -15.333 -23.833 -29.666 -37.5 -42.999
s-29 -24.333 -46 -33s-36.167 -13 -57.5 -13c-23.333 0 -45.166 4.33301 -65.499 13s-38 21.5 -53 38.5s-26.833 37.833 -35.5 62.5s-13 53 -13 85v84c0 9.33301 4 18.666 12 27.999s17.333 14 28 14c9.33301 0 20.166 -0.166992 32.499 -0.5s25.833 -0.5 40.5 -0.5
c20.667 0 42.834 0.666992 66.501 2s47.334 3.83301 71.001 7.5s46.167 9.16699 67.5 16.5s40.333 17.166 57 29.499s30 27.5 40 45.5s15 39.667 15 65c0 11.333 -1.5 23.666 -4.5 36.999s-8 25.833 -15 37.5s-16 21.5 -27 29.5s-24.833 12.333 -41.5 13h-3
c-11.333 0 -21.666 -2.66699 -30.999 -8s-17.833 -11.5 -25.5 -18.5s-13.834 -13.833 -18.501 -20.5s-8 -11.667 -10 -15h-19c-2.66699 4.66699 -7.5 10.334 -14.5 17.001s-15.333 12.667 -25 18s-20.334 10 -32.001 14s-22.834 6 -33.501 6
c-19.333 0 -34.666 -5.83301 -45.999 -17.5s-17 -25.834 -17 -42.501c0 -7.33301 1.16699 -15.833 3.5 -25.5s6.33301 -18.834 12 -27.501s13.167 -16 22.5 -22s20.666 -9 33.999 -9s26.166 3.83301 38.499 11.5s18.5 18.167 18.5 31.5c0 4.66699 -1 10 -3 16
c10 7.33301 19.667 12.333 29 15s18.333 4 27 4h8c21.333 -2 38.5 -11.333 51.5 -28s19.5 -34 19.5 -52v-7c-2 -20 -7.66699 -36.667 -17 -50s-20.833 -24 -34.5 -32s-29.167 -13.833 -46.5 -17.5s-35.333 -5.5 -54 -5.5h-12c-20.667 0 -40.834 4.16699 -60.501 12.5
s-37.334 18.5 -53.001 30.5s-28.167 25.167 -37.5 39.5s-14 27.833 -14 40.5v175c6 2 15.167 6.33301 27.5 13s25.833 14.667 40.5 24s29.667 19.666 45 30.999s29 23 41 35h33c8.66699 -10 18 -19.167 28 -27.5s20 -15.833 30 -22.5s19.333 -12.5 28 -17.5
s16 -8.5 22 -10.5c1.33301 -0.666992 3 -1 5 -1c6 0 13.833 2.83301 23.5 8.5s19.667 12.5 30 20.5s20.5 16.5 30.5 25.5s18.667 17.167 26 24.5h32c10.667 -10.667 23.5 -21 38.5 -31s30.167 -19 45.5 -27s29.666 -15.167 42.999 -21.5l32 -15.5v-189
c0 -18.667 -7.5 -36.167 -22.5 -52.5s-34.5 -31.666 -58.5 -45.999s-51.333 -27.166 -82 -38.499s-61.834 -21.166 -93.501 -29.499s-62.167 -15.166 -91.5 -20.499s-55 -8.66602 -77 -9.99902v-33c0 -8 1.16699 -16.167 3.5 -24.5s5.83301 -15.833 10.5 -22.5
s10.667 -12.167 18 -16.5s16.333 -6.5 27 -6.5c9.33301 0 18.333 1.33301 27 4c11.333 3.33301 24 13.666 38 30.999s30 35.5 48 54.5s38.333 36.167 61 51.5s48.334 23 77.001 23h7c18 -0.666992 34 -5 48 -13s25.833 -18.5 35.5 -31.5s16.834 -28 21.501 -45
s7 -34.5 7 -52.5z" />
    <glyph glyph-name="uni178D" unicode="&#x178d;" horiz-adv-x="1246" 
d="M1165 702c0 -18.667 -3.00391 -37.3379 -9.00391 -56.0049s-14.167 -35.667 -24.5 -51s-23 -27.833 -38 -37.5s-31.5 -14.5 -49.5 -14.5h-10c-9.33301 0.666992 -18.166 2.83398 -26.499 6.50098s-16.333 7.5 -24 11.5s-15 7.5 -22 10.5s-14.167 4.5 -21.5 4.5
c-11.333 0 -20.5 -2 -27.5 -6s-12.5 -9.16699 -16.5 -15.5s-6.66699 -13.333 -8 -21s-2 -15.167 -2 -22.5c12 9.33301 25.833 15 41.5 17s30.834 3 45.501 3c33.333 0 61.166 -6 83.499 -18s40.166 -27.667 53.499 -47s22.833 -41.666 28.5 -66.999s8.5 -51 8.5 -77
c0 -40.667 -6.5 -80.334 -19.5 -119.001s-32.333 -73.167 -58 -103.5s-57.334 -54.666 -95.001 -72.999s-81.5 -27.5 -131.5 -27.5c-14.667 0 -30 1 -46 3c6 15.333 11.5 35 16.5 59s7.5 49 7.5 75c0 16 -1.16699 31.833 -3.5 47.5s-6.33301 30.5 -12 44.5
s-13.167 26.833 -22.5 38.5s-21 21.167 -35 28.5v-178c0 -15.333 -3 -29.166 -9 -41.499s-13.5 -23.333 -22.5 -33s-19.167 -18 -30.5 -25s-22.333 -12.5 -33 -16.5c0 -0.666992 -2.66699 -1 -8 -1c-3.33301 0 -5.66602 0.333008 -6.99902 1c0 22 -7 40.5 -21 55.5
s-29.5 29.833 -46.5 44.5s-32.5 30.5 -46.5 47.5s-21 37.833 -21 62.5c0 15.333 4 32 12 50s19.667 34.667 35 50s34 28 56 38s46.667 15 74 15h9c0 18 -3 38.167 -9 60.5s-15.167 43.333 -27.5 63s-27.666 36.334 -45.999 50.001s-40.166 20.5 -65.499 20.5
c-8 0 -17 -1.83301 -27 -5.5s-19.667 -8.33398 -29 -14.001s-18.333 -12 -27 -19s-15.667 -13.5 -21 -19.5c-2 -2.66699 -4.66699 -4 -8 -4s-6 1.33301 -8 4c-5.33301 6.66699 -12.833 13.334 -22.5 20.001s-20.167 12.667 -31.5 18s-22.833 9.66602 -34.5 12.999
s-22.167 5 -31.5 5c-26.667 0 -48.667 -6.5 -66 -19.5s-31.166 -29.333 -41.499 -49s-17.5 -41.334 -21.5 -65.001s-6 -46.167 -6 -67.5c0 -5.33301 0.5 -13.333 1.5 -24s3 -22.667 6 -36s7 -27.166 12 -41.499s11.5 -27.333 19.5 -39s17.667 -21.167 29 -28.5
s24.666 -11 39.999 -11c10 0 20.167 2 30.5 6s19.666 9.16699 27.999 15.5s15.333 13.833 21 22.5s8.5 17.667 8.5 27c0 5.33301 -1 10.333 -3 15c-8 12 -18.667 18 -32 18c-8 0 -15.5 -2.66699 -22.5 -8s-12.833 -13.666 -17.5 -24.999
c-3.33301 -0.666992 -6.83301 -1.16699 -10.5 -1.5s-7.16699 -0.5 -10.5 -0.5c-25.333 0 -43.833 9.5 -55.5 28.5s-17.5 42.167 -17.5 69.5c0 30 8.66699 54.667 26 74s39.333 29 66 29h5c22.667 -1.33301 41.334 -8.66602 56.001 -21.999s26.5 -29.333 35.5 -48
s15.333 -38.334 19 -59.001s5.5 -39 5.5 -55c0 -27.333 -3 -56.333 -9 -87s-15 -59 -27 -85s-26.667 -47.5 -44 -64.5s-37.666 -25.5 -60.999 -25.5c-24 0 -44.667 7.16699 -62 21.5s-32.166 33 -44.499 56s-22.333 49 -30 78s-13.667 58 -18 87
s-7.16602 56.5 -8.49902 82.5s-2 48 -2 66c0 76 16.167 143.833 48.5 203.5s81.5 109.834 147.5 150.501h27c8 -6 16.833 -13 26.5 -21s19.5 -15.667 29.5 -23s20.167 -14.166 30.5 -20.499s20.5 -10.833 30.5 -13.5c19.333 4.66699 37.666 13.834 54.999 27.501l67 50.5h27
c9.33301 -9.33301 21.5 -19.666 36.5 -30.999s30.333 -22 46 -32s30.5 -18.667 44.5 -26s24.667 -11.666 32 -12.999v-287c24 -4.66699 45.833 -13.667 65.5 -27s36.167 -28.5 49.5 -45.5s23.666 -35 30.999 -54s11 -36.833 11 -53.5
c4.66699 -0.666992 9.33398 -1 14.001 -1h13c24 0 45.333 3.66699 64 11s34.5 17 47.5 29s23 26 30 42s10.5 32.667 10.5 50c0 5.33301 -1.83301 12.166 -5.5 20.499s-10.167 16.5 -19.5 24.5s-21.666 14.833 -36.999 20.5s-34.666 8.5 -57.999 8.5
c-18 0 -32.5 -1.33301 -43.5 -4s-19.833 -6 -26.5 -10s-11.834 -8.33301 -15.501 -13s-6.83398 -9 -9.50098 -13h-27v296c7.33301 0.666992 16.333 3.66699 27 9s21.667 12.666 33 21.999s22.5 20.666 33.5 33.999s20.5 28 28.5 44c0 -0.666992 3.33301 -1 10 -1
c7.33301 0 11 0.333008 11 1c14 -21.333 30.167 -38.333 48.5 -51s41.5 -19 69.5 -19c3.33301 0 7.16602 1.16699 11.499 3.5s8.83301 5.16602 13.5 8.49902s8.83398 6.83301 12.501 10.5s6.16699 6.5 7.5 8.5c2.66699 0 6.16699 -0.333008 10.5 -1s6.5 -1.66699 6.5 -3z
M688.996 294.996c-9.33301 0 -18.832 -3 -28.499 -9s-15.167 -16.333 -16.5 -31v-3c0 -10.667 5.16699 -20.5 15.5 -29.5s20.166 -14.167 29.499 -15.5v88z" />
    <glyph glyph-name="uni178E" unicode="&#x178e;" horiz-adv-x="1451" 
d="M1298 352v42.9961c0 9.33301 -0.166992 18 -0.5 26s-1.16602 13.667 -2.49902 17c-10 22.667 -26 43.167 -48 61.5s-46 33.833 -72 46.5s-51.833 22.5 -77.5 29.5s-47.5 10.5 -65.5 10.5c-24 0 -47.5 -1.5 -70.5 -4.5s-44.333 -7.33301 -64 -13
s-36.667 -12.167 -51 -19.5s-24.833 -15 -31.5 -23c4 0.666992 7.83301 1 11.5 1h11.5c28 0 53.5 -5.16699 76.5 -15.5s43 -25 60 -44s30.167 -41.833 39.5 -68.5s14 -56 14 -88c0 -26 -3.33301 -56.833 -10 -92.5s-16.834 -69.667 -30.501 -102s-31 -59.833 -52 -82.5
s-46.167 -34 -75.5 -34c-12 0 -25 3.33301 -39 10s-27.667 15.167 -41 25.5s-25.666 22.166 -36.999 35.499s-20.333 27 -27 41c-20 -30 -41.333 -55.333 -64 -76s-44.667 -32 -66 -34h-9c-28 0 -52.833 11 -74.5 33s-40 49 -55 81s-26.333 65.667 -34 101
s-11.5 66.333 -11.5 93c0 32 4.33301 61 13 87s21 48.5 37 67.5s35.333 33.667 58 44s47.667 15.5 75 15.5h11c4 0 8 -0.333008 12 -1c-8 10 -21.5 19.667 -40.5 29s-40.167 17.5 -63.5 24.5s-47.666 12.5 -72.999 16.5s-48.666 6 -69.999 6h-10h-8
c-18 0 -36.833 -2.16699 -56.5 -6.5s-38.5 -9.83301 -56.5 -16.5s-34.333 -14 -49 -22s-26.334 -16 -35.001 -24c6.66699 3.33301 14 5.66602 22 6.99902s15.667 2 23 2c26 -0.666992 50.167 -3.66699 72.5 -9s41.666 -13.5 57.999 -24.5s29.333 -25 39 -42
s14.5 -37.833 14.5 -62.5c0 -17.333 -4 -33 -12 -47s-17.833 -26.833 -29.5 -38.5s-24.334 -22.334 -38.001 -32.001l-38 -27.5c-11.667 -8.66699 -21.5 -17.167 -29.5 -25.5s-12 -16.5 -12 -24.5c0 -9.33301 3.33301 -17 10 -23s14 -9 22 -9
c9.33301 0 17.666 3.83301 24.999 11.5s11 20.834 11 39.501v8c11.333 4 22 6 32 6c24.667 0 44.5 -9.83301 59.5 -29.5s22.5 -43.167 22.5 -70.5c0 -24 -4 -44.5 -12 -61.5s-18.833 -31.167 -32.5 -42.5s-29.167 -19.666 -46.5 -24.999s-35.333 -8 -54 -8h-13
c-22.667 2.66699 -42.5 8.66699 -59.5 18s-31.333 21.166 -43 35.499s-20.5 30.333 -26.5 48s-9 35.834 -9 54.501c0 10.667 1 21.334 3 32.001c2.66699 18 9.5 35 20.5 51s23.667 30.333 38 43s29.166 23.667 44.499 33s29 16.333 41 21
c-3.33301 7.33301 -7.66602 13 -12.999 17s-10.833 7.16699 -16.5 9.5s-11.167 3.83301 -16.5 4.5s-10 1 -14 1c-2.66699 0 -6.33398 -0.833008 -11.001 -2.5s-9.5 -3.66699 -14.5 -6s-9.33301 -5.16602 -13 -8.49902s-5.5 -7 -5.5 -11
c0 -0.666992 0.166992 -1.33398 0.5 -2.00098s0.5 -1.33398 0.5 -2.00098h-45v297c16.667 2.66699 35.5 9.83398 56.5 21.501l68 36.5c24.333 12.667 50.333 24 78 34s56.834 15 87.501 15c26.667 0 52.834 -4.66699 78.501 -14s50.5 -20 74.5 -32l68.5 -35.5
c21.667 -11.667 41.5 -20.167 59.5 -25.5l-1 -297h-20h-15c-6.66699 11.333 -16.167 19.5 -28.5 24.5s-25.166 7.5 -38.499 7.5c-21.333 0 -40 -6.5 -56 -19.5s-24 -32.167 -24 -57.5c0 -20 2.83301 -37.167 8.5 -51.5s13.334 -26 23.001 -35s20.667 -15.667 33 -20
s25.5 -6.5 39.5 -6.5s27.667 2.16699 41 6.5s25.166 10.5 35.499 18.5s19 17.5 26 28.5s10.833 23.5 11.5 37.5h29c2.66699 -18 7.66699 -32.833 15 -44.5s15.833 -21 25.5 -28s20.167 -11.833 31.5 -14.5s22.333 -4 33 -4c14 0 27.5 3 40.5 9s24.667 14.333 35 25
s18.666 23.334 24.999 38.001s9.5 31 9.5 49c0 12 -2.5 22.667 -7.5 32s-11.667 17 -20 23s-17.5 10.5 -27.5 13.5s-20 4.5 -30 4.5c-14.667 0 -28.667 -3.16699 -42 -9.5s-23.333 -15.166 -30 -26.499h-33v297c18 2.66699 39.167 9.66699 63.5 21l74 36
c25 12.667 49.167 24 72.5 34s43 15 59 15h41c24.667 0 50.5 -5.16699 77.5 -15.5s53.333 -21.833 79 -34.5l71 -36c21.667 -11.333 39.5 -18.333 53.5 -21v-569c-6 -12 -13 -21.833 -21 -29.5s-16 -14 -24 -19s-15.667 -8.5 -23 -10.5s-13 -3.33301 -17 -4h-14
c-10.667 23.333 -25.5 43.5 -44.5 60.5s-37.667 32.667 -56 47s-34.333 28.833 -48 43.5s-20.5 31.334 -20.5 50.001c0 14 4.66699 25.667 14 35s20.5 17.333 33.5 24s26.5 12.5 40.5 17.5s26 9.5 36 13.5c16.667 7.33301 33.5 16.333 50.5 27s30.167 21.334 39.5 32.001z
M1289 271.996c-8 -2.66699 -15 -6.33301 -21 -11s-9 -11.667 -9 -21c0 -20.667 10 -35.667 30 -45v77z" />
    <glyph glyph-name="uni178F" unicode="&#x178f;" horiz-adv-x="826" 
d="M658 319c-25.333 4 -50.333 9.49609 -75 16.4961l-74.5 21c-25 7 -50.167 13 -75.5 18s-51.333 7.5 -78 7.5c-25.333 0 -48.833 -2 -70.5 -6s-40.5 -11.167 -56.5 -21.5s-28.833 -24.166 -38.5 -41.499s-14.834 -39.666 -15.501 -66.999c0 -14 3.33301 -27.167 10 -39.5
s15.167 -23.166 25.5 -32.499s22 -16.666 35 -21.999s25.5 -8 37.5 -8c22.667 0 44.334 5.16699 65.001 15.5s35 25.5 43 45.5c2.66699 2.66699 4 6.66699 4 12c0 6 -2 11.833 -6 17.5s-10.667 8.5 -20 8.5c-6.66699 0 -13.334 -1.66699 -20.001 -5
c-5.33301 -2 -9.16602 -5.33301 -11.499 -10s-5 -9.5 -8 -14.5s-6.83301 -9.83301 -11.5 -14.5s-12 -8 -22 -10c-10 -3.33301 -19 -5 -27 -5c-20 0 -36.167 7.5 -48.5 22.5s-18.5 33.5 -18.5 55.5c0 10 2 20.5 6 31.5s10.5 21 19.5 30s20.5 16.5 34.5 22.5s31 9 51 9
c23.333 0 43.333 -4.16699 60 -12.5s30.334 -19.166 41.001 -32.499s18.5 -28.833 23.5 -46.5s7.5 -35.5 7.5 -53.5c0 -22 -4 -45.333 -12 -70s-19 -47.334 -33 -68.001s-30.833 -37.834 -50.5 -51.501s-41.167 -20.5 -64.5 -20.5c-22.667 0 -45 5.5 -67 16.5
s-41.667 27.833 -59 50.5s-31.333 51.167 -42 85.5s-16 74.5 -16 120.5c0 44.667 7.83301 81.667 23.5 111s35.167 53.333 58.5 72c-10.667 12.667 -22.667 19 -36 19c-12 0 -27 -2.66699 -45 -8v168c14.667 2.66699 30.167 7.83398 46.5 15.501s32.833 16.5 49.5 26.5
s33.167 20.833 49.5 32.5l46.5 33.5h18c29.333 -22.667 53.833 -40.5 73.5 -53.5s39.167 -20.5 58.5 -22.5c19.333 7.33301 38.833 17.333 58.5 30s38.5 28 56.5 46h18l30 -28.5c10 -9.66699 20.667 -18.334 32 -26.001s23 -14 35 -19s25 -7.5 39 -7.5
c7.33301 0 16.5 4 27.5 12s18.167 15.667 21.5 23h13c0.666992 -3.33301 1 -6.5 1 -9.5v-9.5c0 -18 -2.5 -36 -7.5 -54s-12.833 -34.167 -23.5 -48.5s-24 -26 -40 -35s-34.667 -13.5 -56 -13.5c-15.333 0 -30.5 3.83301 -45.5 11.5s-29.333 16.334 -43 26.001
s-26.667 18.334 -39 26.001s-23.5 11.5 -33.5 11.5h-4c-8 -2.66699 -16 -7 -24 -13s-16 -12.833 -24 -20.5l-23.5 -22.5c-7.66699 -7.33301 -14.834 -13.666 -21.501 -18.999c-0.666992 -0.666992 -2.66699 -1 -6 -1c-2 0 -4 0.166992 -6 0.5s-3.66699 0.5 -5 0.5l-31 24.5
c-11.333 9 -23.666 17.333 -36.999 25s-27.5 14.167 -42.5 19.5s-30.5 8 -46.5 8c-6.66699 0 -13.334 -0.666992 -20.001 -2s-13 -4.33301 -19 -9h6c8.66699 0 18.667 -1.33301 30 -4s22.833 -7.33398 34.5 -14.001s22.5 -15.167 32.5 -25.5s17.667 -23.166 23 -38.499
c18 4 34.667 6.83301 50 8.5s28 2.5 38 2.5h17c2.66699 0 5 -0.333008 7 -1c0 -0.666992 -1.66699 -1 -5 -1c27.333 -0.666992 53.833 -3.83398 79.5 -9.50098s51.167 -11.834 76.5 -18.501s50.5 -12.667 75.5 -18s50.5 -8 76.5 -8h8v-172l1 -232
c-6 -12 -13 -21.833 -21 -29.5s-16 -14 -24 -19s-15.667 -8.5 -23 -10.5s-13 -3.33301 -17 -4h-14c-10.667 23.333 -25.5 43.5 -44.5 60.5s-37.667 32.667 -56 47s-34.333 28.833 -48 43.5s-20.5 31.334 -20.5 50.001c0 14 4.66699 25.5 14 34.5s20.5 16.667 33.5 23
s26.5 11.666 40.5 15.999s26 8.5 36 12.5c8 3.33301 15.667 6 23 8s14 4 20 6s11.667 4.33301 17 7s10.333 6.66699 15 12zM664 268.996c-8 -2.66699 -15 -6.33301 -21 -11s-9 -11.667 -9 -21c0 -20.667 10 -35.667 30 -45v77z" />
    <glyph glyph-name="uni1790" unicode="&#x1790;" horiz-adv-x="809" 
d="M708 292c0 -44.667 -8.50195 -85 -25.502 -121s-39.167 -66.833 -66.5 -92.5s-58.833 -45.334 -94.5 -59.001s-71.834 -20.5 -108.501 -20.5c-35.333 0 -70.166 6.16699 -104.499 18.5s-65.666 29.333 -93.999 51s-52.666 47.334 -72.999 77.001
s-33.833 61.834 -40.5 96.501c6.66699 0 17.5 1.5 32.5 4.5s31.5 7.66699 49.5 14s36.333 14.666 55 24.999s35 22.833 49 37.5c-1.33301 6 -5 11 -11 15s-13 7.33301 -21 10s-16.167 4.66699 -24.5 6s-15.5 2 -21.5 2c-13.333 0 -27 -2.33301 -41 -7s-24 -11.667 -30 -21
h-38v307c12.667 0 28.334 4.16699 47.001 12.5s37.667 18.166 57 29.499s37.5 23.166 54.5 35.499s30.5 22.5 40.5 30.5h27c10.667 -8 25 -18.167 43 -30.5s38.333 -24.166 61 -35.499s46.334 -21.166 71.001 -29.499s48.667 -12.5 72 -12.5
c11.333 0 20.666 2.16699 27.999 6.5s11.666 12.166 12.999 23.499c2 20.667 -4.66699 33.167 -20 37.5s-34.333 3.83301 -57 -1.5c-7.33301 -2 -14.5 -1.33301 -21.5 2s-13.167 8.33301 -18.5 15s-9.5 14.5 -12.5 23.5s-4.5 18.167 -4.5 27.5c0 12 2.5 23.5 7.5 34.5
s11.833 20.667 20.5 29s18.667 14.833 30 19.5s23 7 35 7c40.667 0 71.167 -11.333 91.5 -34s30.5 -52 30.5 -88s-7.16699 -68.333 -21.5 -97s-35.166 -53.334 -62.499 -74.001c-22.667 -18 -48 -33 -76 -45s-56.667 -18 -86 -18c-12.667 0 -27.167 3.66699 -43.5 11
l-52 23.5c-18.333 8.33301 -37.833 16.166 -58.5 23.499s-41.334 11 -62.001 11c-20 0 -36.333 -2.5 -49 -7.5s-22.5 -11 -29.5 -18s-11.667 -14.333 -14 -22s-3.5 -14.167 -3.5 -19.5c16.667 6.66699 31.334 11.834 44.001 15.501s28 5.5 46 5.5
c20 0 39.167 -3.5 57.5 -10.5s34.333 -16.667 48 -29s24.5 -26.666 32.5 -42.999s12 -33.833 12 -52.5c0 -15.333 -2.5 -29.833 -7.5 -43.5s-11.333 -26.667 -19 -39s-16.5 -23.666 -26.5 -33.999s-20 -19.5 -30 -27.5c10 -22 29.333 -41 58 -57s66.334 -24 113.001 -24
c22.667 0 45.167 2.33301 67.5 7s42.166 11.834 59.499 21.501s31.5 22 42.5 37s16.5 32.5 16.5 52.5c0 13.333 -2.16699 23.5 -6.5 30.5s-14.166 10.5 -29.499 10.5c-6 0 -11.167 -3 -15.5 -9l-15.5 -20.5c-6 -7.66699 -13.833 -14.5 -23.5 -20.5s-22.834 -9 -39.501 -9
c-28 0 -50.833 8.33301 -68.5 25s-26.5 43 -26.5 79c0 18.667 4 34.834 12 48.501s18.5 24.667 31.5 33s27.5 14.166 43.5 17.499s32 4.66602 48 3.99902c26.667 -1.33301 49.5 -7.33301 68.5 -18s34.167 -24.5 45.5 -41.5s19.666 -36 24.999 -57s8 -42.5 8 -64.5z" />
    <glyph glyph-name="uni1791" unicode="&#x1791;" horiz-adv-x="800" 
d="M703 159c0 -21.333 -2.83301 -41.668 -8.5 -61.001s-14 -36.166 -25 -50.499s-25 -25.833 -42 -34.5s-36.833 -13 -59.5 -13c-38 -0 -67.833 9.33301 -89.5 28s-32.5 44 -32.5 76c0 23.333 8.16699 42.5 24.5 57.5s35.5 22.5 57.5 22.5c12 0 23.667 -2.33301 35 -7
c4 -11.333 8.33301 -18.666 13 -21.999s9.33398 -5 14.001 -5c6 0 11.833 2.33301 17.5 7s8.5 10.667 8.5 18c0 10.667 -6.16699 20.5 -18.5 29.5s-29.166 13.5 -50.499 13.5c-19.333 0 -36.833 -5.33301 -52.5 -16s-30.167 -24.167 -43.5 -40.5
s-25.833 -33.833 -37.5 -52.5s-23.5 -36.167 -35.5 -52.5s-24.5 -29.833 -37.5 -40.5s-27.167 -16 -42.5 -16c-24 0 -47.833 3 -71.5 9s-44.834 15.5 -63.501 28.5s-33.834 29.5 -45.501 49.5s-17.5 44 -17.5 72v86c20 2 40.833 3.83301 62.5 5.5
s42.334 4.33398 62.001 8.00098s37.667 9.16699 54 16.5s28.833 17.666 37.5 30.999c-7.33301 21.333 -20.166 36.5 -38.499 45.5s-39.166 13.5 -62.499 13.5c-10.667 0 -23.5 -3 -38.5 -9s-27.167 -13.667 -36.5 -23h-12h-28v300c22.667 0 47 5.66699 73 17
s51.5 24 76.5 38s48.667 26.667 71 38s41.5 17 57.5 17h36c21.333 -1.33301 47.833 -6.83301 79.5 -16.5s62.334 -23.5 92.001 -41.5s55.667 -39.667 78 -65s34.833 -54.333 37.5 -87c0.666992 -3.33301 1 -6.33301 1 -9v-9c0 -22 -3.33301 -44 -10 -66
s-16.667 -41.833 -30 -59.5s-30 -32 -50 -43s-43.333 -16.5 -70 -16.5c-16 0 -31.167 2.16699 -45.5 6.5s-27.166 10.833 -38.499 19.5s-20.666 19.5 -27.999 32.5s-12 28.167 -14 45.5v11c0 12 2.16699 23.667 6.5 35s10.166 21.333 17.499 30s16 15.5 26 20.5
s21 7.5 33 7.5c20.667 0 41.334 -8.33301 62.001 -25c-2 -8.66699 -3 -16.667 -3 -24c0 -16.667 4.5 -28.667 13.5 -36s18.167 -11 27.5 -11c12.667 0 19.667 4.66699 21 14v7c0 20 -7.33301 37.833 -22 53.5s-33.167 28.667 -55.5 39s-46.833 18.166 -73.5 23.499
s-52.334 8 -77.001 8c-17.333 0 -37.5 -1.5 -60.5 -4.5s-45.5 -7.16699 -67.5 -12.5s-42.167 -12.166 -60.5 -20.499s-31.833 -17.5 -40.5 -27.5c10.667 1.33301 20.667 2.33301 30 3s18.666 1 27.999 1c55.333 0 98.666 -12.667 129.999 -38c32 -26 48 -63.667 48 -113
c0 -34 -9.33301 -66.333 -28 -97s-49.667 -57.334 -93 -80.001c0 -6 3.16699 -11.167 9.5 -15.5s13.833 -7.83301 22.5 -10.5s17.667 -4.66699 27 -6s16.666 -2 21.999 -2c6 0 12.167 3.5 18.5 10.5s13.166 15.833 20.499 26.5s15.666 22 24.999 34s20 23.333 32 34
s25.833 19.5 41.5 26.5s33.5 10.5 53.5 10.5c20.667 0 40.167 -3.5 58.5 -10.5s34.5 -16.833 48.5 -29.5s25.167 -28 33.5 -46s12.5 -38.333 12.5 -61z" />
    <glyph glyph-name="uni1792" unicode="&#x1792;" horiz-adv-x="807" 
d="M663 293c0 20.667 -5.67578 36.0029 -17.0088 46.0029s-23.666 15 -36.999 15c-3.33301 0 -7.66602 -0.666992 -12.999 -2c-12.667 -4.66699 -21.167 -10.834 -25.5 -18.501s-8.16602 -15.334 -11.499 -23.001s-8.33301 -14.334 -15 -20.001s-18.334 -8.5 -35.001 -8.5
c-14.667 0 -27.834 2.83301 -39.501 8.5s-21.834 13 -30.501 22s-15.334 19.333 -20.001 31s-7 23.834 -7 36.501v6.5c0 2.33301 0.333008 4.5 1 6.5c2 16 6.66699 30.5 14 43.5s16.666 24 27.999 33s24.166 16 38.499 21s29.5 7.5 45.5 7.5c26 0 49.667 -4.33301 71 -13
s39.666 -20.834 54.999 -36.501s27.333 -34.334 36 -56.001s13.667 -45.167 15 -70.5c0.666992 -7.33301 1 -14.166 1 -20.499v-19.5c0 -48.667 -4.33301 -90.834 -13 -126.501s-20.667 -65.167 -36 -88.5s-33.666 -40.666 -54.999 -51.999s-44.666 -17 -69.999 -17h-10
c-3.33301 0 -6.66602 0.333008 -9.99902 1c-12.667 2 -24.5 6 -35.5 12s-21 13.167 -30 21.5s-17.333 17.666 -25 27.999s-14.5 20.5 -20.5 30.5c-6 -10 -13.333 -20.333 -22 -31s-18.834 -20.667 -30.501 -30s-24.834 -17 -39.501 -23s-30.667 -9 -48 -9
c-20 0 -40.167 3.5 -60.5 10.5s-38.666 17.5 -54.999 31.5s-29.666 31.5 -39.999 52.5s-15.5 45.833 -15.5 74.5v75c19.333 0.666992 38.833 2.5 58.5 5.5s38.334 7.33301 56.001 13s33.667 12.667 48 21s25.833 18.166 34.5 29.499c-7.33301 14 -19 25 -35 33
s-32.667 12 -50 12c-15.333 0 -30 -2.83301 -44 -8.5s-24.667 -12.167 -32 -19.5c-10 0.666992 -18.5 0.833984 -25.5 0.500977s-10.5 -0.166016 -10.5 0.500977l-1 304c16 3.33301 32.333 9 49 17s32.834 17.167 48.501 27.5s30 21.166 43 32.499s23.833 22.333 32.5 33h20
c20.667 -19.333 43.167 -36.833 67.5 -52.5s46.166 -24.5 65.499 -26.5c18 8 35.833 18.5 53.5 31.5s36.5 28.833 56.5 47.5h18c4.66699 -6.66699 11 -14.834 19 -24.501s17.833 -19 29.5 -28s24.667 -16.833 39 -23.5s29.833 -10 46.5 -10c7.33301 0 15.333 2.83301 24 8.5
s14.334 12.167 17.001 19.5h20c0.666992 -3.33301 1 -6.5 1 -9.5v-9.5c0 -18 -2.5 -35.833 -7.5 -53.5s-12.833 -33.5 -23.5 -47.5s-24 -25.333 -40 -34s-34.667 -13 -56 -13c-15.333 0 -29.833 3 -43.5 9s-26.667 12.833 -39 20.5s-24.166 14.5 -35.499 20.5
s-22.333 9 -33 9h-5c-18 -2.66699 -33 -10.667 -45 -24s-21.333 -27.333 -28 -42h-20c-11.333 18.667 -29.166 34.334 -53.499 47.001s-53.166 19 -86.499 19h-10c-10 -0.666992 -20 -3.16699 -30 -7.5s-19 -9.66602 -27 -15.999s-14.5 -13.5 -19.5 -21.5s-7.5 -16 -7.5 -24
c13.333 6.66699 27.5 11.667 42.5 15s28.5 5 40.5 5c23.333 0 44.833 -3.66699 64.5 -11s36.834 -18 51.501 -32s26 -31.167 34 -51.5s12 -43.166 12 -68.499c0 -18 -4.16699 -35 -12.5 -51s-18.666 -30.667 -30.999 -44s-25.666 -25 -39.999 -35s-27.5 -18 -39.5 -24
c4.66699 -14.667 13.334 -25.834 26.001 -33.501s25.334 -11.5 38.001 -11.5c22 0 40.5 8 55.5 24s25.5 35.333 31.5 58h28c13.333 -28 28.5 -49.167 45.5 -63.5s35.833 -21.5 56.5 -21.5c16 0 31.333 2.83301 46 8.5s27.5 14 38.5 25s19.667 24.667 26 41
s9.5 34.833 9.5 55.5z" />
    <glyph glyph-name="uni1793" unicode="&#x1793;" horiz-adv-x="811" 
d="M701 571c0 -24.667 -3.83105 -51.167 -11.498 -79.5s-18.667 -54.166 -33 -77.499s-32 -42.833 -53 -58.5s-45.167 -23.5 -72.5 -23.5c-16.667 0 -32.5 2.16699 -47.5 6.5s-28.333 10.666 -40 18.999s-21.334 19 -29.001 32s-12.5 28.167 -14.5 45.5v10
c0 23.333 7.66699 43.333 23 60s34.666 25 57.999 25c10 0 20.833 -2.16699 32.5 -6.5s23.167 -11.166 34.5 -20.499c-3.33301 -9.33301 -5 -18.666 -5 -27.999c0 -11.333 3 -19.333 9 -24s12.667 -7 20 -7s13.666 2 18.999 6s8.33301 9 9 15v7c0 20 -7.33301 37.667 -22 53
s-33.5 28.5 -56.5 39.5s-48.5 19.333 -76.5 25s-55 8.5 -81 8.5c-28 0 -55.167 -3.16699 -81.5 -9.5s-50 -14.333 -71 -24s-38 -20.334 -51 -32.001s-19.833 -22.834 -20.5 -33.501c10 2 22 5.16699 36 9.5s28.667 6.5 44 6.5c17.333 0 34.666 -2.33301 51.999 -7
s32.833 -11.667 46.5 -21s24.667 -21.5 33 -36.5s12.5 -32.5 12.5 -52.5v-98h100c0 -8.66699 1.33301 -20.5 4 -35.5s7.16699 -29.5 13.5 -43.5s14.833 -26.167 25.5 -36.5s24.334 -15.5 41.001 -15.5c14.667 0 27.334 2.33301 38.001 7s20 10.667 28 18s14.667 16 20 26
s10 20 14 30c4.66699 11.333 8 23.833 10 37.5s3.66699 28.167 5 43.5h38c0 -5.33301 0.166992 -11 0.5 -17s0.5 -11.667 0.5 -17c0 -37.333 -2.5 -73.666 -7.5 -108.999s-13.833 -66.833 -26.5 -94.5s-30 -50 -52 -67s-50 -25.5 -84 -25.5c-14 0 -28.667 2.5 -44 7.5
s-29.166 12.167 -41.499 21.5s-22.5 20.666 -30.5 33.999s-12 28.333 -12 45v108h-40v-108c0 -18 -3.16699 -33.833 -9.5 -47.5s-14.166 -25 -23.499 -34s-19.666 -15.667 -30.999 -20s-22 -6.5 -32 -6.5c-20 0 -40 4.5 -60 13.5s-38 21.167 -54 36.5s-29 33.333 -39 54
s-15 43 -15 67v128h187v7c0 14.667 -5.83301 27.334 -17.5 38.001s-33.167 16 -64.5 16c-4 0 -9.16699 -0.333008 -15.5 -1s-12.833 -2 -19.5 -4s-12.834 -5 -18.501 -9s-9.83398 -9.33301 -12.501 -16h-39v301c25.333 1.33301 47.166 7.83301 65.499 19.5l57 38
c19.667 13.667 42 26 67 37s56.5 16.5 94.5 16.5h27c26 0 52.167 -5.66699 78.5 -17s51.833 -24 76.5 -38s48.5 -26.833 71.5 -38.5s44.167 -17.834 63.5 -18.501v-60zM287.002 217c-15.333 -1.33301 -26.667 -7.00195 -34 -17.002s-11 -20.667 -11 -32
c0 -15.333 5.5 -27.666 16.5 -36.999s20.5 -14.666 28.5 -15.999v102z" />
    <glyph glyph-name="uni1794" unicode="&#x1794;" horiz-adv-x="823" 
d="M743 647c-6 -20 -14.665 -38.001 -25.998 -54.001s-24.833 -28.667 -40.5 -38s-33.5 -13 -53.5 -11c-9.33301 1.33301 -18.166 3.66602 -26.499 6.99902s-16.333 6.83301 -24 10.5s-15.167 7 -22.5 10s-14.666 4.5 -21.999 4.5c-10.667 0 -19.5 -2.5 -26.5 -7.5
s-12.5 -11.167 -16.5 -18.5s-6.83301 -15.5 -8.5 -24.5s-2.5 -17.5 -2.5 -25.5c13.333 10.667 27.333 17.167 42 19.5s29.334 3.5 44.001 3.5c33.333 0 60.666 -6.66699 81.999 -20s38.166 -30 50.499 -50s20.833 -42 25.5 -66s7 -46.333 7 -67
c0 -17.333 -2.33301 -37.333 -7 -60s-12.167 -45.834 -22.5 -69.501s-23.5 -47 -39.5 -70s-35.333 -43.5 -58 -61.5s-48.667 -32.5 -78 -43.5s-62.666 -16.5 -99.999 -16.5c-39.333 0 -77.833 6.66699 -115.5 20s-71.5 31.5 -101.5 54.5s-54.5 49.833 -73.5 80.5
s-29.5 63.667 -31.5 99c46.667 -4.66699 86.167 0 118.5 14s55.166 34.667 68.499 62c-6 8.66699 -16.833 15.167 -32.5 19.5s-31.834 6.5 -48.501 6.5c-15.333 0 -29.833 -2.16699 -43.5 -6.5s-24.167 -10.833 -31.5 -19.5h-28v305c6.66699 0.666992 15 3.66699 25 9
s20.333 12.833 31 22.5s21.334 21 32.001 34s20.667 27.5 30 43.5h18c15.333 -20 32.5 -36.333 51.5 -49s42.5 -19 70.5 -19c8 0 16.167 3.83301 24.5 11.5s13.5 14.167 15.5 19.5h5c1.33301 0 3.16602 -0.166992 5.49902 -0.5s4.5 -0.166016 6.5 0.500977
c0 -19.333 -3 -39 -9 -59s-14.5 -38 -25.5 -54s-24.333 -28.667 -40 -38s-32.834 -13 -51.501 -11c-10 1.33301 -19.167 3.66602 -27.5 6.99902s-16.5 6.83301 -24.5 10.5l-22.5 10c-7 3 -13.833 4.5 -20.5 4.5c-11.333 0 -20.666 -2.33301 -27.999 -7
s-13.166 -10.5 -17.499 -17.5s-7.33301 -14.667 -9 -23s-2.5 -16.166 -2.5 -23.499c13.333 4.66699 27.666 8.83398 42.999 12.501s29.666 5.5 42.999 5.5c46.667 0 83 -10.667 109 -32s39 -55.666 39 -102.999c0 -13.333 -2.5 -26.833 -7.5 -40.5
s-11.167 -26.667 -18.5 -39s-15.333 -23.5 -24 -33.5s-16.334 -18 -23.001 -24c6.66699 -16.667 17.167 -30.5 31.5 -41.5s30 -19.833 47 -26.5s34.833 -11.334 53.5 -14.001s36 -3.66699 52 -3c23.333 0 45.5 3.33301 66.5 10s39.5 15.334 55.5 26.001s28.667 23 38 37
s14 28.667 14 44c0 20 -8.5 38 -25.5 54s-42.833 24 -77.5 24c-54.667 0 -85.667 -9.66699 -93 -29h-29v301c16 2.66699 35.833 13.667 59.5 33s44.5 45 62.5 77h19c15.333 -20 32.5 -36.333 51.5 -49s42.5 -19 70.5 -19c6.66699 0 14.5 3.83301 23.5 11.5
s14.5 14.167 16.5 19.5h17c0 -19.333 -3 -39 -9 -59z" />
    <glyph glyph-name="uni1795" unicode="&#x1795;" horiz-adv-x="800" 
d="M701 261c0 -26 -2.16211 -54.168 -6.49512 -84.501s-12.5 -58.666 -24.5 -84.999s-28.333 -48.333 -49 -66s-47.334 -26.5 -80.001 -26.5c-12.667 0 -25.167 2.66699 -37.5 8s-24 12.333 -35 21s-21.167 18.334 -30.5 29.001s-17 21.334 -23 32.001
c-7.33301 -10 -15.5 -20.167 -24.5 -30.5s-19.167 -20 -30.5 -29s-24.166 -16.333 -38.499 -22s-30.166 -8.5 -47.499 -8.5c-20 0 -40.333 4 -61 12s-39.334 19.833 -56.001 35.5s-30.167 34.667 -40.5 57s-15.5 47.5 -15.5 75.5v63c18.667 0.666992 38.5 2.5 59.5 5.5
s40.833 7.16699 59.5 12.5s35 12.333 49 21s23.667 18.667 29 30c-5.33301 14.667 -16 26 -32 34s-33 12.333 -51 13c-16 0.666992 -31 -2 -45 -8s-24.333 -13.333 -31 -22h-39v306c13.333 0 30.333 4.5 51 13.5s41.167 19.5 61.5 31.5s38.666 24 54.999 36
s27.5 21.333 33.5 28h27c10.667 -10 25.167 -21.667 43.5 -35s38.666 -26 60.999 -38s46 -22.167 71 -30.5s49.5 -12.5 73.5 -12.5c10.667 0 20.667 2.16699 30 6.5s15 12.166 17 23.499c3.33301 8.66699 3.66602 16.5 0.999023 23.5s-7.33398 12.333 -14.001 16
s-15 5.33398 -25 5.00098s-20.333 -3.16602 -31 -8.49902c-7.33301 -2 -15 -1.33301 -23 2s-15.5 8.33301 -22.5 15s-12.833 14.5 -17.5 23.5s-7 18.167 -7 27.5c0 12 2.5 23.5 7.5 34.5s11.667 20.667 20 29s18 14.833 29 19.5s22.833 7 35.5 7
c36.667 -0.666992 66 -12.167 88 -34.5s33 -51.5 33 -87.5c0 -32 -6.83301 -62.333 -20.5 -91s-31.834 -53.5 -54.501 -74.5s-49 -37.667 -79 -50s-61 -18.5 -93 -18.5c-12.667 0 -26.834 4 -42.501 12l-51 26c-18.333 9.33301 -37.833 18 -58.5 26s-42 12 -64 12
c-19.333 0 -35.166 -2.66699 -47.499 -8s-22 -11.833 -29 -19.5s-11.833 -15.334 -14.5 -23.001s-4 -13.834 -4 -18.501c13.333 6.66699 28 12.334 44 17.001s30 7 42 7c26 0 49.5 -3.66699 70.5 -11s38.833 -18 53.5 -32s25.334 -31 32.001 -51s8.66699 -42.333 6 -67
c-2 -18 -7.5 -35.167 -16.5 -51.5s-19.5 -31.166 -31.5 -44.499s-25 -25.333 -39 -36s-27 -19 -39 -25c6 -13.333 14.833 -24.333 26.5 -33s27.834 -11.667 48.501 -9c15.333 2 29.333 9.83301 42 23.5s20.667 30.5 24 50.5c2.66699 0.666992 8.16699 1.16699 16.5 1.5
s13.833 -0.166992 16.5 -1.5l6 -11.5l11.5 -21.5c4.33301 -8 9 -15.833 14 -23.5s9.5 -13.167 13.5 -16.5l51 -4c22 -2 40.5 0.666992 55.5 8s27.167 17.333 36.5 30s16.166 27 20.499 43s6.5 32 6.5 48c0 16.667 -4.83301 28.5 -14.5 35.5s-19.834 10.5 -30.501 10.5
c-13.333 0 -22 -3 -26 -9s-7.33301 -12.833 -10 -20.5s-6.5 -14.834 -11.5 -21.501s-15.5 -11 -31.5 -13c-38 -4.66699 -66.5 3.83301 -85.5 25.5s-26.833 50.5 -23.5 86.5c1.33301 16.667 6.5 31.5 15.5 44.5s20.167 23.667 33.5 32s28 14.5 44 18.5s32 5.33301 48 4
c32 -3.33301 57.333 -12.833 76 -28.5s33 -34.334 43 -56.001s16.333 -44.834 19 -69.501s4 -48 4 -70z" />
    </font>
</defs>
</svg>
