<?xml version="1.0" standalone="no"?>
<!DOCTYPE svg PUBLIC "-//W3C//DTD SVG 1.1//EN" "http://www.w3.org/Graphics/SVG/1.1/DTD/svg11.dtd" >
<svg xmlns="http://www.w3.org/2000/svg">
<metadata></metadata>
<defs>
<font id="catrielbold" horiz-adv-x="1138" >
<font-face units-per-em="2048" ascent="1638" descent="-410" />
<missing-glyph horiz-adv-x="569" />
<glyph horiz-adv-x="0" />
<glyph horiz-adv-x="0" />
<glyph unicode="&#xd;" horiz-adv-x="569" />
<glyph unicode=" "  horiz-adv-x="569" />
<glyph unicode="&#x09;" horiz-adv-x="569" />
<glyph unicode="&#xa0;" horiz-adv-x="569" />
<glyph unicode="!" horiz-adv-x="681" d="M180 1464h309l-55 -1087h-198zM205 0v256h250v-256h-250z" />
<glyph unicode="&#x22;" horiz-adv-x="970" d="M127 1196v268h276v-268l-28 -307h-221zM578 1196v268h276v-268l-27 -307h-223z" />
<glyph unicode="#" d="M-14 444v201h229l64 246h-218v203h273l106 403l195 -53l-92 -350h227l104 403l195 -53l-92 -350h172v-203h-229l-66 -246h219v-201h-270l-144 -491l-194 53l129 438h-227l-142 -491l-194 53l129 438h-174zM420 645h229l66 246h-228z" />
<glyph unicode="$" d="M96 25l17 225q29 -16 71.5 -29.5t93 -24t103.5 -16.5t102 -8v549q-72 33 -136 68.5t-113.5 83t-78 111t-28.5 153.5q0 78 30.5 139t81 104t115 70t129.5 37v112h162v-108q86 -6 174 -18.5t142 -30.5l-11 -211q-70 23 -148.5 39t-156.5 22v-438q76 -35 147.5 -73t127 -91 t89 -124.5t33.5 -174.5q0 -80 -32.5 -148.5t-88 -121.5t-127 -88t-149.5 -49v-187h-162v176q-131 4 -229 18.5t-158 33.5zM332 1137q0 -66 41 -115t110 -88v356q-59 -14 -105 -54t-46 -99zM645 190q76 27 130 81t54 132q0 82 -52 140.5t-132 101.5v-455z" />
<glyph unicode="%" horiz-adv-x="1820" d="M129 1163q0 74 14.5 135.5t49 104.5t91 66.5t142.5 23.5q162 0 227.5 -90t65.5 -240q0 -74 -15.5 -135t-50.5 -105t-90 -69t-137 -25q-86 0 -142.5 25t-91 69t-49 105.5t-14.5 134.5zM289 1163q0 -80 29.5 -130t107.5 -50t108.5 50t30.5 130q0 74 -31.5 124t-107.5 50 q-74 0 -105.5 -47t-31.5 -127zM440 0l766 1493h209l-768 -1493h-207zM1120 307q0 74 13.5 135.5t47 104.5t91 66.5t143.5 23.5q162 0 228.5 -90t66.5 -240q0 -74 -15.5 -135t-50 -105t-91 -69t-138.5 -25q-86 0 -143.5 25t-91 69t-47 105t-13.5 135zM1278 307 q0 -80 29.5 -130t107.5 -50t108.5 50t30.5 130q0 74 -32.5 124t-106.5 50q-76 0 -106.5 -47t-30.5 -127z" />
<glyph unicode="&#x26;" horiz-adv-x="1478" d="M131 406q0 80 22.5 150.5t62.5 129.5t91 106.5t111 81.5q-45 66 -74 145t-29 152q0 154 86 236v-2q80 86 213 86q137 0 217 -77t80 -228q0 -72 -16 -126t-44 -98t-63.5 -79t-76.5 -66q68 -90 149.5 -176t167.5 -164q23 45 42.5 102.5t31.5 122.5l244 -51 q-25 -100 -58 -186t-69 -146q35 -29 75.5 -57.5t83.5 -58.5l-166 -223q-39 29 -85 64.5t-93 76.5q-92 -70 -206.5 -109t-258.5 -39q-92 0 -172 33t-139 91.5t-93 137t-34 171.5zM360 438q0 -119 59.5 -178t147.5 -59q96 0 175 19.5t145 60.5q-47 45 -98.5 98t-100.5 108.5 t-95 111.5t-83 108q-63 -53 -106.5 -116t-43.5 -153zM537 1192q0 -53 11 -97t34 -87q45 35 75.5 76.5t30.5 95.5q0 41 -15.5 70.5t-58.5 29.5q-41 0 -59 -26.5t-18 -61.5z" />
<glyph unicode="'" horiz-adv-x="487" d="M109 1196v268h276v-268l-29 -307h-221z" />
<glyph unicode="(" horiz-adv-x="681" d="M125 514q0 166 21.5 335t86 308t180 230.5t304.5 103.5v-197q-96 0 -168 -64.5t-121 -173t-73.5 -248.5t-24.5 -294t24.5 -287t72.5 -231t121 -154.5t169 -56.5v-197q-168 0 -281.5 74t-182.5 200t-98.5 294t-29.5 358z" />
<glyph unicode=")" horiz-adv-x="681" d="M12 -215q96 0 169 56.5t121 154.5t72.5 231t24.5 287t-24.5 294t-73.5 248.5t-122 173t-167 64.5v197q188 -12 304 -103.5t180.5 -230.5t86 -308t21.5 -335q0 -190 -29.5 -358t-99 -294t-182.5 -200t-281 -74v197z" />
<glyph unicode="*" horiz-adv-x="796" d="M41 1137l72 206l192 -102l-24 223h217l-31 -223l203 98l61 -209l-219 -34l154 -160l-181 -131l-98 196l-111 -194l-172 135l154 150z" />
<glyph unicode="+" horiz-adv-x="1196" d="M129 596v250h336v356h248v-356h321v-250h-321v-358h-248v358h-336z" />
<glyph unicode="," horiz-adv-x="569" d="M154 43v213h252v-219q-35 -102 -154 -227l-70 59q55 61 76 121z" />
<glyph unicode="-" horiz-adv-x="681" d="M86 430v229h590v-229h-590z" />
<glyph unicode="." horiz-adv-x="569" d="M166 0v256h250v-256h-250z" />
<glyph unicode="/" horiz-adv-x="569" d="M-10 2l397 1462h178l-395 -1462h-180z" />
<glyph unicode="0" d="M70 733q0 172 25.5 311.5t84 238.5t152.5 153.5t231 54.5q139 0 234.5 -51t153 -148.5t82 -239t24.5 -319.5q0 -174 -25.5 -314t-83 -238.5t-153 -152t-232.5 -53.5q-139 0 -234.5 53.5t-152.5 152t-81.5 238.5t-24.5 314zM326 733q0 -254 57 -383t180 -129 q121 0 179.5 135.5t58.5 376.5q0 244 -60.5 378t-177.5 134q-121 0 -179 -138t-58 -374z" />
<glyph unicode="1" d="M123 1200l498 264h170v-1218h266v-246h-799v246h283v893q-72 -41 -155 -84t-148 -78z" />
<glyph unicode="2" d="M74 0v221q55 63 125.5 129t145.5 134.5t145.5 141t127 147.5t90 153t33.5 159q0 84 -43 122t-118 38q-98 0 -207 -34.5t-207 -90.5l-23 271q72 41 185 70.5t252 29.5q80 0 154.5 -22.5t132 -71.5t92 -126t34.5 -186q0 -121 -50 -236.5t-128 -223t-173 -203.5t-185 -176 h563v-246h-946z" />
<glyph unicode="3" d="M100 70v272q115 -61 238 -91t207 -30q115 0 179 57.5t64 176.5q0 106 -60 148t-177 42h-178v232h174q43 0 80 5t63.5 23.5t40.5 52t14 93.5q0 104 -56 149t-154 45q-72 0 -172.5 -33.5t-190.5 -83.5v277q33 20 78 35.5t95 27t102.5 17.5t99.5 6q229 0 335.5 -115.5 t106.5 -324.5q0 -74 -26.5 -149t-67.5 -126q59 -47 101 -130t42 -191q0 -225 -115.5 -351.5t-377.5 -126.5q-109 0 -221.5 16.5t-223.5 76.5z" />
<glyph unicode="4" d="M51 289v162l680 1013h164v-927h186v-248h-186v-289h-246v289h-598zM342 537h307v432z" />
<glyph unicode="5" d="M135 68l31 278q117 -59 222.5 -89t184.5 -30q238 0 238 262q0 117 -46 172.5t-163 55.5q-76 0 -177 -15.5t-230 -50.5l41 813h798v-245h-563l-12 -261q33 4 67.5 6.5t75.5 2.5q129 0 217 -28t142.5 -86t77 -148.5t22.5 -215.5q0 -240 -118 -376t-370 -136 q-111 0 -214 16.5t-224 74.5z" />
<glyph unicode="6" d="M88 588q0 225 49 395t138.5 282.5t215 169t277.5 56.5q66 0 123 -9t94 -20v-260q-55 18 -112.5 30.5t-118.5 12.5q-133 0 -227.5 -93t-137.5 -247q96 64 250 64q102 0 186 -36t143.5 -100.5t91.5 -151.5t32 -192q0 -117 -38 -211t-107.5 -161.5t-166 -104.5t-213.5 -37 q-225 0 -352 157t-127 456zM348 471q0 -59 19.5 -109.5t53.5 -87t79 -58t94 -21.5q53 0 98 22.5t79 60t52.5 88t18.5 105.5t-19.5 105.5t-53.5 87t-79 59t-96 22.5t-96 -22.5t-78 -59t-52.5 -87t-19.5 -105.5z" />
<glyph unicode="7" d="M84 1219v245h1032l-641 -1464h-285l553 1219h-659z" />
<glyph unicode="8" d="M84 403q0 66 18.5 122.5t50 103.5t73.5 87t87 72q-76 53 -124 135.5t-48 196.5q0 90 36 160t94.5 117t135 70.5t158.5 23.5q80 0 157 -23.5t136.5 -70.5t95 -117t35.5 -160q0 -115 -50 -197.5t-124 -136.5q45 -31 86 -69.5t74 -86.5t52.5 -104.5t19.5 -122.5 q0 -98 -42 -177t-110 -134t-155 -86t-175 -31q-92 0 -179 32t-153.5 88.5t-107.5 135t-41 172.5zM324 418q0 -47 19 -85t51 -64.5t74 -42t89 -15.5q43 0 85 15.5t75 42t52 64.5t19 85q0 43 -19 81t-52 69.5t-74 58t-86 47.5q-45 -18 -87 -44t-75 -57.5t-52 -70.5t-19 -84z M379 1118q0 -76 59.5 -135t136.5 -106q84 41 137.5 98t53.5 143q0 63 -50.5 102.5t-142.5 39.5q-90 0 -142 -36t-52 -106z" />
<glyph unicode="9" d="M66 999q0 113 38.5 204t108.5 155.5t166 98.5t211 34q227 0 353 -150.5t126 -443.5q0 -217 -40 -388t-120 -290t-197.5 -181.5t-271.5 -62.5q-66 0 -129 9.5t-98 19.5l23 260q53 -18 106 -30.5t115 -12.5q70 0 121 24.5t89 69.5t63.5 107.5t41.5 136.5q-45 -33 -100 -47 t-131 -14q-104 0 -192.5 40t-151 108.5t-97 159.5t-34.5 193zM317 995q0 -55 19.5 -103t52.5 -84t78 -56.5t96 -20.5t95 21.5t78 57.5t53.5 84t19.5 101q0 51 -18.5 99.5t-51 85.5t-78 59.5t-98.5 22.5q-51 0 -95 -21.5t-78 -58.5t-53.5 -85t-19.5 -102z" />
<glyph unicode=":" horiz-adv-x="681" d="M219 0v256h250v-256h-250zM219 829v256h250v-256h-250z" />
<glyph unicode=";" horiz-adv-x="681" d="M203 43v213h252v-219q-35 -102 -154 -227l-70 59q55 61 76 121zM213 651v256h250v-256h-250z" />
<glyph unicode="&#x3c;" horiz-adv-x="1196" d="M100 639v172l883 395v-258l-557 -221l557 -229v-254z" />
<glyph unicode="=" horiz-adv-x="1196" d="M127 387v229h944v-229h-944zM127 817v236h944v-236h-944z" />
<glyph unicode="&#x3e;" horiz-adv-x="1196" d="M217 244v252l557 231l-557 221v258l883 -395v-172z" />
<glyph unicode="?" horiz-adv-x="1251" d="M231 1116v277q39 16 93.5 33.5t116 32t124 23.5t119.5 9q92 0 175 -26.5t147.5 -79t102.5 -130t38 -178.5q0 -61 -10.5 -111.5t-35 -95.5t-62.5 -89t-93 -91q-39 -35 -70.5 -67.5t-54 -70.5t-38 -85t-21.5 -111h-236q6 109 22.5 181.5t47.5 127t75 99.5t103 98 q57 51 89 98.5t32 106.5q0 86 -59.5 132t-151.5 46q-43 0 -101.5 -12t-121 -30.5t-122.5 -41t-108 -45.5zM512 0v256h248v-256h-248z" />
<glyph unicode="@" horiz-adv-x="1996" d="M123 528q0 193 61.5 368t180 308t291.5 212t399 79q223 0 381.5 -55.5t260 -159.5t148.5 -253.5t47 -336.5q0 -92 -29.5 -187t-79.5 -171t-119 -124t-146 -48q-82 0 -127 21.5t-70 68.5q-53 -63 -119.5 -97t-154.5 -34q-109 0 -182.5 38t-119 99t-64.5 137t-19 152 t17 150.5t61 134t119 97.5t188 38q68 0 122 -21.5t99 -75.5q4 18 8 37t8 33h146v-526q0 -37 17 -57.5t64 -20.5q37 0 70 24.5t57.5 71.5t40 117.5t15.5 161.5q0 309 -152.5 456.5t-486.5 147.5q-168 0 -306.5 -64.5t-236.5 -174t-151.5 -251t-53.5 -295.5q0 -231 77 -381.5 t201 -239.5t278.5 -124t310.5 -35q88 0 179 15.5t173 41t151.5 57.5t114.5 62l113 -155q-143 -98 -328.5 -148.5t-398.5 -50.5q-131 0 -259 17.5t-246 60.5t-218.5 113.5t-174 177t-115.5 252t-42 337.5zM836 555q0 -135 57.5 -204.5t157.5 -69.5q88 0 133 42t67 91v266 q-29 47 -79 90t-125 43q-102 0 -156.5 -65.5t-54.5 -192.5z" />
<glyph unicode="A" horiz-adv-x="1478" d="M14 0l551 1464h340l565 -1464h-284l-127 334h-649l-121 -334h-275zM475 565h516l-262 697z" />
<glyph unicode="B" horiz-adv-x="1478" d="M164 2v1454q47 2 125 3t170 2t192.5 2t190.5 1q248 0 352 -93t104 -279q0 -111 -37.5 -198t-101.5 -134q33 -23 64.5 -52.5t56.5 -71.5t39 -96.5t14 -123.5q0 -195 -112.5 -309.5t-339.5 -114.5h-70.5t-116 1t-140.5 2t-147.5 2t-136 2t-106.5 3zM416 244q39 -2 107.5 -3 t141 -1h136h92.5q109 0 151.5 48t42.5 152q0 211 -213 211h-458v-407zM416 856h450q90 0 141.5 52.5t51.5 152.5q0 86 -44 122t-157 36h-46t-76 -1t-85 -2.5t-76 -1.5q-53 -2 -95 -3t-64 -1v-354z" />
<glyph unicode="C" horiz-adv-x="1478" d="M98 733q0 190 50.5 332.5t140.5 237t218 141.5t286 47q125 0 229 -28.5t186 -93t138.5 -167t85.5 -250.5h-254q-20 82 -61.5 137.5t-93.5 90t-112.5 50t-117.5 15.5q-80 0 -158 -26.5t-139.5 -88t-100.5 -159t-39 -238.5t39 -238.5t100.5 -159t139.5 -88t158 -26.5 q63 0 124.5 18.5t114.5 58.5t94 102.5t60 148.5h254q-27 -150 -90.5 -257.5t-150.5 -178t-192.5 -104.5t-213.5 -34q-160 0 -288 47.5t-219 142.5t-139.5 237.5t-48.5 330.5z" />
<glyph unicode="D" horiz-adv-x="1478" d="M156 4v1448q57 8 128.5 13t146.5 8.5t147 4.5t133 1q156 0 278.5 -45t208.5 -137.5t131 -232.5t45 -331q0 -381 -173 -564t-494 -183h-31h-101.5t-126 2t-142.5 6t-150 10zM406 244q31 -2 69.5 -4t79.5 -3t81 -2.5t75 -1.5q80 0 153.5 26t130 84t91 153.5t34.5 236.5 q0 139 -35.5 235.5t-97 155t-144.5 84t-179 25.5q-27 0 -60 -2t-68.5 -4t-69.5 -4t-60 -4v-975z" />
<glyph unicode="E" horiz-adv-x="1366" d="M150 0v1464h1101v-245h-852v-318h803v-252h-803v-403h854v-246h-1103z" />
<glyph unicode="F" horiz-adv-x="1251" d="M150 0v1464h1009v-245h-758v-345h693v-251h-693v-623h-251z" />
<glyph unicode="G" horiz-adv-x="1593" d="M98 733q0 190 50.5 332.5t140.5 237t218 141.5t286 47q125 0 229 -28.5t186 -93t138.5 -167t85.5 -250.5h-256q-20 82 -61.5 137.5t-93.5 90t-111.5 50t-116.5 15.5q-80 0 -158 -26.5t-140.5 -88t-101.5 -159t-39 -238.5t48.5 -238.5t122 -158t162.5 -88t169 -27.5 q25 0 66 2t88 6t94 10.5t82 12.5v266h-316v244h566v-705q-68 -23 -151 -39t-165 -25t-152.5 -13.5t-111.5 -4.5q-158 0 -295 47.5t-240.5 141.5t-163 236.5t-59.5 332.5z" />
<glyph unicode="H" horiz-adv-x="1478" d="M109 0v1466h297v-577h575v577h297v-1466h-297v641h-575v-641h-297z" />
<glyph unicode="I" horiz-adv-x="569" d="M164 0v1464h252v-1464h-252z" />
<glyph unicode="J" horiz-adv-x="1236" d="M88 434v115h250v-82q0 -123 55.5 -184.5t184.5 -61.5t185 64.5t56 181.5v997h250v-1030q0 -115 -38 -201t-103.5 -143t-155.5 -86t-194 -29t-193.5 29t-156 86t-103.5 143t-37 201z" />
<glyph unicode="K" horiz-adv-x="1478" d="M152 0v1464h251v-565h89l600 565h356l-731 -678l749 -786h-356l-612 664h-95v-664h-251z" />
<glyph unicode="L" horiz-adv-x="1251" d="M162 0v1464h252v-1218h776v-246h-1028z" />
<glyph unicode="M" horiz-adv-x="1705" d="M147 0v1464h320l385 -1079l393 1079h326v-1464h-252v903l-328 -903h-256l-323 911v-911h-265z" />
<glyph unicode="N" horiz-adv-x="1478" d="M143 0v1464h219l713 -1003v1003h236v-1464h-221l-711 989v-989h-236z" />
<glyph unicode="O" horiz-adv-x="1593" d="M90 733q0 190 53.5 332.5t149.5 237t228 141.5t290 47q154 0 283 -46t223 -140.5t146.5 -236.5t52.5 -335q0 -190 -51.5 -332.5t-144.5 -236.5t-223 -141.5t-286 -47.5q-160 0 -293 47.5t-228 142.5t-147.5 237.5t-52.5 330.5zM346 733q0 -141 43 -238.5t109.5 -159 t149.5 -88t163 -26.5t160 27.5t144.5 88t105.5 158t41 238.5t-41 238.5t-105.5 159t-144.5 88t-160 26.5t-163 -26.5t-149.5 -88t-109.5 -159t-43 -238.5z" />
<glyph unicode="P" horiz-adv-x="1366" d="M147 0v1456q47 2 133.5 4t181.5 3t184 1h140q229 0 362.5 -100t133.5 -299q0 -115 -39 -204t-108.5 -151.5t-166 -95t-210.5 -32.5h-359v-582h-252zM399 811h394q51 0 96 15.5t78.5 44t53 69.5t19.5 92q0 98 -66.5 142.5t-170.5 44.5h-87t-114.5 -1t-115 -2.5t-87.5 -3.5 v-401z" />
<glyph unicode="Q" horiz-adv-x="1593" d="M88 733q0 190 53.5 332.5t149.5 237t228 141.5t290 47q154 0 283 -46t223 -140.5t146 -236.5t52 -335q0 -172 -44 -302t-123.5 -221t-188 -145.5t-237.5 -72.5q6 -68 34.5 -91.5t87.5 -23.5q18 0 52 2t65 6l66 -247q-49 -8 -93.5 -13.5t-80.5 -5.5q-180 0 -279.5 100.5 t-109.5 274.5q-127 18 -232.5 74.5t-181.5 150.5t-118 222t-42 292zM344 733q0 -141 43 -238.5t109.5 -159t149.5 -88t163 -26.5t160 27.5t144.5 88t105.5 158t41 238.5t-41 238.5t-105.5 159t-144.5 88t-160 26.5t-163 -26.5t-149.5 -88t-109.5 -159t-43 -238.5z" />
<glyph unicode="R" horiz-adv-x="1478" d="M154 0v1456q45 2 141 4t203.5 3t207 1h150.5q117 0 210 -21.5t159.5 -68.5t101.5 -119.5t35 -175.5q0 -82 -26.5 -152.5t-75 -127t-113 -94t-139.5 -54.5l469 -651h-318l-432 639h-324v-639h-249zM403 844h480q45 0 88 14t75.5 42t52 67t19.5 90q0 57 -24.5 90t-71.5 49 t-115.5 19.5t-154.5 3.5h-98.5h-100.5t-89 -1t-61 -4v-370z" />
<glyph unicode="S" horiz-adv-x="1382" d="M102 532h250q0 -84 28 -142t73 -96t98 -55.5t106 -17.5q76 0 138.5 11.5t107.5 35t70.5 61.5t25.5 91q0 55 -29.5 92t-77.5 63.5t-109.5 44t-125.5 33.5q-88 20 -176 47t-157.5 72t-112.5 117t-43 184q0 106 45 185t119 131.5t165 77t183 24.5q49 0 109.5 -5t123 -23.5 t123 -51.5t106.5 -88t74.5 -135t28.5 -193h-252q-6 80 -38.5 128t-79 76t-100.5 37t-101 9q-53 0 -99.5 -13t-80 -37t-54 -55.5t-20.5 -66.5q0 -41 25.5 -69.5t67.5 -50t98.5 -37t117.5 -29.5q94 -23 188.5 -51.5t171 -77.5t125 -128t48.5 -204q0 -102 -43 -185t-121 -142.5 t-190.5 -91.5t-250.5 -32q-139 0 -242.5 43t-173 118t-104.5 176.5t-35 219.5z" />
<glyph unicode="T" horiz-adv-x="1251" d="M51 1219v245h1151v-245h-452v-1219h-248v1219h-451z" />
<glyph unicode="U" horiz-adv-x="1478" d="M147 434v1030h252v-997q0 -61 27 -107.5t73 -77t106.5 -46t127.5 -15.5q68 0 128.5 16.5t106.5 48t73.5 78t27.5 103.5v997h252v-1030q0 -115 -53.5 -201t-138.5 -143t-189 -86t-207 -29q-102 0 -206.5 29t-188.5 86t-137.5 143t-53.5 201z" />
<glyph unicode="V" horiz-adv-x="1366" d="M23 1464h284l385 -1210l389 1210h277l-502 -1464h-340z" />
<glyph unicode="W" horiz-adv-x="1933" d="M2 1464h279l264 -1044l309 1044h260l311 -1042l250 1042h262l-374 -1464h-279l-311 1042l-303 -1042h-273z" />
<glyph unicode="X" horiz-adv-x="1366" d="M29 0l510 737l-490 727h316l323 -508l316 508h319l-492 -714l510 -750h-317l-344 518l-336 -518h-315z" />
<glyph unicode="Y" horiz-adv-x="1366" d="M4 1464h303l379 -628l381 628h299l-553 -880v-584h-252v584z" />
<glyph unicode="Z" horiz-adv-x="1251" d="M-70 0l826 1214h-707v250h1190l-831 -1214h776v-250h-1254z" />
<glyph unicode="[" horiz-adv-x="681" d="M156 -434v1890h491v-246h-241v-1396h241v-248h-491z" />
<glyph unicode="\" horiz-adv-x="569" d="M-10 1464h200l392 -1462h-201z" />
<glyph unicode="]" horiz-adv-x="681" d="M43 -186h240v1396h-240v246h489v-1890h-489v248z" />
<glyph unicode="^" horiz-adv-x="1196" d="M176 637l379 829h102l385 -829h-217l-219 508l-219 -508h-211z" />
<glyph unicode="_" d="M-14 -207h1159v-196h-1159v196z" />
<glyph unicode="`" horiz-adv-x="681" d="M76 1378l139 170l320 -264l-105 -117z" />
<glyph unicode="a" d="M63 281q0 119 68 195.5t172.5 119.5t231.5 60.5t243 19.5v2q0 76 -47 129t-162 53q-86 0 -147.5 -31.5t-81.5 -97.5h-240q10 78 43 141.5t91.5 109.5t143.5 71.5t200 25.5q94 0 173.5 -19.5t137 -65.5t90.5 -122.5t33 -193.5v-516q0 -78 53 -162h-229q-39 41 -41 90 q-53 -41 -146.5 -74.5t-236.5 -33.5q-72 0 -135.5 17t-110.5 54t-75 93.5t-28 134.5zM322 295q0 -59 45 -87t120 -28q49 0 95.5 10.5t85.5 29t67.5 42t42.5 47.5v187q-80 -4 -161.5 -15.5t-147.5 -35t-106.5 -59.5t-40.5 -91z" />
<glyph unicode="b" horiz-adv-x="1251" d="M135 33v1433h248v-526q164 139 332 139q88 0 170 -32.5t145.5 -96t102 -157t38.5 -213.5q0 -109 -36.5 -216.5t-106.5 -193.5t-170 -140.5t-225 -54.5q-123 0 -252 16.5t-246 41.5zM371 225q70 -14 136 -21t132 -7q39 0 89 25.5t94 73.5t75 118.5t31 160.5 q0 70 -24.5 122.5t-61.5 87t-82 52t-84 17.5q-90 0 -161 -22.5t-144 -88.5v-518z" />
<glyph unicode="c" d="M84 541q0 94 26.5 190t85 173t151.5 125t228 48q84 0 159 -18.5t135.5 -59.5t104.5 -106.5t66 -161.5h-260q-61 109 -205 109q-123 0 -181 -78t-58 -221q0 -68 13 -126.5t42 -101.5t74 -68.5t110 -25.5q156 0 209 148h258q-18 -84 -57 -154t-97.5 -122t-136 -80.5 t-176.5 -28.5q-135 0 -228 48t-151.5 127t-85 179t-26.5 205z" />
<glyph unicode="d" horiz-adv-x="1251" d="M84 530q0 121 37 222.5t103.5 174t159.5 112.5t206 40q162 0 289 -90v477h241v-1269q0 -41 10.5 -98.5t22.5 -98.5h-192q-10 14 -21.5 55t-13.5 68q-39 -59 -129 -103.5t-207 -44.5t-210 41t-158.5 115t-101.5 175.5t-36 223.5zM324 528q0 -63 20.5 -122.5t59 -105.5 t92 -74.5t120.5 -28.5q39 0 83 9t82 27.5t67 47t39 65.5v432q-127 72 -244 72q-68 0 -126 -24.5t-101 -67.5t-67.5 -102.5t-24.5 -127.5z" />
<glyph unicode="e" d="M63 543q0 109 33 206t95.5 170.5t154.5 116.5t209 43q102 0 193.5 -33.5t160 -106.5t108.5 -187.5t40 -276.5h-752q6 -55 24.5 -102t49.5 -82t75 -54.5t101 -19.5q86 0 148.5 43t84.5 107h248q-14 -78 -51 -149t-97.5 -123t-143 -82.5t-187.5 -30.5q-119 0 -211 47 t-154.5 124.5t-95.5 179t-33 210.5zM303 649h504q-16 98 -80 160.5t-164 62.5q-92 0 -164.5 -58t-95.5 -165z" />
<glyph unicode="f" horiz-adv-x="681" d="M61 842v221h138q0 209 100 318.5t266 109.5q43 0 87 -10.5t91 -26.5l-47 -237q-55 27 -79.5 32.5t-51.5 5.5q-61 0 -91 -34.5t-30 -114.5v-43h211v-221h-211v-842h-245v842h-138z" />
<glyph unicode="g" horiz-adv-x="1251" d="M84 475q0 150 53 263.5t146.5 189.5t218.5 113.5t268 37.5q168 0 350 -53v-862q0 -119 -36.5 -220.5t-108.5 -176t-176.5 -116.5t-239.5 -42q-35 0 -90 4t-114.5 12t-114 21.5t-86.5 31.5l98 236q25 -16 67.5 -29.5t89 -22.5t87.5 -13.5t63 -4.5q131 0 215 71t109 187 q-53 -45 -141.5 -73.5t-198.5 -28.5q-88 0 -170 27.5t-146.5 85t-103.5 147.5t-39 215zM326 477q0 -72 24.5 -124t62.5 -86t83 -50t86 -16t89 8t92 22.5t77.5 35t46.5 44.5v520q-80 25 -164 25q-76 0 -147.5 -22.5t-127 -68.5t-89 -118t-33.5 -170z" />
<glyph unicode="h" horiz-adv-x="1251" d="M145 0v1466h246v-518q156 131 305 131q86 0 161 -28.5t132.5 -87t90 -149.5t32.5 -214v-600h-244v600q0 61 -20.5 106.5t-53 75t-71.5 44t-78 14.5q-131 0 -254 -105v-735h-246z" />
<glyph unicode="i" horiz-adv-x="569" d="M164 0v1063h248v-1063h-248zM164 1210v256h250v-256h-250z" />
<glyph unicode="j" horiz-adv-x="569" d="M-76 -350l56 229q20 -4 46.5 -6t49.5 -2q49 0 67.5 24.5t18.5 90.5v1077h246v-1071q0 -160 -85 -260.5t-247 -100.5q-25 0 -62 4.5t-90 14.5zM162 1210v256h246v-256h-246z" />
<glyph unicode="k" d="M137 0v1466h246v-768h78l334 365h321l-452 -459l456 -604h-317l-332 473h-88v-473h-246z" />
<glyph unicode="l" horiz-adv-x="569" d="M166 0v1466h246v-1466h-246z" />
<glyph unicode="m" horiz-adv-x="1820" d="M131 0v1063h231v-115q125 131 275 131q170 0 313 -131q137 131 338 131q84 0 157 -27.5t127 -86t85 -149.5t31 -216v-600h-248v600q0 63 -17.5 108.5t-47 74t-66.5 43t-74 14.5q-111 0 -207 -140v-700h-246v600q0 66 -16 112t-44 74.5t-62.5 41t-71.5 12.5 q-119 0 -211 -107v-733h-246z" />
<glyph unicode="n" horiz-adv-x="1251" d="M145 0v1063h232v-117q176 133 346 133q180 0 284.5 -116.5t104.5 -362.5v-600h-246v600q0 127 -57 183.5t-137 56.5q-152 0 -281 -105v-735h-246z" />
<glyph unicode="o" horiz-adv-x="1251" d="M90 530q0 254 136.5 401.5t404.5 147.5q131 0 231.5 -39t170 -110.5t105.5 -173t36 -226.5q0 -119 -35 -219t-103.5 -174t-170 -114.5t-234.5 -40.5q-135 0 -236.5 40.5t-169 113.5t-101.5 173.5t-34 220.5zM336 530q0 -68 21.5 -127t59.5 -102t92 -68.5t122 -25.5 t123 24.5t94 68.5t60.5 103.5t21.5 126.5q0 72 -21.5 131.5t-61.5 101.5t-95 65.5t-121 23.5q-63 0 -116.5 -22.5t-93.5 -64.5t-62.5 -101.5t-22.5 -133.5z" />
<glyph unicode="p" horiz-adv-x="1251" d="M102 1063h217q18 -27 29 -131q152 145 328 145q115 0 208 -41t158.5 -114.5t100.5 -175t35 -224.5q0 -121 -34 -221t-100.5 -173t-165 -114t-227.5 -41q-119 0 -270 39v-385h-242v1231q0 41 -10 96.5t-27 108.5zM375 227q125 -24 231 -24q70 0 132.5 24.5t108.5 68.5 t72.5 102.5t26.5 125.5q0 66 -21.5 126.5t-58.5 105.5t-87 71.5t-107 26.5q-152 0 -297 -154v-473z" />
<glyph unicode="q" horiz-adv-x="1251" d="M86 475q0 150 53.5 262.5t145.5 188t217 114.5t268 39q49 0 99.5 -8t96.5 -20.5t86 -27.5t70 -30v-1366h-243v449q-27 -23 -67 -40.5t-87 -31.5t-96 -21.5t-94 -7.5q-88 0 -169 31t-143.5 93.5t-99.5 155.5t-37 220zM328 477q0 -72 24.5 -124t62.5 -86t83 -50t86 -16 t89 8t92 22.5t78 35t46 44.5v520q-80 25 -164 25q-76 0 -147.5 -22.5t-127 -68.5t-89 -118t-33.5 -170z" />
<glyph unicode="r" horiz-adv-x="796" d="M139 0v1063h232v-137q63 80 133 116.5t166 36.5q47 0 79.5 -8t63.5 -20v-271q-53 27 -101 37t-98 10q-98 0 -162.5 -69.5t-64.5 -204.5v-553h-248z" />
<glyph unicode="s" d="M86 367h240q25 -88 84 -130t139 -42q82 0 138 33.5t56 90.5q0 43 -42 65t-106.5 39t-140 34.5t-141.5 52.5q-70 35 -115.5 99.5t-45.5 168.5q0 86 38.5 144.5t99 94.5t135 50t146.5 14q61 0 130 -12t129.5 -49t103.5 -105.5t53 -183.5h-242q-6 39 -26.5 66.5t-46 45 t-55 24.5t-56.5 7q-86 0 -128 -31.5t-42 -76.5q0 -39 43 -59.5t108.5 -36t141.5 -32.5t143 -50q72 -37 120 -105.5t48 -175.5q0 -158 -120.5 -241.5t-325.5 -83.5q-109 0 -192 29.5t-139 81.5t-89 123t-43 151z" />
<glyph unicode="t" horiz-adv-x="681" d="M41 842v221h139v252l246 55v-307h188v-221h-188v-523q0 -53 12.5 -78.5t71.5 -25.5q39 0 98 14l41 -231q-80 -25 -139 -25q-92 0 -155.5 26t-102.5 69t-55.5 102t-16.5 127v545h-139z" />
<glyph unicode="u" horiz-adv-x="1251" d="M141 463v600h244v-600q0 -61 19.5 -106.5t50 -76t69.5 -45t78 -14.5q154 0 260 107v735h246v-1063h-246v113q-117 -127 -311 -127q-88 0 -163 27.5t-130 86t-86 148.5t-31 215z" />
<glyph unicode="v" d="M0 1063h272l301 -772l299 772h261l-428 -1063h-281z" />
<glyph unicode="w" horiz-adv-x="1593" d="M-10 1063h284l195 -678l207 678h258l203 -674l200 674h269l-334 -1063h-271l-202 657l-207 -657h-273z" />
<glyph unicode="x" d="M18 0l383 541l-368 522h313l219 -328l221 328h299l-364 -512l389 -551h-309l-246 371l-233 -371h-304z" />
<glyph unicode="y" d="M14 1063h271l284 -782l273 782h260l-379 -1083q-27 -74 -70 -148t-101 -132t-128 -94t-150 -36q-41 0 -102 12t-109 33l115 233q33 -23 64.5 -30.5t56.5 -7.5q27 0 53.5 16t49 43t41 61.5t32.5 69.5h-65z" />
<glyph unicode="z" horiz-adv-x="1024" d="M-41 0l612 842h-495v221h971l-625 -844h563v-219h-1026z" />
<glyph unicode="{" horiz-adv-x="796" d="M127 451v221h78q61 0 84.5 53t23.5 158v325q0 82 23.5 137.5t60.5 89t84 48t94 14.5h123v-197h-98q-29 0 -47 -6t-29.5 -30.5t-16.5 -73.5t-5 -135v-254q0 -100 -34 -156.5t-95 -87.5q70 -35 99.5 -89t29.5 -146v-289q0 -88 4 -137.5t15 -74t29.5 -29.5t49.5 -5h98v-199 h-116q-47 0 -95.5 15.5t-87.5 52.5t-62.5 98.5t-23.5 155.5v330q0 117 -27.5 164t-80.5 47h-78z" />
<glyph unicode="|" horiz-adv-x="573" d="M193 -401v1890h192v-1890h-192z" />
<glyph unicode="}" horiz-adv-x="796" d="M104 -213h99q31 0 49 5t29.5 29.5t15.5 74t4 137.5v289q0 92 29.5 146t99.5 89q-61 31 -95 87t-34 157v254q0 86 -5 135t-16.5 73.5t-30 30.5t-46.5 6h-99v197h123q47 0 94.5 -14.5t84 -48t60 -89t23.5 -137.5v-325q0 -104 24 -157.5t85 -53.5h78v-221h-78 q-53 0 -81 -47.5t-28 -163.5v-330q0 -94 -24.5 -155.5t-62 -98.5t-86 -52.5t-95.5 -15.5h-117v199z" />
<glyph unicode="~" horiz-adv-x="1196" d="M109 508v285q45 53 100.5 82.5t118.5 29.5q82 0 145.5 -24.5t119.5 -54t109.5 -54t114.5 -24.5q68 0 121 36.5t115 104.5v-230q-49 -66 -105.5 -91t-128.5 -25q-55 0 -114.5 24.5t-120 53t-119.5 53t-111 24.5q-68 0 -128 -56t-117 -134z" />
<glyph unicode="&#xa1;" horiz-adv-x="681" d="M197 -401l53 1087h199l57 -1087h-309zM229 815v256h250v-256h-250z" />
<glyph unicode="&#xa2;" d="M92 535q0 225 102.5 369.5t299.5 178.5v365h221v-356q25 -4 59.5 -7.5t69.5 -8.5t68.5 -12t58.5 -15l-86 -248q-25 12 -63 22.5t-76.5 17.5t-73.5 10t-54 3q-125 0 -199.5 -83t-74.5 -236q0 -63 16.5 -121t50 -102t86 -70.5t121.5 -26.5q20 0 60.5 5t83.5 14.5t84 20.5 t65 26l95 -236q-27 -14 -64 -25.5t-77 -19.5t-80 -14t-70 -9v-358h-221v365q-102 18 -177 68t-125.5 123t-75 164t-24.5 196z" />
<glyph unicode="&#xa3;" d="M-10 193q66 49 109.5 87.5t69.5 84t37 102.5t11 141h-190v223h129q-20 59 -37 124t-17 130q0 109 35 186t92.5 126t132 71.5t156.5 22.5q137 0 251 -29.5t185 -70.5l-24 -271q-98 55 -206 90t-206 35q-78 0 -121 -37t-43 -123q0 -53 24.5 -120.5t47.5 -133.5h330v-223 h-283q0 -59 -1 -102t-7 -79t-19.5 -67.5t-37.5 -70.5h12q33 0 89 -11.5t114.5 -23.5t110.5 -23.5t79 -11.5q29 0 89.5 19.5t123.5 60.5l76 -242q-59 -41 -136 -63.5t-147 -22.5q-47 0 -106.5 13.5t-118.5 29t-114.5 28.5t-94.5 13q-49 0 -125 -29.5t-154 -76.5z" />
<glyph unicode="&#xa5;" d="M-27 1464h297l291 -469l293 469h295l-461 -694v-76h373v-184h-373v-129h373v-180h-373v-201h-250v201h-393v180h393v129h-393v184h393v76z" />
<glyph unicode="&#xa6;" horiz-adv-x="573" d="M166 344h233v-795h-233v795zM166 702v787h233v-787h-233z" />
<glyph unicode="&#xa7;" d="M190 686q0 96 54.5 157.5t126.5 90.5q-57 49 -91 119.5t-34 175.5q0 51 21.5 98t62.5 82t99 56.5t132 21.5q84 0 165 -13.5t134 -33.5v-226q-164 61 -307 62q-41 0 -68.5 -20.5t-27.5 -63.5q0 -41 20.5 -71.5t51 -55.5t66.5 -42t64 -32q57 -27 116 -62.5t105 -82.5 t74.5 -110.5t28.5 -145.5q0 -98 -50 -155.5t-124 -86.5q53 -53 84 -120.5t31 -153.5q0 -76 -30 -138.5t-79 -107.5t-114.5 -70.5t-135.5 -25.5q-117 0 -199.5 13t-144.5 36v239q37 -23 80 -36t87 -21t87 -11t80 -3q74 0 114 41t40 106q0 55 -29 89t-76 59.5t-105.5 51.5 t-115.5 64q-98 66 -145.5 144t-47.5 182zM395 680q0 -41 23.5 -74t59.5 -57.5t76 -44t73 -35.5q63 0 104 33t41 98q0 51 -26.5 87t-66.5 61.5t-87 42t-86 28.5q-47 -20 -79 -56t-32 -83z" />
<glyph unicode="&#xa8;" horiz-adv-x="681" d="M10 1257v236h230v-236h-230zM442 1257v236h228v-236h-228z" />
<glyph unicode="&#xa9;" horiz-adv-x="1509" d="M70 735q0 190 47 331.5t136 237t214 142.5t283 47q156 0 278.5 -46t208.5 -140.5t131 -236.5t45 -335t-45 -336t-131 -237t-209 -140.5t-278 -46.5q-154 0 -280 46.5t-215 139.5t-137 236.5t-48 337.5zM252 735q0 -158 43 -267.5t112.5 -178t158.5 -100t184 -31.5 q90 0 176 30.5t153.5 99t108.5 178t41 269.5t-41 270.5t-108.5 179t-153.5 98.5t-176 30q-92 0 -181.5 -31t-160 -98.5t-113.5 -178t-43 -270.5zM403 725q0 186 79.5 291.5t269.5 105.5q147 0 227 -67.5t108 -218.5h-178q-10 66 -52 94t-105 28q-92 0 -135.5 -61t-43.5 -172 q0 -98 41 -167t138 -69q133 0 163 136h175q-29 -133 -109 -216t-229 -83q-96 0 -162 29.5t-108 83t-60.5 127t-18.5 159.5z" />
<glyph unicode="&#xaa;" horiz-adv-x="757" d="M61 881q0 76 37 129t97.5 88t139.5 52t165 19v19q0 61 -40 101t-91 40q-37 0 -99.5 -18.5t-128.5 -55.5l-49 148q25 20 63 35.5t77.5 23.5t77 12.5t55.5 4.5q143 0 209.5 -72t66.5 -217v-514h-109l-12 39q-53 -35 -119.5 -45.5t-111.5 -10.5q-49 0 -91 17.5t-72 48.5 t-47.5 71t-17.5 85zM213 893q0 -86 98 -86q61 0 113.5 18.5t75.5 53.5v159q-45 -4 -95.5 -12t-93.5 -24.5t-70.5 -43t-27.5 -65.5z" />
<glyph unicode="&#xab;" d="M63 549l353 436h211l-322 -436l322 -434h-211zM473 549l352 436h211l-321 -436l321 -434h-211z" />
<glyph unicode="&#xac;" horiz-adv-x="1196" d="M80 823v197h985v-688h-197v491h-788z" />
<glyph unicode="&#xad;" horiz-adv-x="681" d="M86 430v229h590v-229h-590z" />
<glyph unicode="&#xae;" horiz-adv-x="1509" d="M45 735q0 188 53.5 329.5t148.5 237t228 143.5t291 48q156 0 286 -47t223 -141.5t144 -236.5t51 -333q0 -190 -51 -332.5t-143 -237.5t-222 -143.5t-288 -48.5q-154 0 -286 46.5t-228 140.5t-151.5 237.5t-55.5 337.5zM211 735q0 -162 50 -274.5t130 -184t179.5 -104.5 t195.5 -33t191.5 33t172 104.5t125 185t48.5 273.5q0 166 -48.5 279.5t-125 183.5t-173 100.5t-190.5 30.5q-92 0 -189.5 -29.5t-179.5 -99.5t-134 -183.5t-52 -281.5zM496 283v905q66 10 130 15t134 5q150 0 215 -57t65 -178q0 -113 -54 -186.5t-140 -92.5 q63 -98 132 -206.5t130 -204.5h-184l-250 405h-23v-405h-155zM651 825h117q113 0 113 131q0 53 -22.5 76t-94.5 23h-56.5t-56.5 -4v-226z" />
<glyph unicode="&#xaf;" horiz-adv-x="1024" />
<glyph unicode="&#xb0;" horiz-adv-x="819" d="M119 1186q0 68 14 122t47 93t88.5 59.5t139.5 20.5q160 0 226 -78t66 -217q0 -66 -14 -121t-48 -95t-90 -62.5t-140 -22.5t-140.5 23.5t-89.5 65.5t-46 96t-13 116zM270 1186q0 -80 32 -124t106 -44q143 0 143 168q0 70 -32.5 117t-110.5 47q-72 0 -105 -47.5t-33 -116.5 z" />
<glyph unicode="&#xb1;" horiz-adv-x="1124" d="M25 14v179h1060v-179h-1060zM111 621v202h348v369h198v-369h334v-202h-334v-373h-198v373h-348z" />
<glyph unicode="&#xb2;" horiz-adv-x="681" d="M61 672v125q23 23 50.5 50t58.5 52q43 39 88 84t84 92t63.5 95.5t24.5 93.5q0 86 -90 86q-51 0 -112.5 -18.5t-114.5 -51.5l-11 156q35 23 98.5 39t139.5 16q47 0 89 -12.5t74 -40t50 -70.5t18 -104t-23.5 -121t-63.5 -117t-91 -110.5t-108 -104.5h301v-139h-525z" />
<glyph unicode="&#xb3;" horiz-adv-x="681" d="M102 707v159q66 -37 123.5 -52t104.5 -15q121 0 121 123q0 59 -33 80.5t-96 21.5h-101v131h98q47 0 76 14.5t29 77.5q0 55 -23.5 79t-78.5 24q-35 0 -80 -17.5t-101 -50.5v160q83 49 189 49q125 0 179 -63.5t54 -180.5q0 -41 -13 -80t-36 -67q33 -27 55.5 -73t22.5 -105 q0 -125 -59.5 -194t-202.5 -69q-59 0 -110.5 9.5t-117.5 38.5z" />
<glyph unicode="&#xb4;" horiz-adv-x="681" d="M131 1270l313 262l146 -168l-361 -213z" />
<glyph unicode="&#xb5;" horiz-adv-x="1253" d="M166 -373v1436h258v-639q0 -92 53 -141.5t141 -49.5q53 0 104.5 28t68.5 75v727h256v-784q0 -59 104 -60v-219q-53 0 -95 1t-75 9t-57.5 26.5t-42.5 51.5q-51 -66 -124 -85t-143 -19q-53 0 -104 13t-86 46v-416h-258z" />
<glyph unicode="&#xb6;" d="M229 1229q0 100 73 168.5t235 68.5h544l-104 -202v-1643h-201v1374h-133v-1374h-201v1378q-102 16 -157.5 83t-55.5 147z" />
<glyph unicode="&#xb7;" horiz-adv-x="569" d="M164 567v256h250v-256h-250z" />
<glyph unicode="&#xb8;" horiz-adv-x="681" d="M164 -332q20 41 36.5 80t29 81t23.5 92t21 116h199q-14 -152 -59 -263.5t-131 -183.5z" />
<glyph unicode="&#xb9;" horiz-adv-x="681" d="M160 1360l223 117h96v-666h146v-139h-443v139h154v479l-113 -57z" />
<glyph unicode="&#xba;" horiz-adv-x="747" d="M104 1075q0 94 13.5 171t45.5 131.5t83 84t129 29.5q152 0 213 -108.5t61 -307.5q0 -92 -14 -169t-46 -132t-85 -86t-129 -31q-78 0 -130 30t-83 85t-44.5 132t-13.5 171zM248 1075q0 -135 28.5 -205.5t98.5 -70.5q66 0 97.5 70.5t31.5 205.5q0 129 -33 202t-96 73 t-95 -73t-32 -202z" />
<glyph unicode="&#xbb;" d="M66 115l321 434l-321 436h210l353 -436l-353 -434h-210zM475 115l322 434l-322 436h211l352 -436l-352 -434h-211z" />
<glyph unicode="&#xbc;" horiz-adv-x="1708" d="M147 1360l222 117h94v-666h147v-139h-442v139h154v479l-111 -57zM326 0l903 1493h168l-903 -1493h-168zM1077 158v90l375 557h90v-506h72v-141h-72v-158h-141v158h-324zM1270 299h131v197z" />
<glyph unicode="&#xbd;" horiz-adv-x="1708" d="M143 1360l224 117h94v-666h147v-139h-442v139h153v479q-25 -14 -53 -27.5t-59 -27.5zM326 0l903 1493h168l-903 -1493h-168zM1094 0v125q39 43 101 96t121.5 113.5t102.5 126t43 133.5q0 84 -88 84q-53 0 -112.5 -18.5t-114.5 -51.5l-12 156q35 23 98 40t141 17 q43 0 85 -13t74 -41t51.5 -71t19.5 -102q0 -63 -25 -124.5t-65.5 -119t-93 -111t-105.5 -100.5h303v-139h-524z" />
<glyph unicode="&#xbe;" horiz-adv-x="1708" d="M129 707v159q68 -37 125 -52t102 -15q25 0 47.5 5t39 18.5t25.5 37t9 62.5q0 59 -31.5 80.5t-95.5 21.5h-102v131h98q47 0 77 15.5t30 76.5q0 63 -29 83t-74 20q-37 0 -83 -17.5t-99 -50.5v160q86 49 188 49q127 0 181.5 -65.5t54.5 -178.5q0 -41 -14.5 -80t-36.5 -67 q35 -27 56 -73t21 -105q0 -262 -262 -263q-59 0 -110 8.5t-117 39.5zM326 0l903 1493h168l-903 -1493h-168zM1096 158v90l374 557h91v-506h71v-141h-71v-158h-142v158h-323zM1288 299h131v197z" />
<glyph unicode="&#xbf;" horiz-adv-x="1251" d="M152 14q0 61 10 111.5t34.5 95.5t62.5 89t93 91q39 35 71 68t54.5 71t37.5 85t22 110h235q-4 -109 -21.5 -181.5t-48 -127.5t-74.5 -100t-102 -97q-59 -53 -91 -100t-32 -104q0 -86 59.5 -132.5t153.5 -46.5q43 0 101.5 11.5t120 30t122 41t107.5 44.5v-274 q-39 -18 -93 -35.5t-115.5 -31t-124 -22.5t-118.5 -9q-92 0 -176 26.5t-148.5 78.5t-102 130t-37.5 178zM537 815v256h249v-256h-249z" />
<glyph unicode="&#xc0;" horiz-adv-x="1478" d="M14 0l551 1464h340l565 -1464h-284l-127 334h-649l-121 -334h-275zM471 1736l139 170l320 -264l-105 -117zM475 565h516l-262 697z" />
<glyph unicode="&#xc1;" horiz-adv-x="1478" d="M14 0l551 1464h340l565 -1464h-284l-127 334h-649l-121 -334h-275zM475 565h516l-262 697zM498 1628l313 262l146 -168l-361 -213z" />
<glyph unicode="&#xc2;" horiz-adv-x="1478" d="M14 0l551 1464h340l565 -1464h-284l-127 334h-649l-121 -334h-275zM399 1611l252 256h113l252 -256l-139 -124l-172 206l-168 -206zM475 565h516l-262 697z" />
<glyph unicode="&#xc3;" horiz-adv-x="1478" d="M14 0l551 1464h340l565 -1464h-284l-127 334h-649l-121 -334h-275zM412 1626q10 53 30.5 88t45 55.5t53 28.5t53.5 8q39 0 68.5 -13t53 -28.5t43 -29t42.5 -13.5q18 0 45 23.5t37 75.5l129 -76q-23 -115 -79 -158t-126 -43q-31 0 -57.5 12.5t-49 26.5t-45 26.5 t-45.5 12.5q-16 0 -44.5 -19.5t-36.5 -66.5zM475 565h516l-262 697z" />
<glyph unicode="&#xc4;" horiz-adv-x="1478" d="M14 0l551 1464h340l565 -1464h-284l-127 334h-649l-121 -334h-275zM389 1556v236h230v-236h-230zM475 565h516l-262 697zM821 1556v236h228v-236h-228z" />
<glyph unicode="&#xc5;" horiz-adv-x="1478" d="M14 0l551 1464h340l565 -1464h-284l-127 334h-649l-121 -334h-275zM475 565h516l-262 697zM506 1560q0 201 221 201t221 -201q0 -100 -53 -152t-168 -52t-168 52t-53 152zM631 1562q0 -47 20.5 -70.5t75.5 -23.5q53 0 74.5 23.5t21.5 70.5q0 49 -21.5 70t-74.5 21 q-55 0 -75.5 -20.5t-20.5 -70.5z" />
<glyph unicode="&#xc6;" horiz-adv-x="2048" d="M-88 0l706 1464h1307v-245h-733v-318h684v-252h-684v-403h735v-246h-987v334h-584l-166 -334h-278zM473 588h467v631h-166z" />
<glyph unicode="&#xc7;" horiz-adv-x="1478" d="M98 733q0 190 50.5 332.5t140.5 237t218 141.5t286 47q125 0 229 -28.5t186 -93t138.5 -167t85.5 -250.5h-254q-20 82 -61.5 137.5t-93.5 90t-112.5 50t-117.5 15.5q-80 0 -158 -26.5t-139.5 -88t-100.5 -159t-39 -238.5t39 -238.5t100.5 -159t139.5 -88t158 -26.5 q61 0 123.5 18.5t116.5 58.5t94 102.5t59 148.5h254q-23 -131 -75 -231.5t-126 -170t-163 -110.5t-183 -53q-35 -270 -184 -394l-119 78q18 37 32.5 72t25.5 71.5t21.5 77.5t20.5 93q-137 14 -246.5 68t-186.5 147.5t-118 227.5t-41 308z" />
<glyph unicode="&#xc8;" horiz-adv-x="1366" d="M150 0v1464h1101v-245h-852v-318h803v-252h-803v-403h854v-246h-1103zM443 1736l139 170l320 -264l-105 -117z" />
<glyph unicode="&#xc9;" horiz-adv-x="1366" d="M150 0v1464h1101v-245h-852v-318h803v-252h-803v-403h854v-246h-1103zM469 1628l313 262l146 -168l-361 -213z" />
<glyph unicode="&#xca;" horiz-adv-x="1366" d="M150 0v1464h1101v-245h-852v-318h803v-252h-803v-403h854v-246h-1103zM350 1611l252 256h113l252 -256l-139 -124l-172 206l-168 -206z" />
<glyph unicode="&#xcb;" horiz-adv-x="1366" d="M150 0v1464h1101v-245h-852v-318h803v-252h-803v-403h854v-246h-1103zM358 1556v236h230v-236h-230zM790 1556v236h228v-236h-228z" />
<glyph unicode="&#xcc;" horiz-adv-x="569" d="M29 1736l139 170l320 -264l-105 -117zM164 0v1464h252v-1464h-252z" />
<glyph unicode="&#xcd;" horiz-adv-x="569" d="M53 1628l313 262l146 -168l-361 -213zM164 0v1464h252v-1464h-252z" />
<glyph unicode="&#xce;" horiz-adv-x="569" d="M-25 1611l252 256h113l252 -256l-139 -124l-172 206l-168 -206zM164 0v1464h252v-1464h-252z" />
<glyph unicode="&#xcf;" horiz-adv-x="569" d="M-35 1556v236h230v-236h-230zM164 0v1464h252v-1464h-252zM397 1556v236h228v-236h-228z" />
<glyph unicode="&#xd0;" horiz-adv-x="1478" d="M43 604v230h104v618q57 8 129 13t147 8.5t146.5 4.5t132.5 1q156 0 283 -45t216 -137.5t137 -232.5t48 -331q0 -190 -47 -330.5t-136 -233.5t-217 -138t-288 -45h-30h-101.5t-126 2t-142.5 6t-151 10v600h-104zM397 244q31 -2 70 -4t80 -3t81 -2.5t74 -1.5q80 0 157 26 t137.5 84t98.5 153.5t38 236.5q0 139 -39 235.5t-104.5 155t-152 84t-182.5 25.5q-27 0 -59.5 -2t-68 -4t-69.5 -4t-61 -4v-385h269v-230h-269v-360z" />
<glyph unicode="&#xd1;" horiz-adv-x="1478" d="M143 0v1464h219l713 -1003v1003h236v-1464h-221l-711 989v-989h-236zM436 1626q10 53 30.5 88t45 55.5t53 28.5t53.5 8q39 0 68.5 -13t53 -28.5t43 -29t42.5 -13.5q18 0 45 23.5t37 75.5l129 -76q-23 -115 -79 -158t-126 -43q-31 0 -57.5 12.5t-49 26.5t-45 26.5 t-45.5 12.5q-16 0 -44.5 -19.5t-36.5 -66.5z" />
<glyph unicode="&#xd2;" horiz-adv-x="1593" d="M90 733q0 190 53.5 332.5t149.5 237t228 141.5t290 47q154 0 283 -46t223 -140.5t146.5 -236.5t52.5 -335q0 -190 -51.5 -332.5t-144.5 -236.5t-223 -141.5t-286 -47.5q-160 0 -293 47.5t-228 142.5t-147.5 237.5t-52.5 330.5zM346 733q0 -141 43 -238.5t109.5 -159 t149.5 -88t163 -26.5t160 27.5t144.5 88t105.5 158t41 238.5t-41 238.5t-105.5 159t-144.5 88t-160 26.5t-163 -26.5t-149.5 -88t-109.5 -159t-43 -238.5zM537 1736l139 170l320 -264l-105 -117z" />
<glyph unicode="&#xd3;" horiz-adv-x="1593" d="M90 733q0 190 53.5 332.5t149.5 237t228 141.5t290 47q154 0 283 -46t223 -140.5t146.5 -236.5t52.5 -335q0 -190 -51.5 -332.5t-144.5 -236.5t-223 -141.5t-286 -47.5q-160 0 -293 47.5t-228 142.5t-147.5 237.5t-52.5 330.5zM346 733q0 -141 43 -238.5t109.5 -159 t149.5 -88t163 -26.5t160 27.5t144.5 88t105.5 158t41 238.5t-41 238.5t-105.5 159t-144.5 88t-160 26.5t-163 -26.5t-149.5 -88t-109.5 -159t-43 -238.5zM561 1628l313 262l146 -168l-361 -213z" />
<glyph unicode="&#xd4;" horiz-adv-x="1593" d="M90 733q0 190 53.5 332.5t149.5 237t228 141.5t290 47q154 0 283 -46t223 -140.5t146.5 -236.5t52.5 -335q0 -190 -51.5 -332.5t-144.5 -236.5t-223 -141.5t-286 -47.5q-160 0 -293 47.5t-228 142.5t-147.5 237.5t-52.5 330.5zM346 733q0 -141 43 -238.5t109.5 -159 t149.5 -88t163 -26.5t160 27.5t144.5 88t105.5 158t41 238.5t-41 238.5t-105.5 159t-144.5 88t-160 26.5t-163 -26.5t-149.5 -88t-109.5 -159t-43 -238.5zM462 1611l252 256h113l252 -256l-139 -124l-172 206l-168 -206z" />
<glyph unicode="&#xd5;" horiz-adv-x="1593" d="M90 733q0 190 53.5 332.5t149.5 237t228 141.5t290 47q154 0 283 -46t223 -140.5t146.5 -236.5t52.5 -335q0 -190 -51.5 -332.5t-144.5 -236.5t-223 -141.5t-286 -47.5q-160 0 -293 47.5t-228 142.5t-147.5 237.5t-52.5 330.5zM346 733q0 -141 43 -238.5t109.5 -159 t149.5 -88t163 -26.5t160 27.5t144.5 88t105.5 158t41 238.5t-41 238.5t-105.5 159t-144.5 88t-160 26.5t-163 -26.5t-149.5 -88t-109.5 -159t-43 -238.5zM475 1626q10 53 30.5 88t45 55.5t53 28.5t53.5 8q39 0 68.5 -13t53 -28.5t43 -29t42.5 -13.5q18 0 45 23.5t37 75.5 l129 -76q-23 -115 -79 -158t-126 -43q-31 0 -57.5 12.5t-49 26.5t-45 26.5t-45.5 12.5q-16 0 -44.5 -19.5t-36.5 -66.5z" />
<glyph unicode="&#xd6;" horiz-adv-x="1593" d="M90 733q0 190 53.5 332.5t149.5 237t228 141.5t290 47q154 0 283 -46t223 -140.5t146.5 -236.5t52.5 -335q0 -190 -51.5 -332.5t-144.5 -236.5t-223 -141.5t-286 -47.5q-160 0 -293 47.5t-228 142.5t-147.5 237.5t-52.5 330.5zM346 733q0 -141 43 -238.5t109.5 -159 t149.5 -88t163 -26.5t160 27.5t144.5 88t105.5 158t41 238.5t-41 238.5t-105.5 159t-144.5 88t-160 26.5t-163 -26.5t-149.5 -88t-109.5 -159t-43 -238.5zM452 1556v236h230v-236h-230zM884 1556v236h228v-236h-228z" />
<glyph unicode="&#xd7;" horiz-adv-x="1196" d="M109 1024l186 186l303 -303l303 303l180 -182l-301 -303l305 -303l-186 -186l-305 305l-301 -303l-182 182l303 303z" />
<glyph unicode="&#xd8;" horiz-adv-x="1593" d="M66 66l172 192q-47 76 -75 132t-43.5 107.5t-19.5 105.5t-4 126q0 168 51.5 307.5t143.5 239.5t218 155.5t275 55.5q125 0 226.5 -32t206.5 -99l155 178l168 -141l-174 -193q41 -63 67.5 -120.5t42 -113t20.5 -112.5t5 -123q0 -178 -57.5 -317.5t-153.5 -236.5 t-222 -148.5t-265 -51.5q-61 0 -113.5 6.5t-101.5 19.5t-97.5 38t-103.5 61l-156 -176zM379 731q0 -80 11 -137t34 -121l616 686q-66 45 -118 61.5t-119 16.5q-90 0 -168 -30.5t-135.5 -93t-89 -158t-31.5 -224.5zM563 299q53 -41 110.5 -56.5t123.5 -15.5q90 0 166.5 32 t133 94.5t88.5 156.5t32 217q0 137 -43 254z" />
<glyph unicode="&#xd9;" horiz-adv-x="1478" d="M147 434v1030h252v-997q0 -61 27 -107.5t73 -77t106.5 -46t127.5 -15.5q68 0 128.5 16.5t106.5 48t73.5 78t27.5 103.5v997h252v-1030q0 -115 -53.5 -201t-138.5 -143t-189 -86t-207 -29q-102 0 -206.5 29t-188.5 86t-137.5 143t-53.5 201zM467 1736l139 170l320 -264 l-105 -117z" />
<glyph unicode="&#xda;" horiz-adv-x="1478" d="M147 434v1030h252v-997q0 -61 27 -107.5t73 -77t106.5 -46t127.5 -15.5q68 0 128.5 16.5t106.5 48t73.5 78t27.5 103.5v997h252v-1030q0 -115 -53.5 -201t-138.5 -143t-189 -86t-207 -29q-102 0 -206.5 29t-188.5 86t-137.5 143t-53.5 201zM493 1628l313 262l146 -168 l-361 -213z" />
<glyph unicode="&#xdb;" horiz-adv-x="1478" d="M147 434v1030h252v-997q0 -61 27 -107.5t73 -77t106.5 -46t127.5 -15.5q68 0 128.5 16.5t106.5 48t73.5 78t27.5 103.5v997h252v-1030q0 -115 -53.5 -201t-138.5 -143t-189 -86t-207 -29q-102 0 -206.5 29t-188.5 86t-137.5 143t-53.5 201zM415 1611l252 256h113 l252 -256l-139 -124l-172 206l-168 -206z" />
<glyph unicode="&#xdc;" horiz-adv-x="1478" d="M147 434v1030h252v-997q0 -61 27 -107.5t73 -77t106.5 -46t127.5 -15.5q68 0 128.5 16.5t106.5 48t73.5 78t27.5 103.5v997h252v-1030q0 -115 -53.5 -201t-138.5 -143t-189 -86t-207 -29q-102 0 -206.5 29t-188.5 86t-137.5 143t-53.5 201zM403 1556v236h230v-236h-230z M835 1556v236h228v-236h-228z" />
<glyph unicode="&#xdd;" horiz-adv-x="1366" d="M4 1464h303l379 -628l381 628h299l-553 -880v-584h-252v584zM438 1628l313 262l146 -168l-361 -213z" />
<glyph unicode="&#xde;" horiz-adv-x="1366" d="M154 0v1464h252v-276q41 0 92 1t101 1t94 1t71 1q117 0 211 -26.5t161.5 -77t104.5 -125t37 -170.5q0 -117 -43 -207t-117 -152.5t-172 -94.5t-211 -32h-329v-307h-252zM406 555h356q51 0 98 14.5t84 42t58.5 66.5t21.5 88q0 92 -71.5 138t-182.5 46q-215 0 -364 -12 v-383z" />
<glyph unicode="&#xdf;" horiz-adv-x="1251" d="M139 0v1004q0 98 15.5 181t61.5 143.5t128 94t215 33.5q100 0 177 -22.5t127 -62.5t76 -93t26 -117q0 -66 -19.5 -111.5t-43 -83.5t-43 -72t-19.5 -75q0 -16 6 -31.5t20.5 -35t40 -46t64.5 -63.5q51 -51 83.5 -92t49 -78t23 -71.5t6.5 -73.5q0 -72 -25 -135.5t-69 -111.5 t-107.5 -77t-140.5 -29q-104 0 -184.5 54.5t-125.5 132.5l197 112q20 -39 38.5 -58t51.5 -19q53 0 74.5 36.5t21.5 85.5q0 12 -2 24.5t-16.5 33t-46 52.5t-88.5 85q-86 78 -127 141.5t-41 106.5q0 74 20.5 117t46 78.5t46 74.5t20.5 107q0 41 -33 72.5t-88 31.5 q-78 0 -106.5 -52t-28.5 -169v-1022h-281z" />
<glyph unicode="&#xe0;" d="M63 281q0 119 68 195.5t172.5 119.5t231.5 60.5t243 19.5v2q0 76 -47 129t-162 53q-86 0 -147.5 -31.5t-81.5 -97.5h-240q10 78 43 141.5t91.5 109.5t143.5 71.5t200 25.5q94 0 173.5 -19.5t137 -65.5t90.5 -122.5t33 -193.5v-516q0 -78 53 -162h-229q-39 41 -41 90 q-53 -41 -146.5 -74.5t-236.5 -33.5q-72 0 -135.5 17t-110.5 54t-75 93.5t-28 134.5zM293 1378l139 170l320 -264l-105 -117zM322 295q0 -59 45 -87t120 -28q49 0 95.5 10.5t85.5 29t67.5 42t42.5 47.5v187q-80 -4 -161.5 -15.5t-147.5 -35t-106.5 -59.5t-40.5 -91z" />
<glyph unicode="&#xe1;" d="M63 281q0 119 68 195.5t172.5 119.5t231.5 60.5t243 19.5v2q0 76 -47 129t-162 53q-86 0 -147.5 -31.5t-81.5 -97.5h-240q10 78 43 141.5t91.5 109.5t143.5 71.5t200 25.5q94 0 173.5 -19.5t137 -65.5t90.5 -122.5t33 -193.5v-516q0 -78 53 -162h-229q-39 41 -41 90 q-53 -41 -146.5 -74.5t-236.5 -33.5q-72 0 -135.5 17t-110.5 54t-75 93.5t-28 134.5zM322 295q0 -59 45 -87t120 -28q49 0 95.5 10.5t85.5 29t67.5 42t42.5 47.5v187q-80 -4 -161.5 -15.5t-147.5 -35t-106.5 -59.5t-40.5 -91zM373 1270l313 262l146 -168l-361 -213z" />
<glyph unicode="&#xe2;" d="M63 281q0 119 68 195.5t172.5 119.5t231.5 60.5t243 19.5v2q0 76 -47 129t-162 53q-86 0 -147.5 -31.5t-81.5 -97.5h-240q10 78 43 141.5t91.5 109.5t143.5 71.5t200 25.5q94 0 173.5 -19.5t137 -65.5t90.5 -122.5t33 -193.5v-516q0 -78 53 -162h-229q-39 41 -41 90 q-53 -41 -146.5 -74.5t-236.5 -33.5q-72 0 -135.5 17t-110.5 54t-75 93.5t-28 134.5zM245 1257l252 256h113l252 -256l-139 -124l-172 206l-168 -206zM322 295q0 -59 45 -87t120 -28q49 0 95.5 10.5t85.5 29t67.5 42t42.5 47.5v187q-80 -4 -161.5 -15.5t-147.5 -35 t-106.5 -59.5t-40.5 -91z" />
<glyph unicode="&#xe3;" d="M63 281q0 119 68 195.5t172.5 119.5t231.5 60.5t243 19.5v2q0 76 -47 129t-162 53q-86 0 -147.5 -31.5t-81.5 -97.5h-240q10 78 43 141.5t91.5 109.5t143.5 71.5t200 25.5q94 0 173.5 -19.5t137 -65.5t90.5 -122.5t33 -193.5v-516q0 -78 53 -162h-229q-39 41 -41 90 q-53 -41 -146.5 -74.5t-236.5 -33.5q-72 0 -135.5 17t-110.5 54t-75 93.5t-28 134.5zM273 1284q10 53 30.5 88t45 55.5t53 28.5t53.5 8q39 0 68.5 -13t53 -28.5t43 -29t42.5 -13.5q18 0 45 23.5t37 75.5l129 -76q-23 -115 -79 -158t-126 -43q-31 0 -57.5 12.5t-49 26.5 t-45 26.5t-45.5 12.5q-16 0 -44.5 -19.5t-36.5 -66.5zM322 295q0 -59 45 -87t120 -28q49 0 95.5 10.5t85.5 29t67.5 42t42.5 47.5v187q-80 -4 -161.5 -15.5t-147.5 -35t-106.5 -59.5t-40.5 -91z" />
<glyph unicode="&#xe4;" d="M63 281q0 119 68 195.5t172.5 119.5t231.5 60.5t243 19.5v2q0 76 -47 129t-162 53q-86 0 -147.5 -31.5t-81.5 -97.5h-240q10 78 43 141.5t91.5 109.5t143.5 71.5t200 25.5q94 0 173.5 -19.5t137 -65.5t90.5 -122.5t33 -193.5v-516q0 -78 53 -162h-229q-39 41 -41 90 q-53 -41 -146.5 -74.5t-236.5 -33.5q-72 0 -135.5 17t-110.5 54t-75 93.5t-28 134.5zM241 1257v236h230v-236h-230zM322 295q0 -59 45 -87t120 -28q49 0 95.5 10.5t85.5 29t67.5 42t42.5 47.5v187q-80 -4 -161.5 -15.5t-147.5 -35t-106.5 -59.5t-40.5 -91zM673 1257v236h228 v-236h-228z" />
<glyph unicode="&#xe5;" d="M63 281q0 119 68 195.5t172.5 119.5t231.5 60.5t243 19.5v2q0 76 -47 129t-162 53q-86 0 -147.5 -31.5t-81.5 -97.5h-240q10 78 43 141.5t91.5 109.5t143.5 71.5t200 25.5q94 0 173.5 -19.5t137 -65.5t90.5 -122.5t33 -193.5v-516q0 -78 53 -162h-229q-39 41 -41 90 q-53 -41 -146.5 -74.5t-236.5 -33.5q-72 0 -135.5 17t-110.5 54t-75 93.5t-28 134.5zM322 295q0 -59 45 -87t120 -28q49 0 95.5 10.5t85.5 29t67.5 42t42.5 47.5v187q-80 -4 -161.5 -15.5t-147.5 -35t-106.5 -59.5t-40.5 -91zM352 1341q0 201 221 201t221 -201 q0 -100 -53 -152t-168 -52t-168 52t-53 152zM477 1343q0 -47 20.5 -70.5t75.5 -23.5q53 0 74.5 23.5t21.5 70.5q0 49 -21.5 70t-74.5 21q-55 0 -75.5 -20.5t-20.5 -70.5z" />
<glyph unicode="&#xe6;" horiz-adv-x="1820" d="M63 313q0 117 68 187.5t172.5 108.5t231.5 51.5t243 15.5v2q0 76 -47 129t-162 53q-86 0 -147.5 -31.5t-81.5 -97.5h-240q10 76 42 140.5t89.5 110.5t142.5 71.5t204 25.5q111 0 196.5 -27.5t138.5 -93.5q121 121 334 121q102 0 193.5 -27.5t160 -96t108.5 -185.5 t40 -295h-737q6 -55 22.5 -101t44 -80t69.5 -53.5t99 -19.5q86 0 145.5 41t82.5 105h254q-16 -84 -55.5 -155t-100 -122t-142 -79.5t-184.5 -28.5q-74 0 -129 14t-96 37.5t-72.5 56.5t-58.5 70q-55 -74 -168 -129.5t-264 -55.5q-178 0 -287 80t-109 258zM322 295 q0 -59 45 -87t120 -28q117 0 191 34t100 75v207q-80 -4 -161.5 -15.5t-147.5 -35t-106.5 -59.5t-40.5 -91zM1004 649h495q-12 92 -78 157.5t-166 65.5q-45 0 -87 -18t-75.5 -49t-57 -72t-31.5 -84z" />
<glyph unicode="&#xe7;" d="M84 541q0 94 26.5 190t85 173t151.5 125t228 48q84 0 159 -18.5t135.5 -59.5t104.5 -107.5t66 -160.5h-260q-61 109 -205 109q-123 0 -181 -78t-58 -221q0 -68 13 -126.5t42 -101.5t74 -68.5t110 -25.5q156 0 209 148h258q-31 -135 -113.5 -234.5t-217.5 -134.5 q-16 -137 -61.5 -239.5t-125.5 -168.5l-118 78q18 39 31.5 73t24.5 70.5t21.5 77.5t24.5 97q-115 12 -196 63t-132 128t-73.5 171t-22.5 193z" />
<glyph unicode="&#xe8;" d="M63 543q0 109 33 206t95.5 170.5t154.5 116.5t209 43q102 0 193.5 -33.5t160 -106.5t108.5 -187.5t40 -276.5h-752q6 -55 24.5 -102t49.5 -82t75 -54.5t101 -19.5q86 0 148.5 43t84.5 107h248q-14 -78 -51 -149t-97.5 -123t-143 -82.5t-187.5 -30.5q-119 0 -211 47 t-154.5 124.5t-95.5 179t-33 210.5zM285 1378l139 170l320 -264l-105 -117zM303 649h504q-16 98 -80 160.5t-164 62.5q-92 0 -164.5 -58t-95.5 -165z" />
<glyph unicode="&#xe9;" d="M63 543q0 109 33 206t95.5 170.5t154.5 116.5t209 43q102 0 193.5 -33.5t160 -106.5t108.5 -187.5t40 -276.5h-752q6 -55 24.5 -102t49.5 -82t75 -54.5t101 -19.5q86 0 148.5 43t84.5 107h248q-14 -78 -51 -149t-97.5 -123t-143 -82.5t-187.5 -30.5q-119 0 -211 47 t-154.5 124.5t-95.5 179t-33 210.5zM303 649h504q-16 98 -80 160.5t-164 62.5q-92 0 -164.5 -58t-95.5 -165zM362 1270l313 262l146 -168l-361 -213z" />
<glyph unicode="&#xea;" d="M63 543q0 109 33 206t95.5 170.5t154.5 116.5t209 43q102 0 193.5 -33.5t160 -106.5t108.5 -187.5t40 -276.5h-752q6 -55 24.5 -102t49.5 -82t75 -54.5t101 -19.5q86 0 148.5 43t84.5 107h248q-14 -78 -51 -149t-97.5 -123t-143 -82.5t-187.5 -30.5q-119 0 -211 47 t-154.5 124.5t-95.5 179t-33 210.5zM235 1257l252 256h113l252 -256l-139 -124l-172 206l-168 -206zM303 649h504q-16 98 -80 160.5t-164 62.5q-92 0 -164.5 -58t-95.5 -165z" />
<glyph unicode="&#xeb;" d="M63 543q0 109 33 206t95.5 170.5t154.5 116.5t209 43q102 0 193.5 -33.5t160 -106.5t108.5 -187.5t40 -276.5h-752q6 -55 24.5 -102t49.5 -82t75 -54.5t101 -19.5q86 0 148.5 43t84.5 107h248q-14 -78 -51 -149t-97.5 -123t-143 -82.5t-187.5 -30.5q-119 0 -211 47 t-154.5 124.5t-95.5 179t-33 210.5zM229 1257v236h230v-236h-230zM303 649h504q-16 98 -80 160.5t-164 62.5q-92 0 -164.5 -58t-95.5 -165zM661 1257v236h228v-236h-228z" />
<glyph unicode="&#xec;" horiz-adv-x="569" d="M15 1378l139 170l320 -264l-105 -117zM166 0v1063h246v-1063h-246z" />
<glyph unicode="&#xed;" horiz-adv-x="569" d="M74 1270l313 262l146 -168l-361 -213zM166 0v1063h246v-1063h-246z" />
<glyph unicode="&#xee;" horiz-adv-x="569" d="M-33 1257l252 256h113l252 -256l-139 -124l-172 206l-168 -206zM166 0v1063h246v-1063h-246z" />
<glyph unicode="&#xef;" horiz-adv-x="569" d="M-39 1257v236h230v-236h-230zM166 0v1063h246v-1063h-246zM393 1257v236h228v-236h-228z" />
<glyph unicode="&#xf0;" horiz-adv-x="1251" d="M92 473q0 113 36 207t100.5 161.5t155.5 104.5t204 37q86 0 152.5 -22.5t125.5 -57.5q-2 31 -8 58.5t-18.5 55t-33 57.5t-50.5 67l-107 -90l-90 102l76 64q-51 10 -96 10q-66 0 -125.5 -11.5t-114.5 -29.5l10 260q35 10 94.5 19.5t124.5 9.5q203 0 326 -72l135 115 l88 -103l-121 -104q59 -76 96.5 -148.5t59 -149.5t28.5 -161t7 -182q0 -344 -132 -520.5t-390 -176.5q-115 0 -213.5 35t-169 100.5t-110.5 157.5t-40 207zM350 467q0 -121 68.5 -194.5t173.5 -73.5q55 0 107.5 23.5t92 62.5t64.5 90t25 108q0 59 -19.5 111.5t-54.5 91.5 t-81 61.5t-99 22.5q-57 0 -107.5 -20.5t-88.5 -60.5t-59.5 -96t-21.5 -126z" />
<glyph unicode="&#xf1;" horiz-adv-x="1251" d="M145 0v1063h232v-117q176 133 346 133q180 0 284.5 -116.5t104.5 -362.5v-600h-246v600q0 127 -57 183.5t-137 56.5q-152 0 -281 -105v-735h-246zM330 1284q10 53 30.5 88t45 55.5t53 28.5t53.5 8q39 0 68.5 -13t53 -28.5t43 -29t42.5 -13.5q18 0 45 23.5t37 75.5 l129 -76q-23 -115 -79 -158t-126 -43q-31 0 -57.5 12.5t-49 26.5t-45 26.5t-45.5 12.5q-16 0 -44.5 -19.5t-36.5 -66.5z" />
<glyph unicode="&#xf2;" horiz-adv-x="1251" d="M90 530q0 254 136.5 401.5t404.5 147.5q131 0 231.5 -39t170 -110.5t105.5 -173t36 -226.5q0 -119 -35 -219t-103.5 -174t-170 -114.5t-234.5 -40.5q-135 0 -236.5 40.5t-169 113.5t-101.5 173.5t-34 220.5zM336 530q0 -68 21.5 -127t59.5 -102t92 -68.5t122 -25.5 t123 24.5t94 68.5t60.5 103.5t21.5 126.5q0 72 -21.5 131.5t-61.5 101.5t-95 65.5t-121 23.5q-63 0 -116.5 -22.5t-93.5 -64.5t-62.5 -101.5t-22.5 -133.5zM352 1378l139 170l320 -264l-105 -117z" />
<glyph unicode="&#xf3;" horiz-adv-x="1251" d="M90 530q0 254 136.5 401.5t404.5 147.5q131 0 231.5 -39t170 -110.5t105.5 -173t36 -226.5q0 -119 -35 -219t-103.5 -174t-170 -114.5t-234.5 -40.5q-135 0 -236.5 40.5t-169 113.5t-101.5 173.5t-34 220.5zM336 530q0 -68 21.5 -127t59.5 -102t92 -68.5t122 -25.5 t123 24.5t94 68.5t60.5 103.5t21.5 126.5q0 72 -21.5 131.5t-61.5 101.5t-95 65.5t-121 23.5q-63 0 -116.5 -22.5t-93.5 -64.5t-62.5 -101.5t-22.5 -133.5zM432 1270l313 262l146 -168l-361 -213z" />
<glyph unicode="&#xf4;" horiz-adv-x="1251" d="M90 530q0 254 136.5 401.5t404.5 147.5q131 0 231.5 -39t170 -110.5t105.5 -173t36 -226.5q0 -119 -35 -219t-103.5 -174t-170 -114.5t-234.5 -40.5q-135 0 -236.5 40.5t-169 113.5t-101.5 173.5t-34 220.5zM305 1257l252 256h113l252 -256l-139 -124l-172 206l-168 -206 zM336 530q0 -68 21.5 -127t59.5 -102t92 -68.5t122 -25.5t123 24.5t94 68.5t60.5 103.5t21.5 126.5q0 72 -21.5 131.5t-61.5 101.5t-95 65.5t-121 23.5q-63 0 -116.5 -22.5t-93.5 -64.5t-62.5 -101.5t-22.5 -133.5z" />
<glyph unicode="&#xf5;" horiz-adv-x="1251" d="M90 530q0 254 136.5 401.5t404.5 147.5q131 0 231.5 -39t170 -110.5t105.5 -173t36 -226.5q0 -119 -35 -219t-103.5 -174t-170 -114.5t-234.5 -40.5q-135 0 -236.5 40.5t-169 113.5t-101.5 173.5t-34 220.5zM330 1284q10 53 30.5 88t45 55.5t53 28.5t53.5 8 q39 0 68.5 -13t53 -28.5t43 -29t42.5 -13.5q18 0 45 23.5t37 75.5l129 -76q-23 -115 -79 -158t-126 -43q-31 0 -57.5 12.5t-49 26.5t-45 26.5t-45.5 12.5q-16 0 -44.5 -19.5t-36.5 -66.5zM336 530q0 -68 21.5 -127t59.5 -102t92 -68.5t122 -25.5t123 24.5t94 68.5 t60.5 103.5t21.5 126.5q0 72 -21.5 131.5t-61.5 101.5t-95 65.5t-121 23.5q-63 0 -116.5 -22.5t-93.5 -64.5t-62.5 -101.5t-22.5 -133.5z" />
<glyph unicode="&#xf6;" horiz-adv-x="1251" d="M90 530q0 254 136.5 401.5t404.5 147.5q131 0 231.5 -39t170 -110.5t105.5 -173t36 -226.5q0 -119 -35 -219t-103.5 -174t-170 -114.5t-234.5 -40.5q-135 0 -236.5 40.5t-169 113.5t-101.5 173.5t-34 220.5zM289 1257v236h230v-236h-230zM336 530q0 -68 21.5 -127 t59.5 -102t92 -68.5t122 -25.5t123 24.5t94 68.5t60.5 103.5t21.5 126.5q0 72 -21.5 131.5t-61.5 101.5t-95 65.5t-121 23.5q-63 0 -116.5 -22.5t-93.5 -64.5t-62.5 -101.5t-22.5 -133.5zM721 1257v236h228v-236h-228z" />
<glyph unicode="&#xf7;" horiz-adv-x="1124" d="M43 606v230h999v-230h-999zM420 324q0 61 42 103t103 42q59 0 103.5 -42t44.5 -103t-44 -104.5t-104 -43.5q-61 0 -103 43t-42 105zM420 1102q0 63 42 105t103 42q59 0 103.5 -42t44.5 -105q0 -61 -44 -103.5t-104 -42.5q-61 0 -103 42t-42 104z" />
<glyph unicode="&#xf8;" horiz-adv-x="1251" d="M90 530q0 254 136.5 401.5t404.5 147.5q47 0 89 -5t83 -15l53 115h172l-82 -175q111 -70 169.5 -189.5t58.5 -279.5q0 -119 -35 -219t-103.5 -174t-170 -114.5t-234.5 -40.5q-41 0 -76 4t-70 10l-47 -107h-172l72 158q-125 68 -186.5 193t-61.5 290zM330 526 q0 -80 29.5 -147.5t82.5 -114.5l271 578q-16 4 -35 6t-37 2q-68 0 -124 -22.5t-98 -65.5t-65.5 -102.5t-23.5 -133.5zM573 203h45q70 0 128.5 25.5t99.5 69.5t63.5 104t22.5 130q0 76 -24.5 136.5t-69.5 103.5z" />
<glyph unicode="&#xf9;" horiz-adv-x="1251" d="M141 463v600h244v-600q0 -61 19.5 -106.5t50 -76t69.5 -45t78 -14.5q154 0 260 107v735h246v-1063h-246v113q-117 -127 -311 -127q-88 0 -163 27.5t-130 86t-86 148.5t-31 215zM346 1378l139 170l320 -264l-105 -117z" />
<glyph unicode="&#xfa;" horiz-adv-x="1251" d="M141 463v600h244v-600q0 -61 19.5 -106.5t50 -76t69.5 -45t78 -14.5q154 0 260 107v735h246v-1063h-246v113q-117 -127 -311 -127q-88 0 -163 27.5t-130 86t-86 148.5t-31 215zM426 1270l313 262l146 -168l-361 -213z" />
<glyph unicode="&#xfb;" horiz-adv-x="1251" d="M141 463v600h244v-600q0 -61 19.5 -106.5t50 -76t69.5 -45t78 -14.5q154 0 260 107v735h246v-1063h-246v113q-117 -127 -311 -127q-88 0 -163 27.5t-130 86t-86 148.5t-31 215zM299 1257l252 256h113l252 -256l-139 -124l-172 206l-168 -206z" />
<glyph unicode="&#xfc;" horiz-adv-x="1251" d="M141 463v600h244v-600q0 -61 19.5 -106.5t50 -76t69.5 -45t78 -14.5q154 0 260 107v735h246v-1063h-246v113q-117 -127 -311 -127q-88 0 -163 27.5t-130 86t-86 148.5t-31 215zM293 1257v236h230v-236h-230zM725 1257v236h228v-236h-228z" />
<glyph unicode="&#xfd;" d="M14 1063h271l284 -782l273 782h260l-379 -1083q-27 -74 -70 -148t-101 -132t-128 -94t-150 -36q-41 0 -102 12t-109 33l115 233q33 -23 64.5 -30.5t56.5 -7.5q27 0 53.5 16t49 43t41 61.5t32.5 69.5h-65zM362 1270l313 262l146 -168l-361 -213z" />
<glyph unicode="&#xfe;" horiz-adv-x="1251" d="M139 -373v1839h246v-505q63 66 143 91t185 25q94 0 178 -41t147.5 -114.5t100.5 -176t37 -223.5q0 -123 -36 -223t-102.5 -173t-161 -113t-210.5 -40q-80 0 -146.5 16.5t-136.5 51.5v-414h-244zM385 266q121 -63 246 -63q70 0 128 25.5t100 69.5t64.5 101.5t22.5 122.5 q0 63 -22.5 123t-62.5 106t-93 73.5t-113 27.5q-127 0 -270 -111v-475z" />
<glyph unicode="&#xff;" d="M14 1063h271l284 -782l273 782h260l-379 -1083q-27 -74 -70 -148t-101 -132t-128 -94t-150 -36q-41 0 -102 12t-109 33l115 233q33 -23 64.5 -30.5t56.5 -7.5q27 0 53.5 16t49 43t41 61.5t32.5 69.5h-65zM235 1257v236h230v-236h-230zM667 1257v236h228v-236h-228z" />
<glyph unicode="&#x152;" horiz-adv-x="2048" d="M74 733q0 383 151 570.5t473 187.5q123 0 207 -22.5t150 -82.5v78h887v-245h-637v-318h587v-252h-587v-403h639v-246h-889v80q-68 -55 -155 -80t-202 -25q-317 0 -470.5 184.5t-153.5 573.5zM330 733q0 -139 27.5 -236.5t76.5 -159t116.5 -89t147.5 -27.5 q76 0 140.5 26.5t111.5 88t73 159t26 238.5t-26 238.5t-72 159t-110.5 88t-142.5 26.5t-145.5 -27.5t-116.5 -89t-77.5 -159t-28.5 -236.5z" />
<glyph unicode="&#x153;" horiz-adv-x="1933" d="M90 530q0 127 35 228.5t102.5 173.5t163.5 109.5t219 37.5q131 0 233.5 -40t162.5 -111q63 74 154 113.5t214 39.5q82 0 167 -27.5t154.5 -96t113.5 -186.5t46 -296h-737q6 -55 22.5 -101t44 -80t69.5 -53.5t100 -19.5q86 0 145.5 41t81.5 105h254q-16 -84 -57 -155 t-102.5 -122t-142.5 -79.5t-179 -28.5q-129 0 -213 40.5t-135 112.5q-59 -72 -161 -112.5t-235 -40.5q-123 0 -220 40.5t-163.5 113.5t-101.5 173.5t-35 220.5zM336 530q0 -68 21.5 -127t59.5 -102t92 -68.5t122 -25.5t123 24.5t94 68.5t60.5 103.5t21.5 126.5 q0 72 -21.5 131.5t-61.5 101.5t-95 65.5t-121 23.5q-63 0 -116.5 -22.5t-93.5 -64.5t-62.5 -101.5t-22.5 -133.5zM1110 649h496q-12 92 -78 157.5t-166 65.5q-45 0 -87 -18t-76 -49t-57.5 -72t-31.5 -84z" />
<glyph unicode="&#x178;" horiz-adv-x="1366" d="M4 1464h303l379 -628l381 628h299l-553 -880v-584h-252v584zM354 1556v236h230v-236h-230zM786 1556v236h228v-236h-228z" />
<glyph unicode="&#x2c6;" horiz-adv-x="681" d="M16 1257l252 256h113l252 -256l-139 -124l-172 206l-168 -206z" />
<glyph unicode="&#x2dc;" horiz-adv-x="681" d="M33 1284q10 53 30.5 88t45 55.5t53 28.5t53.5 8q39 0 68.5 -13t53 -28.5t43 -29t42.5 -13.5q18 0 45 23.5t37 75.5l129 -76q-23 -115 -79 -158t-126 -43q-31 0 -57.5 12.5t-49 26.5t-45 26.5t-45.5 12.5q-16 0 -44.5 -19.5t-36.5 -66.5z" />
<glyph unicode="&#x2000;" horiz-adv-x="953" />
<glyph unicode="&#x2001;" horiz-adv-x="1906" />
<glyph unicode="&#x2002;" horiz-adv-x="953" />
<glyph unicode="&#x2003;" horiz-adv-x="1906" />
<glyph unicode="&#x2004;" horiz-adv-x="635" />
<glyph unicode="&#x2005;" horiz-adv-x="476" />
<glyph unicode="&#x2006;" horiz-adv-x="317" />
<glyph unicode="&#x2007;" horiz-adv-x="317" />
<glyph unicode="&#x2008;" horiz-adv-x="238" />
<glyph unicode="&#x2009;" horiz-adv-x="381" />
<glyph unicode="&#x200a;" horiz-adv-x="105" />
<glyph unicode="&#x2010;" horiz-adv-x="681" d="M86 430v229h590v-229h-590z" />
<glyph unicode="&#x2011;" horiz-adv-x="681" d="M86 430v229h590v-229h-590z" />
<glyph unicode="&#x2012;" horiz-adv-x="681" d="M86 430v229h590v-229h-590z" />
<glyph unicode="&#x2013;" d="M6 403v252h1135v-252h-1135z" />
<glyph unicode="&#x2014;" horiz-adv-x="2048" d="M0 401v252h2048v-252h-2048z" />
<glyph unicode="&#x2018;" horiz-adv-x="569" d="M150 952v219q33 100 153 228l70 -60q-55 -61 -76 -120l104 -54v-213h-251z" />
<glyph unicode="&#x2019;" horiz-adv-x="569" d="M160 1229v213h252v-219q-35 -102 -154 -228l-70 60q55 61 76 121z" />
<glyph unicode="&#x201a;" horiz-adv-x="569" d="M154 43v213h252v-219q-35 -102 -154 -227l-70 59q55 61 76 121z" />
<glyph unicode="&#x201c;" horiz-adv-x="1024" d="M150 952v219q33 100 153 228l70 -60q-55 -61 -76 -120l104 -54v-213h-251zM621 952v219q33 100 153 228l70 -60q-55 -61 -76 -120l104 -54v-213h-251z" />
<glyph unicode="&#x201d;" horiz-adv-x="1024" d="M145 1229v213h252v-219q-35 -102 -153 -228l-70 60q55 61 76 121zM616 1229v213h252v-219q-35 -102 -153 -228l-70 60q55 61 76 121z" />
<glyph unicode="&#x201e;" horiz-adv-x="1024" d="M154 43v213h252v-219q-35 -102 -154 -227l-70 59q55 61 76 121zM625 43v213h252v-219q-35 -102 -154 -227l-70 59q55 61 76 121z" />
<glyph unicode="&#x2022;" horiz-adv-x="716" d="M86 715q0 57 20.5 107t57.5 87t86 57.5t106 20.5q55 0 104.5 -20.5t86.5 -57.5t58.5 -87t21.5 -107t-21.5 -106.5t-58.5 -86.5t-86 -57.5t-105 -20.5q-57 0 -106 20.5t-86 57.5t-57.5 86t-20.5 107z" />
<glyph unicode="&#x2026;" horiz-adv-x="2048" d="M195 123q0 61 43 103t104 42q59 0 102 -42t43 -103t-43 -104.5t-102 -43.5q-61 0 -104 43t-43 105zM879 123q0 61 42 103t105 42q59 0 102 -42t43 -103t-43 -104.5t-102 -43.5q-63 0 -105 43t-42 105zM1561 123q0 61 42 103t103 42t103 -42t42 -103t-42 -104.5 t-103 -43.5t-103 43t-42 105z" />
<glyph unicode="&#x202f;" horiz-adv-x="381" />
<glyph unicode="&#x2039;" horiz-adv-x="681" d="M63 549l353 436h211l-322 -436l322 -434h-211z" />
<glyph unicode="&#x203a;" horiz-adv-x="681" d="M66 115l321 434l-321 436h210l353 -436l-353 -434h-210z" />
<glyph unicode="&#x205f;" horiz-adv-x="476" />
<glyph unicode="&#x20ac;" d="M-33 811l60 213h129q72 236 243.5 351.5t427.5 115.5q49 0 123 -4t178 -19l-77 -247q-84 16 -139.5 20t-84.5 4q-55 0 -111.5 -12t-108.5 -39t-97 -69t-76 -101h565l-65 -213h-563q-2 -16 -3 -37.5t-1 -40.5v-43t4 -43h512l-66 -213h-387q59 -113 157.5 -163t205.5 -50 q41 0 112.5 9.5t155.5 27.5v-258q-84 -14 -152.5 -19.5t-115.5 -5.5q-248 0 -412 115t-229 344h-183l58 213h88q-2 20 -2 42v44v41t2 37h-148z" />
<glyph unicode="&#x2122;" horiz-adv-x="2048" d="M283 1268v198h551v-198h-175v-656h-198v656h-178zM1057 612v854h135l225 -338l225 338h136v-854h-191v469l-170 -247l-170 241v-463h-190z" />
<glyph unicode="&#x25fc;" horiz-adv-x="1064" d="M0 0v1065h1065v-1065h-1065z" />
<glyph unicode="&#xfb01;" horiz-adv-x="1251" d="M49 842v221h137q0 209 100.5 318.5t266.5 109.5q43 0 87 -10.5t91 -26.5l-47 -237q-55 27 -79.5 32.5t-51.5 5.5q-61 0 -91 -34.5t-30 -114.5v-43h211v-221h-211v-842h-246v842h-137zM844 0v1063h248v-1063h-248zM844 1210v256h248v-256h-248z" />
<glyph unicode="&#xfb02;" horiz-adv-x="1251" d="M49 842v221h137q0 209 100.5 318.5t266.5 109.5q43 0 87 -10.5t91 -26.5l-47 -237q-55 27 -79.5 32.5t-51.5 5.5q-61 0 -91 -34.5t-30 -114.5v-43h211v-221h-211v-842h-246v842h-137zM848 0v1466h246v-1466h-246z" />
</font>
</defs>
</svg>
