<?xml version="1.0" encoding="utf-8"?>
<!-- Generator: Adobe Illustrator 19.1.1, SVG Export Plug-In . SVG Version: 6.00 Build 0)  -->
<svg version="1.1" id="Capa_1" xmlns="http://www.w3.org/2000/svg" xmlns:xlink="http://www.w3.org/1999/xlink" x="0px" y="0px"
	 viewBox="0 0 45 45" style="enable-background:new 0 0 45 45;" xml:space="preserve">
<style type="text/css">
	.st0{fill:#722B88;}
	.st1{fill:#742E8A;}
	.st2{fill:#732C89;}
	.st3{fill-rule:evenodd;clip-rule:evenodd;fill:#742E8A;}
</style>
<g>
	<path class="st0" d="M34.8,14.3H12.6c-2.8,0-6.6-0.5-6.7-5.2c0-1.5,0.4-2.8,1.3-3.7c1.4-1.4,3.5-1.6,4.3-1.6l23,0h0
		c0.6,0,1,0.4,1,1c0,0.6-0.4,1-1,1l-22,0l-0.5,0l-0.5,0c-0.4,0-2,0.1-2.9,1C8.2,7.3,7.9,8,7.9,9c0,2,0.8,3.2,4.7,3.2h22.2
		c0.6,0,1,0.4,1,1S35.4,14.3,34.8,14.3z"/>
	<path class="st1" d="M40.8,41.3H11.3c-7.1,0-8.5-3.9-8.5-7.2c0-4.8,2.4-7.2,7.1-7.2l1.3,0h29.6c0.6,0,1,0.4,1,1s-0.4,1-1,1l-30.9,0
		c-2.6,0-5.1,0.6-5.1,5.2c0,2.2,0.7,5.2,6.5,5.2h29.5c0.6,0,1,0.4,1,1S41.4,41.3,40.8,41.3z"/>
	<path class="st2" d="M34.7,27.1l-27.7,0c-0.6,0-1-0.4-1-1s0.4-1,1-1l27.7,0c2.3,0,4.5-0.5,4.5-4.5c0-1.9-0.6-4.5-5.8-4.5l-26.9,0
		c0,0,0,0,0,0c-0.6,0-1-0.4-1-1c0-0.6,0.4-1,1-1l26.9,0c6.7,0,7.8,4.1,7.8,6.5C41.1,24.9,39,27.1,34.7,27.1z"/>
	<rect x="11.3" y="7" class="st3" width="21.9" height="0.8"/>
	<rect x="11.3" y="8.5" class="st3" width="21.9" height="0.8"/>
	<rect x="11.3" y="10" class="st3" width="21.9" height="0.8"/>
	<rect x="8.3" y="18.3" class="st3" width="26.5" height="0.8"/>
	<rect x="8.3" y="20.6" class="st3" width="26.5" height="0.8"/>
	<rect x="8.3" y="22.9" class="st3" width="26.5" height="0.8"/>
	<rect x="9.1" y="31.9" class="st3" width="29.5" height="0.8"/>
	<rect x="9.1" y="34.2" class="st3" width="29.5" height="0.8"/>
	<rect x="9.1" y="36.5" class="st3" width="29.5" height="0.8"/>
</g>
</svg>
