<?xml version="1.0" encoding="utf-8"?>
<!-- Generator: Adobe Illustrator 19.1.1, SVG Export Plug-In . SVG Version: 6.00 Build 0)  -->
<svg version="1.1" id="Capa_1" xmlns="http://www.w3.org/2000/svg" xmlns:xlink="http://www.w3.org/1999/xlink" x="0px" y="0px"
	 viewBox="0 0 96 90" style="enable-background:new 0 0 96 90;" xml:space="preserve">
<style type="text/css">
	.st0{fill-rule:evenodd;clip-rule:evenodd;fill:none;stroke:#955DA2;stroke-width:2;stroke-miterlimit:10;}
	.st1{fill-rule:evenodd;clip-rule:evenodd;fill:#FFFFFF;stroke:#955DA2;stroke-width:2;stroke-miterlimit:10;}
</style>
<g>
	<polygon class="st0" points="36.1,46.7 54.7,10.1 82.3,37.1 65,61.7 	"/>
	<line class="st0" x1="36.1" y1="46.7" x2="36.1" y2="79.3"/>
	<line class="st0" x1="36.1" y1="46.7" x2="9.5" y2="20.1"/>
	<path class="st1" d="M22.4,46.4c0-7.3,6-13.3,13.3-13.3c7.3,0,13.3,6,13.3,13.3c0,7.4-6,13.3-13.3,13.3C28.4,59.7,22.4,53.7,22.4,46.4z"/>
	<path class="st1" d="M47,10.1c0-4.2,3.4-7.7,7.6-7.7s7.6,3.4,7.6,7.7c0,4.2-3.4,7.6-7.6,7.6S47,14.4,47,10.1z"/>
	<path class="st1" d="M72.9,36.1c0-5.3,4.3-9.6,9.6-9.6c5.3,0,9.6,4.3,9.6,9.6c0,5.3-4.3,9.6-9.6,9.6C77.3,45.7,72.9,41.4,72.9,36.1z"/>
	<path class="st1" d="M57.7,60.7c0-3.9,3.1-7,7-7c3.9,0,7,3.1,7,7s-3.1,7-7,7C60.8,67.7,57.7,64.6,57.7,60.7z"/>
	<path class="st1" d="M3.8,20.8c0-3.9,3.1-7,7-7c3.9,0,7,3.1,7,7s-3.1,7-7,7C7,27.8,3.8,24.6,3.8,20.8z"/>
	<path class="st1" d="M29.1,78c0-3.9,3.1-7,7-7s7,3.1,7,7c0,3.9-3.1,7-7,7S29.1,81.9,29.1,78z"/>
</g>
</svg>
