<?xml version="1.0" encoding="utf-8"?>
<!-- Generator: Adobe Illustrator 19.1.1, SVG Export Plug-In . SVG Version: 6.00 Build 0)  -->
<svg version="1.1" id="Capa_1" xmlns="http://www.w3.org/2000/svg" xmlns:xlink="http://www.w3.org/1999/xlink" x="0px" y="0px"
	 viewBox="0 0 96 90" style="enable-background:new 0 0 96 90;" xml:space="preserve">
<style type="text/css">
	
		.st0{fill-rule:evenodd;clip-rule:evenodd;fill:none;stroke:#955CA2;stroke-width:2;stroke-linecap:round;stroke-linejoin:round;stroke-miterlimit:10;}
</style>
<g>
	<path class="st0" d="M4.5,45.4C4.5,21.3,24,1.8,48,1.8c24,0,43.5,19.5,43.5,43.5c0,24.1-19.5,43.6-43.5,43.6
		c-8.1,0-15.6-2.2-22.1-6c-2.5-1.4-15.6,4.1-17.8,2.2c-2.3-2.1,6.5-11.6,4.6-14.2C7.6,63.8,4.5,55,4.5,45.4z"/>
	<path class="st0" d="M21.2,48.3c0-3.2,2.6-5.8,5.8-5.8c3.2,0,5.8,2.6,5.8,5.8c0,3.2-2.6,5.8-5.8,5.8C23.8,54.1,21.2,51.5,21.2,48.3
		z"/>
	<path class="st0" d="M43,48.3c0-3.2,2.6-5.8,5.8-5.8s5.8,2.6,5.8,5.8c0,3.2-2.6,5.8-5.8,5.8S43,51.5,43,48.3z"/>
	<path class="st0" d="M64.7,48.3c0-3.2,2.6-5.8,5.8-5.8c3.2,0,5.8,2.6,5.8,5.8c0,3.2-2.6,5.8-5.8,5.8C67.3,54.1,64.7,51.5,64.7,48.3
		z"/>
</g>
</svg>
