<?xml version="1.0" encoding="utf-8"?>
<!-- Generator: Adobe Illustrator 19.1.1, SVG Export Plug-In . SVG Version: 6.00 Build 0)  -->
<svg version="1.1" id="Capa_1" xmlns="http://www.w3.org/2000/svg" xmlns:xlink="http://www.w3.org/1999/xlink" x="0px" y="0px"
	 viewBox="0 0 31 32" style="enable-background:new 0 0 31 32;" xml:space="preserve">
<style type="text/css">
	.st1{fill-rule:evenodd;clip-rule:evenodd;fill:#A3A3A3;}
	.st2{fill:#A3A3A3;}
	.st1:hover,.st1:focus{fill:#6E2585;}
	.st2:hover,.st2:focus{fill:#6E2585;}
	.st3{fill-rule:evenodd;clip-rule:evenodd;fill:#FFFFFF;}
</style>
<g>
	<g>
		<path class="st1" d="M21.1,12.8V6.4h-1.1v4.8c-0.3,0.4-0.5,0.5-0.7,0.5c-0.2,0-0.2-0.1-0.3-0.3c0,0,0-0.2,0-0.4V6.4h-1.1v5
			c0,0.5,0,0.8,0.1,0.9c0.1,0.3,0.4,0.5,0.7,0.5c0.4,0,0.8-0.3,1.3-0.8v0.7H21.1z M15.8,10.9c0,0.6-0.2,0.9-0.5,0.9
			c-0.4,0-0.5-0.3-0.5-0.9V8.3c0-0.6,0.2-0.9,0.5-0.9c0.4,0,0.5,0.3,0.5,0.9V10.9z M16.9,10.7V8.5c0-0.7-0.1-1.2-0.3-1.5
			c-0.3-0.4-0.7-0.7-1.3-0.7c-0.6,0-1,0.2-1.3,0.7c-0.2,0.3-0.4,0.8-0.4,1.5v2.2c0,0.7,0.1,1.2,0.4,1.5c0.3,0.4,0.8,0.6,1.3,0.6
			c0.6,0,1-0.2,1.3-0.6C16.8,11.9,16.9,11.4,16.9,10.7z M13.6,4.3h-1.3l-0.9,3.3l-0.9-3.3H9.3l0.8,2.4c0.4,1.2,0.7,2.1,0.8,2.7v3.5
			h1.2V9.3L13.6,4.3z"/>
		<path class="st2" d="M24.1,20.9c0,1.5,0,3-0.3,4.4c-0.2,1-1,1.7-2,1.8c-2.3,0.3-4.6,0.3-6.9,0.3c-2.3,0-4.6,0-6.9-0.3
			c-1-0.1-1.8-0.9-2-1.8c-0.3-1.4-0.3-3-0.3-4.4c0-1.5,0-3,0.3-4.5c0.2-1,1-1.7,2-1.8c2.3-0.3,4.6-0.3,6.9-0.3c2.3,0,4.6,0,6.9,0.3
			c1,0.1,1.8,0.8,2,1.8C24.1,17.8,24.1,19.4,24.1,20.9z"/>
		<path class="st3" d="M22.7,22.9v-0.2h-1.1c0,0.4,0,0.7,0,0.8c-0.1,0.3-0.2,0.5-0.5,0.5c-0.4,0-0.6-0.3-0.6-0.9V22h2.2v-1.3
			c0-0.7-0.1-1.2-0.4-1.5c-0.3-0.4-0.8-0.6-1.3-0.6s-1,0.2-1.3,0.6c-0.2,0.3-0.4,0.8-0.4,1.5v2.2c0,0.7,0.1,1.2,0.4,1.5
			c0.3,0.4,0.8,0.6,1.3,0.6s1-0.2,1.3-0.7c0.1-0.2,0.2-0.4,0.3-0.7C22.7,23.5,22.7,23.3,22.7,22.9z M21.6,21h-1.1v-0.6
			c0-0.6,0.2-0.9,0.5-0.9c0.4,0,0.6,0.3,0.6,0.9V21z M18.6,23v-2.5c0-0.6,0-1-0.1-1.3c-0.1-0.5-0.5-0.7-0.9-0.7
			c-0.4,0-0.8,0.2-1.2,0.7v-2.8h-1.1v8.4h1.1v-0.6c0.4,0.5,0.8,0.7,1.2,0.7c0.4,0,0.7-0.2,0.9-0.7C18.5,24,18.6,23.6,18.6,23z
			 M17.4,23.1c0,0.6-0.2,0.9-0.5,0.9c-0.2,0-0.4-0.1-0.6-0.3v-3.8c0.2-0.2,0.4-0.3,0.6-0.3c0.3,0,0.5,0.3,0.5,0.9V23.1z M13.2,24.9
			v-0.7C12.8,24.8,12.4,25,12,25c-0.4,0-0.6-0.1-0.7-0.5c-0.1-0.2-0.1-0.5-0.1-0.9v-5h1.1v4.6c0,0.3,0,0.4,0,0.4
			c0,0.2,0.1,0.3,0.3,0.3c0.2,0,0.5-0.2,0.7-0.5v-4.8h1.1v6.3H13.2z M11,17.7v-1.2H7.1v1.2h1.3v7.2h1.2v-7.2H11z"/>
	</g>
</g>
</svg>
