<?xml version="1.0" encoding="utf-8"?>
<!-- Generator: Adobe Illustrator 19.1.1, SVG Export Plug-In . SVG Version: 6.00 Build 0)  -->
<svg version="1.1" id="Capa_1" xmlns="http://www.w3.org/2000/svg" xmlns:xlink="http://www.w3.org/1999/xlink" x="0px" y="0px"
	 viewBox="0 0 31 32" style="enable-background:new 0 0 31 32;" xml:space="preserve">
<style type="text/css">
	.st1{fill-rule:evenodd;clip-rule:evenodd;fill:#A3A3A3;}
	.st1:hover,.st1:focus{fill:#6E2585;}
</style>
<g>
	<g>
		<path class="st1" d="M17.4,19.1c-1.1-0.1-1.5,0.4-1.5,1.2c-0.3-0.2-0.5-0.4-0.8-0.7l-0.1-0.1c-0.2-0.3-0.6-0.4-1.2-0.4
			c-1.5,0-4.1,0.3-7.2-1.3v-9c0-1.6,0.4-2.2,1.9-2.2h14.6c1.4,0,1.9,0.6,1.9,2.2v9C21.6,19.5,18.8,19.1,17.4,19.1z M26.1,16.8
			L25.9,17V7.7c0-1.3-1-2.3-2.1-2.3H7.3c-1.2,0-2.1,1-2.1,2.3V17l-0.3-0.2c-0.7-0.5-1.2,0.2-0.7,0.8C5,18.7,6.6,20,9,21
			c-2.6,9,6.3,10.5,6.2,5.8l0-4.6l0.6,0.2l0,4.4C15.7,31.5,24.6,30,22,21c2.4-1,4-2.3,4.9-3.4C27.3,17,26.8,16.3,26.1,16.8z"/>
		<path class="st1" d="M18.4,13c-1.6,0-2.8,1.2-2.8,2.7s1.3,2.7,2.8,2.7c1.6,0,2.8-1.2,2.8-2.7S19.9,13,18.4,13z"/>
		<path class="st1" d="M14.6,15.7c0,1.5-1.3,2.7-2.8,2.7c-1.6,0-2.8-1.2-2.8-2.7s1.3-2.7,2.8-2.7C13.4,13,14.6,14.2,14.6,15.7z"/>
	</g>
</g>
</svg>
