<?xml version="1.0" encoding="utf-8"?>
<!-- Generator: Adobe Illustrator 19.1.1, SVG Export Plug-In . SVG Version: 6.00 Build 0)  -->
<svg version="1.1" id="Capa_1" xmlns="http://www.w3.org/2000/svg" xmlns:xlink="http://www.w3.org/1999/xlink" x="0px" y="0px"
	 viewBox="0 0 53 53" style="enable-background:new 0 0 53 53;" xml:space="preserve">
<style type="text/css">
	.st0{fill:none;stroke:none;stroke-linecap:round;stroke-linejoin:round;stroke-miterlimit:10;}
	.st1{fill-rule:evenodd;clip-rule:evenodd;fill:#FFFFFF;}
</style>
<g>
	<path class="st0" d="M51.4,26.6c0,14.3-11.3,26-25.4,26c-14,0-25.4-11.6-25.4-26s11.4-26,25.4-26C40.1,0.7,51.4,12.3,51.4,26.6z"/>
	<g>
		<path class="st1" d="M10.1,42.2h7V20.7h-7V42.2z M13.7,10.4c-2.4,0-4,1.6-4,3.7c0,2.1,1.5,3.7,3.9,3.7h0c2.5,0,4-1.7,4-3.7
			C17.5,12,16.1,10.4,13.7,10.4z M42.4,29.9v12.3h-7V30.7c0-2.9-1-4.9-3.6-4.9c-1.9,0-3.1,1.3-3.6,2.6c-0.2,0.5-0.2,1.1-0.2,1.7v12
			h-7c0,0,0.1-19.4,0-21.5h7v3l0,0.1h0v-0.1c0.9-1.5,2.6-3.6,6.3-3.6C38.9,20.2,42.4,23.3,42.4,29.9z"/>
	</g>
</g>
</svg>
