<?xml version="1.0" encoding="utf-8"?>
<!-- Generator: Adobe Illustrator 19.1.1, SVG Export Plug-In . SVG Version: 6.00 Build 0)  -->
<svg version="1.1" id="Capa_1" xmlns="http://www.w3.org/2000/svg" xmlns:xlink="http://www.w3.org/1999/xlink" x="0px" y="0px"
	 viewBox="0 0 31 32" style="enable-background:new 0 0 31 32;" xml:space="preserve">
<style type="text/css">
	.st1{fill:#A3A3A3;}
	.st1:hover,.st1:focus{fill:#6E2585;}
</style>
<g>
	<path class="st1" d="M24.7,11c-0.7,0.3-1.4,0.5-2.2,0.6c0.8-0.5,1.4-1.2,1.7-2.1c-0.7,0.4-1.5,0.8-2.4,0.9
		c-0.7-0.8-1.7-1.2-2.8-1.2c-2.1,0-3.8,1.7-3.8,3.9c0,0.3,0,0.6,0.1,0.9c-3.1-0.2-5.9-1.7-7.8-4.1c-0.3,0.6-0.5,1.2-0.5,2
		c0,1.3,0.7,2.5,1.7,3.2c-0.6,0-1.2-0.2-1.7-0.5v0c0,1.9,1.3,3.4,3,3.8c-0.3,0.1-0.6,0.1-1,0.1c-0.3,0-0.5,0-0.7-0.1
		c0.5,1.6,1.9,2.7,3.5,2.7c-1.3,1-2.9,1.7-4.7,1.7c-0.3,0-0.6,0-0.9-0.1c1.7,1.1,3.7,1.8,5.8,1.8c7,0,10.8-5.9,10.8-11l0-0.5
		C23.6,12.5,24.2,11.8,24.7,11z"/>
</g>
</svg>
