<?xml version="1.0" encoding="utf-8"?>
<!-- Generator: Adobe Illustrator 19.1.1, SVG Export Plug-In . SVG Version: 6.00 Build 0)  -->
<svg version="1.1" id="Capa_1" xmlns="http://www.w3.org/2000/svg" xmlns:xlink="http://www.w3.org/1999/xlink" x="0px" y="0px"
	 viewBox="0 0 45 45" style="enable-background:new 0 0 45 45;" xml:space="preserve">
<style type="text/css">
	
		.st0{fill-rule:evenodd;clip-rule:evenodd;fill:none;stroke:#702886;stroke-width:2;stroke-linecap:round;stroke-linejoin:round;stroke-miterlimit:10;}
	
		.st1{fill-rule:evenodd;clip-rule:evenodd;fill:none;stroke:#702886;stroke-linecap:round;stroke-linejoin:round;stroke-miterlimit:10;}
</style>
<g>
	<path class="st0" d="M22.4,3.9l6.4,1.4c6.7,1.4,11.4,6.6,10.1,13.4l-2.6,14c-1.3,6.9-7.6,10-14.4,8.5l-6.6-1.4
		C8.5,38.3,3.8,33,5.2,26l2.9-14C9.4,5.3,15.7,2.4,22.4,3.9z"/>
	<path class="st0" d="M22.5,6.1l5.2,1.1c5.4,1.2,9.1,5.4,8.2,10.4L33.9,28c-0.9,5.1-5.9,6.9-11.3,5.7l-5.3-1.1
		C11.9,31.4,8,27.8,9,22.7l2.1-10.4C12.1,7.3,17.1,4.9,22.5,6.1z"/>
	<path class="st1" d="M17.3,37.5c0.2-1,1.2-1.7,2.1-1.5c1,0.2,1.6,1.2,1.4,2.2c-0.2,1-1.1,1.7-2.1,1.4
		C17.7,39.5,17.1,38.5,17.3,37.5z"/>
</g>
</svg>
