<?xml version="1.0" encoding="utf-8"?>
<!-- Generator: Adobe Illustrator 19.1.1, SVG Export Plug-In . SVG Version: 6.00 Build 0)  -->
<svg version="1.1" id="Capa_1" xmlns="http://www.w3.org/2000/svg" xmlns:xlink="http://www.w3.org/1999/xlink" x="0px" y="0px"
	 viewBox="0 0 96 90" style="enable-background:new 0 0 96 90;" xml:space="preserve">
<style type="text/css">
	
		.st0{fill-rule:evenodd;clip-rule:evenodd;fill:none;stroke:#965FA3;stroke-width:2;stroke-linecap:round;stroke-linejoin:round;stroke-miterlimit:10;}
</style>
<g>
	<g>
		<path class="st0" d="M63.7,4.4c-3.8-1.5-7.9-2.4-12.1-2.8c1.8,0.2,3.8,1.7,4.5,3.3c2,4.6,3.7,10.8,4.9,18c0.3,1.7-0.9,3-2.7,2.9
			c-3.4-0.2-6.9-0.4-10.3-0.4c-3.4,0-6.9,0.1-10.3,0.4c-1.8,0.1-3-1.2-2.7-2.9c1.2-7.3,2.9-13.4,4.9-18c0.7-1.6,2.7-3,4.4-3.2
			l-0.6,0.1c-4,0.4-7.8,1.3-11.4,2.7c1.6-0.6,2.5,0.3,1.8,1.9c-1.8,5-3.1,10.8-4.1,17.1c-0.3,1.8-1.9,3.4-3.6,3.6
			c-6.3,0.9-12.1,2.3-17.1,4.1c-1.6,0.6-2.5-0.1-2-1.7c-1.5,3.8-2.4,7.8-2.7,12c0.2-1.8,1.6-3.8,3.3-4.5c4.6-2,10.7-3.7,18-4.9
			c1.7-0.3,3,0.9,2.9,2.7c-0.2,3.4-0.4,6.9-0.4,10.3c0,3.4,0.1,6.9,0.4,10.3c0.1,1.8-1.2,3-2.9,2.7c-7.3-1.2-13.4-2.9-18-4.9
			c-1.6-0.7-3-2.6-3.2-4.4l0.1,0.6c0.4,3.9,1.3,7.7,2.7,11.2c-0.5-1.5,0.4-2.3,2-1.7c4.9,1.8,10.8,3.1,17.1,4.1
			c1.7,0.3,3.3,1.9,3.6,3.6c0.9,6.3,2.3,12.1,4.1,17.1c0.6,1.6-0.2,2.5-1.7,2c4.9,1.9,10.1,2.9,15.6,2.9c-1.2,0-2.4-0.1-3.5-0.2
			c-1.8-0.1-3.9-1.6-4.6-3.3c-2-4.6-3.7-10.8-4.9-18c-0.3-1.8,1-3,2.7-2.9c3.4,0.2,6.9,0.4,10.3,0.4s6.9-0.1,10.3-0.4
			c1.8-0.1,3,1.2,2.7,2.9c-1.2,7.3-2.9,13.4-4.9,18c-0.7,1.6-2.7,3-4.4,3.2l0.7-0.1c4-0.4,7.8-1.3,11.3-2.7
			c-1.6,0.6-2.4-0.3-1.8-1.9c1.8-5,3.1-10.8,4.1-17.1c0.3-1.8,1.9-3.3,3.6-3.6c6.3-0.9,12.1-2.3,17-4.1c1.6-0.6,2.5,0.2,2,1.7
			c1.9-4.9,2.9-10.1,2.9-15.6c0,1.2-0.1,2.4-0.1,3.5c-0.2,1.8-1.6,3.9-3.3,4.6c-4.6,2-10.7,3.7-18,4.9c-1.7,0.3-3-1-2.9-2.7
			c0.2-3.4,0.4-6.9,0.4-10.3c0-3.4-0.1-6.9-0.4-10.3c-0.1-1.8,1.2-3,2.9-2.7c7.3,1.2,13.4,2.9,18,4.9c1.6,0.7,3,2.7,3.2,4.4
			l-0.1-0.6c-0.4-4-1.3-7.8-2.7-11.4c0.6,1.6-0.3,2.4-1.9,1.8c-4.9-1.8-10.8-3.1-17-4.1c-1.8-0.3-3.3-1.9-3.6-3.6
			c-1-6.3-2.3-12.1-4.1-17.1C61.3,4.7,62.1,3.7,63.7,4.4z M62.7,45c0,3.8-0.1,7.4-0.4,10.9c-0.1,1.8-1.7,3.3-3.5,3.5
			c-3.5,0.3-7.1,0.4-10.9,0.4s-7.4-0.1-10.9-0.4c-1.8-0.1-3.3-1.7-3.5-3.5c-0.3-3.5-0.4-7.1-0.4-10.9s0.1-7.4,0.4-10.9
			c0.1-1.8,1.7-3.3,3.5-3.5c3.5-0.3,7.1-0.4,10.9-0.4s7.4,0.1,10.9,0.4c1.8,0.1,3.3,1.7,3.5,3.5C62.6,37.6,62.7,41.2,62.7,45z"/>
		<path class="st0" d="M4.5,45C4.5,20.9,24,1.4,48,1.4S91.5,20.9,91.5,45C91.5,69.1,72,88.6,48,88.6S4.5,69.1,4.5,45z"/>
	</g>
</g>
</svg>
