<?xml version="1.0" encoding="utf-8"?>
<!-- Generator: Adobe Illustrator 19.1.1, SVG Export Plug-In . SVG Version: 6.00 Build 0)  -->
<svg version="1.1" id="Capa_1" xmlns="http://www.w3.org/2000/svg" xmlns:xlink="http://www.w3.org/1999/xlink" x="0px" y="0px"
	 viewBox="0 0 31 32" style="enable-background:new 0 0 31 32;" xml:space="preserve">
<style type="text/css">
	.st1{fill-rule:evenodd;clip-rule:evenodd;fill:#A3A3A3;}
	.st1:hover,.st1:focus{fill:#6E2585;}
</style>
<g>
	<g>
		<path class="st1" d="M6.3,25h4.1V12.6H6.3V25z M8.4,6.6C7,6.6,6.1,7.5,6.1,8.8c0,1.2,0.9,2.2,2.2,2.2h0c1.4,0,2.3-1,2.3-2.2
			C10.6,7.5,9.7,6.6,8.4,6.6z M24.9,17.9V25h-4.1v-6.6c0-1.7-0.6-2.8-2-2.8c-1.1,0-1.8,0.8-2.1,1.5c-0.1,0.3-0.1,0.6-0.1,1V25h-4
			c0,0,0.1-11.2,0-12.4h4v1.8l0,0h0v0c0.5-0.8,1.5-2.1,3.7-2.1C22.9,12.3,24.9,14.1,24.9,17.9z"/>
	</g>
</g>
</svg>
