<?xml version="1.0" encoding="utf-8"?>
<!-- Generator: Adobe Illustrator 19.1.1, SVG Export Plug-In . SVG Version: 6.00 Build 0)  -->
<svg version="1.1" id="Capa_1" xmlns="http://www.w3.org/2000/svg" xmlns:xlink="http://www.w3.org/1999/xlink" x="0px" y="0px"
	 viewBox="0 0 45 45" style="enable-background:new 0 0 45 45;" xml:space="preserve">
<style type="text/css">
	
		.st0{fill-rule:evenodd;clip-rule:evenodd;fill:none;stroke:#6E2585;stroke-width:2;stroke-linecap:round;stroke-linejoin:round;stroke-miterlimit:10;}
</style>
<g>
	<path class="st0" d="M32.9,14.6c2.8,0.1,6.5-1,7.3,2.6c0,1.6,0,3.4-1.4,4.2c1.6,0.8,2.2,1.2,2.3,3.4c0.1,1.6-0.8,3.7-2.4,4.2
		c1.6,0.9,1.3,2.4,1,3.9c-0.5,1.3-1,2.5-2.9,2.6c2.3,1.7-0.1,5.5-3.1,5.6c-4.1,0.2-12.6,1.5-16.9-1c-7.9-2.8-10.9-16.4-5.2-23
		c3.1-3.6,7.6-13.6,9.2-13.5c7,0.2,1.1,10.8,2.3,10.7C26.6,14.4,29.2,14.6,32.9,14.6z"/>
	<path class="st0" d="M10.1,19.7c-0.2-0.6-4.4-2.2-5.5-0.5c-2,3.3-1.8,8.3-1.1,12c1,5.2,4,7.4,4.4,7.6c3.3,1.4,6,1,6.6,0.3
		c0.1-0.1-4.8-5.2-5.4-8.2C7.4,20.9,10.1,19.8,10.1,19.7z"/>
</g>
</svg>
