<?xml version="1.0" encoding="utf-8"?>
<!-- Generator: Adobe Illustrator 19.1.1, SVG Export Plug-In . SVG Version: 6.00 Build 0)  -->
<svg version="1.1" id="Capa_1" xmlns="http://www.w3.org/2000/svg" xmlns:xlink="http://www.w3.org/1999/xlink" x="0px" y="0px"
	 viewBox="0 0 53 53" style="enable-background:new 0 0 53 53;" xml:space="preserve">
<style type="text/css">
	.st0{fill:none;stroke:none;stroke-linecap:round;stroke-linejoin:round;stroke-miterlimit:10;}
	.st1{fill:#FFFFFF;}
</style>
<g>
	<path class="st0" d="M51.3,26.6c0,14.3-11.3,25.9-25.2,25.9c-13.9,0-25.2-11.6-25.2-25.9S12.1,0.8,26.1,0.8
		C40,0.8,51.3,12.4,51.3,26.6z"/>
	<path class="st1" d="M42,18.1c-1.2,0.5-2.4,0.9-3.8,1.1c1.3-0.8,2.4-2.1,2.9-3.7c-1.3,0.8-2.7,1.3-4.2,1.6
		c-1.2-1.3-2.9-2.1-4.8-2.1c-3.6,0-6.5,3-6.5,6.7c0,0.5,0.1,1,0.2,1.5c-5.4-0.3-10.2-2.9-13.5-7c-0.6,1-0.9,2.1-0.9,3.4
		c0,2.3,1.2,4.4,2.9,5.6c-1.1,0-2.1-0.3-2.9-0.8v0.1c0,3.2,2.2,5.9,5.2,6.6c-0.5,0.2-1.1,0.2-1.7,0.2c-0.4,0-0.8-0.1-1.2-0.1
		c0.8,2.7,3.2,4.6,6.1,4.7c-2.2,1.8-5.1,2.9-8.1,2.9c-0.5,0-1.1,0-1.6-0.1c2.9,1.9,6.3,3,10,3c12,0,18.6-10.2,18.6-19l0-0.9
		C40,20.6,41.1,19.4,42,18.1z"/>
</g>
</svg>
