<?xml version="1.0" encoding="utf-8"?>
<!-- Generator: Adobe Illustrator 19.1.1, SVG Export Plug-In . SVG Version: 6.00 Build 0)  -->
<svg version="1.1" id="Capa_1" xmlns="http://www.w3.org/2000/svg" xmlns:xlink="http://www.w3.org/1999/xlink" x="0px" y="0px"
	 viewBox="0 0 45 45" style="enable-background:new 0 0 45 45;" xml:space="preserve">
<style type="text/css">
	.st0{fill:#7A338B;}
	.st1{fill-rule:evenodd;clip-rule:evenodd;fill:#FFFFFF;}
</style>
<g>
	<path class="st0" d="M35.7,41.6H9c-0.2,0-0.4-0.1-0.6-0.3c-0.1-0.2-0.2-0.4-0.2-0.6c0-0.1,2.6-11.8,14.1-11.8
		c10.8,0,14.1,11.7,14.1,11.8c0.1,0.2,0,0.5-0.1,0.6C36.1,41.5,35.9,41.6,35.7,41.6z M10,40.1h24.7c-1-2.6-4.3-9.8-12.3-9.8
		C13.7,30.4,10.8,37.6,10,40.1z M22.3,27.1c-5.1,0-9.3-4.3-9.3-9.5S17.2,8,22.3,8c5.1,0,9.3,4.3,9.3,9.5S27.4,27.1,22.3,27.1z
		 M22.3,9.5c-4.3,0-7.7,3.6-7.7,8s3.5,8,7.7,8c4.3,0,7.8-3.6,7.8-8S26.6,9.5,22.3,9.5z"/>
	<path class="st0" d="M26.2,23.7c-0.6,0-0.8,0-1.4,0c-0.4,0-0.7-0.3-0.7-0.8c0-0.4,0.3-0.8,0.8-0.7c3.5,0.1,5.4,0,6.5-1.1
		c0.8-0.8,1.1-2,1.1-4.1c0-6.4-3.9-10.7-9.8-10.7c-6,0-10.3,4.3-10.3,10.5c0,0.4-0.3,0.7-0.8,0.7S11,17.2,11,16.8
		c0-7,4.8-12,11.8-12C29.4,4.9,34,9.9,34,17c0,2.4-0.5,4.1-1.6,5.1C31,23.5,28.8,23.7,26.2,23.7z"/>
	<path class="st0" d="M22.3,25.2c-1.7,0-3.1-1.2-3.1-2.7c0-1.5,1.4-2.7,3.1-2.7c1.7,0,3.1,1.2,3.1,2.7C25.4,24,24,25.2,22.3,25.2z
		 M22.3,21.3c-0.9,0-1.6,0.5-1.6,1.2c0,0.7,0.7,1.2,1.6,1.2c0.9,0,1.6-0.5,1.6-1.2C23.9,21.8,23.2,21.3,22.3,21.3z"/>
	<g>
		<path class="st1" d="M10.7,17c0-1.1,0.1-2.7,1.4-2.7c1.3,0,1.1,1.9,1.1,2.9c0,1.1,0.1,2.6-1.2,2.6C10.7,19.8,10.7,18.1,10.7,17z"
			/>
		<path class="st0" d="M12,20.5c-0.5,0-1.5-0.2-1.8-1.5c-0.2-0.6-0.2-1.4-0.2-2V17c0-0.9,0-3.5,2.1-3.5c0.5,0,0.9,0.2,1.2,0.5
			c0.7,0.7,0.7,1.9,0.6,2.8c0,0.1,0,0.3,0,0.4l0,0.3c0,0.8,0,1.9-0.6,2.6C13.1,20.2,12.7,20.5,12,20.5z M12.1,15
			c-0.3,0-0.6,0.2-0.6,2v0.1c0,0.5,0,1.1,0.1,1.6C11.7,19,11.9,19,12,19c0.1,0,0.2,0,0.2-0.1c0.2-0.2,0.2-1,0.2-1.5l0-0.3
			c0-0.1,0-0.3,0-0.4c0-0.5,0-1.5-0.2-1.7C12.2,15,12.2,15,12.1,15z"/>
	</g>
	<g>
		<path class="st1" d="M33.6,17c0-1.1-0.1-2.7-1.4-2.7c-1.3,0-1.1,1.9-1.1,2.9c0,1.1-0.1,2.6,1.2,2.6C33.7,19.8,33.6,18.1,33.6,17z"
			/>
		<path class="st0" d="M32.4,20.5c-0.7,0-1.1-0.3-1.3-0.5c-0.6-0.6-0.6-1.7-0.6-2.5l0-0.3c0-0.1,0-0.3,0-0.4c0-0.9,0-2.1,0.6-2.8
			c0.3-0.3,0.7-0.5,1.2-0.5c2.1,0,2.1,2.6,2.1,3.5v0.1c0,0.6,0,1.3-0.2,2C33.8,20.3,32.9,20.5,32.4,20.5z M32.3,15
			c-0.1,0-0.1,0-0.1,0c-0.2,0.2-0.2,1.2-0.2,1.7c0,0.2,0,0.3,0,0.4l0,0.3c0,0.5,0,1.3,0.2,1.5c0,0,0.1,0.1,0.2,0.1
			c0.1,0,0.3,0,0.4-0.4c0.1-0.4,0.1-1,0.1-1.5V17C32.9,15.2,32.5,15,32.3,15z"/>
	</g>
</g>
</svg>
