<?xml version="1.0" encoding="utf-8"?>
<!-- Generator: Adobe Illustrator 19.1.1, SVG Export Plug-In . SVG Version: 6.00 Build 0)  -->
<svg version="1.1" id="Capa_1" xmlns="http://www.w3.org/2000/svg" xmlns:xlink="http://www.w3.org/1999/xlink" x="0px" y="0px"
	 viewBox="0 0 96 90" style="enable-background:new 0 0 96 90;" xml:space="preserve">
<style type="text/css">
	.st0{fill:#955DA2;}
</style>
<g>
	<path class="st0" d="M78.1,47.7l-2.5,2.4l8.4,8.4c6.1,6.1,6.1,15.9,0,22c-2.9,2.9-6.8,4.5-11,4.5c-4.2,0-8.1-1.6-11-4.5L29.1,47.7
		l-2.4,2.5L59.5,83c3.6,3.6,8.4,5.6,13.5,5.6c5.1,0,9.9-2,13.5-5.6c7.4-7.4,7.4-19.5,0-26.9L78.1,47.7z"/>
	<path class="st0" d="M18.1,41.6l2.6-2.4l-8.4-8.4c-2.9-2.9-4.5-6.8-4.5-11s1.6-8.1,4.5-11c3-3,7-4.5,11-4.5c4,0,8,1.5,11,4.5
		L67,41.6l2.4-2.6L36.6,6.3c-7.4-7.4-19.5-7.4-26.9,0c-3.6,3.6-5.6,8.4-5.6,13.5s2,9.9,5.6,13.5L18.1,41.6z"/>
	<path class="st0" d="M34.1,80.5c-2.9,2.9-6.8,4.5-11,4.5c-4.2,0-8.1-1.6-11-4.5s-4.5-6.8-4.5-11c0-4.2,1.6-8.1,4.5-11L45,25.7
		l-2.5-2.4L9.7,56.1c-3.6,3.6-5.6,8.4-5.6,13.5c0,5.1,2,9.9,5.6,13.5c3.6,3.6,8.4,5.6,13.5,5.6c5.1,0,9.9-2,13.5-5.6l8.4-8.4
		l-2.4-2.5L34.1,80.5z"/>
	<path class="st0" d="M62,8.7c2.9-2.9,6.8-4.5,11-4.5c4.2,0,8.1,1.6,11,4.5c6.1,6.1,6.1,15.9,0,22L51.2,63.5l2.5,2.4l32.7-32.7
		c7.4-7.4,7.4-19.5,0-26.9C82.8,2.7,78.1,0.7,73,0.7c-5.1,0-9.9,2-13.5,5.6l-8.2,8.2l2.4,2.5L62,8.7z"/>
</g>
</svg>
