<?xml version="1.0" encoding="utf-8"?>
<!-- Generator: Adobe Illustrator 19.1.1, SVG Export Plug-In . SVG Version: 6.00 Build 0)  -->
<svg version="1.1" id="Capa_1" xmlns="http://www.w3.org/2000/svg" xmlns:xlink="http://www.w3.org/1999/xlink" x="0px" y="0px"
	 viewBox="0 0 53 53" style="enable-background:new 0 0 53 53;" xml:space="preserve">
<style type="text/css">
	.st0{fill:none;stroke:none;stroke-linecap:round;stroke-linejoin:round;stroke-miterlimit:10;}
	.st1{fill-rule:evenodd;clip-rule:evenodd;fill:#FFFFFF;}
	.st2{fill:#FFFFFF;}
	.st3{fill-rule:evenodd;clip-rule:evenodd;fill:#AAAAAA;}
</style>
<g>
	<g>
		<path class="st0" d="M51,26.5C51,40.6,39.8,52,26.1,52C12.3,52,1.1,40.6,1.1,26.5S12.3,1,26.1,1C39.8,1,51,12.4,51,26.5z"/>
	</g>
	<g>
		<path class="st1" d="M35.5,21.6V10.8h-1.9v8.2c-0.4,0.6-0.8,0.9-1.2,0.9c-0.3,0-0.4-0.2-0.4-0.5c0-0.1,0-0.3,0-0.7v-7.9H30v8.5
			c0,0.8,0.1,1.3,0.2,1.6c0.2,0.6,0.6,0.8,1.2,0.8c0.7,0,1.4-0.4,2.2-1.3v1.2H35.5z M26.5,18.5c0,1-0.3,1.5-0.9,1.5
			c-0.6,0-0.9-0.5-0.9-1.5v-4.5c0-1,0.3-1.5,0.9-1.5c0.6,0,0.9,0.5,0.9,1.5V18.5z M28.4,18.1v-3.8c0-1.1-0.2-2-0.6-2.5
			c-0.5-0.7-1.3-1.1-2.2-1.1s-1.7,0.4-2.2,1.1c-0.4,0.5-0.6,1.4-0.6,2.5v3.8c0,1.1,0.2,2,0.6,2.5c0.5,0.7,1.3,1.1,2.2,1.1
			s1.7-0.4,2.2-1.1C28.3,20.1,28.4,19.3,28.4,18.1z M22.8,7.1h-2.1l-1.4,5.7l-1.5-5.7h-2.2l1.4,4c0.7,2,1.1,3.5,1.3,4.6v5.9h2.1
			v-5.9L22.8,7.1z"/>
		<path class="st2" d="M40.7,35.4c0,2.5,0,5.1-0.5,7.6c-0.4,1.7-1.7,2.9-3.4,3.1c-3.9,0.4-7.8,0.4-11.7,0.4c-3.9,0-7.8,0-11.7-0.4
			c-1.7-0.2-3-1.4-3.4-3.1c-0.5-2.4-0.5-5.1-0.5-7.6c0-2.5,0-5.1,0.6-7.6c0.4-1.7,1.7-3,3.4-3.1c3.9-0.4,7.8-0.4,11.7-0.4
			c3.9,0,7.8,0,11.7,0.4c1.6,0.2,3,1.4,3.4,3.1C40.7,30.2,40.7,32.9,40.7,35.4z"/>
		<path class="st3" d="M38.4,38.9v-0.3h-1.9c0,0.8,0,1.2,0,1.3c-0.1,0.5-0.4,0.8-0.9,0.8c-0.6,0-1-0.5-1-1.5v-1.9h3.8v-2.2
			c0-1.1-0.2-2-0.6-2.5c-0.5-0.7-1.3-1.1-2.2-1.1s-1.7,0.4-2.2,1.1c-0.4,0.5-0.6,1.4-0.6,2.5v3.7c0,1.1,0.2,2,0.6,2.5
			c0.5,0.7,1.3,1.1,2.3,1.1c1,0,1.8-0.4,2.3-1.2c0.2-0.3,0.4-0.7,0.4-1.2C38.3,39.9,38.4,39.5,38.4,38.9z M36.5,35.7h-1.9v-1
			c0-1,0.3-1.5,0.9-1.5s1,0.5,1,1.5V35.7z M31.2,39.1v-4.3c0-1-0.1-1.7-0.2-2.2c-0.3-0.8-0.8-1.2-1.5-1.2c-0.7,0-1.3,0.4-2,1.2V28
			h-1.9v14.3h1.9v-1c0.6,0.8,1.3,1.2,2,1.2c0.7,0,1.3-0.4,1.5-1.2C31.2,40.8,31.2,40.1,31.2,39.1z M29.4,39.2c0,1-0.3,1.4-0.8,1.4
			c-0.3,0-0.6-0.2-1-0.5v-6.5c0.3-0.3,0.6-0.5,1-0.5c0.5,0,0.8,0.5,0.8,1.5V39.2z M22.2,42.3v-1.2c-0.7,0.9-1.5,1.3-2.2,1.3
			c-0.6,0-1-0.2-1.2-0.8c-0.1-0.3-0.2-0.8-0.2-1.6v-8.5h1.9v7.9c0,0.5,0,0.7,0,0.8c0.1,0.3,0.2,0.4,0.4,0.4c0.4,0,0.8-0.3,1.2-0.9
			v-8.2h1.9v10.7H22.2z M18.4,30v-2h-6.6v2H14v12.3h2.1V30H18.4z"/>
	</g>
</g>
</svg>
