<?xml version="1.0" encoding="utf-8"?>
<!-- Generator: Adobe Illustrator 19.1.1, SVG Export Plug-In . SVG Version: 6.00 Build 0)  -->
<svg version="1.1" id="Capa_1" xmlns="http://www.w3.org/2000/svg" xmlns:xlink="http://www.w3.org/1999/xlink" x="0px" y="0px"
	 viewBox="0 0 96 90" style="enable-background:new 0 0 96 90;" xml:space="preserve">
<style type="text/css">
	.st0{fill-rule:evenodd;clip-rule:evenodd;fill:none;stroke:#955DA2;stroke-width:2;stroke-miterlimit:10;}
</style>
<g>
	<g>
		<path class="st0" d="M30.9,81.3h33.6V50.9c0-9.4-7.5-17.1-16.8-17.1s-16.8,7.7-16.8,17.1V81.3z M28.3,50.9v23.6H15.6V53.2
			c0-6.5,5.2-11.8,11.6-11.8c1.1,0,2.2,0.2,3.2,0.5C29.1,44.6,28.3,47.6,28.3,50.9z M79.9,74.5H67.2V50.9c0-3.2-0.9-6.3-2.2-9
			c1-0.3,2.1-0.5,3.3-0.5c6.4,0,11.6,5.3,11.6,11.8V74.5z M47.7,8.9c-5.9,0-10.7,4.9-10.7,11c0,6,4.8,11,10.7,11s10.7-4.9,10.7-11
			C58.5,13.8,53.6,8.9,47.7,8.9z M12.7,45.5c0.8,0,1.5,0.2,2.3,0.4c-1.2,2.1-2,4.6-2,7.3v15.5H4.7v-15C4.7,49.2,8.3,45.5,12.7,45.5z
			 M27.2,23.7c-4,0-7.3,3.3-7.3,7.4c0,4.1,3.3,7.4,7.3,7.4c4,0,7.3-3.3,7.3-7.4C34.5,27,31.2,23.7,27.2,23.7z M90.8,68.7h-8.3V53.2
			c0-2.7-0.8-5.2-2-7.3c0.7-0.2,1.5-0.4,2.3-0.4c4.4,0,8,3.7,8,8.2V68.7z M68.3,23.7c-4,0-7.3,3.3-7.3,7.4c0,4.1,3.2,7.4,7.3,7.4
			c4,0,7.3-3.3,7.3-7.4C75.6,27,72.3,23.7,68.3,23.7z M12.7,32.7c-2.7,0-4.9,2.2-4.9,5c0,2.8,2.2,5,4.9,5c2.7,0,4.9-2.2,4.9-5
			C17.6,35,15.4,32.7,12.7,32.7z M82.8,32.7c-2.7,0-4.9,2.2-4.9,5c0,2.8,2.2,5,4.9,5c2.7,0,4.9-2.2,4.9-5
			C87.7,35,85.5,32.7,82.8,32.7z"/>
	</g>
</g>
</svg>
