<?xml version="1.0" encoding="utf-8"?>
<!-- Generator: Adobe Illustrator 19.1.1, SVG Export Plug-In . SVG Version: 6.00 Build 0)  -->
<svg version="1.1" id="Capa_1" xmlns="http://www.w3.org/2000/svg" xmlns:xlink="http://www.w3.org/1999/xlink" x="0px" y="0px"
	 viewBox="0 0 45 45" style="enable-background:new 0 0 45 45;" xml:space="preserve">
<style type="text/css">
	
		.st0{fill-rule:evenodd;clip-rule:evenodd;fill:none;stroke:#6E2585;stroke-width:2;stroke-linecap:round;stroke-linejoin:round;stroke-miterlimit:10;}
	
		.st1{fill-rule:evenodd;clip-rule:evenodd;fill:#FFFFFF;stroke:#6E2585;stroke-width:2;stroke-linecap:round;stroke-linejoin:round;stroke-miterlimit:10;}
</style>
<g>
	<path class="st0" d="M11.4,20.4c0-4.3,3.4-7.7,7.6-7.7s7.6,3.5,7.6,7.7s-3.4,7.7-7.6,7.7S11.4,24.7,11.4,20.4z"/>
	<path class="st0" d="M35.7,18.6c2.1-1,4.5-0.2,5.6,1.7c1.1,2,0.4,4.5-1.7,5.6c-2.1,1.2-4.8,0.4-5.9-1.7
		C32.7,22.2,33.6,19.7,35.7,18.6z"/>
	<path class="st0" d="M4.5,7.8c0-1.9,1.6-3.5,3.5-3.5c1.9,0,3.5,1.6,3.5,3.5c0,1.9-1.6,3.5-3.5,3.5C6.1,11.3,4.5,9.7,4.5,7.8z"/>
	<path class="st0" d="M3.1,36.5c0-2.3,1.9-4.2,4.2-4.2s4.2,1.9,4.2,4.2c0,2.3-1.9,4.2-4.2,4.2S3.1,38.8,3.1,36.5z"/>
	<line class="st1" x1="10.8" y1="10.6" x2="13.6" y2="14"/>
	<line class="st1" x1="32.5" y1="21.8" x2="26.8" y2="21.6"/>
	<line class="st1" x1="14.9" y1="27.4" x2="10.8" y2="33"/>
</g>
</svg>
