<?xml version="1.0" encoding="utf-8"?>
<!-- Generator: Adobe Illustrator 19.1.1, SVG Export Plug-In . SVG Version: 6.00 Build 0)  -->
<svg version="1.1" id="Capa_1" xmlns="http://www.w3.org/2000/svg" xmlns:xlink="http://www.w3.org/1999/xlink" x="0px" y="0px"
	 viewBox="0 0 96 90" style="enable-background:new 0 0 96 90;" xml:space="preserve">
<style type="text/css">
	.st0{fill-rule:evenodd;clip-rule:evenodd;fill:none;stroke:#965FA3;stroke-width:2;stroke-linecap:round;stroke-linejoin:round;stroke-miterlimit:10;}
	.st1{fill-rule:evenodd;clip-rule:evenodd;fill:none;stroke:#965FA3;stroke-width:2;stroke-linecap:round;stroke-linejoin:round;stroke-miterlimit:10;}
	.st2{fill-rule:evenodd;clip-rule:evenodd;fill:none;stroke:#9660A3;stroke-width:2;stroke-linecap:round;stroke-linejoin:round;stroke-miterlimit:10;}
</style>
<g>
	<g>
		<g>
			<path class="st0" d="M1.2,45.4h24.1c0,0-1,11.3-12.3,11.4C1.7,57,1.2,45.4,1.2,45.4z"/>
			<path class="st0" d="M70.5,45.4h24.1c0,0-1.1,11.7-11.7,11.6C71.3,57,70.5,45.4,70.5,45.4z"/>
		</g>
		<g>
			<path class="st1" d="M13,32.7C17.5,17.7,31.4,6.9,47.9,6.9c16.7,0,30.8,11.2,35.1,26.5"/>
			<line class="st0" x1="47.9" y1="6.9" x2="47.9" y2="86.2"/>
			<line class="st0" x1="22" y1="87.3" x2="73.8" y2="87.3"/>
			<path class="st0" d="M1.2,45.1c0-6.6,5.4-12,12-12c6.6,0,12,5.4,12,12c0,6.6-5.4,12-12,12C6.6,57.1,1.2,51.7,1.2,45.1z"/>
			<path class="st0" d="M70.5,45.1c0-6.6,5.4-12,12-12c6.7,0,12,5.4,12,12c0,6.6-5.4,12-12,12C75.9,57.1,70.5,51.7,70.5,45.1z"/>
		</g>
	</g>
	<path class="st2" d="M54.8,6.9H40.3c0,0,1-5.5,7.3-5.6C53.9,1.1,54.8,6.9,54.8,6.9z"/>
</g>
</svg>
