<?xml version="1.0" encoding="utf-8"?>
<!-- Generator: Adobe Illustrator 19.1.1, SVG Export Plug-In . SVG Version: 6.00 Build 0)  -->
<svg version="1.1" id="Capa_1" xmlns="http://www.w3.org/2000/svg" xmlns:xlink="http://www.w3.org/1999/xlink" x="0px" y="0px"
	 viewBox="0 0 53 53" style="enable-background:new 0 0 53 53;" xml:space="preserve">
<style type="text/css">
	.st0{fill:none;stroke:none;stroke-linecap:round;stroke-linejoin:round;stroke-miterlimit:10;}
	.st1{fill-rule:evenodd;clip-rule:evenodd;fill:#FFFFFF;}
</style>
<g>
	<g>
		<path class="st0" d="M50.9,26.5c0,14-11.1,25.3-24.7,25.3c-13.6,0-24.7-11.3-24.7-25.3S12.5,1.1,26.2,1.1
			C39.8,1.1,50.9,12.5,50.9,26.5z"/>
	</g>
	<g>
		<path class="st1" d="M29.3,31.7c-1.8-0.1-2.5,0.7-2.6,2c-0.4-0.3-0.9-0.7-1.4-1.1l-0.2-0.2c-0.4-0.4-1.1-0.7-2.1-0.6
			c-2.5,0.1-7,0.6-12.2-2.2V14.2c0-2.8,0.7-3.6,3.2-3.6h24.7c2.3,0,3.2,1,3.2,3.6v15.1C36.4,32.3,31.8,31.8,29.3,31.7z M44.1,27.9
			l-0.5,0.3V12.4c0-2.2-1.6-4-3.6-4H12.2c-2,0-3.6,1.8-3.6,4v15.8l-0.5-0.3c-1.2-0.9-2,0.3-1.2,1.4c1.4,1.8,4.1,4,8.2,5.7
			c-4.4,15.2,10.7,17.6,10.4,9.8l0-7.7l1,0.3l0,7.4c-0.2,7.8,14.8,5.4,10.4-9.8c4.1-1.7,6.8-4,8.2-5.7C46.1,28.2,45.3,27,44.1,27.9z
			"/>
		<path class="st1" d="M31,21.3c-2.6,0-4.8,2.1-4.8,4.6s2.1,4.6,4.8,4.6s4.8-2,4.8-4.6S33.7,21.3,31,21.3z"/>
		<path class="st1" d="M24.7,25.9c0,2.5-2.1,4.6-4.8,4.6c-2.7,0-4.8-2-4.8-4.6s2.1-4.6,4.8-4.6C22.5,21.3,24.7,23.4,24.7,25.9z"/>
	</g>
</g>
</svg>
