<?xml version="1.0" encoding="utf-8"?>
<!-- Generator: Adobe Illustrator 19.1.1, SVG Export Plug-In . SVG Version: 6.00 Build 0)  -->
<svg version="1.1" id="Capa_1" xmlns="http://www.w3.org/2000/svg" xmlns:xlink="http://www.w3.org/1999/xlink" x="0px" y="0px"
	 viewBox="0 0 96 91" style="enable-background:new 0 0 96 91;" xml:space="preserve">
<style type="text/css">
	.st0{fill-rule:evenodd;clip-rule:evenodd;fill:none;stroke:#955DA2;stroke-width:2;stroke-linecap:round;stroke-linejoin:round;stroke-miterlimit:10;}
	.st1{fill-rule:evenodd;clip-rule:evenodd;fill:#FFFFFF;stroke:#955DA2;stroke-width:2;stroke-linecap:round;stroke-linejoin:round;stroke-miterlimit:10;}
</style>
<g>
	<path class="st0" d="M43.6,1.7c24.2-2.4,45.8,15.2,48.3,39.4c2.4,24.2-15.2,45.8-39.4,48.3C28.2,91.8,6.6,74.1,4.2,49.9C1.7,25.7,19.4,4.1,43.6,1.7z"/>
	<line class="st0" x1="47.7" y1="45.9" x2="84.5" y2="20.8"/>
	<line class="st0" x1="47.7" y1="45.9" x2="91.9" y2="49.2"/>
	<line class="st0" x1="47" y1="45.1" x2="69.1" y2="82.4"/>
	<line class="st0" x1="47.7" y1="45.9" x2="43.3" y2="2.8"/>
	<line class="st0" x1="47.7" y1="46.6" x2="52.6" y2="2.1"/>
	<path class="st1" d="M46,25.3c11.2-1.1,21.1,7,22.3,18.2c1.1,11.2-7,21.1-18.2,22.3c-11.2,1.1-21.1-7-22.3-18.2C26.6,36.4,34.8,26.4,46,25.3z"/>
</g>
</svg>
