<svg xmlns="http://www.w3.org/2000/svg" width="20" height="20" viewBox="0 0 20 20">
    <path fill="#4A4A4A" fill-rule="nonzero" d="M18.407 9.043l-3.747 3.745a5.295 5.295 0 0 1-7.49 0 5.291 5.291 0 0 1-.805-1.069l1.741-1.74c.083-.084.185-.131.283-.188.12.411.33.8.654 1.124a2.65 2.65 0 0 0 3.745 0l3.745-3.745a2.65 2.65 0 0 0 0-3.746 2.651 2.651 0 0 0-3.745 0l-1.332 1.333a6.645 6.645 0 0 0-3.379-.368l2.838-2.838a5.298 5.298 0 0 1 7.492 7.492zM8.503 15.2L7.17 16.534a2.653 2.653 0 0 1-3.746 0 2.653 2.653 0 0 1 0-3.746L7.17 9.043a2.65 2.65 0 0 1 3.745 0c.323.322.533.711.654 1.122.099-.057.2-.103.282-.186l1.74-1.74a5.206 5.206 0 0 0-.803-1.069 5.297 5.297 0 0 0-7.491 0L1.55 10.915a5.298 5.298 0 0 0 7.491 7.492l2.84-2.839a6.641 6.641 0 0 1-3.38-.367z"/>
</svg>
