<svg xmlns="http://www.w3.org/2000/svg" width="30" height="30" viewBox="0 0 30 30">
    <path fill="#4A4A4A" fill-rule="evenodd" d="M24 22.5a1.5 1.5 0 0 1-1.5 1.5h-15a1.5 1.5 0 0 1 0-3h15a1.5 1.5 0 0 1 1.5 1.5zM7.5 15h15a1.5 1.5 0 0 1 0 3h-15a1.5 1.5 0 0 1 0-3zM6 10.5v-3A1.5 1.5 0 0 1 7.5 6h6A1.5 1.5 0 0 1 15 7.5v3a1.5 1.5 0 0 1-1.5 1.5h-6A1.5 1.5 0 0 1 6 10.5zm21 15a1.5 1.5 0 0 1-1.5 1.5h-21A1.5 1.5 0 0 1 3 25.5v-21A1.5 1.5 0 0 1 4.5 3H18v6a3 3 0 0 0 3 3h6v13.5zm2.56-16.94L21.44.44A1.499 1.499 0 0 0 20.378 0H3a3 3 0 0 0-3 3v24a3 3 0 0 0 3 3h24a3 3 0 0 0 3-3V9.621c0-.398-.157-.779-.44-1.06z"/>
</svg>
