<svg xmlns="http://www.w3.org/2000/svg" width="30" height="30" viewBox="0 0 30 30">
    <path fill="#FFF" fill-rule="evenodd" d="M22.551 15.606c-1.494 1.518-2.176 3.702-1.822 5.846l.655 3.983-3.435-1.88a6.156 6.156 0 0 0-2.949-.76 6.158 6.158 0 0 0-2.95.76l-3.435 1.88.657-3.983c.352-2.144-.33-4.328-1.824-5.846L4.67 12.785l3.84-.582c2.065-.312 3.849-1.662 4.773-3.613L15 4.965l1.718 3.625c.922 1.95 2.707 3.3 4.771 3.613l3.842.582-2.78 2.821zm6.626-1.456c1.611-1.637.723-4.489-1.505-4.826l-5.66-.856a2.722 2.722 0 0 1-2.045-1.549l-2.532-5.342C16.937.525 15.968 0 15 0c-.969 0-1.938.525-2.436 1.577l-2.53 5.342a2.727 2.727 0 0 1-2.045 1.549l-5.66.856C.1 9.661-.79 12.513.821 14.15l4.097 4.159a2.9 2.9 0 0 1 .781 2.503l-.967 5.875C4.431 28.515 5.826 30 7.409 30c.417 0 .849-.103 1.264-.331l5.063-2.774c.396-.216.83-.326 1.264-.326.434 0 .867.11 1.263.326l5.064 2.774c.416.228.846.331 1.263.331 1.583 0 2.978-1.485 2.676-3.313l-.966-5.875a2.898 2.898 0 0 1 .78-2.503l4.097-4.16z"/>
</svg>
