<svg xmlns="http://www.w3.org/2000/svg" width="30" height="30" viewBox="0 0 30 30">
    <path fill="#4A4A4A" fill-rule="evenodd" d="M22.551 15.606c-1.494 1.518-2.176 3.702-1.822 5.845l.655 3.985-3.435-1.881a6.156 6.156 0 0 0-2.949-.76 6.158 6.158 0 0 0-2.95.76l-3.435 1.88.657-3.983c.352-2.144-.33-4.328-1.824-5.846L4.67 12.784l3.84-.582c2.065-.312 3.849-1.662 4.773-3.611L15 4.965l1.718 3.626c.922 1.95 2.707 3.3 4.771 3.612l3.842.582-2.78 2.821zm6.626-1.457c1.611-1.636.723-4.487-1.505-4.825l-5.66-.857a2.722 2.722 0 0 1-2.045-1.548l-2.532-5.342C16.937.525 15.968 0 15 0c-.969 0-1.938.525-2.436 1.577l-2.53 5.343a2.727 2.727 0 0 1-2.045 1.547l-5.66.857C.1 9.662-.79 12.513.821 14.149l4.097 4.16a2.9 2.9 0 0 1 .781 2.503l-.967 5.874C4.431 28.515 5.826 30 7.409 30c.417 0 .849-.104 1.264-.331l5.063-2.774c.396-.216.83-.325 1.264-.325.434 0 .867.109 1.263.325l5.064 2.774c.416.227.846.331 1.263.331 1.583 0 2.978-1.485 2.676-3.314l-.966-5.873a2.898 2.898 0 0 1 .78-2.504l4.097-4.16z"/>
</svg>
